<?xml version="1.0" encoding="UTF-8" standalone="no"?>
<!-- Created with Inkscape (http://www.inkscape.org/) -->

<svg
   version="1.1"
   id="svg1863"
   width="300"
   height="250"
   viewBox="0 0 300 250"
   sodipodi:docname="kids_trout.svg"
   inkscape:version="1.1.2 (0a00cf5339, 2022-02-04)"
   xmlns:inkscape="http://www.inkscape.org/namespaces/inkscape"
   xmlns:sodipodi="http://sodipodi.sourceforge.net/DTD/sodipodi-0.dtd"
   xmlns="http://www.w3.org/2000/svg"
   xmlns:svg="http://www.w3.org/2000/svg">
  <defs
     id="defs1867" />
  <sodipodi:namedview
     id="namedview1865"
     pagecolor="#ffffff"
     bordercolor="#666666"
     borderopacity="1.0"
     inkscape:pageshadow="2"
     inkscape:pageopacity="0.0"
     inkscape:pagecheckerboard="0"
     showgrid="false"
     inkscape:zoom="2.1665752"
     inkscape:cx="118.15884"
     inkscape:cy="129.00545"
     inkscape:window-width="1920"
     inkscape:window-height="938"
     inkscape:window-x="1536"
     inkscape:window-y="27"
     inkscape:window-maximized="1"
     inkscape:current-layer="g1869" />
  <g
     inkscape:groupmode="layer"
     inkscape:label="Image"
     id="g1869">
    <g
       id="g2053"
       transform="translate(-0.85584443,2.9966894)">
      <path
         style="fill:#fdfbc7"
         d="M 1.0683669,122.73943 V -2.2605748 h 150.0000031 150 v 125.0000048 125 h -150 H 1.0683669 Z M 205.10437,198.72106 c 2.17598,-1.1101 8.71957,-3.16624 14.54132,-4.56921 9.5544,-2.30248 12.06188,-2.50976 25.75384,-2.12894 8.34286,0.23205 19.96219,0.98024 25.82072,1.66265 9.21269,1.07312 11.70024,1.02395 18.41101,-0.36386 8.6896,-1.79705 10.66945,-2.95663 10.23537,-5.99476 -0.24449,-1.7112 -0.9292,-2.04984 -3.79826,-1.87854 -1.925,0.11493 -8.56663,0.51538 -14.75918,0.88989 -7.9406,0.48022 -13.54074,0.27125 -19,-0.70897 -11.53851,-2.07178 -30.78703,-1.60511 -41.74082,1.01199 -13.17855,3.14863 -21.03229,5.92383 -23.03879,8.14098 -1.69559,1.87361 -1.69394,2.0425 0.0388,3.95714 2.24296,2.47845 2.64376,2.47747 7.536,-0.0184 z M 70.074969,191.64315 c 1.921369,-0.60295 8.893398,-1.39045 15.493398,-1.75 l 12,-0.65372 v -3 c 0,-2.7963 -0.33254,-3.06418 -4.897417,-3.94514 -3.733217,-0.72046 -7.417834,-0.50087 -15.5,0.92377 -17.578387,3.09852 -17.489546,3.09966 -21.788163,-0.27837 -2.097931,-1.64864 -4.867684,-3.3114 -6.155006,-3.69503 -3.558241,-1.06038 -15.187666,1.40568 -19.409414,4.11584 -3.905437,2.50709 -4.582132,4.1468 -2.55,6.17893 1.698812,1.69881 3.795023,1.49677 8.3,-0.8 2.300155,-1.17269 5.897178,-2 8.695665,-2 3.893069,0 5.374725,0.54755 8.038558,2.97069 2.778327,2.52728 4.087693,2.97506 8.772379,3 3.028631,0.0161 7.078631,-0.46402 9,-1.06697 z m 86.642911,-55.16491 c 2.66777,-1.79366 6.98799,-4.51263 9.60049,-6.04216 2.6125,-1.52953 4.75,-3.43699 4.75,-4.2388 0,-1.16994 1.97488,-1.48747 10,-1.60785 5.5,-0.0825 10.5625,-0.195 11.25,-0.25 0.80447,-0.0644 1.60901,2.39495 2.25725,6.9 0.88503,6.15065 1.28218,7.03914 3.27311,7.32258 1.24622,0.17742 4.33714,-0.83508 6.8687,-2.25 2.53157,-1.41492 5.60142,-2.57258 6.82191,-2.57258 1.22048,0 2.94661,-0.80394 3.83585,-1.78654 2.50325,-2.76606 5.87259,-11.07039 5.27069,-12.99057 -0.41292,-1.31732 0.98226,-2.53276 5.92681,-5.16328 3.55678,-1.89222 7.82335,-4.67935 9.48127,-6.19363 2.6343,-2.40606 3.01441,-3.4283 3.01441,-8.106665 0,-4.870818 -0.33806,-5.68237 -3.75,-9.002328 -2.0625,-2.006898 -6.90753,-4.989051 -10.76673,-6.627007 -11.8715,-5.038609 -18.70439,-6.129985 -38.37866,-6.129985 -9.7742,0 -18.07226,-0.300982 -18.44013,-0.668848 -0.36786,-0.367867 0.0769,-1.492867 0.98833,-2.5 1.54556,-1.707832 1.53527,-1.965843 -0.15281,-3.831152 -0.99549,-1.1 -2.42935,-2 -3.18637,-2 -1.57794,0 -2.12208,-1.202802 -4.28906,-9.480702 -1.77624,-6.785243 -3.90684,-8.500591 -10.52457,-8.473347 -4.25266,0.01751 -6.612,1.251573 -17.82355,9.322716 -6.92817,4.987558 -10.58608,10.227889 -12.13269,17.381333 -0.38647,1.7875 -0.77942,3.286397 -0.87322,3.330882 -0.1592,0.0755 -6.50032,0.491973 -42.170543,2.76965 -8.211973,0.524365 -15.475285,1.514451 -17.568399,2.394806 -4.127533,1.736023 -5.792782,1.137366 -13.766358,-4.949001 -4.251402,-3.245169 -5.035472,-3.486327 -9.752231,-2.999515 -3.997343,0.412563 -5.767271,0.108684 -8.021075,-1.377135 -5.934906,-3.912585 -9.918175,-1.826089 -14.744185,7.723225 -1.656884,3.278506 -3.248131,17.844663 -4.0028324,36.641623 -0.3440949,8.5702 -0.1321031,11.08543 1.0324684,12.25 1.130521,1.13052 4.31419,1.46547 13.929224,1.46547 15.279916,0 15.422752,-0.0705 27.09677,-13.38251 2.31186,-2.63623 4.582355,-4.55893 5.045545,-4.27266 1.607055,0.99321 21.487344,4.65517 25.272322,4.65517 3.794455,0 3.810282,0.0172 5.64194,6.14205 2.533901,8.47303 3.333372,8.80077 14.556984,5.9675 12.45957,-3.14528 18.30407,-6.00119 18.20043,-8.89361 -0.0898,-2.50614 1.17857,-2.66472 12.64721,-1.58124 4.78233,0.4518 6.82123,1.09414 7.5,2.36279 6.32415,11.82014 7.88063,14.00251 9.98669,14.00251 0.68449,0 3.42724,-1.46754 6.09501,-3.26119 z m -6.13068,-8.70241 -1.57019,-3.0364 6.27568,0.0304 c 5.17014,0.025 5.92336,0.22808 4.27568,1.1525 -1.1,0.61715 -3.21747,1.96984 -4.70549,3.00599 l -2.7055,1.88391 -1.57018,-3.03641 z m -55.849224,-2.19182 c -0.324656,-1.24148 -0.439029,-2.40849 -0.254163,-2.59336 0.184866,-0.18486 4.104517,-0.20452 8.710337,-0.0437 l 8.37422,0.29248 -5,1.6511 c -9.4575,3.12304 -11.168818,3.22336 -11.830394,0.69348 z M 22.22054,118.98943 c 0.388041,-4.2625 0.789296,-8.2 0.891677,-8.75 0.370665,-1.99124 1.842308,7.11681 1.89852,11.75 0.04739,3.90594 -0.258081,4.75 -1.719048,4.75 -1.610095,0 -1.710527,-0.72665 -1.071149,-7.75 z m 186.559,4.31523 c -1.65619,-1.24296 -1.5635,-1.42106 1.25,-2.40185 3.26102,-1.1368 3.78269,-0.52456 1.78883,2.09936 -1.06407,1.40031 -1.51607,1.4453 -3.03883,0.30249 z m -163.711173,-8.9472 c 0,-1.375 0.45,-2.77811 1,-3.11803 0.564809,-0.34907 1,0.46994 1,1.88197 0,1.375 -0.45,2.77811 -1,3.11803 -0.564809,0.34907 -1,-0.46994 -1,-1.88197 z m 78.753923,1.39091 c -8.11034,-0.36727 -15.08534,-1.0254 -15.5,-1.46253 -0.41465,-0.43712 6.89608,-0.40138 16.24608,0.0794 9.35,0.4808 20.44571,0.87226 24.65714,0.86992 4.21143,-0.002 7.44737,0.33516 7.19098,0.75 -0.51799,0.83813 -10.45012,0.76597 -32.5942,-0.2368 z m 48.99608,0.25885 c 2.3375,-0.21053 6.1625,-0.21053 8.5,0 2.3375,0.21054 0.425,0.3828 -4.25,0.3828 -4.675,0 -6.5875,-0.17226 -4.25,-0.3828 z m 24.61939,-3.92468 c -5.96455,-2.00004 -7.58277,-3.04351 -9.89562,-6.38096 l -2.765,-3.9899 1.89334,-4.236131 c 1.04134,-2.329868 3.88819,-6.187523 6.32634,-8.572567 4.26075,-4.167951 4.61053,-4.310986 9.00227,-3.681261 11.92083,1.709308 22.94283,5.856722 27.81928,10.467976 2.33871,2.211518 2.59602,2.983368 1.73954,5.217943 -0.38806,1.01246 -2.71045,1.24633 -9.68559,0.97536 -7.83436,-0.30434 -9.36156,-0.10148 -10.4508,1.38814 -1.62552,2.22303 -0.0688,5.46829 2.62302,5.46829 3.66817,0 2.99899,1.84323 -1.21978,3.3598 -6.91865,2.48712 -7.92338,2.48603 -15.387,-0.0167 z m 11.63061,-20.343115 c 0,-2.51538 -2.99486,-4.142011 -5.27582,-2.865518 -3.88638,2.174928 -0.43003,7.848826 3.5,5.745542 0.9767,-0.522715 1.77582,-1.818726 1.77582,-2.880024 z m -43.90341,11.085165 c 5.8712,-0.358 10.23844,-1.11794 11.25,-1.9576 0.90938,-0.75485 1.65341,-0.911375 1.65341,-0.34783 0,1.89686 -6.24219,3.22141 -14.39922,3.05543 l -8.10078,-0.16485 z M 45.147314,98.156095 c 0.04798,-1.164946 0.284941,-1.401903 0.604167,-0.60417 0.288871,0.72187 0.253344,1.58437 -0.07895,1.91667 -0.332292,0.33229 -0.568641,-0.25834 -0.52522,-1.3125 z M 148.81837,94.00722 c 2.3375,-0.210535 6.1625,-0.210535 8.5,0 2.3375,0.210535 0.425,0.382791 -4.25,0.382791 -4.675,0 -6.5875,-0.172256 -4.25,-0.382791 z m -20.75,-6.273827 c 4.5791,-0.860588 13.67501,-1.298779 12.91667,-0.622254 -0.22917,0.204443 -4.24167,0.618373 -8.91667,0.919845 -6.17603,0.398268 -7.26966,0.316904 -4,-0.297591 z m 15.02465,-1.318511 c 1.01261,-0.941371 43.19074,-1.832982 42.61464,-0.900839 -0.33332,0.539334 -9.75205,1.03341 -21.83805,1.145554 -11.68857,0.108457 -21.03803,-0.0017 -20.77659,-0.244715 z m -15.02465,-7.59367 c 0,-0.505016 0.27822,-1.643242 0.61827,-2.52939 0.55548,-1.447572 0.75534,-1.430491 1.96819,0.168213 1.87916,2.476989 1.73567,3.27939 -0.58646,3.27939 -1.1,0 -2,-0.413196 -2,-0.918213 z m 154,-51.167997 c 0,-2.448281 -3.97179,-4.276663 -12.74676,-5.867868 -8.70466,-1.578457 -35.20376,0.308293 -36.96449,2.631892 -0.86812,1.145641 -0.91682,2.148632 -0.17189,3.540538 0.98938,1.848682 1.88916,1.911381 18.71125,1.303856 13.51995,-0.488269 18.84662,-0.315569 22.67189,0.735061 5.6298,1.546255 8.5,0.754931 8.5,-2.343479 z M 70.180987,25.547965 c 7.512541,-1.962882 10.734225,-2.180071 30.887383,-2.08227 50.37934,0.244486 62.3357,0.184292 63.14829,-0.317917 1.55693,-0.962239 0.87985,-4.322927 -1.08255,-5.373169 -1.11378,-0.596077 -9.2793,-1.046128 -19.25,-1.060984 -9.52366,-0.01419 -21.80001,-0.461767 -27.28079,-0.994617 -6.3944,-0.621675 -15.36232,-0.625727 -25.027928,-0.01131 -25.418911,1.615811 -37.479373,5.659379 -32.307025,10.831727 1.535062,1.535062 1.08708,1.575763 10.91262,-0.99146 z"
         id="path2069" />
      <path
         style="fill:#0dfcfb"
         d="m 197.56837,198.73943 c -1.73273,-1.91464 -1.73438,-2.08353 -0.0388,-3.95714 2.0065,-2.21715 9.86024,-4.99235 23.03879,-8.14098 10.95379,-2.6171 30.20231,-3.08377 41.74082,-1.01199 5.45926,0.98022 11.0594,1.18919 19,0.70897 6.19255,-0.37451 12.83418,-0.77496 14.75918,-0.88989 2.86906,-0.1713 3.55377,0.16734 3.79826,1.87854 0.43408,3.03813 -1.54577,4.19771 -10.23537,5.99476 -6.71077,1.38781 -9.19832,1.43698 -18.41101,0.36386 -5.85853,-0.68241 -17.47786,-1.4306 -25.82072,-1.66265 -13.69196,-0.38082 -16.19944,-0.17354 -25.75384,2.12894 -5.82175,1.40297 -12.36534,3.45911 -14.54132,4.56921 -4.89224,2.49584 -5.29304,2.49682 -7.536,0.0184 z M 52.30259,189.71012 c -2.663833,-2.42314 -4.145489,-2.97069 -8.038558,-2.97069 -2.798487,0 -6.39551,0.82731 -8.695665,2 -4.504977,2.29677 -6.601188,2.49881 -8.3,0.8 -2.032132,-2.03213 -1.355437,-3.67184 2.55,-6.17893 4.221748,-2.71016 15.851173,-5.17622 19.409414,-4.11584 1.287322,0.38363 4.057075,2.04639 6.155006,3.69503 4.298617,3.37803 4.209776,3.37689 21.788163,0.27837 8.082166,-1.42464 11.766783,-1.64423 15.5,-0.92377 4.564877,0.88096 4.897417,1.14884 4.897417,3.94514 v 3 l -12,0.65372 c -6.6,0.35955 -13.572029,1.14705 -15.493398,1.75 -1.921369,0.60295 -5.971369,1.08309 -9,1.06697 -4.684686,-0.0249 -5.994052,-0.47272 -8.772379,-3 z m 92.51578,-74.69409 c 1.7875,-0.22182 4.7125,-0.22182 6.5,0 1.7875,0.22183 0.325,0.40333 -3.25,0.40333 -3.575,0 -5.0375,-0.1815 -3.25,-0.40333 z m -43,-0.98233 c 1.2375,-0.23836 3.2625,-0.23836 4.5,0 1.2375,0.23835 0.225,0.43337 -2.25,0.43337 -2.475,0 -3.4875,-0.19502 -2.25,-0.43337 z m 25.0625,0.0226 c 0.72187,-0.28887 1.58438,-0.25335 1.91667,0.0789 0.33229,0.3323 -0.25834,0.56864 -1.3125,0.52522 -1.16495,-0.048 -1.4019,-0.28494 -0.60417,-0.60416 z m 17.76989,-50.632992 c -0.98993,-0.723854 -1.63228,-2.186354 -1.42744,-3.25 0.30865,-1.602645 1.22415,-1.933883 5.34505,-1.933883 4.1209,0 5.0364,0.331238 5.34505,1.933903 0.43211,2.243801 -2.28635,4.566097 -5.34505,4.566097 -1.16476,0 -2.92768,-0.592244 -3.91761,-1.316097 z M 273.56837,29.996694 c -3.82527,-1.05063 -9.15194,-1.22333 -22.67189,-0.735061 -16.82209,0.607525 -17.72187,0.544826 -18.71125,-1.303856 -0.74493,-1.391906 -0.69623,-2.394897 0.17189,-3.540538 1.76073,-2.323599 28.25983,-4.210349 36.96449,-2.631892 8.77497,1.591205 12.74676,3.419587 12.74676,5.867868 0,3.09841 -2.8702,3.889734 -8.5,2.343479 z M 59.268367,26.539425 c -5.172348,-5.172348 6.888114,-9.215916 32.307025,-10.831728 9.665608,-0.614416 18.633528,-0.610364 25.027928,0.01131 5.48078,0.53285 17.75713,0.980427 27.28079,0.994617 9.9707,0.01486 18.13622,0.464907 19.25,1.060984 1.9624,1.050242 2.63948,4.41093 1.08255,5.373169 -0.81259,0.50221 -12.76895,0.562404 -63.14829,0.317918 -20.153158,-0.0978 -23.374842,0.119388 -30.887383,2.08227 -9.82554,2.567223 -9.377558,2.526522 -10.91262,0.99146 z"
         id="path2067" />
      <path
         style="fill:#e8c415"
         d="m 18.068367,126.76822 c -2.268367,-0.55421 -2.528369,-1.15925 -2.806179,-6.53011 -0.168399,-3.25562 0.391618,-8.86217 1.244482,-12.45899 0.852864,-3.59683 1.945598,-10.699247 2.428298,-15.783144 0.900332,-9.482485 2.062191,-12.256551 5.133399,-12.256551 3.458623,0 4.383265,2.58486 2.557188,7.148678 -1.219073,3.046762 -1.701351,7.565192 -1.789028,16.761277 -0.06602,6.92453 -0.391501,11.01505 -0.723291,9.09005 l -0.603254,-3.5 -0.720807,3.375 c -0.396445,1.85625 -0.727699,5.45625 -0.736121,8 -0.01898,5.73139 -0.796823,6.93267 -3.984687,6.15379 z m 33,-5.40635 c 0,-0.20765 0.7875,-0.99515 1.75,-1.75 1.586056,-1.24387 1.621426,-1.2085 0.377555,0.37756 -1.306369,1.66575 -2.127555,2.19548 -2.127555,1.37244 z m 8.8125,-13.30555 c 0.721875,-0.28887 1.584375,-0.25335 1.916667,0.0789 0.332291,0.3323 -0.258334,0.56864 -1.3125,0.52522 -1.164943,-0.048 -1.4019,-0.28494 -0.604167,-0.60416 z m 90.187503,-4.35692 c -1.47764,-0.49688 1.58946,-0.60691 7.5,-0.26906 5.5,0.31439 10.1875,0.73755 10.41667,0.94035 0.84939,0.75168 -15.50752,0.13883 -17.91667,-0.67129 z m -53.71349,-0.70005 c 3.182582,-0.19905 8.13258,-0.1972 11,0.004 2.86742,0.20131 0.26349,0.36417 -5.78651,0.36191 -6.050003,-0.002 -8.396072,-0.16696 -5.21349,-0.36601 z m 27.98252,0.0471 c 0.97297,-0.25354 2.32297,-0.23687 3,0.037 0.67703,0.27393 -0.11903,0.48137 -1.76903,0.46099 -1.65,-0.0204 -2.20394,-0.2445 -1.23097,-0.49804 z m 46.73097,-0.30702 c -2.32726,-0.74532 -2.34861,-0.80753 -0.30902,-0.90032 1.20504,-0.0548 2.4691,0.35032 2.80902,0.90032 0.33992,0.55 0.47898,0.95514 0.30902,0.90032 -0.16996,-0.0548 -1.43402,-0.45997 -2.80902,-0.90032 z M 60.068328,100.52797 c 2.6e-5,-1.143155 1.245263,-2.024975 3.750039,-2.655625 5.459855,-1.374671 40.262343,-3.101404 74.750003,-3.708737 16.5,-0.290568 32.925,-0.617378 36.5,-0.726244 6.31019,-0.192159 6.5,-0.125336 6.5,2.288366 0,3.191045 -3.02175,3.950525 -3.80476,0.956279 -0.52202,-1.996206 -0.99007,-2.10566 -6.3793,-1.491801 -3.19877,0.364354 -14.81594,1.096898 -25.81594,1.627875 -11,0.530977 -24.95,1.392932 -31,1.915452 -6.05,0.52252 -20.787521,1.525115 -32.750042,2.227965 -20.358849,1.19619 -21.750037,1.16846 -21.75,-0.43353 z M 130.12034,87.792708 c -0.93678,-0.592653 0.12241,-0.715202 3,-0.347101 2.44642,0.312945 4.63553,0.732077 4.8647,0.931405 0.93802,0.815882 -6.52828,0.261177 -7.8647,-0.584304 z m 50.76053,-1.736397 c 0.72187,-0.288871 1.58437,-0.253344 1.91667,0.07895 0.33229,0.332292 -0.25834,0.568641 -1.3125,0.52522 -1.16495,-0.04798 -1.4019,-0.284941 -0.60417,-0.604167 z m -42.0625,-9.979167 c 0.6875,-0.277412 1.8125,-0.277412 2.5,0 0.6875,0.277413 0.125,0.504386 -1.25,0.504386 -1.375,0 -1.9375,-0.226973 -1.25,-0.504386 z m 18,-2 c 0.6875,-0.277412 1.8125,-0.277412 2.5,0 0.6875,0.277413 0.125,0.504386 -1.25,0.504386 -1.375,0 -1.9375,-0.226973 -1.25,-0.504386 z m 6.80764,-5.24446 c -0.30822,-0.498708 0.34022,-0.671224 1.44098,-0.383369 2.33499,0.610613 2.63015,1.29011 0.5604,1.29011 -0.79254,0 -1.69316,-0.408034 -2.00138,-0.906741 z"
         id="path2065" />
      <path
         style="fill:#bf039a"
         d="m 92.818367,135.07715 c 0.6875,-0.27741 1.8125,-0.27741 2.5,0 0.6875,0.27741 0.125,0.50439 -1.25,0.50439 -1.375,0 -1.9375,-0.22698 -1.25,-0.50439 z M 15.836276,134.0147 c 1.79735,-0.22256 4.49735,-0.21797 6,0.0102 1.50265,0.22818 0.03209,0.41027 -3.267909,0.40466 -3.3,-0.006 -4.529441,-0.1923 -2.732091,-0.41486 z m -6.6889617,-4.8586 c 0.047984,-1.16495 0.2849403,-1.4019 0.6041666,-0.60417 0.2888711,0.72187 0.2533441,1.58437 -0.078947,1.91667 -0.3322917,0.33229 -0.5686404,-0.25834 -0.5252196,-1.3125 z M 194.22626,127.73943 c 0,-1.375 0.22698,-1.9375 0.50439,-1.25 0.27741,0.6875 0.27741,1.8125 0,2.5 -0.27741,0.6875 -0.50439,0.125 -0.50439,-1.25 z M 21.880867,127.05632 c 0.721875,-0.28887 1.584375,-0.25335 1.916667,0.0789 0.332291,0.33229 -0.258334,0.56864 -1.3125,0.52522 -1.164943,-0.048 -1.4019,-0.28494 -0.604167,-0.60416 z M 151.79607,124.0177 c 1.77523,-0.22091 4.92523,-0.22454 7,-0.008 2.07476,0.21648 0.6223,0.39722 -3.2277,0.40166 -3.85,0.004 -5.54754,-0.17268 -3.7723,-0.39359 z m 23.5223,-0.0133 c 2.6125,-0.206 6.8875,-0.206 9.5,0 2.6125,0.206 0.475,0.37454 -4.75,0.37454 -5.225,0 -7.3625,-0.16854 -4.75,-0.37454 z m -42.5,-0.92724 c 0.6875,-0.27741 1.8125,-0.27741 2.5,0 0.6875,0.27741 0.125,0.50439 -1.25,0.50439 -1.375,0 -1.9375,-0.22698 -1.25,-0.50439 z M 98.318367,122.0044 c 2.612503,-0.206 6.887503,-0.206 9.500003,0 2.6125,0.206 0.475,0.37454 -4.75,0.37454 -5.225003,0 -7.362503,-0.16854 -4.750003,-0.37454 z m -59.245546,-1.75959 c -0.871285,-1.04984 -1.058876,-3.65381 -0.630352,-8.75 0.335545,-3.99046 0.225263,-11.08038 -0.245072,-15.755385 -0.74919,-7.446741 -0.639394,-8.729287 0.886073,-10.350388 2.568303,-2.729313 5.984897,-0.68242 5.984897,3.585572 0,2.461524 0.266667,2.898149 1.2,1.964816 1.746562,-1.746562 4.591676,-1.468552 5.628616,0.55 0.494442,0.9625 1.189693,6.75373 1.545003,12.869415 0.550903,9.48225 0.411381,11.31413 -0.947623,12.44201 -2.165557,1.79725 -4.828271,0.056 -5.244054,-3.42924 -0.465408,-3.90123 -2.181942,-2.14937 -2.181942,2.22684 0,5.47797 -3.228745,7.98014 -5.995546,4.64635 z m 6.67866,-22.692875 c -0.319226,-0.797733 -0.556183,-0.560776 -0.604167,0.60417 -0.04342,1.05416 0.192928,1.64479 0.52522,1.3125 0.332291,-0.3323 0.367818,-1.1948 0.07895,-1.91667 z M 150.83003,117.03218 c 1.24391,-0.23919 3.04391,-0.23011 4,0.0202 0.95609,0.25029 -0.0617,0.446 -2.26166,0.4349 -2.2,-0.0111 -2.98225,-0.21589 -1.73834,-0.45508 z m 22.02186,-0.0311 c 2.90594,-0.20265 7.40594,-0.20052 10,0.005 2.59406,0.20525 0.21648,0.37104 -5.28352,0.36844 -5.5,-0.003 -7.62242,-0.17053 -4.71648,-0.37317 z m -39.03352,-0.92393 c 0.6875,-0.27741 1.8125,-0.27741 2.5,0 0.6875,0.27741 0.125,0.50439 -1.25,0.50439 -1.375,0 -1.9375,-0.22698 -1.25,-0.50439 z m -33.46983,-1.07399 c 2.6291,-0.20668 6.6791,-0.20418 9,0.006 2.32091,0.20972 0.16983,0.37882 -4.78017,0.37577 -4.950003,-0.003 -6.848925,-0.17464 -4.21983,-0.38131 z m 73.96983,0.02 c 1.5125,-0.22913 3.9875,-0.22913 5.5,0 1.5125,0.22912 0.275,0.41659 -2.75,0.41659 -3.025,0 -4.2625,-0.18747 -2.75,-0.41659 z M 10.32055,109.23943 c 0.0111,-2.2 0.215884,-2.98225 0.455078,-1.73834 0.239193,1.24391 0.230112,3.04391 -0.02018,4 -0.250292,0.95609 -0.445996,-0.0617 -0.434897,-2.26166 z m 209.99782,-7.21625 c 1.5125,-0.22913 3.9875,-0.22913 5.5,0 1.5125,0.22912 0.275,0.41659 -2.75,0.41659 -3.025,0 -4.2625,-0.18747 -2.75,-0.41659 z m -102,-13.973081 c 0.9625,-0.251527 2.5375,-0.251527 3.5,0 0.9625,0.251528 0.175,0.457323 -1.75,0.457323 -1.925,0 -2.7125,-0.205795 -1.75,-0.457323 z m 21.5625,-1.993788 c 0.72187,-0.288871 1.58437,-0.253344 1.91667,0.07895 0.33229,0.332292 -0.25834,0.568641 -1.3125,0.52522 -1.16495,-0.04798 -1.4019,-0.284941 -0.60417,-0.604167 z m 14.94916,-1.024147 c 1.24391,-0.239193 3.04391,-0.230112 4,0.02018 0.95609,0.250292 -0.0617,0.445996 -2.26166,0.434897 -2.2,-0.0111 -2.98225,-0.215885 -1.73834,-0.455077 z m -57.492631,-2.98573 c 0.972967,-0.253543 2.322967,-0.236869 3.000001,0.03705 0.67703,0.273927 -0.11903,0.481372 -1.769033,0.460992 -1.65,-0.02038 -2.203936,-0.244498 -1.230968,-0.498042 z m 20.730971,-0.974587 c 0.825,-0.347771 1.87176,-1.127335 2.32613,-1.732366 0.53136,-0.707539 0.6802,-0.564832 0.41713,0.399944 -0.22494,0.825 -1.2717,1.604565 -2.32613,1.732366 -1.34704,0.163268 -1.47108,0.04434 -0.41713,-0.399944 z"
         id="path2063" />
      <path
         style="fill:#0145f9"
         d="m 76.086636,114.77357 c -1.698276,-3.17326 2.10877,-4.73625 15.981731,-6.56133 10.160723,-1.33671 17.178573,-1.52186 37.500003,-0.98936 16.04259,0.42038 26.88177,0.28112 30.25199,-0.38867 6.60693,-1.31304 10.53543,-0.10745 10.06735,3.08951 -0.56088,3.83078 -4.53264,4.26951 -36.66972,4.05061 -22.64588,-0.15425 -32.86175,0.17048 -40.243421,1.27919 -13.228275,1.98686 -15.603869,1.91934 -16.887933,-0.47995 z M 133.90871,69.047044 c -3.39673,-4.092808 3.93479,-7.69204 10.95144,-5.376339 3.26283,1.076833 4.57915,1.022094 8.64903,-0.359666 2.64027,-0.896393 5.64619,-1.361388 6.67984,-1.033322 2.40618,0.763694 2.49426,5.065661 0.12935,6.318211 -2.83376,1.500875 -25.22107,1.883283 -26.40966,0.451116 z"
         id="path2061" />
      <path
         style="fill:#fb3a02"
         d="m 30.565587,132.73493 c -0.380324,-0.61538 -1.791092,-1.53693 -3.13504,-2.0479 -2.100293,-0.79853 -2.423659,-1.52734 -2.302,-5.18832 0.07785,-2.3426 0.06143,-11.05312 -0.03648,-19.35671 -0.136069,-11.539118 0.178726,-15.951275 1.335627,-18.720129 1.452981,-3.477472 1.636698,-3.579794 4.583195,-2.55264 2.030885,0.70797 3.293296,1.961567 3.73081,3.704762 0.363699,1.449093 0.698487,12.091627 0.743972,23.650077 0.08181,20.7891 0.05949,21.01867 -2.072939,21.32255 -1.185602,0.16895 -2.466815,-0.19631 -2.84714,-0.81169 z m 28.50278,-27.47645 c 0,-3.1614 -0.251587,-3.11629 25.5,-4.57207 11.55,-0.65294 25.500003,-1.565665 31.000003,-2.028265 5.5,-0.4626 19,-1.283074 30,-1.82328 11,-0.540207 22.58573,-1.276653 25.74607,-1.636548 5.39496,-0.61437 5.80013,-0.510896 6.63071,1.693377 0.7362,1.953811 0.46469,2.573561 -1.61817,3.693646 -3.69046,1.98459 -30.15643,3.16187 -55.75861,2.4803 -23.173557,-0.61691 -42.659249,0.56546 -52.500003,3.18563 -7.80711,2.07871 -9,1.94712 -9,-0.99279 z m 1,-8.865062 c 0,-2.100042 0.673749,-2.753515 3.75,-3.637151 2.0625,-0.592441 6.45,-1.300582 9.75,-1.573645 3.3,-0.273064 7.35,-0.757952 9,-1.07753 4.248535,-0.82287 54.860873,-2.513086 80.985673,-2.704543 20.69279,-0.151649 22.00674,-0.05197 22.34378,1.695096 0.78497,4.068833 3.14357,3.860226 -64.32945,5.689649 -37.915896,1.028029 -56.438844,2.098309 -59.750003,3.452431 -1.39731,0.57144 -1.75,0.19975 -1.75,-1.844307 z M 130.63893,76.853587 c -0.57973,-0.938013 -0.11975,-4.393162 1.08021,-8.114162 0.42144,-1.306852 0.59813,-1.296294 1.37215,0.082 0.75877,1.351125 2.82855,1.524551 14.18275,1.188365 19.4101,-0.574712 19.90225,-0.562438 20.98811,0.523418 1.68701,1.687013 0.42325,4.616899 -2.42321,5.617947 -2.12795,0.748359 -3.13165,0.571479 -4.67313,-0.823541 -1.35464,-1.225939 -2.8363,-1.591604 -4.78028,-1.179748 -1.54944,0.328268 -7.14226,1.035838 -12.42848,1.572377 -5.28623,0.536538 -10.30321,1.241026 -11.14885,1.565529 -0.84564,0.324502 -1.82181,0.13002 -2.16927,-0.432182 z"
         id="path2059" />
      <path
         style="fill:#0faa01"
         d="m 17.880867,127.05632 c 0.721875,-0.28887 1.584375,-0.25335 1.916667,0.0789 0.332291,0.33229 -0.258334,0.56864 -1.3125,0.52522 -1.164943,-0.048 -1.4019,-0.28494 -0.604167,-0.60416 z m 41.854167,-12.98356 c -1.284462,-1.28446 -0.650138,-4.27181 1.106707,-5.21204 8.631592,-4.61949 38.504353,-6.46233 80.046249,-4.93803 17.77344,0.65216 25.84863,0.57767 30,-0.27673 10.75513,-2.21354 13.10094,-2.27712 13.83092,-0.37482 1.06444,2.77388 -0.87265,4.67289 -6.1972,6.07534 -6.56947,1.73036 -8.45334,1.70099 -8.45334,-0.1318 0,-2.51217 -4.41678,-3.5391 -10.24801,-2.38273 -3.34715,0.66376 -14.50057,0.81406 -30.75199,0.4144 -28.67447,-0.70517 -41.698846,0.45635 -55.449416,4.94498 -7.712221,2.51753 -12.58721,3.17814 -13.88392,1.88143 z M 18.340731,91.739425 c 0,-2.475 0.195016,-3.4875 0.433369,-2.25 0.238353,1.2375 0.238353,3.2625 0,4.5 -0.238353,1.2375 -0.433369,0.225 -0.433369,-2.25 z M 132.9988,82.155602 c -2.72676,-3.285546 0.067,-4.829592 11.17535,-6.176407 13.89621,-1.684823 17.30118,-1.39483 17.71356,1.508618 0.4216,2.968348 -1.75904,3.734388 -14.61023,5.132447 -12.9914,1.413312 -12.71257,1.422386 -14.27868,-0.464658 z m 13.83123,-25.123438 c 1.24391,-0.239193 3.04391,-0.230112 4,0.02018 0.95609,0.250292 -0.0617,0.445996 -2.26166,0.434897 -2.2,-0.0111 -2.98225,-0.215885 -1.73834,-0.455077 z"
         id="path2057" />
      <path
         style="fill:#0a0a08"
         d="m 146.82751,136.48943 c -0.80898,-1.2375 -1.77816,-3.22186 -2.15373,-4.40969 -0.37558,-1.18784 -1.34044,-2.70544 -2.14414,-3.37245 -0.8037,-0.66701 -1.46127,-2.0014 -1.46127,-2.9653 0,-2.18578 -3.68834,-3.00256 -13.55858,-3.00256 -7.12296,0 -7.31661,0.066 -7.625,2.59998 -0.24365,2.00204 -1.23633,2.93953 -4.31642,4.07642 -8.40003,3.10054 -18.150875,5.37654 -21.873286,5.10556 -3.802751,-0.27683 -3.9068,-0.39148 -5.713916,-6.29626 l -1.840634,-6.01431 -15.275001,-2.55142 -15.275002,-2.55143 -8.774591,8.94331 -8.774592,8.94332 -13.23649,-0.71386 c -7.28007,-0.39262 -13.660012,-1.12106 -14.177648,-1.61874 -0.587999,-0.56534 -0.518833,-8.94247 0.184326,-22.32483 0.984469,-18.73619 1.400864,-21.959749 3.323369,-25.728171 5.117663,-10.031448 8.251549,-11.858296 13.779092,-8.032299 3.633292,2.514855 5.977285,3.258272 6.681362,2.119051 1.252579,-2.026716 6.393561,-0.85666 11.113817,2.529437 9.013577,6.46593 9.435537,6.603553 14.958168,4.878643 2.695563,-0.841918 12.101023,-1.966859 20.901023,-2.49987 8.8,-0.533011 21.168523,-1.283081 27.485603,-1.666823 l 11.48561,-0.697713 0.58198,-3.596211 c 0.91044,-5.625875 4.56012,-12.47645 7.74147,-14.531028 1.5949,-1.030019 6.45606,-4.278963 10.80258,-7.219877 7.53685,-5.099534 8.13147,-5.32061 12.84239,-4.774656 5.86848,0.680105 7.12043,1.808053 7.90473,7.121772 0.5868,3.975602 0.56962,4.001066 -2.8167,4.174711 -2.42729,0.124468 -3.26411,-0.197926 -2.90987,-1.121061 0.80478,-2.097222 -2.49541,-4.55365 -6.11779,-4.55365 -3.42389,0 -6.5,2.102934 -6.5,4.44362 0,0.741836 -1.69956,1.572534 -3.9553,1.933241 -4.15421,0.664285 -4.48815,1.097164 -8.48222,10.995263 -1.97756,4.900765 -1.99594,6.73144 -0.0601,5.988603 0.86967,-0.333723 2.25632,0.354615 3.29272,1.634512 1.76809,2.183494 1.93243,2.196003 13.20336,1.004928 12.6126,-1.332862 16.00154,-2.256013 16.00154,-4.358839 0,-0.774496 1.125,-1.623231 2.5,-1.886079 1.375,-0.262848 2.5,-0.136509 2.5,0.280752 0,0.417262 9.1125,0.966157 20.25,1.219768 16.90192,0.384872 21.45609,0.81782 27.54473,2.618575 10.28302,3.041268 16.03022,5.950602 20.41308,10.333464 3.20753,3.207529 3.79219,4.451677 3.79219,8.069682 0,2.352635 -0.70368,5.282155 -1.56374,6.510055 -1.57484,2.2484 -9.70448,7.78124 -14.54662,9.90008 -2.12853,0.93141 -2.70613,1.99196 -3.12923,5.74562 -0.70207,6.22877 -4.93316,12.56676 -8.38927,12.56676 -1.43027,0 -4.8318,1.21443 -7.55896,2.69874 -6.50446,3.54017 -8.1962,2.60397 -8.62206,-4.77142 -0.17043,-2.95168 -0.78803,-5.94283 -1.37244,-6.64701 -0.74301,-0.89527 -4.29882,-1.28031 -11.82349,-1.28031 -9.77097,0 -10.80712,0.17666 -11.26309,1.92026 -0.63886,2.44303 -17.026,13.07974 -20.15092,13.07974 -1.33472,0 -2.98569,-0.97216 -3.82104,-2.25 z M 35.485666,112.22407 c -0.09397,-23.880225 -0.426214,-26.197794 -3.879895,-27.064613 -1.337675,-0.335735 -3.141195,-1.692589 -4.007823,-3.01523 -1.889271,-2.883392 -4.599075,-3.090481 -6.9175,-0.52865 -1.224827,1.353418 -1.953725,4.905825 -2.616102,12.75 -0.505014,5.980623 -1.385706,12.445883 -1.957093,14.367253 -1.426549,4.79697 -1.322259,16.32323 0.161114,17.8066 0.66,0.66 2.861855,1.2 4.893011,1.2 2.360186,0 3.90075,0.54136 4.268615,1.5 0.316583,0.825 1.209627,1.5 1.984544,1.5 0.774918,0 1.987163,0.69672 2.69388,1.54826 0.706716,0.85154 2.224317,1.41404 3.372445,1.25 2.04403,-0.29205 2.085783,-0.73594 2.004804,-21.31362 z M 156.88509,128.0446 c 2.0258,-1.48216 4.11078,-3.05716 4.63328,-3.5 0.5225,-0.44284 -2.28272,-0.80517 -6.23382,-0.80517 h -7.18382 l 1.66903,3.5 c 0.91797,1.925 2.06571,3.5 2.55054,3.5 0.48483,0 2.53899,-1.21267 4.56479,-2.69483 z m -51.42206,-2.34535 c 3.63294,-1.1221 6.60534,-2.4721 6.60534,-3 0,-0.542 -3.91784,-0.95982 -9,-0.95982 -9.338522,0 -9.962413,0.32843 -8.393014,4.41821 0.799207,2.0827 2.841545,1.99592 10.787674,-0.45839 z m 106.99835,-2.54161 c 1.09978,-2.86597 0.64113,-3.4645 -2.14301,-2.79659 -3.7886,0.90889 -4.04291,1.32542 -1.8073,2.96014 2.4824,1.81517 3.20244,1.78536 3.95031,-0.16355 z M 45.051584,118.763 c 1.805869,-2.53611 2.395673,-2.8039 3.986892,-1.81016 1.449186,0.90503 2.223865,0.8705 3.458509,-0.15417 1.355783,-1.1252 1.495504,-2.96446 0.945001,-12.43983 -0.753613,-12.97135 -1.436626,-14.869785 -5.192288,-14.431982 -2.136411,0.249045 -2.746331,-0.14514 -3.001169,-1.939626 -0.175911,-1.238705 -1.243237,-2.74638 -2.371835,-3.350387 -1.646854,-0.88137 -2.395781,-0.732858 -3.793224,0.752192 -1.525467,1.621101 -1.635263,2.903647 -0.886073,10.350388 0.470335,4.675005 0.580617,11.764925 0.245072,15.755375 -0.855233,10.17079 2.171857,13.49975 6.609115,7.2682 z m 111.691456,-2.87424 c 0.77358,-1.23871 2.84502,-2.05073 6.26437,-2.4557 2.80973,-0.33278 5.66039,-0.96248 6.33478,-1.39934 0.6744,-0.43686 4.11857,-1.49535 7.65372,-2.3522 3.53515,-0.85685 6.86927,-2.25819 7.40915,-3.11408 1.60693,-2.5475 0.0457,-4.82801 -3.30531,-4.82801 -3.69885,0 -3.78875,-0.61641 -0.47059,-3.226485 1.40843,-1.10787 2.32519,-2.62827 2.03724,-3.378662 -0.28796,-0.750392 0.35824,-1.836268 1.43598,-2.413059 1.47135,-0.787441 1.89805,-1.935797 1.71276,-4.609417 l -0.24677,-3.560707 -22,0.571581 c -12.1,0.314369 -26.05,1.037488 -31,1.60693 -4.95,0.569442 -17.325,1.481948 -27.5,2.027792 -22.640156,1.214544 -36.318831,2.527878 -41.166939,3.952572 l -3.666935,1.077588 -0.675369,7.225937 c -0.371452,3.97426 -0.521331,8.57593 -0.333064,10.22593 0.369149,3.23527 0.334529,3.22884 12.585818,2.3363 2.197107,-0.16007 3.678691,0.35884 4.592419,1.60844 1.196592,1.63643 2.185343,1.75845 8.756486,1.08055 8.553462,-0.8824 38.785814,-0.6364 53.407584,0.43458 16.65615,1.21999 16.91376,1.2085 18.17467,-0.81054 z m 29.90358,0.67445 c -3.32399,-1.92926 -14.78519,-2.22656 -17.07825,-0.443 -1.84586,1.43572 -1.19076,1.55572 8.5,1.55701 8.20569,10e-4 10.08008,-0.24233 8.57825,-1.11401 z m 27.92175,-4.90976 c 3.72671,-1.66422 4.49068,-2.32948 3,-2.61236 -6.18031,-1.17281 -6.5,-1.36072 -6.5,-3.82071 0,-2.85614 -0.33452,-2.77206 11.5,-2.89071 l 9,-0.0902 v -2.961765 c 0,-2.350881 -0.82503,-3.503621 -4,-5.588845 -6.93107,-4.552119 -20.00205,-8.833809 -27.21162,-8.913773 -3.83779,-0.04257 -10.9027,6.241814 -13.74075,12.222681 -3.23052,6.807962 0.765,12.248082 11.45237,15.593052 7.38851,2.31249 9.48996,2.19311 16.5,-0.93733 z M 202.70674,93.239425 c -0.92735,-2.416639 0.3975,-4.5 2.86163,-4.5 2.46413,0 3.78898,2.083361 2.86163,4.5 -0.31659,0.825 -1.60432,1.5 -2.86163,1.5 -1.25731,0 -2.54504,-0.675 -2.86163,-1.5 z M 159.52825,69.145104 c 1.05701,-0.772908 2.27907,-1.967876 2.71567,-2.655483 0.5355,-0.843364 0.79881,-0.555949 0.80914,0.883227 0.011,1.535195 -0.75048,2.279812 -2.71567,2.655483 -2.55427,0.48828 -2.60663,0.431129 -0.80914,-0.883227 z"
         id="path2055" />
    </g>
  </g>
</svg>
