<?xml version="1.0" encoding="UTF-8" standalone="no"?>
<!-- Created with Inkscape (http://www.inkscape.org/) -->

<svg
   version="1.1"
   id="svg1286"
   width="2048"
   height="1262"
   viewBox="0 0 2048 1262"
   sodipodi:docname="trout-pixel-img.svg"
   inkscape:version="1.1.2 (0a00cf5339, 2022-02-04)"
   xmlns:inkscape="http://www.inkscape.org/namespaces/inkscape"
   xmlns:sodipodi="http://sodipodi.sourceforge.net/DTD/sodipodi-0.dtd"
   xmlns="http://www.w3.org/2000/svg"
   xmlns:svg="http://www.w3.org/2000/svg">
  <defs
     id="defs1290" />
  <sodipodi:namedview
     id="namedview1288"
     pagecolor="#ffffff"
     bordercolor="#666666"
     borderopacity="1.0"
     inkscape:pageshadow="2"
     inkscape:pageopacity="0.0"
     inkscape:pagecheckerboard="0"
     showgrid="false"
     inkscape:zoom="0.42919477"
     inkscape:cx="917.99815"
     inkscape:cy="653.54944"
     inkscape:window-width="1920"
     inkscape:window-height="938"
     inkscape:window-x="1536"
     inkscape:window-y="27"
     inkscape:window-maximized="1"
     inkscape:current-layer="g1292" />
  <g
     inkscape:groupmode="layer"
     inkscape:label="Image"
     id="g1292">
    <g
       id="g1404"
       transform="translate(-2.5716987,288.64385)">
      <path
         style="fill:#a1a49d"
         d="m 1110,925 v -5 h -10 -10 v -5 -5 h 10 10 v 5 5 h 5 5 v -5 -5 h 10 10 v -5 -5 h 5 5 v 5 5 h -5 -5 v 5 5 h 5 5 v 5 5 h -20 -20 z m -110,-60 v -5 h 5 5 v 5 5 h -5 -5 z M 700,855 v -5 h 5 5 v -5 -5 h 5 5 v -5 -5 h 5 5 v 5 5 h 5 5 v 5 5 h 10 10 v -5 -5 h 15 15 v 5 5 h 20 20 v 5 5 h -20 -20 v -5 -5 h -5 -5 v 5 5 h -20 -20 v -5 -5 h -5 -5 v 5 5 h -5 -5 v -5 -5 h -5 -5 v 5 5 h -5 -5 z m 150,0 v -5 h 5 5 v -5 -5 h 10 10 v 5 5 h -5 -5 v 5 5 h -10 -10 z m 610,0 v -5 h -5 -5 v -5 -5 h 5 5 v -10 -10 h 10 10 v -5 -5 h 5 5 v 5 5 h 5 5 v 10 10 h -5 -5 v 5 5 h -10 -10 v 5 5 h -5 -5 z M 630,845 v -5 h -20 -20 v -5 -5 h -5 -5 v 5 5 h -5 -5 v -5 -5 h 5 5 v -5 -5 h 20 20 v 5 5 h 10 10 v 5 5 h 5 5 v 5 5 h -10 -10 z m 270,0 v -5 h -5 -5 v -5 -5 h 5 5 v 5 5 h 20 20 v 5 5 h -20 -20 z m 230,0 v -5 h 5 5 v 5 5 h -5 -5 z m 290,0 v -5 h 10 10 v 5 5 h -10 -10 z M 950,835 v -5 h 5 5 v 5 5 h -5 -5 z M 510,825 v -5 h 5 5 v -5 -5 h 5 5 v 5 5 h 5 5 v 5 5 h -15 -15 z m 410,0 v -5 h 5 5 v 5 5 h -5 -5 z m 50,0 v -5 h 5 5 v -5 -5 h 5 5 v 5 5 h -5 -5 v 5 5 h -5 -5 z m 150,0 v -5 h 5 5 v 5 5 h -5 -5 z m 320,0 v -5 h 5 5 v 5 5 h -5 -5 z m 480,0 v -5 h 5 5 v -5 -5 h 5 5 v 5 5 h 5 5 v 5 5 h -15 -15 z M 450,815 v -5 h -15 -15 v -10 -10 h 10 10 v 5 5 h 5 5 v 5 5 h 20 20 v 5 5 h -20 -20 z m 190,0 v -5 h 5 5 v 5 5 h -5 -5 z m 20,0 v -5 h 5 5 v 5 5 h -5 -5 z m 130,0 v -5 h 5 5 v -5 -5 h -5 -5 v -5 -5 h -15 -15 v 5 5 h -5 -5 v 5 5 h -15 -15 v -5 -5 h 5 5 v -5 -5 h -10 -10 v -10 -10 h -5 -5 v -5 -5 h -10 -10 v -5 -5 h 5 5 v -20 -20 h 5 5 v 5 5 h 5 5 v -10 -10 h 5 5 v -5 -5 h -5 -5 v -10 -10 h -10 -10 v 5 5 h -5 -5 v 5 5 h 10 10 v 5 5 h -10 -10 v 15 15 h -5 -5 v 15 15 h -5 -5 v -20 -20 h 5 5 v -5 -5 h -5 -5 v -5 -5 h -10 -10 v -5 -5 h 10 10 v -5 -5 h -5 -5 v -5 -5 h -30 -30 v 10 10 h 5 5 v -5 -5 h 5 5 v 5 5 h -5 -5 v 5 5 h 10 10 v -10 -10 h 5 5 v 15 15 h 10 10 v 15 15 h -10 -10 v -5 -5 h 5 5 v -5 -5 h -10 -10 v 5 5 h -5 -5 v 5 5 h 5 5 v 5 5 h -5 -5 v -5 -5 h -10 -10 v 5 5 h -15 -15 v -5 -5 h 5 5 v -5 -5 h -10 -10 v 5 5 h -5 -5 v 5 5 h -10 -10 v 5 5 h -10 -10 v -10 -10 h -5 -5 v 5 5 h -5 -5 v -5 -5 h -5 -5 v -10 -10 h -20 -20 v 15 15 h 5 5 v 10 10 h -5 -5 v -10 -10 h -5 -5 v -5 -5 h -5 -5 v 5 5 h -15 -15 v 5 5 h -10 -10 v -5 -5 h -5 -5 v -5 -5 h -5 -5 v -5 -5 h -5 -5 v 5 5 h -5 -5 v -15 -15 h -5 -5 v 15 15 h -5 -5 v -15 -15 h 5 5 v -5 -5 h -10 -10 v -5 -5 h -5 -5 v -5 -5 h -5 -5 v 5 5 h -5 -5 v 10 10 h -5 -5 v -5 -5 h -10 -10 v -10 -10 h -5 -5 v -5 -5 h 35 35 v -5 -5 h -5 -5 v -5 -5 h 20 20 v -5 -5 h -10 -10 v -5 -5 h 15 15 v -5 -5 h 10 10 v 5 5 h 5 5 v 5 5 h 5 5 v -5 -5 h 15 15 v -5 -5 h -10 -10 v -5 -5 h 15 15 v 5 5 h 10 10 v -5 -5 h 5 5 v 5 5 h 10 10 v -10 -10 h -10 -10 v -5 -5 h -5 -5 v -15 -15 h 5 5 v -10 -10 h 5 5 v -5 -5 h 5 5 v 5 5 h 5 5 v -10 -10 h -5 -5 v -10 -10 h -5 -5 v 10 10 h -5 -5 v 5 5 h -5 -5 v 10 10 h -10 -10 v -5 -5 h 5 5 v -5 -5 h -5 -5 v -5 -5 h -5 -5 v 5 5 h -5 -5 v -5 -5 h 5 5 v -5 -5 h 5 5 v -5 -5 h 10 10 v 5 5 h -10 -10 v 5 5 h 5 5 v 5 5 h 5 5 v -5 -5 h 5 5 v -10 -10 h 5 5 v -5 -5 h 5 5 v 5 5 h 10 10 v 5 5 h -5 -5 v 5 5 h 10 10 v 5 5 h -5 -5 v 5 5 h 5 5 v 5 5 h -5 -5 v -5 -5 h -5 -5 v 5 5 h -10 -10 v 10 10 h 15 15 v 5 5 h 5 5 v 20 20 h 5 5 v -20 -20 h 5 5 v -5 -5 h 5 5 v -5 -5 h -10 -10 v 5 5 h -5 -5 v -5 -5 h 5 5 v -5 -5 h 10 10 v 5 5 h 5 5 v -5 -5 h 5 5 v 5 5 h 5 5 v 5 5 h -5 -5 v -5 -5 h -5 -5 v 10 10 h 10 10 v 5 5 h 5 5 v -10 -10 h 10 10 v 5 5 h -5 -5 v 10 10 h 5 5 v -5 -5 h 5 5 v -10 -10 h 5 5 v -15 -15 h -5 -5 v -5 -5 h -10 -10 v 10 10 h -5 -5 v -5 -5 h -5 -5 v -10 -10 h -5 -5 v -5 -5 h -5 -5 v -5 -5 h 5 5 v -5 -5 h 5 5 v 5 5 h -5 -5 v 5 5 h 5 5 v 5 5 h 5 5 v 5 5 h 5 5 v -5 -5 h 5 5 v -5 -5 h 5 5 v -10 -10 h -5 -5 v -5 -5 h 5 5 v 5 5 h 5 5 v 10 10 h 5 5 v -5 -5 h 15 15 v 5 5 h -10 -10 v 5 5 h -5 -5 v 5 5 h 10 10 v -5 -5 h 10 10 v -5 -5 h 5 5 v -5 -5 h -5 -5 v -5 -5 h -5 -5 v -5 -5 h 5 5 v -5 -5 h 5 5 v 5 5 h -5 -5 v 5 5 h 5 5 v 5 5 h 10 10 v 5 5 h -10 -10 v 15 15 h 5 5 v -5 -5 h 5 5 v -5 -5 h 5 5 v -5 -5 h 5 5 v -10 -10 h 10 10 v -15 -15 h 5 5 v 15 15 h 10 10 v 5 5 h 5 5 v -5 -5 h 5 5 v -5 -5 h 5 5 v 5 5 h 15 15 v 5 5 h 5 5 v 5 5 h -5 -5 v -5 -5 h -10 -10 v 5 5 h -5 -5 v -10 -10 h -5 -5 v 15 15 h -5 -5 v 10 10 h 10 10 v 5 5 h -10 -10 v -5 -5 h -5 -5 v 10 10 h -10 -10 v -5 -5 h 5 5 v -5 -5 h 5 5 v -10 -10 h -5 -5 v 5 5 h -5 -5 v -5 -5 h 5 5 v -10 -10 h -5 -5 v -5 -5 h -5 -5 v 5 5 h -5 -5 v 5 5 h -5 -5 v 5 5 h 10 10 v 40 40 h 5 5 v -15 -15 h 5 5 v 5 5 h 5 5 v -5 -5 h 5 5 v -5 -5 h 5 5 v 10 10 h 5 5 v -10 -10 h 5 5 v -15 -15 h -5 -5 v -5 -5 h 5 5 v 5 5 h 5 5 v -5 -5 h 10 10 v 5 5 h -10 -10 v 15 15 h 5 5 v -10 -10 h 5 5 v 5 5 h 5 5 v -5 -5 h 5 5 v 5 5 h -5 -5 v 5 5 h 15 15 v 5 5 h 5 5 v -10 -10 h 5 5 v -5 -5 h -5 -5 v -5 -5 h -5 -5 v 5 5 h -5 -5 v -5 -5 h 5 5 v -5 -5 h -5 -5 v -5 -5 h 10 10 v -15 -15 h 10 10 v 10 10 h -5 -5 v 5 5 h -5 -5 v 5 5 h 5 5 v 5 5 h 10 10 v -5 -5 h -5 -5 v -5 -5 h 5 5 v -10 -10 h 10 10 v 15 15 h -5 -5 v 10 10 h -5 -5 v 10 10 h 5 5 v -5 -5 h 10 10 v 5 5 h -10 -10 v 5 5 h 10 10 v 5 5 h 15 15 v -5 -5 h -5 -5 v -5 -5 h -5 -5 v -10 -10 h 5 5 v -10 -10 h 5 5 v -5 -5 h -10 -10 v -5 -5 h -5 -5 v -5 -5 h 15 15 v -5 -5 h 10 10 v -5 -5 h 15 15 v 5 5 h -15 -15 v 5 5 h -5 -5 v 15 15 h 5 5 v -10 -10 h 5 5 v -5 -5 h 5 5 v 5 5 h -5 -5 v 10 10 h -5 -5 v 5 5 h -5 -5 v 5 5 h -10 -10 v 10 10 h 5 5 v 5 5 h 5 5 v 10 10 h 5 5 v -5 -5 h 5 5 v -10 -10 h -5 -5 v -5 -5 h 5 5 v 5 5 h 15 15 v -5 -5 h -10 -10 v -5 -5 h 15 15 v -5 -5 h -10 -10 v -10 -10 h 5 5 v -5 -5 h -5 -5 v -5 -5 h 15 15 v -5 -5 h 5 5 v 5 5 h -5 -5 v 5 5 h 15 15 v 20 20 h 5 5 v 10 10 h 5 5 v -10 -10 h 10 10 v 5 5 h -5 -5 v 20 20 h -5 -5 v 15 15 h 10 10 v -5 -5 h -5 -5 v -5 -5 h 5 5 v -15 -15 h 5 5 v 5 5 h 5 5 v -5 -5 h 5 5 v -5 -5 h -10 -10 v -10 -10 h 5 5 v 5 5 h 5 5 v -10 -10 h 5 5 v 10 10 h -5 -5 v 5 5 h 5 5 v 5 5 h -5 -5 v 5 5 h 10 10 v -20 -20 h 5 5 v -5 -5 h -5 -5 v -10 -10 h 5 5 v 10 10 h 5 5 v 10 10 h -5 -5 v 15 15 h 5 5 v -5 -5 h 5 5 v -10 -10 h 10 10 v -5 -5 h -10 -10 v -5 -5 h 5 5 v -5 -5 h 5 5 v 5 5 h 5 5 v 10 10 h -5 -5 v 10 10 h -5 -5 v 10 10 h 5 5 v -5 -5 h 5 5 v 5 5 h 5 5 v 5 5 h 5 5 v -10 -10 h -5 -5 v -5 -5 h 20 20 v -5 -5 h 5 5 v -5 -5 h -5 -5 v -5 -5 h 5 5 v -5 -5 h -10 -10 v -5 -5 h 5 5 v -5 -5 h 10 10 v 5 5 h 10 10 v 5 5 h -10 -10 v 5 5 h 5 5 v 5 5 h 10 10 v 5 5 h 15 15 v 5 5 h -5 -5 v 5 5 h 25 25 v -10 -10 h -5 -5 v 5 5 h -5 -5 v -5 -5 h 5 5 v -5 -5 h 10 10 v 5 5 h 5 5 v -5 -5 h 5 5 v -5 -5 h -5 -5 v -5 -5 h 5 5 v 5 5 h 10 10 v 5 5 h -5 -5 v 5 5 h 10 10 v 5 5 h 5 5 v 5 5 h -15 -15 v 15 15 h 15 15 v -5 -5 h 5 5 v -10 -10 h 5 5 v -10 -10 h -10 -10 v -5 -5 h -5 -5 v -10 -10 h -5 -5 v -5 -5 h 5 5 v 5 5 h 5 5 v 10 10 h 5 5 v -10 -10 h 5 5 v 15 15 h 5 5 v 5 5 h 5 5 v -15 -15 h -5 -5 v -10 -10 h 5 5 v 10 10 h 5 5 v -5 -5 h 5 5 v 5 5 h -5 -5 v 5 5 h 15 15 v 5 5 h -5 -5 v 5 5 h 10 10 v -5 -5 h 5 5 v 5 5 h -5 -5 v 15 15 h 5 5 v 5 5 h 5 5 v -5 -5 h 10 10 v -5 -5 h -15 -15 v -5 -5 h 5 5 v -15 -15 h 5 5 v 5 5 h 5 5 v -5 -5 h 10 10 v 5 5 h 5 5 v -5 -5 h 5 5 v -5 -5 h 10 10 v 5 5 h 5 5 v 5 5 h 10 10 v -5 -5 h 15 15 v -10 -10 h 5 5 v 20 20 h 5 5 v -15 -15 h 5 5 v 15 15 h 5 5 v 5 5 h 5 5 v 5 5 h -5 -5 v -5 -5 h -10 -10 v 15 15 h 5 5 v -5 -5 h 5 5 v 5 5 h -5 -5 v 5 5 h -5 -5 v 5 5 h 5 5 v 5 5 h 5 5 v 5 5 h -5 -5 v -5 -5 h -10 -10 v 5 5 h 5 5 v 5 5 h -5 -5 v 5 5 h 5 5 v 5 5 h -5 -5 v -5 -5 h -20 -20 v -5 -5 h -10 -10 v 5 5 h 5 5 v 5 5 h 10 10 v 5 5 h -10 -10 v 5 5 h 10 10 v 5 5 h 5 5 v 5 5 h -5 -5 v 5 5 h -5 -5 v -5 -5 h 5 5 v -5 -5 h -10 -10 v 5 5 h -5 -5 v -5 -5 h 5 5 v -5 -5 h -5 -5 v -5 -5 h -5 -5 v -5 -5 h -5 -5 v -10 -10 h -5 -5 v 5 5 h -15 -15 v -5 -5 h -5 -5 v 10 10 h 5 5 v 5 5 h 5 5 v -5 -5 h 10 10 v 10 10 h -5 -5 v -5 -5 h -5 -5 v 5 5 h -10 -10 v -5 -5 h -5 -5 v -5 -5 h -5 -5 v -5 -5 h -5 -5 v 5 5 h -10 -10 v -5 -5 h -5 -5 v -5 -5 h -10 -10 v 10 10 h 5 5 v 5 5 h 5 5 v 5 5 h -15 -15 v -5 -5 h 5 5 v -5 -5 h -5 -5 v -5 -5 h -5 -5 v 5 5 h -5 -5 v 5 5 h 5 5 v 5 5 h -5 -5 v 5 5 h -10 -10 v -5 -5 h -5 -5 v 5 5 h -15 -15 v -5 -5 h 15 15 v -5 -5 h -15 -15 v -10 -10 h -5 -5 v 5 5 h -5 -5 v -5 -5 h 5 5 v -10 -10 h -5 -5 v 5 5 h -5 -5 v 5 5 h -10 -10 v 5 5 h 5 5 v 5 5 h -5 -5 v -5 -5 h -5 -5 v -5 -5 h -5 -5 v 5 5 h -5 -5 v 10 10 h 15 15 v 5 5 h -5 -5 v 5 5 h 5 5 v 15 15 h -5 -5 v -5 -5 h -5 -5 v -5 -5 h 5 5 v -5 -5 h -15 -15 v 5 5 h 5 5 v 5 5 h -10 -10 v -10 -10 h 5 5 v -20 -20 h -5 -5 v 5 5 h -5 -5 v 5 5 h 5 5 v 5 5 h -10 -10 v 5 5 h 5 5 v 5 5 h -5 -5 v 15 15 h 5 5 v -5 -5 h 5 5 v 5 5 h 5 5 v 5 5 h -5 -5 v -5 -5 h -5 -5 v 10 10 h -15 -15 v -5 -5 h -5 -5 v -5 -5 h -10 -10 v -5 -5 h 15 15 v -5 -5 h 5 5 v -10 -10 h -10 -10 v 10 10 h -5 -5 v -5 -5 h -5 -5 v -10 -10 h 5 5 v -5 -5 h -5 -5 v -5 -5 h -5 -5 v 10 10 h -10 -10 v 15 15 h 5 5 v -10 -10 h 5 5 v 10 10 h -5 -5 v 5 5 h 5 5 v 5 5 h -5 -5 v 5 5 h 5 5 v 5 5 h -5 -5 v -5 -5 h -20 -20 v -10 -10 h -30 -30 v 5 5 h 25 25 v 10 10 h 5 5 v 5 5 h -5 -5 v -5 -5 h -15 -15 v -5 -5 h -5 -5 v 5 5 h -10 -10 v -10 -10 h -5 -5 v 20 20 h -5 -5 v -10 -10 h -10 -10 v -5 -5 h 5 5 v -5 -5 h -10 -10 v -5 -5 h 10 10 v -5 -5 h -20 -20 v -5 -5 h 10 10 v -5 -5 h 5 5 v -5 -5 h -15 -15 v 5 5 h -5 -5 v -5 -5 h -5 -5 v -5 -5 h -5 -5 v 15 15 h 5 5 v 10 10 h 15 15 v 10 10 h 5 5 v 10 10 h -10 -10 v -10 -10 h -5 -5 v -5 -5 h -5 -5 v 20 20 h 5 5 v 5 5 h -10 -10 v -5 -5 h -10 -10 v -5 -5 h -5 -5 v -5 -5 h -10 -10 v -5 -5 h -15 -15 v 10 10 h 5 5 v 5 5 h -5 -5 v 5 5 h -15 -15 v -5 -5 h -5 -5 v 5 5 h -5 -5 v -10 -10 h -5 -5 v 5 5 h -5 -5 v 5 5 h -5 -5 v -10 -10 h -15 -15 v 5 5 h 5 5 v 5 5 h -20 -20 v 5 5 h -5 -5 z m 20,-20 v -5 h -5 -5 v 5 5 h 5 5 z m 130,0 v -5 h -5 -5 v -5 -5 h -5 -5 v 5 5 h 5 5 v 5 5 h 5 5 z M 760,785 v -5 h -5 -5 v 5 5 h 5 5 z m 150,0 v -5 h -5 -5 v -5 -5 h -10 -10 v 5 5 h 5 5 v 5 5 h 10 10 z M 740,775 v -5 h -5 -5 v 5 5 h 5 5 z m 130,0 v -5 h -5 -5 v 5 5 h 5 5 z M 770,765 v -5 h 5 5 v -5 -5 h -5 -5 v 5 5 h -10 -10 v 5 5 h 10 10 z m 50,0 v -5 h -5 -5 v -10 -10 h -5 -5 v -5 -5 h -5 -5 v 20 20 h 15 15 z m 20,0 v -5 h -5 -5 v 5 5 h 5 5 z m 100,0 v -5 h -5 -5 v 5 5 h 5 5 z m 40,0 v -5 h 5 5 v -5 -5 h -5 -5 v -5 -5 h 5 5 v -5 -5 h -5 -5 v -10 -10 h -5 -5 v 5 5 h -10 -10 v 5 5 h -5 -5 v -10 -10 h -10 -10 v 5 5 h 5 5 v 5 5 h 5 5 v 5 5 h -5 -5 v 5 5 h 5 5 v -5 -5 h 10 10 v 10 10 h 5 5 v 5 5 h 5 5 z m -20,-30 v -5 h 10 10 v 5 5 h -10 -10 z m 330,25 v -10 h -5 -5 v 10 10 h 5 5 z m -550,-5 v -5 h 5 5 v -10 -10 h 5 5 v -5 -5 h 5 5 v -10 -10 h 5 5 v 5 5 h 15 15 v 5 5 h 5 5 v 5 5 h 10 10 v -15 -15 h 5 5 v 10 10 h 5 5 v -15 -15 h 5 5 v 15 15 h 10 10 v 5 5 h 5 5 v 5 5 h -5 -5 v 5 5 h -10 -10 v 5 5 h 15 15 v -5 -5 h 5 5 v -10 -10 h -5 -5 v -10 -10 h 5 5 v -5 -5 h -10 -10 v -5 -5 h 5 5 v -5 -5 h -5 -5 v 5 5 h -10 -10 v -5 -5 h -5 -5 v 5 5 h -5 -5 v -5 -5 h -5 -5 v -5 -5 h 5 5 v -5 -5 h -5 -5 v -5 -5 h -5 -5 v -5 -5 h 5 5 v -5 -5 h -25 -25 v 5 5 h -10 -10 v -5 -5 h 5 5 v -20 -20 h -5 -5 v -5 -5 h -5 -5 v 10 10 h -5 -5 v 5 5 h 5 5 v -5 -5 h 5 5 v 15 15 h -5 -5 v 10 10 h -5 -5 v 5 5 h 5 5 v 5 5 h -20 -20 v -5 -5 h 10 10 v -5 -5 h -5 -5 v -5 -5 h -5 -5 v -5 -5 h -5 -5 v 5 5 h -5 -5 v 10 10 h 5 5 v 5 5 h 5 5 v 10 10 h 5 5 v 5 5 h -5 -5 v 10 10 h -5 -5 v 10 10 h -5 -5 v 5 5 h 5 5 v -5 -5 h 5 5 v 10 10 h 10 10 z m -20,-25 v -10 h 5 5 v -10 -10 h 5 5 v -5 -5 h 5 5 v 5 5 h -5 -5 v 10 10 h -5 -5 v 10 10 h -5 -5 z m 100,-15 v -5 h -5 -5 v -5 -5 h -15 -15 v -5 -5 h -10 -10 v -10 -10 h 5 5 v -5 -5 h -5 -5 v -5 -5 h 15 15 v -5 -5 h 5 5 v 5 5 h 5 5 v 5 5 h 5 5 v 5 5 h 5 5 v 10 10 h -10 -10 v 5 5 h 10 10 v 10 10 h -5 -5 z m -20,-45 v -10 h -5 -5 v 10 10 h 5 5 z m 80,35 v -5 h 5 5 v 5 5 h -5 -5 z M 710,655 v -5 h 5 5 v 5 5 h -5 -5 z m 150,100 v -5 h -5 -5 v 5 5 h 5 5 z m 170,0 v -5 h -10 -10 v 5 5 h 10 10 z m 80,0 v -5 h 10 10 v -5 -5 h -10 -10 v -5 -5 h -5 -5 v -5 -5 h 10 10 v 5 5 h 5 5 v -5 -5 h 5 5 v -5 -5 h -5 -5 v -10 -10 h 5 5 v 5 5 h 5 5 v -5 -5 h -5 -5 v -20 -20 h -5 -5 v 20 20 h -5 -5 v 5 5 h -10 -10 v 5 5 h -5 -5 v 5 5 h -5 -5 v 5 5 h 10 10 v 10 10 h -5 -5 v 5 5 h 10 10 z m 100,0 v -5 h 5 5 v -5 -5 h -5 -5 v -5 -5 h -15 -15 v -5 -5 h -5 -5 v 5 5 h 5 5 v 5 5 h 10 10 v 10 10 h 5 5 z M 830,745 v -5 h -5 -5 v 5 5 h 5 5 z M 380,730 v -10 h -5 -5 v 10 10 h 5 5 z m 20,5 v -5 h -5 -5 v 5 5 h 5 5 z m 110,0 v -5 h -5 -5 v -5 -5 h 10 10 v 5 5 h 5 5 v -5 -5 h -5 -5 v -5 -5 h -10 -10 v 5 5 h -5 -5 v -5 -5 h -10 -10 v -5 -5 h 5 5 v -5 -5 h 5 5 v -5 -5 h 10 10 v 5 5 h 5 5 v 5 5 h 5 5 v 5 5 h 10 10 v 5 5 h 5 5 v -10 -10 h -15 -15 v -10 -10 h 5 5 v -5 -5 h -5 -5 v 5 5 h -5 -5 v -5 -5 h -15 -15 v -5 -5 h -5 -5 v -10 -10 h 5 5 v -10 -10 h -10 -10 v 5 5 h -5 -5 v 10 10 h -10 -10 v 5 5 h -5 -5 v -5 -5 h -5 -5 v 5 5 h 5 5 v 5 5 h 10 10 v -5 -5 h 5 5 v 5 5 h 5 5 v 5 5 h -5 -5 v 15 15 h 5 5 v 5 5 h 10 10 v 5 5 h 5 5 v 5 5 h 5 5 z m -50,-80 v -5 h 5 5 v 5 5 h -5 -5 z m 10,-20 v -5 h 5 5 v 5 5 h -5 -5 z m 120,95 v -10 h -5 -5 v -5 -5 h 5 5 v -5 -5 h -5 -5 v 5 5 h -5 -5 v 5 5 h 5 5 v 10 10 h 5 5 z m 280,5 v -5 h -5 -5 v 5 5 h 5 5 z M 420,715 v -5 h -5 -5 v 5 5 h 5 5 z m 200,0 v -5 h -5 -5 v 5 5 h 5 5 z m 380,0 v -5 h -5 -5 v 5 5 h 5 5 z m 210,0 v -5 h 5 5 v -5 -5 h -5 -5 v 5 5 h -5 -5 v 5 5 h 5 5 z m 60,0 v -5 h -5 -5 v 5 5 h 5 5 z M 340,705 v -5 h -5 -5 v 5 5 h 5 5 z m 20,0 v -5 h -5 -5 v 5 5 h 5 5 z m 20,-15 v -20 h -10 -10 v -5 -5 h -5 -5 v 5 5 h 5 5 v 5 5 h 5 5 v 15 15 h 5 5 z m 70,15 v -5 h -5 -5 v 5 5 h 5 5 z m 840,0 v -5 h 5 5 v -10 -10 h -5 -5 v 5 5 h -10 -10 v -5 -5 h -5 -5 v 5 5 h 5 5 v 5 5 h 5 5 v 5 5 h 5 5 z M 420,695 v -5 h -5 -5 v -10 -10 h -5 -5 v 15 15 h 10 10 z m 250,0 v -5 h -5 -5 v 5 5 h 5 5 z m 270,0 v -5 h 20 20 v -5 -5 h -10 -10 v -5 -5 h -5 -5 v 5 5 h -5 -5 v 5 5 h -5 -5 v 5 5 h 5 5 z m 130,-5 v -10 h 5 5 v -5 -5 h -5 -5 v -5 -5 h 5 5 v -5 -5 h -5 -5 v 5 5 h -5 -5 v 5 5 h 5 5 v 5 5 h -5 -5 v 5 5 h -5 -5 v -5 -5 h -5 -5 v 5 5 h 5 5 v 5 5 h 10 10 z m 120,5 v -5 h -5 -5 v -10 -10 h 10 10 v 10 10 h 10 10 v -5 -5 h -5 -5 v -5 -5 h 10 10 v -5 -5 h 10 10 v -5 -5 h -10 -10 v 5 5 h -5 -5 v -10 -10 h 5 5 v -5 -5 h -5 -5 v -5 -5 h 5 5 v -10 -10 h -5 -5 v 10 10 h -5 -5 v -5 -5 h -10 -10 v -5 -5 h -5 -5 v -5 -5 h -5 -5 v 5 5 h 5 5 v 5 5 h -5 -5 v 5 5 h 20 20 v 10 10 h -5 -5 v 5 5 h -5 -5 v -10 -10 h -5 -5 v 5 5 h -15 -15 v 5 5 h 10 10 v 5 5 h 5 5 v 5 5 h -5 -5 v 5 5 h -5 -5 v 5 5 h 10 10 v 5 5 h 5 5 z m -10,-40 v -5 h 5 5 v 5 5 h -5 -5 z m 20,0 v -5 h 5 5 v 5 5 h -5 -5 z m -950,30 v -5 h -5 -5 v 5 5 h 5 5 z m 80,-5 v -10 h -5 -5 v 10 10 h 5 5 z m 110,5 v -5 h -5 -5 v 5 5 h 5 5 z m 140,0 v -5 h -5 -5 v 5 5 h 5 5 z m 530,0 v -5 h -10 -10 v 5 5 h 10 10 z m 560,0 v -5 h -5 -5 v 5 5 h 5 5 z M 670,675 v -5 h -5 -5 v 5 5 h 5 5 z m 250,0 v -5 h -5 -5 v 5 5 h 5 5 z m 90,0 v -5 h -5 -5 v 5 5 h 5 5 z m 310,0 v -5 h -5 -5 v -5 -5 h -5 -5 v 5 5 h 5 5 v 5 5 h 5 5 z m 160,-5 v -10 h -10 -10 v 10 10 h 10 10 z m -600,-5 v -5 h -5 -5 v 5 5 h 5 5 z m 110,0 v -5 h 10 10 v -5 -5 h -10 -10 v 5 5 h -5 -5 v 5 5 h 5 5 z m 40,0 v -5 h 10 10 v -15 -15 h -5 -5 v -5 -5 h -5 -5 v -5 -5 h 5 5 v -10 -10 h 5 5 v -5 -5 h -10 -10 v 5 5 h -5 -5 v 5 5 h -5 -5 v 10 10 h -5 -5 v -10 -10 h -5 -5 v 5 5 h -5 -5 v 5 5 h -5 -5 v -5 -5 h -5 -5 v 5 5 h -10 -10 v -5 -5 h 5 5 v -5 -5 h -5 -5 v 5 5 h -5 -5 v -5 -5 h -5 -5 v 10 10 h 5 5 v 5 5 h 25 25 v 5 5 h 5 5 v -5 -5 h -5 -5 v -5 -5 h 10 10 v 5 5 h 20 20 v 5 5 h -5 -5 v 10 10 h -5 -5 v 5 5 h 5 5 z m -10,-60 v -5 h 5 5 v 5 5 h -5 -5 z m 140,60 v -5 h -5 -5 v 5 5 h 5 5 z m 110,0 v -5 h -5 -5 v 5 5 h 5 5 z m 100,-5 v -10 h -5 -5 v -5 -5 h -10 -10 v 5 5 h 10 10 v 10 10 h 5 5 z m 80,5 v -5 h -5 -5 v -15 -15 h 5 5 v -5 -5 h -10 -10 v 10 10 h -10 -10 v 5 5 h 10 10 v 10 10 h 10 10 z m 110,0 v -5 h -5 -5 v -10 -10 h 5 5 v -5 -5 h -5 -5 v -5 -5 h 5 5 v -5 -5 h -5 -5 v 5 5 h -10 -10 v 5 5 h 10 10 v 5 5 h -10 -10 v 5 5 h 5 5 v 10 10 h 10 10 z M 340,655 v -5 h 5 5 v -5 -5 h -10 -10 v 10 10 h 5 5 z m 40,0 v -5 h 5 5 v 5 5 h 10 10 v -5 -5 h -5 -5 v -5 -5 h -15 -15 v 10 10 h 5 5 z m 140,-5 v -10 h -5 -5 v 10 10 h 5 5 z m 50,5 v -5 h 5 5 v 5 5 h 5 5 v -5 -5 h 5 5 v 5 5 h 15 15 v -15 -15 h 10 10 v 10 10 h 5 5 v -15 -15 h -5 -5 v -5 -5 h 10 10 v -5 -5 h -10 -10 v 5 5 h -5 -5 v 5 5 h -5 -5 v 5 5 h -5 -5 v -15 -15 h -5 -5 v 10 10 h -5 -5 v -10 -10 h -5 -5 v 5 5 h -10 -10 v 5 5 h 5 5 v 5 5 h -5 -5 v 10 10 h -5 -5 v 5 5 h 5 5 z m 10,-10 v -5 h 5 5 v 5 5 h -5 -5 z m 20,-5 v -10 h 5 5 v 5 5 h 5 5 v 5 5 h -10 -10 z m 90,10 v -10 h -5 -5 v -10 -10 h -5 -5 v 10 10 h 5 5 v 10 10 h 5 5 z m 240,5 v -5 h 20 20 v -5 -5 h -20 -20 v 5 5 h -5 -5 v -5 -5 h -5 -5 v -5 -5 h -5 -5 v 5 5 h -5 -5 v 5 5 h 5 5 v -5 -5 h 5 5 v 10 10 h 10 10 z m 190,-5 v -10 h -10 -10 v -5 -5 h -5 -5 v 10 10 h 10 10 v 5 5 h 5 5 z m 380,5 v -5 h -5 -5 v 5 5 h 5 5 z m 90,0 v -5 h -5 -5 v 5 5 h 5 5 z m 70,0 v -5 h -10 -10 v 5 5 h 10 10 z m 50,0 v -5 h -5 -5 v -5 -5 h 5 5 v -5 -5 h 5 5 v -5 -5 h 5 5 v -5 -5 h -5 -5 v -5 -5 h -5 -5 v 5 5 h 5 5 v 5 5 h -10 -10 v -5 -5 h -5 -5 v 5 5 h -5 -5 v -10 -10 h -5 -5 v -5 -5 h 5 5 v -5 -5 h 5 5 v -5 -5 h 10 10 v -5 -5 h -10 -10 v 5 5 h -10 -10 v 5 5 h -5 -5 v -5 -5 h -5 -5 v -5 -5 h -5 -5 v -5 -5 h -5 -5 v 5 5 h -5 -5 v 5 5 h -5 -5 v -5 -5 h -10 -10 v 5 5 h -5 -5 v 5 5 h 5 5 v 5 5 h 5 5 v -10 -10 h 5 5 v 5 5 h 5 5 v 5 5 h -5 -5 v 10 10 h 5 5 v -10 -10 h 5 5 v 20 20 h -15 -15 v 10 10 h 5 5 v -5 -5 h 15 15 v -10 -10 h 10 10 v -5 -5 h -5 -5 v -5 -5 h 10 10 v 10 10 h 5 5 v 5 5 h 5 5 v 10 10 h -5 -5 v -5 -5 h -5 -5 v -5 -5 h -5 -5 v 5 5 h 5 5 v 5 5 h 5 5 v 5 5 h 15 15 z m -20,-30 v -5 h 5 5 v 5 5 h -5 -5 z m -50,-30 v -5 h -5 -5 v -5 -5 h 15 15 v 5 5 h -5 -5 v 5 5 h -5 -5 z m -10,-30 v -5 h 5 5 v 5 5 h -5 -5 z m -750,80 v -5 h -5 -5 v -5 -5 h -5 -5 v 10 10 h 10 10 z m 390,0 v -5 h 10 10 v -5 -5 h 5 5 v -5 -5 h -5 -5 v -5 -5 h -5 -5 v 5 5 h -5 -5 v 5 5 h -10 -10 v 5 5 h 5 5 v 5 5 h 5 5 z m 120,0 v -5 h 5 5 v -5 -5 h -5 -5 v -5 -5 h -5 -5 v 15 15 h 5 5 z m 90,0 v -5 h -10 -10 v 5 5 h 10 10 z m 40,0 v -5 h -5 -5 v 5 5 h 5 5 z m -440,-10 v -5 h -10 -10 v 5 5 h 10 10 z m 250,0 v -5 h 15 15 v -5 -5 h -5 -5 v -15 -15 h -5 -5 v 15 15 h -5 -5 v -10 -10 h -10 -10 v 5 5 h 5 5 v 5 5 h 5 5 v 5 5 h -5 -5 v 5 5 h 5 5 z m 250,0 v -5 h -5 -5 v 5 5 h 5 5 z M 540,625 v -5 h -5 -5 v -5 -5 h 10 10 v 5 5 h 5 5 v -5 -5 h -5 -5 v -10 -10 h -5 -5 v 5 5 h -5 -5 v 5 5 h -5 -5 v 5 5 h 5 5 v 5 5 h 5 5 z m 160,0 v -5 h 10 10 v -5 -5 h -10 -10 v 5 5 h -5 -5 v 5 5 h 5 5 z m 50,0 v -5 h -5 -5 v 5 5 h 5 5 z m 750,-5 v -10 h -10 -10 v -5 -5 h 10 10 v -5 -5 h 10 10 v -5 -5 h -10 -10 v 5 5 h -10 -10 v 5 5 h -5 -5 v 10 10 h 5 5 v 5 5 h 10 10 z m -690,-5 v -5 h 10 10 v 5 5 h 15 15 v -15 -15 h 10 10 v -5 -5 h -15 -15 v 15 15 h -10 -10 v -5 -5 h -5 -5 v -5 -5 h 5 5 v -15 -15 h -5 -5 v 15 15 h -5 -5 v -5 -5 h -5 -5 v 10 10 h -5 -5 v 5 5 h 5 5 v 5 5 h 5 5 z m 100,0 v -5 h -5 -5 v -10 -10 h 5 5 v -10 -10 h -5 -5 v -5 -5 h -5 -5 v 5 5 h 5 5 v 5 5 h -5 -5 v 10 10 h -10 -10 v 5 5 h 15 15 v 5 5 h 5 5 z m 220,0 v -5 h 15 15 v -10 -10 h -5 -5 v 5 5 h -10 -10 v 5 5 h -5 -5 v 5 5 h 5 5 z m 130,0 v -5 h 5 5 v -10 -10 h -5 -5 v 5 5 h -5 -5 v 5 5 h -5 -5 v 5 5 h 10 10 z m 160,-5 v -10 h -5 -5 v 5 5 h -5 -5 v 5 5 h 10 10 z m 100,0 v -10 h -5 -5 v 10 10 h 5 5 z m 60,5 v -5 h -5 -5 v 5 5 h 5 5 z M 690,605 v -5 h -5 -5 v 5 5 h 5 5 z m 380,0 v -5 h 5 5 v -5 -5 h 5 5 v -10 -10 h -15 -15 v 5 5 h 10 10 v 5 5 h -5 -5 v 5 5 h -5 -5 v 5 5 h 5 5 z M 520,595 v -5 h 5 5 v -5 -5 h -5 -5 v 5 5 h -5 -5 v 5 5 h 5 5 z m 770,-5 v -10 h 5 5 v 5 5 h 10 10 v -5 -5 h 5 5 v -5 -5 h -5 -5 v -5 -5 h -15 -15 v 10 10 h -5 -5 v 10 10 h 5 5 z m 10,-15 v -5 h 5 5 v 5 5 h -5 -5 z m 100,20 v -5 h 10 10 v -10 -10 h -10 -10 v 10 10 h -5 -5 v 5 5 h 5 5 z M 610,585 v -5 h 10 10 v 5 5 h 10 10 v -5 -5 h 5 5 v 5 5 h 5 5 v -5 -5 h -5 -5 v -5 -5 h 5 5 v -5 -5 h -15 -15 v 5 5 h -10 -10 v -5 -5 h 5 5 v -5 -5 h 10 10 v -10 -10 h -5 -5 v 5 5 h -15 -15 v -5 -5 h -5 -5 v 5 5 h 5 5 v 15 15 h -5 -5 v 10 10 h 5 5 z m 90,-15 v -20 h -5 -5 v -5 -5 h 10 10 v -5 -5 h -15 -15 v 30 30 h 10 10 z m 310,10 v -10 h -5 -5 v 10 10 h 5 5 z m 700,5 v -5 h -5 -5 v 5 5 h 5 5 z m -670,-20 v -5 h -5 -5 v 5 5 h 5 5 z m 480,0 v -5 h -5 -5 v 5 5 h 5 5 z m -480,-20 v -5 h 5 5 v 5 5 h 10 10 v -5 -5 h -5 -5 v -10 -10 h -5 -5 v -5 -5 h -5 -5 v -5 -5 h -5 -5 v 5 5 h 5 5 v 5 5 h -5 -5 v 5 5 h 5 5 v 5 5 h -5 -5 v 5 5 h 5 5 z m 0,-20 v -5 h 5 5 v 5 5 h -5 -5 z m -70,0 v -5 h -5 -5 v 5 5 h 5 5 z M 600,515 v -5 h -5 -5 v 5 5 h 5 5 z m 160,0 v -5 h -5 -5 v 5 5 h 5 5 z m 150,0 v -5 h -5 -5 v 5 5 h 5 5 z M 390,805 v -5 h -15 -15 v -5 -5 h 15 15 v 5 5 h 10 10 v 5 5 h -10 -10 z m 290,0 v -5 h 5 5 v 5 5 h -5 -5 z m 280,-5 v -10 h 5 5 v 10 10 h -5 -5 z m 100,5 v -5 h 5 5 v 5 5 h -5 -5 z m 100,0 v -5 h 5 5 v 5 5 h -5 -5 z M 330,795 v -5 h 10 10 v 5 5 h -10 -10 z m 140,0 v -5 h 10 10 v -5 -5 h -5 -5 v -5 -5 h 5 5 v 5 5 h 5 5 v 5 5 h 5 5 v 5 5 h -5 -5 v -5 -5 h -5 -5 v 5 5 h -10 -10 z m 730,-5 v -10 h 10 10 v 10 10 h -10 -10 z m -930,-5 v -5 h -20 -20 v -5 -5 h 5 5 v -5 -5 h -10 -10 v 5 5 h -5 -5 v -5 -5 h -5 -5 v -5 -5 h 15 15 v -10 -10 h -15 -15 v -5 -5 h -10 -10 v 5 5 h -10 -10 v 5 5 h 5 5 v 5 5 h -5 -5 v -5 -5 h -10 -10 v -5 -5 h 10 10 v -5 -5 h 5 5 v -5 -5 h 5 5 v -5 -5 h 5 5 v 5 5 h 10 10 v 5 5 h 10 10 v -5 -5 h 5 5 v 20 20 h 5 5 v 10 10 h 5 5 v -5 -5 h 5 5 v -10 -10 h -10 -10 v -5 -5 h 5 5 v -5 -5 h 5 5 v 10 10 h 5 5 v 5 5 h 10 10 v 5 5 h -5 -5 v 5 5 h -10 -10 v 5 5 h 5 5 v 5 5 h -5 -5 z m 20,0 v -5 h 5 5 v 5 5 h -5 -5 z m 110,-5 v -10 h -5 -5 v -5 -5 h 10 10 v 15 15 h -5 -5 z m 50,5 v -5 h 5 5 v 5 5 h -5 -5 z m 800,0 v -5 h 5 5 v 5 5 h -5 -5 z m 250,-5 v -10 h 5 5 v 10 10 h -5 -5 z m 310,5 v -5 h 5 5 v 5 5 h -5 -5 z M 310,775 v -5 h 5 5 v 5 5 h -5 -5 z m 1480,0 v -5 h 5 5 v 5 5 h -5 -5 z m -20,-10 v -5 h 5 5 v 5 5 h -5 -5 z M 180,755 v -5 h 5 5 v 5 5 h -5 -5 z m 270,0 v -5 h 5 5 v 5 5 h -5 -5 z m 890,0 v -5 h 5 5 v 5 5 h -5 -5 z m 410,0 v -5 h 5 5 v 5 5 h -5 -5 z m 180,-5 v -10 h 5 5 v 10 10 h -5 -5 z m -100,-5 v -5 h 5 5 v 5 5 h -5 -5 z M 450,735 v -5 h 5 5 v 5 5 h -5 -5 z m 930,-10 v -15 h 5 5 v -10 -10 h 10 10 v 10 10 h -10 -10 v 5 5 h 10 10 v 5 5 h -10 -10 v 5 5 h -5 -5 z m 130,-5 v -10 h 5 5 v 10 10 h -5 -5 z M 110,705 v -5 h 5 5 v 5 5 h -5 -5 z m 1600,0 v -5 h 5 5 v 5 5 h -5 -5 z m 200,0 v -5 h 5 5 v 5 5 h -5 -5 z M 150,695 v -5 h 10 10 v 5 5 h -10 -10 z m 40,-10 v -5 h 5 5 v -5 -5 h -5 -5 v -5 -5 h 5 5 v 5 5 h 5 5 v 5 5 h -5 -5 v 5 5 h -5 -5 z m 1590,0 v -5 h 5 5 v 5 5 h -5 -5 z m 130,0 v -5 h 5 5 v 5 5 h -5 -5 z M 130,665 v -5 h 5 5 v 5 5 h -5 -5 z m 40,-10 v -5 h 5 5 v -5 -5 h 5 5 v 5 5 h -5 -5 v 5 5 h -5 -5 z m -60,-10 v -5 h 5 5 v 5 5 h -5 -5 z m 90,0 v -5 h 5 5 v 5 5 h -5 -5 z m -80,-20 v -5 h 5 5 v 5 5 h -5 -5 z m 60,0 v -5 h 5 5 v 5 5 h -5 -5 z m -40,-20 v -5 h 5 5 v 5 5 h -5 -5 z m 220,0 v -5 h 5 5 v 5 5 h -5 -5 z m 1540,-20 v -5 h 5 5 v 5 5 h -5 -5 z M 410,575 v -5 h 5 5 v 5 5 h -5 -5 z m 820,-20 v -5 h 10 10 v 5 5 h -10 -10 z m 100,-10 v -5 h -5 -5 v -10 -10 h 5 5 v 5 5 h 5 5 v -5 -5 h 20 20 v 5 5 h 5 5 v 5 5 h -5 -5 v -5 -5 h -20 -20 v 5 5 h 5 5 v 5 5 h -10 -10 z m 30,0 v -5 h 5 5 v 5 5 h -5 -5 z m 550,0 v -5 h 5 5 v 5 5 h -5 -5 z M 520,535 v -5 h 10 10 v 5 5 h -10 -10 z m 710,0 v -5 h 10 10 v 5 5 h -10 -10 z m 430,0 v -5 h 5 5 v -5 -5 h 10 10 v 5 5 h 5 5 v 5 5 h -5 -5 v -5 -5 h -10 -10 v 5 5 h -5 -5 z M 280,525 v -5 h 5 5 v 5 5 h -5 -5 z m 220,-5 v -10 h 5 5 v 10 10 h -5 -5 z m 430,5 v -5 h 5 5 v 5 5 h -5 -5 z m 170,-5 v -10 h 5 5 v -10 -10 h 5 5 v 20 20 h -10 -10 z m 30,-5 v -5 h 5 5 v 5 5 h -5 -5 z m 50,0 v -5 h 5 5 v 5 5 h -5 -5 z m 220,0 v -5 h 5 5 v 5 5 h -5 -5 z m 230,0 v -5 h 5 5 v 5 5 h -5 -5 z M 370,505 v -5 h -5 -5 v -5 -5 h 5 5 v 5 5 h 10 10 v 5 5 h -10 -10 z m 830,0 v -5 h 5 5 v 5 5 h -5 -5 z m 300,-5 v -10 h 5 5 v -5 -5 h 5 5 v 5 5 h -5 -5 v 5 5 h 5 5 v 5 5 h -10 -10 z m 380,5 v -5 h 5 5 v 5 5 h -5 -5 z m 40,0 v -5 h 5 5 v 5 5 h -5 -5 z M 830,495 v -5 h -5 -5 v -5 -5 h -10 -10 v -10 -10 h -5 -5 v -5 -5 h 5 5 v 5 5 h 5 5 v 5 5 h 10 10 v 5 5 h 5 5 v 10 10 h -5 -5 z m 300,0 v -5 h 5 5 v 5 5 h -5 -5 z m 130,0 v -5 h 10 10 v 5 5 h -10 -10 z m 150,0 v -5 h 5 5 v 5 5 h -5 -5 z M 400,485 v -5 h 5 5 v 5 5 h -5 -5 z m 70,0 v -5 h 5 5 v 5 5 h -5 -5 z m 710,0 v -5 h 5 5 v 5 5 h -5 -5 z m 530,0 v -5 h 5 5 v 5 5 h -5 -5 z m 60,0 v -5 h 5 5 v 5 5 h -5 -5 z M 560,475 v -5 h 5 5 v 5 5 h -5 -5 z m 110,0 v -5 h 10 10 v 5 5 h -10 -10 z m 70,0 v -5 h 10 10 v -5 -5 h 5 5 v 5 5 h -5 -5 v 5 5 h -10 -10 z m 160,0 v -5 h 5 5 v -5 -5 h 5 5 v 5 5 h 5 5 v 5 5 h -15 -15 z m 40,-5 v -10 h 10 10 v 5 5 h -5 -5 v 5 5 h -5 -5 z m 170,5 v -5 h 10 10 v 5 5 h -10 -10 z M 850,460 v -10 h 5 5 v 10 10 h -5 -5 z m 1010,5 v -5 h 5 5 v 5 5 h -5 -5 z M 570,455 v -5 h 5 5 v 5 5 h -5 -5 z m 570,0 v -5 h -5 -5 v -5 -5 h -5 -5 v -5 -5 h 5 5 v 5 5 h 5 5 v 5 5 h 5 5 v 5 5 h -5 -5 z M 870,445 v -5 h 5 5 v 5 5 h -5 -5 z m 1010,0 v -5 h 5 5 v 5 5 h -5 -5 z M 810,435 v -5 h 10 10 v 5 5 h -10 -10 z m 90,0 v -5 h 5 5 v 5 5 h -5 -5 z m 20,0 v -5 h 5 5 v 5 5 h -5 -5 z m 1030,-15 v -20 h 5 5 v 20 20 h -5 -5 z m -960,5 v -5 h 5 5 v 5 5 h -5 -5 z m 890,-10 v -5 h 5 5 v 5 5 h -5 -5 z m 30,-10 v -5 h 5 5 v 5 5 h -5 -5 z m -870,-30 v -5 h 5 5 v 5 5 h -5 -5 z m 50,0 v -5 h 5 5 v 5 5 h -5 -5 z m -80,-20 v -5 h 5 5 v 5 5 h -5 -5 z"
         id="path1412" />
      <path
         style="fill:#979d63"
         d="m 1110,915 v -5 h 5 5 v -5 -5 h -5 -5 v -5 -5 h 5 5 v 5 5 h 10 10 v -10 -10 h -5 -5 v -5 -5 h 10 10 v 15 15 h -5 -5 v 5 5 h -10 -10 v 5 5 h -5 -5 z m -80,-30 v -5 h 5 5 v 5 5 h -5 -5 z m 20,-20 v -15 h 5 5 v 15 15 h -5 -5 z m 20,10 v -5 h 5 5 v 5 5 h -5 -5 z m -50,-10 v -5 h 5 5 v 5 5 h -5 -5 z M 710,855 v -5 h 5 5 v 5 5 h -5 -5 z m 20,0 v -5 h 5 5 v 5 5 h -5 -5 z m 390,0 v -5 h 10 10 v 5 5 h -10 -10 z m 350,0 v -5 h 5 5 v 5 5 h -5 -5 z M 970,845 v -5 h -5 -5 v -5 -5 h 5 5 v 5 5 h 5 5 v 5 5 h -5 -5 z m 20,0 v -5 h 10 10 v 5 5 h -10 -10 z m 130,-10 v -5 h 5 5 v 5 5 h -5 -5 z m 280,0 v -5 h 5 5 v 5 5 h -5 -5 z m 40,0 v -5 h 10 10 v 5 5 h -10 -10 z M 550,825 v -5 h 15 15 v 5 5 h -15 -15 z m 70,0 v -5 h -10 -10 v -5 -5 h 10 10 v -5 -5 h 10 10 v 5 5 h -5 -5 v 10 10 h -5 -5 z m 360,0 v -5 h 5 5 v 5 5 h -5 -5 z m 80,0 v -5 h 5 5 v 5 5 h -5 -5 z m 20,0 v -5 h 5 5 v -5 -5 h -10 -10 v -5 -5 h 20 20 v 5 5 h 5 5 v 5 5 h -5 -5 v 5 5 h -5 -5 v -5 -5 h -5 -5 v 5 5 h -5 -5 z m 340,0 v -5 h 5 5 v 5 5 h -5 -5 z M 650,810 v -10 h 5 5 v 10 10 h -5 -5 z m 350,5 v -5 h -5 -5 v -5 -5 h 15 15 v 5 5 h -5 -5 v 5 5 h -5 -5 z m 460,0 v -5 h 5 5 v 5 5 h -5 -5 z m 460,0 v -5 h -5 -5 v -15 -15 h 10 10 v -10 -10 h 5 5 v 15 15 h 5 5 v 10 10 h -10 -10 v 5 5 h -5 -5 z m 10,-15 v -10 h -5 -5 v 10 10 h 5 5 z m -1520,5 v -5 h 5 5 v 5 5 h -5 -5 z m 100,0 v -5 h 5 5 v 5 5 h -5 -5 z m 160,0 v -5 h 5 5 v 5 5 h -5 -5 z m 810,-10 v -15 h 5 5 v -5 -5 h 5 5 v -10 -10 h 5 5 v 10 10 h -5 -5 v 5 5 h -5 -5 v 10 10 h 5 5 v 5 5 h -10 -10 z m 390,10 v -5 h 5 5 v -5 -5 h 10 10 v 5 5 h -10 -10 v 5 5 h -5 -5 z M 350,795 v -5 h 5 5 v 5 5 h -5 -5 z m 340,0 v -5 h 5 5 v -5 -5 h 5 5 v 10 10 h -10 -10 z m 660,0 v -5 h 5 5 v 5 5 h -5 -5 z m 500,0 v -5 h 5 5 v 5 5 h -5 -5 z M 280,785 v -5 h 5 5 v 5 5 h -5 -5 z m 20,0 v -5 h 5 5 v 5 5 h -5 -5 z m 70,0 v -5 h 5 5 v -5 -5 h -20 -20 v 5 5 h -10 -10 v -5 -5 h 10 10 v -5 -5 h 20 20 v 5 5 h 10 10 v 10 10 h -15 -15 z m 1080,0 v -5 h 5 5 v 5 5 h -5 -5 z m 380,0 v -5 h 5 5 v 5 5 h -5 -5 z M 410,770 v -10 h -5 -5 v -5 -5 h 10 10 v 5 5 h 5 5 v 5 5 h -5 -5 v 5 5 h -5 -5 z m 550,5 v -5 h 5 5 v 5 5 h -5 -5 z m 360,0 v -5 h 5 5 v 5 5 h -5 -5 z m 490,0 v -5 h 5 5 v 5 5 h -5 -5 z m 60,0 v -5 h 5 5 v 5 5 h -5 -5 z M 250,765 v -5 h 5 5 v -5 -5 h 5 5 v 5 5 h -5 -5 v 5 5 h -5 -5 z m 40,0 v -5 h 10 10 v 5 5 h -10 -10 z m 180,-10 v -15 h 5 5 v 15 15 h -5 -5 z m 210,10 v -5 h -5 -5 v -10 -10 h 5 5 v -5 -5 h 5 5 v 10 10 h -5 -5 v 5 5 h 5 5 v 5 5 h -5 -5 z m 110,0 v -5 h 15 15 v 5 5 h -15 -15 z m 240,0 v -5 h -10 -10 v -5 -5 h 10 10 v 5 5 h 5 5 v 5 5 h -5 -5 z m 320,-5 v -10 h 5 5 v 10 10 h -5 -5 z m -830,-5 v -5 h 5 5 v 5 5 h -5 -5 z m 110,0 v -5 h -5 -5 v -5 -5 h -5 -5 v -5 -5 h 5 5 v -5 -5 h 10 10 v 5 5 h -5 -5 v 10 10 h 10 10 v -10 -10 h 5 5 v 15 15 h -15 -15 z m 140,0 v -5 h 5 5 v 5 5 h -5 -5 z m 80,0 v -5 h 5 5 v 5 5 h -5 -5 z m 30,0 v -5 h 10 10 v 5 5 h -10 -10 z m 80,0 v -5 h 5 5 v -5 -5 h 5 5 v -5 -5 h -10 -10 v 5 5 h -10 -10 v 5 5 h -5 -5 v -5 -5 h 5 5 v -5 -5 h -5 -5 v -5 -5 h -5 -5 v -5 -5 h 10 10 v 10 10 h 5 5 v -5 -5 h 15 15 v 5 5 h 5 5 v 5 5 h -5 -5 v 10 10 h -10 -10 z m 510,0 v -5 h 5 5 v 5 5 h -5 -5 z m 310,-5 v -10 h 5 5 v 10 10 h -5 -5 z m 30,5 v -5 h 5 5 v 5 5 h -5 -5 z m 90,0 v -5 h 5 5 v 5 5 h -5 -5 z M 180,745 v -5 h -10 -10 v -5 -5 h -15 -15 v -5 -5 h 10 10 v -5 -5 h 5 5 v 10 10 h 10 10 v -5 -5 h 5 5 v 10 10 h 5 5 v -5 -5 h 10 10 v 5 5 h 5 5 v 5 5 h -5 -5 v -5 -5 h -10 -10 v 5 5 h -10 -10 z m 100,0 v -5 h -5 -5 v -5 -5 h 5 5 v -5 -5 h 5 5 v -5 -5 h -5 -5 v -10 -10 h 5 5 v 5 5 h 5 5 v 15 15 h -5 -5 v 5 5 h 5 5 v 5 5 h -10 -10 z m 30,0 v -5 h 5 5 v 5 5 h -5 -5 z m 20,0 v -5 h 10 10 v 5 5 h -10 -10 z m 100,0 v -5 h 5 5 v 5 5 h -5 -5 z m 120,0 v -5 h 5 5 v -5 -5 h 5 5 v 5 5 h -5 -5 v 5 5 h -5 -5 z m 40,0 v -5 h -5 -5 v -10 -10 h 5 5 v 10 10 h 5 5 v 5 5 h -5 -5 z m 110,0 v -5 h 5 5 v -5 -5 h 5 5 v 5 5 h -5 -5 v 5 5 h -5 -5 z m 40,0 v -5 h -5 -5 v -5 -5 h 10 10 v 10 10 h -5 -5 z m 80,0 v -5 h 5 5 v 5 5 h -5 -5 z m 230,0 v -5 h -10 -10 v -5 -5 h -5 -5 v -10 -10 h 10 10 v 5 5 h 5 5 v -5 -5 h 15 15 v 5 5 h 5 5 v -5 -5 h 5 5 v -5 -5 h 10 10 v -5 -5 h 5 5 v -5 -5 h 5 5 v 5 5 h -5 -5 v 20 20 h -5 -5 v -5 -5 h -10 -10 v 5 5 h -10 -10 v -5 -5 h -5 -5 v 5 5 h -10 -10 v 5 5 h 10 10 v 5 5 h -10 -10 z m 50,0 v -5 h 5 5 v 5 5 h -5 -5 z m 100,0 v -5 h 5 5 v 5 5 h -5 -5 z m 530,0 v -5 h 5 5 v 5 5 h -5 -5 z m 130,0 v -5 h 5 5 v 5 5 h -5 -5 z m 60,0 v -5 h 5 5 v 5 5 h -5 -5 z M 240,735 v -5 h 5 5 v 5 5 h -5 -5 z m 620,0 v -5 h 5 5 v 5 5 h -5 -5 z m 40,0 v -5 h 5 5 v 5 5 h -5 -5 z m 320,0 v -5 h 5 5 v 5 5 h -5 -5 z m 170,0 v -5 h 5 5 v 5 5 h -5 -5 z m 360,0 v -5 h 5 5 v 5 5 h -5 -5 z m 60,0 v -5 h 5 5 v 5 5 h -5 -5 z M 460,725 v -5 h 5 5 v 5 5 h -5 -5 z m 30,0 v -5 h 5 5 v 5 5 h -5 -5 z m 30,0 v -5 h 5 5 v 5 5 h -5 -5 z m 300,0 v -5 h -5 -5 v -5 -5 h -10 -10 v -5 -5 h 10 10 v -5 -5 h 10 10 v -10 -10 h 5 5 v 10 10 h 5 5 v 5 5 h 5 5 v 10 10 h -5 -5 v -10 -10 h -20 -20 v 5 5 h 5 5 v 5 5 h 5 5 v -5 -5 h 5 5 v 10 10 h -10 -10 z m 350,0 v -5 h 5 5 v 5 5 h -5 -5 z m 240,0 v -5 h 5 5 v 5 5 h -5 -5 z m 290,-5 v -10 h -5 -5 v 5 5 h -5 -5 v -5 -5 h 5 5 v -5 -5 h 5 5 v -5 -5 h 5 5 v -5 -5 h 5 5 v 5 5 h 5 5 v 5 5 h -5 -5 v -5 -5 h -5 -5 v 5 5 h -5 -5 v 5 5 h 5 5 v 10 10 h -5 -5 z m 130,5 v -5 h 5 5 v -5 -5 h -5 -5 v -5 -5 h 5 5 v 5 5 h 5 5 v 5 5 h -5 -5 v 5 5 h -5 -5 z M 210,715 v -5 h 5 5 v 5 5 h -5 -5 z m 30,0 v -5 h 10 10 v -10 -10 h 5 5 v 15 15 h -15 -15 z m 310,0 v -5 h -5 -5 v -5 -5 h 10 10 v 10 10 h -5 -5 z m 100,0 v -5 h -10 -10 v -10 -10 h 5 5 v 5 5 h 5 5 v 5 5 h 5 5 v 5 5 h -5 -5 z m 30,-5 v -10 h 10 10 v -5 -5 h -5 -5 v -10 -10 h 5 5 v 5 5 h 5 5 v 5 5 h 5 5 v -10 -10 h 5 5 v 10 10 h 5 5 v -10 -10 h 10 10 v 10 10 h 10 10 v 5 5 h -5 -5 v 10 10 h -5 -5 v -5 -5 h -5 -5 v 5 5 h -5 -5 v -10 -10 h -5 -5 v 5 5 h -5 -5 v -5 -5 h -5 -5 v 10 10 h -5 -5 v -5 -5 h -5 -5 v 5 5 h -5 -5 z m 50,-15 v -5 h -5 -5 v 5 5 h 5 5 z m 30,0 v -5 h -10 -10 v 5 5 h 10 10 z m 110,10 v -15 h 10 10 v 5 5 h 10 10 v 5 5 h -10 -10 v 5 5 h -10 -10 z m 20,0 v -5 h -5 -5 v 5 5 h 5 5 z m 100,10 v -5 h 5 5 v 5 5 h -5 -5 z m 210,0 v -5 h 5 5 v -5 -5 h 5 5 v 5 5 h 15 15 v -5 -5 h -5 -5 v -5 -5 h 5 5 v 5 5 h 5 5 v 5 5 h -5 -5 v 5 5 h -15 -15 v -5 -5 h -5 -5 v 5 5 h -5 -5 z m 240,0 v -5 h 5 5 v 5 5 h -5 -5 z m 50,0 v -5 h 10 10 v 5 5 h -10 -10 z m 280,0 v -5 h 5 5 v 5 5 h -5 -5 z m 40,0 v -5 h 5 5 v 5 5 h -5 -5 z m 50,0 v -5 h 5 5 v 5 5 h -5 -5 z M 440,705 v -5 h 5 5 v 5 5 h -5 -5 z m 1210,0 v -5 h 10 10 v 5 5 h -10 -10 z m 140,0 v -5 h 5 5 v -5 -5 h -5 -5 v -5 -5 h 5 5 v -5 -5 h 10 10 v 5 5 h -10 -10 v 5 5 h 10 10 v 5 5 h -10 -10 v 5 5 h -5 -5 z M 140,695 v -5 h 5 5 v 5 5 h -5 -5 z m 30,0 v -5 h 5 5 v 5 5 h -5 -5 z m 30,0 v -5 h 5 5 v 5 5 h -5 -5 z m 170,-10 v -15 h 5 5 v 15 15 h -5 -5 z m 150,5 v -10 h 5 5 v 10 10 h -5 -5 z m 140,5 v -5 h -5 -5 v -5 -5 h 5 5 v 5 5 h 5 5 v 5 5 h -5 -5 z m 270,0 v -5 h 5 5 v -5 -5 h 20 20 v 5 5 h -20 -20 v 5 5 h -5 -5 z m 120,0 v -5 h 10 10 v 5 5 h -10 -10 z m 130,0 v -5 h 5 5 v 5 5 h -5 -5 z m 90,0 v -5 h -5 -5 v -5 -5 h 5 5 v 5 5 h 10 10 v 5 5 h -10 -10 z m 70,0 v -5 h 5 5 v -10 -10 h 5 5 v 5 5 h 5 5 v -5 -5 h 5 5 v 5 5 h 5 5 v -5 -5 h 5 5 v 5 5 h 10 10 v 5 5 h -20 -20 v -5 -5 h -5 -5 v 5 5 h -5 -5 v 5 5 h -10 -10 z m 150,0 v -5 h 5 5 v 5 5 h -5 -5 z m 120,0 v -5 h 5 5 v 5 5 h -5 -5 z m 130,0 v -5 h 10 10 v 5 5 h -10 -10 z m 30,0 v -5 h 5 5 v 5 5 h -5 -5 z m 140,0 v -5 h 5 5 v 5 5 h -5 -5 z M 220,685 v -5 h -5 -5 v -5 -5 h -5 -5 v -5 -5 h 5 5 v -5 -5 h 5 5 v -5 -5 h 5 5 v 10 10 h -10 -10 v 5 5 h 5 5 v 5 5 h 5 5 v 5 5 h -5 -5 z m 100,-5 v -10 h 5 5 v 10 10 h -5 -5 z m 80,0 v -10 h 5 5 v 10 10 h -5 -5 z m 800,5 v -5 h 10 10 v 5 5 h -10 -10 z m 640,0 v -5 h 5 5 v 5 5 h -5 -5 z M 150,675 v -5 h -5 -5 v -5 -5 h 5 5 v 5 5 h 5 5 v 5 5 h -5 -5 z m 330,0 v -5 h 5 5 v 5 5 h -5 -5 z m 20,0 v -5 h 5 5 v 5 5 h -5 -5 z m 90,0 v -5 h 10 10 v 5 5 h -10 -10 z m 30,0 v -5 h 10 10 v 5 5 h -10 -10 z m 990,0 v -5 h 10 10 v -5 -5 h 5 5 v 5 5 h -5 -5 v 5 5 h -10 -10 z m 130,0 v -5 h 5 5 v 5 5 h -5 -5 z m 20,0 v -5 h 5 5 v -5 -5 h 5 5 v 5 5 h -5 -5 v 5 5 h -5 -5 z M 790,665 v -5 h 5 5 v 5 5 h -5 -5 z m 190,0 v -5 h 5 5 v 5 5 h -5 -5 z m 80,0 v -5 h 5 5 v 5 5 h -5 -5 z m 380,0 v -5 h -5 -5 v -20 -20 h 5 5 v 20 20 h 5 5 v 5 5 h -5 -5 z m 20,0 v -5 h 10 10 v 5 5 h -10 -10 z m 200,0 v -5 h 5 5 v 5 5 h -5 -5 z m 240,-5 v -10 h 5 5 v 10 10 h -5 -5 z M 110,655 v -5 h 5 5 v 5 5 h -5 -5 z m 220,0 v -5 h 5 5 v -5 -5 h 5 5 v 5 5 h -5 -5 v 5 5 h -5 -5 z m 40,0 v -5 h 5 5 v 5 5 h -5 -5 z m 190,0 v -5 h 5 5 v 5 5 h -5 -5 z m 40,0 v -5 h 10 10 v 5 5 h -10 -10 z m 100,0 v -5 h 5 5 v 5 5 h -5 -5 z m 50,0 v -5 h 5 5 v 5 5 h -5 -5 z m 70,0 v -5 h -5 -5 v -5 -5 h 5 5 v 5 5 h 5 5 v 5 5 h -5 -5 z m 210,0 v -5 h 10 10 v 5 5 h -10 -10 z m 140,0 v -5 h 5 5 v 5 5 h -5 -5 z m 20,0 v -5 h 5 5 v 5 5 h -5 -5 z m 50,0 v -5 h 5 5 v 5 5 h -5 -5 z m 160,0 v -5 h 5 5 v 5 5 h -5 -5 z m 90,0 v -5 h 5 5 v 5 5 h -5 -5 z m 50,0 v -5 h -5 -5 v -5 -5 h 5 5 v 5 5 h 5 5 v 5 5 h -5 -5 z m 40,0 v -5 h 5 5 v 5 5 h -5 -5 z m 100,0 v -5 h 5 5 v 5 5 h -5 -5 z m 60,0 v -5 h 10 10 v -5 -5 h 5 5 v -5 -5 h 5 5 v 5 5 h -5 -5 v 5 5 h -5 -5 v 5 5 h -10 -10 z m 60,0 v -5 h 5 5 v 5 5 h -5 -5 z M 300,645 v -5 h 10 10 v 5 5 h -10 -10 z m 160,0 v -5 h 5 5 v 5 5 h -5 -5 z m 430,0 v -5 h 5 5 v 5 5 h -5 -5 z m 60,0 v -5 h 5 5 v 5 5 h -5 -5 z m 260,0 v -5 h 5 5 v 5 5 h -5 -5 z m 50,0 v -5 h 5 5 v 5 5 h -5 -5 z m 120,0 v -5 h 5 5 v -5 -5 h -5 -5 v -5 -5 h 5 5 v 5 5 h 5 5 v 5 5 h -5 -5 v 5 5 h -5 -5 z m 80,0 v -5 h 5 5 v 5 5 h -5 -5 z m 50,0 v -5 h 5 5 v 5 5 h -5 -5 z M 180,635 v -5 h 10 10 v 5 5 h -10 -10 z m 180,0 v -5 h -5 -5 v -5 -5 h -10 -10 v 5 5 h -15 -15 v -5 -5 h 15 15 v -5 -5 h 5 5 v -5 -5 h 5 5 v 10 10 h 5 5 v -5 -5 h 5 5 v -5 -5 h 5 5 v -5 -5 h 5 5 v 5 5 h 5 5 v -15 -15 h -10 -10 v -5 -5 h 20 20 v -5 -5 h 5 5 v -5 -5 h 5 5 v 10 10 h -5 -5 v 10 10 h -5 -5 v 10 10 h 10 10 v 5 5 h 5 5 v -5 -5 h 5 5 v 5 5 h -5 -5 v 5 5 h -5 -5 v -5 -5 h -10 -10 v 5 5 h -5 -5 v -5 -5 h -20 -20 v 5 5 h -5 -5 v 5 5 h 5 5 v 5 5 h -5 -5 z m 60,-60 v -5 h -5 -5 v 5 5 h 5 5 z m 230,60 v -5 h 5 5 v 5 5 h -5 -5 z m 330,0 v -5 h 5 5 v 5 5 h -5 -5 z m 570,0 v -5 h 5 5 v 5 5 h -5 -5 z m 70,0 v -5 h 5 5 v 5 5 h -5 -5 z m 120,-5 v -10 h 5 5 v -5 -5 h 5 5 v 5 5 h -5 -5 v 10 10 h -5 -5 z m 50,5 v -5 h 5 5 v 5 5 h -5 -5 z m 90,0 v -5 h -5 -5 v -5 -5 h -5 -5 v -5 -5 h -20 -20 v -5 -5 h 25 25 v 10 10 h 5 5 v -5 -5 h 5 5 v -5 -5 h -5 -5 v -5 -5 h 5 5 v -5 -5 h -20 -20 v 5 5 h -5 -5 v -10 -10 h -10 -10 v -5 -5 h -20 -20 v -10 -10 h -5 -5 v -5 -5 h 5 5 v 5 5 h 10 10 v -5 -5 h 5 5 v 5 5 h -5 -5 v 5 5 h 10 10 v 5 5 h 5 5 v -10 -10 h 20 20 v 5 5 h -15 -15 v 10 10 h 5 5 v -5 -5 h 5 5 v 5 5 h 10 10 v -5 -5 h 5 5 v 5 5 h 5 5 v -20 -20 h 10 10 v 5 5 h -5 -5 v 15 15 h -5 -5 v 35 35 h -10 -10 z M 160,625 v -5 h 5 5 v 5 5 h -5 -5 z m 50,0 v -5 h -5 -5 v -5 -5 h 5 5 v -5 -5 h 5 5 v 5 5 h 5 5 v 5 5 h -5 -5 v 5 5 h -5 -5 z m 10,-10 v -5 h -5 -5 v 5 5 h 5 5 z m 40,10 v -5 h -5 -5 v -5 -5 h -5 -5 v -5 -5 h 5 5 v 5 5 h 5 5 v -10 -10 h 5 5 v 10 10 h -5 -5 v 5 5 h 5 5 v 5 5 h -5 -5 z m 130,0 v -5 h 5 5 v 5 5 h -5 -5 z m 140,0 v -5 h 5 5 v 5 5 h -5 -5 z m 680,0 v -5 h 5 5 v 5 5 h -5 -5 z m 270,0 v -5 h 5 5 v 5 5 h -5 -5 z M 130,615 v -5 h 5 5 v 5 5 h -5 -5 z m 440,0 v -5 h 10 10 v -5 -5 h 5 5 v 5 5 h -5 -5 v 5 5 h -10 -10 z m 130,0 v -5 h 5 5 v 5 5 h -5 -5 z m 70,0 v -5 h 5 5 v 5 5 h -5 -5 z m 30,0 v -5 h -5 -5 v -5 -5 h 5 5 v 5 5 h 5 5 v 5 5 h -5 -5 z m 40,0 v -5 h 10 10 v 5 5 h -10 -10 z m 140,0 v -5 h 10 10 v 5 5 h -10 -10 z m 30,0 v -5 h 10 10 v 5 5 h -10 -10 z m 80,0 v -5 h 10 10 v 5 5 h -10 -10 z m 100,0 v -5 h 5 5 v 5 5 h -5 -5 z m 130,-5 v -10 h 5 5 v 10 10 h -5 -5 z m 80,5 v -5 h 5 5 v 5 5 h -5 -5 z m 250,0 v -5 h 5 5 v 5 5 h -5 -5 z M 530,605 v -5 h 5 5 v -5 -5 h 5 5 v -5 -5 h -10 -10 v 5 5 h -5 -5 v -5 -5 h 5 5 v -10 -10 h -5 -5 v -5 -5 h 5 5 v 5 5 h 5 5 v -5 -5 h 5 5 v 5 5 h -5 -5 v 5 5 h 5 5 v 5 5 h 5 5 v 5 5 h -5 -5 v 5 5 h -5 -5 v 5 5 h -5 -5 z m 220,0 v -5 h 5 5 v 5 5 h -5 -5 z m 190,0 v -5 h 5 5 v 5 5 h -5 -5 z m 190,0 v -5 h 5 5 v 5 5 h -5 -5 z m 90,0 v -5 h 5 5 v 5 5 h -5 -5 z m 120,0 v -5 h 5 5 v 5 5 h -5 -5 z m 90,0 v -5 h 5 5 v -10 -10 h 5 5 v 10 10 h 5 5 v 5 5 h -15 -15 z m 80,0 v -5 h 5 5 v 5 5 h -5 -5 z m 50,0 v -5 h -5 -5 v -5 -5 h 5 5 v 5 5 h 5 5 v 5 5 h -5 -5 z m 70,-5 v -10 h -5 -5 v -5 -5 h 5 5 v 5 5 h 5 5 v 10 10 h -5 -5 z m 160,5 v -5 h 5 5 v 5 5 h -5 -5 z m -720,-10 v -5 h 5 5 v 5 5 h -5 -5 z m 20,0 v -5 h 5 5 v 5 5 h -5 -5 z m 390,0 v -5 h 5 5 v 5 5 h -5 -5 z m 260,0 v -5 h 5 5 v 5 5 h -5 -5 z M 220,585 v -5 h 5 5 v 5 5 h -5 -5 z m 20,0 v -5 h 5 5 v 5 5 h -5 -5 z m 340,0 v -5 h 5 5 v 5 5 h -5 -5 z m 50,0 v -5 h -10 -10 v -15 -15 h 10 10 v 5 5 h -5 -5 v 5 5 h 5 5 v 5 5 h 5 5 v -10 -10 h 15 15 v 5 5 h -10 -10 v 10 10 h -10 -10 z m 90,0 v -5 h 5 5 v 5 5 h -5 -5 z m 130,0 v -5 h 5 5 v 5 5 h -5 -5 z m 50,0 v -5 h 5 5 v 5 5 h -5 -5 z m 400,0 v -5 h -5 -5 v -10 -10 h 5 5 v 10 10 h 5 5 v 5 5 h -5 -5 z m 100,0 v -5 h 5 5 v 5 5 h -5 -5 z m 100,0 v -5 h 5 5 v 5 5 h -5 -5 z m 270,0 v -5 h 20 20 v 5 5 h -20 -20 z M 490,575 v -5 h -20 -20 v -5 -5 h 10 10 v -5 -5 h 15 15 v 5 5 h -5 -5 v 5 5 h 5 5 v 5 5 h -5 -5 z m 200,0 v -5 h 5 5 v 5 5 h -5 -5 z m 80,0 v -5 h 5 5 v 5 5 h -5 -5 z m 50,-5 v -10 h 5 5 v 10 10 h -5 -5 z m 250,5 v -5 h 5 5 v 5 5 h -5 -5 z m 80,-5 v -10 h 5 5 v 10 10 h -5 -5 z m 20,5 v -5 h 5 5 v 5 5 h -5 -5 z m 40,0 v -5 h 5 5 v -15 -15 h 10 10 v 5 5 h -5 -5 v 10 10 h -5 -5 v 5 5 h -5 -5 z m 110,0 v -5 h -5 -5 v -5 -5 h 5 5 v -5 -5 h -5 -5 v -5 -5 h 10 10 v 10 10 h -5 -5 v 5 5 h 5 5 v 5 5 h -5 -5 z m 30,0 v -5 h 5 5 v 5 5 h -5 -5 z m 20,0 v -5 h 5 5 v 5 5 h -5 -5 z m 100,0 v -5 h 5 5 v 5 5 h -5 -5 z m 110,0 v -5 h 5 5 v 5 5 h -5 -5 z M 350,565 v -5 h 5 5 v 5 5 h -5 -5 z m 210,-5 v -10 h 5 5 v 5 5 h 5 5 v 5 5 h -10 -10 z m 30,0 v -10 h 5 5 v 10 10 h -5 -5 z m 150,5 v -5 h 5 5 v 5 5 h -5 -5 z m 150,0 v -5 h 5 5 v -5 -5 h 5 5 v 5 5 h 5 5 v 5 5 h -5 -5 v -5 -5 h -5 -5 v 5 5 h -5 -5 z m 80,0 v -5 h 5 5 v 5 5 h -5 -5 z m 270,0 v -5 h 5 5 v 5 5 h -5 -5 z m 510,0 v -5 h -5 -5 v -5 -5 h 10 10 v 10 10 h -5 -5 z M 760,555 v -5 h 10 10 v 5 5 h -10 -10 z m 40,0 v -5 h 5 5 v 5 5 h -5 -5 z m 150,0 v -5 h 5 5 v 5 5 h -5 -5 z m 310,0 v -5 h -5 -5 v -5 -5 h 5 5 v -5 -5 h 5 5 v 5 5 h -5 -5 v 5 5 h 5 5 v 5 5 h -5 -5 z m 100,0 v -5 h -5 -5 v -5 -5 h -5 -5 v -5 -5 h -5 -5 v -5 -5 h -5 -5 v 5 5 h -5 -5 v -5 -5 h 5 5 v -5 -5 h 5 5 v 5 5 h 5 5 v -5 -5 h 10 10 v 5 5 h -10 -10 v 5 5 h 5 5 v 5 5 h 5 5 v 5 5 h 5 5 v 5 5 h -5 -5 z m 70,0 v -5 h 5 5 v 5 5 h -5 -5 z m 20,0 v -5 h 5 5 v 5 5 h -5 -5 z m 270,0 v -5 h 5 5 v 5 5 h -5 -5 z M 640,545 v -5 h 5 5 v 5 5 h -5 -5 z m 210,0 v -5 h 15 15 v 5 5 h -15 -15 z m 130,0 v -5 h 5 5 v 5 5 h -5 -5 z m 50,0 v -5 h 5 5 v -5 -5 h -5 -5 v -5 -5 h 5 5 v 5 5 h 5 5 v -5 -5 h 5 5 v 5 5 h -5 -5 v 5 5 h -5 -5 v 5 5 h -5 -5 z m 80,0 v -5 h 5 5 v -5 -5 h 5 5 v 5 5 h 5 5 v 5 5 h -5 -5 v -5 -5 h -5 -5 v 5 5 h -5 -5 z m 90,0 v -5 h 5 5 v 5 5 h -5 -5 z m 320,0 v -5 h 5 5 v -5 -5 h 5 5 v 5 5 h 10 10 v 5 5 h -10 -10 v -5 -5 h -5 -5 v 5 5 h -5 -5 z m 50,0 v -5 h 5 5 v 5 5 h -5 -5 z m 30,-5 v -10 h 20 20 v -5 -5 h 5 5 v 5 5 h 5 5 v 5 5 h -5 -5 v -5 -5 h -5 -5 v 5 5 h -5 -5 v 5 5 h -5 -5 v -5 -5 h -5 -5 v 5 5 h -5 -5 z m 70,5 v -5 h 5 5 v 5 5 h -5 -5 z M 400,535 v -5 h 5 5 v 5 5 h -5 -5 z m 90,0 v -5 h 10 10 v 5 5 h -10 -10 z m 80,0 v -5 h -5 -5 v -5 -5 h 5 5 v 5 5 h 5 5 v 5 5 h -5 -5 z m 120,0 v -5 h 5 5 v 5 5 h -5 -5 z m 70,-5 v -10 h 5 5 v 10 10 h -5 -5 z m 330,5 v -5 h 5 5 v 5 5 h -5 -5 z m 70,0 v -5 h 5 5 v 5 5 h -5 -5 z m 210,0 v -5 h 5 5 v 5 5 h -5 -5 z m 110,0 v -5 h 5 5 v 5 5 h -5 -5 z m 220,-5 v -10 h -5 -5 v -5 -5 h -5 -5 v -5 -5 h 5 5 v -5 -5 h 5 5 v 15 15 h 5 5 v -5 -5 h 5 5 v 5 5 h -5 -5 v 10 10 h -5 -5 z m 20,5 v -5 h 5 5 v 5 5 h -5 -5 z M 530,525 v -5 h 5 5 v 5 5 h -5 -5 z m 130,-5 v -10 h -5 -5 v -5 -5 h -15 -15 v -10 -10 h 5 5 v -5 -5 h 5 5 v 10 10 h 5 5 v -5 -5 h 5 5 v -15 -15 h 5 5 v 15 15 h 5 5 v 10 10 h -10 -10 v 5 5 h 5 5 v 10 10 h -5 -5 z m 0,-25 v -5 h 5 5 v -5 -5 h -5 -5 v 5 5 h -5 -5 v 5 5 h 5 5 z m 80,30 v -5 h -5 -5 v -10 -10 h 5 5 v 10 10 h 5 5 v 5 5 h -5 -5 z m 220,0 v -5 h 5 5 v -5 -5 h 5 5 v 5 5 h -5 -5 v 5 5 h -5 -5 z m 30,0 v -5 h 5 5 v 5 5 h -5 -5 z m 240,-5 v -10 h 5 5 v 5 5 h 5 5 v 5 5 h -10 -10 z m 220,5 v -5 h 5 5 v 5 5 h -5 -5 z m 390,0 v -5 h 5 5 v 5 5 h -5 -5 z M 310,515 v -5 h 5 5 v 5 5 h -5 -5 z m 80,0 v -5 h 5 5 v -10 -10 h 5 5 v 10 10 h 5 5 v 5 5 h -5 -5 v -5 -5 h -5 -5 v 5 5 h -5 -5 z m 40,-5 v -10 h -5 -5 v -5 -5 h 5 5 v 5 5 h 5 5 v -5 -5 h 5 5 v -5 -5 h 5 5 v 5 5 h -5 -5 v 5 5 h -5 -5 v 10 10 h -5 -5 z m 40,5 v -5 h 5 5 v 5 5 h -5 -5 z m 40,0 v -5 h 5 5 v 5 5 h -5 -5 z m 110,0 v -5 h 10 10 v 5 5 h -10 -10 z m 190,0 v -5 h -10 -10 v -5 -5 h 10 10 v -5 -5 h -5 -5 v -5 -5 h 10 10 v 5 5 h 5 5 v 5 5 h -10 -10 v 5 5 h 5 5 v 5 5 h -5 -5 z m 130,0 v -5 h 5 5 v 5 5 h -5 -5 z m 250,0 v -5 h 5 5 v 5 5 h -5 -5 z m 190,0 v -5 h 10 10 v 5 5 h -10 -10 z m 40,0 v -5 h 5 5 v 5 5 h -5 -5 z m 310,0 v -5 h 5 5 v -5 -5 h 5 5 v 5 5 h 5 5 v 5 5 h -5 -5 v -5 -5 h -5 -5 v 5 5 h -5 -5 z m 50,0 v -5 h -5 -5 v -5 -5 h 5 5 v -5 -5 h 5 5 v 5 5 h -5 -5 v 5 5 h 5 5 v 5 5 h -5 -5 z m 140,0 v -5 h -5 -5 v -5 -5 h 5 5 v -5 -5 h 5 5 v -5 -5 h 5 5 v 10 10 h -10 -10 v 5 5 h 5 5 v 5 5 h -5 -5 z M 360,505 v -5 h 5 5 v 5 5 h -5 -5 z m 130,-10 v -15 h 5 5 v -5 -5 h 5 5 v -5 -5 h 5 5 v 5 5 h 5 5 v 10 10 h 5 5 v -5 -5 h 5 5 v 5 5 h 20 20 v -5 -5 h 10 10 v 10 10 h -5 -5 v -5 -5 h -5 -5 v 5 5 h -20 -20 v 5 5 h -5 -5 v -5 -5 h -10 -10 v -5 -5 h -5 -5 v 5 5 h -5 -5 v 5 5 h -5 -5 z m 60,0 v -5 h -5 -5 v 5 5 h 5 5 z m 220,10 v -5 h 5 5 v 5 5 h -5 -5 z m 150,-5 v -10 h -5 -5 v -5 -5 h 20 20 v -5 -5 h 5 5 v -5 -5 h 15 15 v 5 5 h -5 -5 v 5 5 h -10 -10 v 5 5 h -15 -15 v 10 10 h -5 -5 z m 70,5 v -5 h -5 -5 v -5 -5 h 5 5 v -5 -5 h 5 5 v 5 5 h -5 -5 v 5 5 h 5 5 v 5 5 h -5 -5 z m 80,0 v -5 h 15 15 v 5 5 h -15 -15 z m 80,0 v -5 h -5 -5 v -5 -5 h 5 5 v 5 5 h 5 5 v -5 -5 h 5 5 v -5 -5 h 5 5 v 5 5 h 5 5 v 5 5 h -5 -5 v -5 -5 h -5 -5 v 10 10 h -10 -10 z m 60,0 v -5 h -5 -5 v -5 -5 h 5 5 v 5 5 h 5 5 v 5 5 h -5 -5 z m 50,0 v -5 h 5 5 v 5 5 h -5 -5 z m 200,0 v -5 h 5 5 v -5 -5 h 5 5 v -5 -5 h 10 10 v 10 10 h -15 -15 v 5 5 h -5 -5 z m 200,0 v -5 h 5 5 v 5 5 h -5 -5 z m 140,0 v -5 h 5 5 v 5 5 h -5 -5 z m 40,0 v -5 h 5 5 v 5 5 h -5 -5 z m 30,0 v -5 h 5 5 v 5 5 h -5 -5 z M 850,495 v -5 h -5 -5 v -5 -5 h 5 5 v -5 -5 h 10 10 v -5 -5 h -5 -5 v -10 -10 h 5 5 v 5 5 h 5 5 v -5 -5 h 10 10 v 5 5 h -5 -5 v 5 5 h 10 10 v -5 -5 h 5 5 v 5 5 h 5 5 v 5 5 h -5 -5 v -5 -5 h -5 -5 v 5 5 h -15 -15 v 5 5 h -10 -10 v 5 5 h 5 5 v 5 5 h -10 -10 z m 190,0 v -5 h 5 5 v -5 -5 h 5 5 v 10 10 h -10 -10 z m 780,0 v -5 h -10 -10 v -5 -5 h -5 -5 v -5 -5 h 5 5 v 5 5 h 10 10 v -5 -5 h 10 10 v 5 5 h 5 5 v 5 5 h -5 -5 v -5 -5 h -10 -10 v 5 5 h 5 5 v 5 5 h -5 -5 z M 700,480 v -10 h -5 -5 v -5 -5 h -5 -5 v -5 -5 h 10 10 v 5 5 h 5 5 v -5 -5 h 10 10 v 5 5 h -10 -10 v 10 10 h 5 5 v 5 5 h -10 -10 z m 310,5 v -5 h 5 5 v 5 5 h -5 -5 z m 740,0 v -5 h -5 -5 v -5 -5 h 5 5 v 5 5 h 5 5 v 5 5 h -5 -5 z m -290,-10 v -5 h 5 5 v 5 5 h -5 -5 z m 400,0 v -5 h 5 5 v 5 5 h -5 -5 z m 20,0 v -5 h 5 5 v 5 5 h -5 -5 z M 600,465 v -5 h 5 5 v 5 5 h -5 -5 z m 150,-5 v -10 h 10 10 v 5 5 h 5 5 v 5 5 h -5 -5 v -5 -5 h -5 -5 v 5 5 h -5 -5 z m 60,5 v -5 h -5 -5 v -5 -5 h 10 10 v -5 -5 h 5 5 v 5 5 h 5 5 v 10 10 h -15 -15 z m 190,0 v -5 h 5 5 v 5 5 h -5 -5 z m 940,-5 v -10 h 5 5 v 10 10 h -5 -5 z M 580,455 v -5 h 5 5 v 5 5 h -5 -5 z m 50,0 v -5 h 5 5 v 5 5 h -5 -5 z m 410,0 v -5 h -5 -5 v -5 -5 h 5 5 v 5 5 h 5 5 v 5 5 h -5 -5 z m 780,-5 v -10 h 5 5 v -5 -5 h 10 10 v 5 5 h -10 -10 v 10 10 h -5 -5 z m 40,5 v -5 h 5 5 v 5 5 h -5 -5 z m 50,0 v -5 h 5 5 v 5 5 h -5 -5 z M 970,440 v -10 h -5 -5 v -5 -5 h -5 -5 v -5 -5 h -5 -5 v 10 10 h 5 5 v 5 5 h -5 -5 v -5 -5 h -5 -5 v -10 -10 h 5 5 v -5 -5 h 5 5 v 5 5 h 5 5 v 5 5 h 5 5 v -5 -5 h 10 10 v 5 5 h -10 -10 v 5 5 h 5 5 v 10 10 h -5 -5 z m 20,0 v -10 h 5 5 v 10 10 h -5 -5 z m 80,-5 v -5 h -5 -5 v -5 -5 h 5 5 v 5 5 h 5 5 v -5 -5 h 5 5 v 5 5 h -5 -5 v 5 5 h -5 -5 z m 40,0 v -5 h 5 5 v 5 5 h -5 -5 z m 750,0 v -5 h 5 5 v 5 5 h -5 -5 z m 40,-10 v -15 h 5 5 v 15 15 h -5 -5 z m 30,10 v -5 h -5 -5 v -10 -10 h 5 5 v -5 -5 h 10 10 v 5 5 h -10 -10 v 5 5 h 10 10 v 5 5 h -5 -5 v 5 5 h -5 -5 z M 910,425 v -5 h 5 5 v 5 5 h -5 -5 z m 110,0 v -5 h 5 5 v 5 5 h -5 -5 z m 80,-10 v -5 h -5 -5 v -5 -5 h 5 5 v -5 -5 h 5 5 v 10 10 h 5 5 v 5 5 h -10 -10 z M 910,405 v -5 h 5 5 v 5 5 h -5 -5 z m 90,0 v -5 h -5 -5 v -5 -5 h 5 5 v 5 5 h 5 5 v 5 5 h -5 -5 z m -40,-10 v -5 h 5 5 v 5 5 h -5 -5 z m 60,0 v -5 h 5 5 v 5 5 h -5 -5 z m 20,-10 v -5 h 5 5 v 5 5 h -5 -5 z m -40,-10 v -5 h -5 -5 v -5 -5 h 5 5 v 5 5 h 5 5 v -5 -5 h 5 5 v 5 5 h 5 5 v 5 5 h -5 -5 v -5 -5 h -5 -5 v 5 5 h -5 -5 z m 60,-15 v -20 h 5 5 v 5 5 h 5 5 v 10 10 h 5 5 v 5 5 h -5 -5 v -5 -5 h -5 -5 v 5 5 h -5 -5 z m -20,-15 v -5 h 5 5 v 5 5 h -5 -5 z"
         id="path1410" />
      <path
         style="fill:#5a5b22"
         d="m 1090,905 v -5 h -10 -10 v -5 -5 h -5 -5 v 5 5 h -5 -5 v -5 -5 h -5 -5 v -5 -5 h -10 -10 v -5 -5 h -5 -5 v -5 -5 h 5 5 v -5 -5 h -5 -5 v -5 -5 h 5 5 v -5 -5 h 5 5 v 5 5 h -5 -5 v 5 5 h 10 10 v -5 -5 h 5 5 v -10 -10 h -10 -10 v -5 -5 h 30 30 v 5 5 h 5 5 v 5 5 h 5 5 v -5 -5 h 5 5 v 10 10 h 5 5 v 5 5 h -5 -5 v 5 5 h 10 10 v 5 5 h -5 -5 v 5 5 h 5 5 v 10 10 h -10 -10 v 5 5 h -15 -15 z m 30,-10 v -5 h -5 -5 v 5 5 h 5 5 z m -60,-20 v -5 h 5 5 v 5 5 h 5 5 v -5 -5 h -5 -5 v -10 -10 h -5 -5 v -5 -5 h -5 -5 v 5 5 h -5 -5 v 5 5 h 5 5 v 5 5 h -5 -5 v 5 5 h 10 10 z m -30,-10 v -5 h -5 -5 v 5 5 h 5 5 z m 60,-15 v -10 h 5 5 v -5 -5 h -5 -5 v -5 -5 h -5 -5 v 5 5 h -5 -5 v -5 -5 h -5 -5 v 5 5 h 5 5 v 5 5 h 5 5 v 10 10 h 5 5 z m 20,5 v -5 h -5 -5 v 5 5 h 5 5 z M 980,845 v -5 h -5 -5 v -5 -5 h 10 10 v -5 -5 h 5 5 v 10 10 h -5 -5 v 5 5 h -5 -5 z m 460,0 v -5 h -15 -15 v -5 -5 h 15 15 v 5 5 h 5 5 v 5 5 h -5 -5 z m -50,-20 v -5 h 5 5 v -5 -5 h 5 5 v -5 -5 h 5 5 v 5 5 h 10 10 v -5 -5 h -5 -5 v -10 -10 h -10 -10 v 5 5 h -10 -10 v 5 5 h -5 -5 v 5 5 h -5 -5 v -5 -5 h 5 5 v -5 -5 h 5 5 v -5 -5 h -10 -10 v 5 5 h -5 -5 v -5 -5 h -10 -10 v 5 5 h -5 -5 v -15 -15 h 10 10 v 5 5 h 5 5 v -10 -10 h 5 5 v -5 -5 h 10 10 v 5 5 h 10 10 v -5 -5 h -5 -5 v -5 -5 h 10 10 v -5 -5 h 10 10 v 5 5 h 10 10 v 5 5 h 5 5 v -5 -5 h 10 10 v -5 -5 h -5 -5 v -5 -5 h 5 5 v 5 5 h 10 10 v 15 15 h -5 -5 v 10 10 h -5 -5 v 5 5 h 5 5 v 10 10 h -5 -5 v -10 -10 h -10 -10 v 5 5 h 5 5 v 15 15 h -5 -5 v -5 -5 h -10 -10 v 5 5 h 5 5 v 5 5 h -5 -5 v -5 -5 h -15 -15 v -5 -5 h -5 -5 v 5 5 h -5 -5 v 5 5 h -5 -5 z m 70,-35 v -10 h -5 -5 v -5 -5 h -10 -10 v 5 5 h 5 5 v 10 10 h 10 10 z m -90,-15 v -5 h 10 10 v 5 5 h 10 10 v -5 -5 h 5 5 v -10 -10 h 5 5 v 5 5 h 5 5 v -5 -5 h 10 10 v 10 10 h 10 10 v -10 -10 h -10 -10 v -5 -5 h -10 -10 v -5 -5 h -5 -5 v 5 5 h -5 -5 v 5 5 h -5 -5 v 5 5 h -5 -5 v 5 5 h -5 -5 v -10 -10 h -10 -10 v 10 10 h -5 -5 v 5 5 h 5 5 z m 130,-40 v -5 h -5 -5 v 5 5 h 5 5 z m 410,90 v -5 h -10 -10 v -5 -5 h -5 -5 v -5 -5 h 10 10 v -5 -5 h -5 -5 v -10 -10 h -5 -5 v -10 -10 h -5 -5 v 10 10 h -5 -5 v 5 5 h 10 10 v 5 5 h -10 -10 v -5 -5 h -15 -15 v -15 -15 h -10 -10 v 5 5 h 5 5 v 5 5 h -5 -5 v -5 -5 h -5 -5 v 5 5 h -5 -5 v -5 -5 h 5 5 v -5 -5 h -5 -5 v -5 -5 h 5 5 v -5 -5 h -10 -10 v 5 5 h -5 -5 v 5 5 h 5 5 v 5 5 h -5 -5 v -5 -5 h -10 -10 v -5 -5 h 5 5 v -10 -10 h -5 -5 v -10 -10 h 10 10 v 5 5 h -5 -5 v 5 5 h 5 5 v 5 5 h 5 5 v -15 -15 h 5 5 v 10 10 h 5 5 v -5 -5 h 5 5 v 5 5 h 5 5 v -20 -20 h 10 10 v -5 -5 h -15 -15 v -5 -5 h 5 5 v -10 -10 h 5 5 v -5 -5 h -10 -10 v 10 10 h -5 -5 v 10 10 h -10 -10 v 5 5 h -5 -5 v -5 -5 h -5 -5 v -10 -10 h 5 5 v 10 10 h 5 5 v -10 -10 h 10 10 v -15 -15 h -10 -10 v 5 5 h 5 5 v 5 5 h -5 -5 v -5 -5 h -5 -5 v 5 5 h -10 -10 v -10 -10 h 5 5 v -5 -5 h -5 -5 v -10 -10 h -5 -5 v 5 5 h -5 -5 v -5 -5 h 5 5 v -5 -5 h 5 5 v -5 -5 h 5 5 v -5 -5 h 10 10 v 5 5 h 10 10 v -5 -5 h 10 10 v -5 -5 h 5 5 v 5 5 h -5 -5 v 5 5 h 10 10 v -10 -10 h 15 15 v -5 -5 h -20 -20 v -10 -10 h -5 -5 v 10 10 h -5 -5 v -5 -5 h -10 -10 v 5 5 h -5 -5 v 5 5 h -5 -5 v -5 -5 h 5 5 v -5 -5 h 5 5 v -10 -10 h -5 -5 v -5 -5 h 5 5 v -5 -5 h -5 -5 v -5 -5 h -5 -5 v 15 15 h -5 -5 v -15 -15 h 5 5 v -10 -10 h 15 15 v -5 -5 h 10 10 v 5 5 h 5 5 v -5 -5 h 5 5 v -5 -5 h 15 15 v -5 -5 h -5 -5 v -5 -5 h 15 15 v -5 -5 h 5 5 v 15 15 h 5 5 v -5 -5 h 10 10 v 5 5 h -10 -10 v 10 10 h 5 5 v -5 -5 h 10 10 v -10 -10 h 5 5 v 10 10 h -5 -5 v 15 15 h -5 -5 v -5 -5 h -5 -5 v 15 15 h -10 -10 v 5 5 h 10 10 v 10 10 h -10 -10 v 20 20 h 5 5 v 5 5 h -5 -5 v -5 -5 h -5 -5 v -5 -5 h -5 -5 v 5 5 h -5 -5 v -5 -5 h -10 -10 v 5 5 h -5 -5 v 10 10 h -10 -10 v 15 15 h 15 15 v -5 -5 h 5 5 v 5 5 h 5 5 v -10 -10 h -10 -10 v -10 -10 h 20 20 v 5 5 h -5 -5 v 5 5 h 5 5 v 5 5 h -5 -5 v 5 5 h -5 -5 v 5 5 h 5 5 v 10 10 h 5 5 v -5 -5 h 5 5 v 15 15 h 5 5 v 5 5 h -5 -5 v -5 -5 h -5 -5 v 5 5 h -5 -5 v 5 5 h 5 5 v 5 5 h 5 5 v -5 -5 h 5 5 v 10 10 h 5 5 v 5 5 h 5 5 v 10 10 h -10 -10 v 5 5 h 10 10 v 15 15 h -15 -15 v 5 5 h 5 5 v 10 10 h 5 5 v 10 10 h -5 -5 z m -60,-65 v -10 h 10 10 v -5 -5 h -20 -20 v -5 -5 h 10 10 v -10 -10 h -5 -5 v -10 -10 h 15 15 v -15 -15 h 5 5 v -5 -5 h -5 -5 v 5 5 h -15 -15 v -5 -5 h -5 -5 v 5 5 h 5 5 v 5 5 h 10 10 v 5 5 h -10 -10 v 5 5 h -5 -5 v 20 20 h -10 -10 v 5 5 h -5 -5 v 5 5 h 5 5 v -5 -5 h 10 10 v 5 5 h 5 5 v 10 10 h 5 5 z m 50,5 v -5 h 5 5 v -5 -5 h -5 -5 v -10 -10 h -5 -5 v -10 -10 h -5 -5 v -5 -5 h -5 -5 v 5 5 h -5 -5 v 5 5 h 10 10 v 10 10 h 5 5 v 15 15 h 5 5 z m -50,-130 v -5 h 5 5 v 5 5 h 5 5 v -5 -5 h -5 -5 v -5 -5 h -5 -5 v 5 5 h -5 -5 v 5 5 h 5 5 z m -80,-10 v -5 h -5 -5 v 5 5 h 5 5 z m 40,-10 v -5 h -5 -5 v -5 -5 h 5 5 v -15 -15 h -5 -5 v 5 5 h -15 -15 v 5 5 h 10 10 v 10 10 h 5 5 v 5 5 h 5 5 z m -30,-10 v -5 h -10 -10 v 5 5 h 10 10 z m -20,-20 v -5 h -5 -5 v 5 5 h 5 5 z m 120,-30 v -5 h -5 -5 v 5 5 h 5 5 z m -30,-30 v -5 h -5 -5 v -5 -5 h 5 5 v -5 -5 h -5 -5 v 5 5 h -5 -5 v 5 5 h 5 5 v 5 5 h 5 5 z m 40,0 v -5 h -5 -5 v 5 5 h 5 5 z m -80,-20 v -15 h 5 5 v 5 5 h 5 5 v -10 -10 h 5 5 v 5 5 h 15 15 v -15 -15 h 5 5 v -5 -5 h 5 5 v -10 -10 h -5 -5 v 10 10 h -15 -15 v 5 5 h 5 5 v 10 10 h -10 -10 v -10 -10 h -5 -5 v 5 5 h -5 -5 v 5 5 h -10 -10 v -5 -5 h -10 -10 v 5 5 h 10 10 v 20 20 h 5 5 z m 80,0 v -5 h 5 5 v -5 -5 h -10 -10 v 5 5 h -5 -5 v 5 5 h 10 10 z m 10,-30 v -5 h -10 -10 v 5 5 h 10 10 z M 530,815 v -5 h -5 -5 v -5 -5 h -5 -5 v -5 -5 h -5 -5 v -5 -5 h 10 10 v 10 10 h 10 10 v 5 5 h 15 15 v -5 -5 h 5 5 v -5 -5 h 10 10 v -10 -10 h 5 5 v 5 5 h 5 5 v -15 -15 h 5 5 v -5 -5 h 5 5 v 5 5 h -5 -5 v 5 5 h 5 5 v 5 5 h 15 15 v -5 -5 h 5 5 v 5 5 h 10 10 v 10 10 h -5 -5 v 5 5 h -10 -10 v 5 5 h -5 -5 v -5 -5 h -5 -5 v 5 5 h -5 -5 v 5 5 h -5 -5 v -5 -5 h 5 5 v -5 -5 h -10 -10 v 5 5 h -10 -10 v 5 5 h -35 -35 z m 480,0 v -5 h 5 5 v 5 5 h -5 -5 z M 550,795 v -5 h 5 5 v -5 -5 h 5 5 v -5 -5 h 5 5 v 5 5 h -5 -5 v 5 5 h -5 -5 v 5 5 h -5 -5 z m 1370,0 v -5 h 5 5 v 5 5 h -5 -5 z M 310,785 v -5 h 10 10 v 5 5 h -10 -10 z m 30,-5 v -10 h -15 -15 v -5 -5 h -5 -5 v -10 -10 h -5 -5 v -5 -5 h 5 5 v 5 5 h 5 5 v -5 -5 h 5 5 v 5 5 h 5 5 v 5 5 h 15 15 v 5 5 h -10 -10 v 5 5 h 5 5 v 5 5 h 5 5 v -5 -5 h 10 10 v -5 -5 h 5 5 v 5 5 h -5 -5 v 5 5 h -5 -5 v 5 5 h -15 -15 z m -20,-35 v -5 h -5 -5 v 5 5 h 5 5 z m 990,35 v -10 h 5 5 v 10 10 h -5 -5 z M 480,765 v -5 h 5 5 v 5 5 h -5 -5 z m 20,0 v -5 h 5 5 v 5 5 h -5 -5 z M 250,755 v -5 h 5 5 v 5 5 h -5 -5 z m 210,0 v -5 h 5 5 v 5 5 h -5 -5 z m 70,0 v -5 h 5 5 v 5 5 h -5 -5 z m 20,0 v -5 h 5 5 v 5 5 h -5 -5 z m 20,0 v -5 h 10 10 v 5 5 h -10 -10 z m 160,-5 v -10 h 5 5 v 10 10 h -5 -5 z m 140,5 v -5 h 5 5 v 5 5 h -5 -5 z M 200,745 v -5 h -5 -5 v -10 -10 h 5 5 v 10 10 h 10 10 v -5 -5 h 5 5 v 5 5 h -5 -5 v 5 5 h -10 -10 z m 400,0 v -5 h 5 5 v 5 5 h -5 -5 z m 200,0 v -5 h 5 5 v 5 5 h -5 -5 z M 370,735 v -5 h 5 5 v 5 5 h -5 -5 z m 1340,0 v -5 h 5 5 v -15 -15 h -5 -5 v 5 5 h -5 -5 v -5 -5 h -10 -10 v -5 -5 h 10 10 v 5 5 h 5 5 v -5 -5 h 5 5 v 5 5 h 10 10 v 5 5 h -5 -5 v 5 5 h 5 5 v 10 10 h -5 -5 v -5 -5 h -5 -5 v 5 5 h -5 -5 z M 240,725 v -5 h 10 10 v 5 5 h -10 -10 z m 30,-10 v -15 h 5 5 v 5 5 h 5 5 v 5 5 h -5 -5 v 5 5 h -5 -5 z m -150,0 v -5 h 5 5 v -5 -5 h 10 10 v 10 10 h -15 -15 z m 100,0 v -5 h -15 -15 v -5 -5 h -5 -5 v 5 5 h -5 -5 v -5 -5 h 5 5 v -5 -5 h -5 -5 v -10 -10 h 5 5 v -5 -5 h 5 5 v 15 15 h 5 5 v -5 -5 h 5 5 v 5 5 h -5 -5 v 5 5 h 20 20 v 5 5 h -5 -5 v 5 5 h -5 -5 z m 290,0 v -5 h 5 5 v 5 5 h -5 -5 z m 100,0 v -5 h 5 5 v 5 5 h -5 -5 z m 50,0 v -5 h -5 -5 v -5 -5 h 5 5 v 5 5 h 5 5 v 5 5 h -5 -5 z m 60,0 v -5 h 5 5 v 5 5 h -5 -5 z m 170,0 v -5 h 5 5 v 5 5 h -5 -5 z m 560,0 v -5 h 5 5 v 5 5 h -5 -5 z m 220,0 v -5 h 5 5 v 5 5 h -5 -5 z M 370,705 v -5 h 5 5 v 5 5 h -5 -5 z m 160,0 v -5 h 5 5 v 5 5 h -5 -5 z m 250,0 v -5 h 5 5 v 5 5 h -5 -5 z m 240,0 v -5 h 5 5 v 5 5 h -5 -5 z m 300,-5 v -10 h 5 5 v 10 10 h -5 -5 z m 320,5 v -5 h 5 5 v 5 5 h -5 -5 z M 610,695 v -5 h 5 5 v 5 5 h -5 -5 z M 270,685 v -5 h 5 5 v 5 5 h -5 -5 z m 210,0 v -5 h -5 -5 v -5 -5 h 5 5 v 5 5 h 5 5 v 5 5 h -5 -5 z m 30,-5 v -10 h 5 5 v 10 10 h -5 -5 z m 60,5 v -5 h 5 5 v 5 5 h -5 -5 z m 60,0 v -5 h 10 10 v 5 5 h -10 -10 z m 100,0 v -5 h 5 5 v 5 5 h -5 -5 z m 110,0 v -5 h 5 5 v 5 5 h -5 -5 z m 450,0 v -5 h 5 5 v 5 5 h -5 -5 z m 440,0 v -5 h 15 15 v 5 5 h -15 -15 z M 530,675 v -5 h 5 5 v 5 5 h -5 -5 z m 130,0 v -5 h 5 5 v 5 5 h -5 -5 z m 1020,0 v -5 h 10 10 v 5 5 h -10 -10 z M 150,660 v -10 h 5 5 v -5 -5 h 5 5 v 5 5 h -5 -5 v 10 10 h -5 -5 z m 70,5 v -5 h 5 5 v -10 -10 h 10 10 v 10 10 h 5 5 v 5 5 h -10 -10 v -5 -5 h -5 -5 v 5 5 h -5 -5 z m 50,-10 v -15 h -5 -5 v -5 -5 h 5 5 v -5 -5 h -5 -5 v -5 -5 h 5 5 v -10 -10 h -5 -5 v 5 5 h -5 -5 v -5 -5 h 5 5 v -5 -5 h -5 -5 v -5 -5 h 15 15 v -5 -5 h 10 10 v -5 -5 h 15 15 v -10 -10 h 5 5 v 5 5 h 10 10 v 5 5 h -5 -5 v 25 25 h -5 -5 v 5 5 h -5 -5 v 5 5 h -15 -15 v 10 10 h -10 -10 v 15 15 h -5 -5 z m 40,-60 v -5 h -10 -10 v 5 5 h 10 10 z m -10,-20 v -5 h -10 -10 v 5 5 h 10 10 z m 40,0 v -5 h -5 -5 v -5 -5 h 5 5 v -5 -5 h -5 -5 v 5 5 h -5 -5 v 5 5 h -5 -5 v 5 5 h 15 15 z m 10,90 v -5 h 5 5 v 5 5 h -5 -5 z m 670,0 v -5 h 5 5 v 5 5 h -5 -5 z m 200,0 v -5 h 5 5 v 5 5 h -5 -5 z m 210,0 v -5 h 5 5 v 5 5 h -5 -5 z M 120,655 v -5 h 5 5 v 5 5 h -5 -5 z m 80,0 v -5 h -5 -5 v -5 -5 h 5 5 v 5 5 h 5 5 v -10 -10 h 5 5 v 10 10 h -5 -5 v 5 5 h -5 -5 z m 270,0 v -5 h 5 5 v 5 5 h -5 -5 z m 340,0 v -5 h 5 5 v 5 5 h -5 -5 z M 570,640 v -10 h 5 5 v 10 10 h -5 -5 z m 340,5 v -5 h 5 5 v 5 5 h -5 -5 z m 560,0 v -5 h 5 5 v 5 5 h -5 -5 z m 130,-5 v -10 h 10 10 v 5 5 h -5 -5 v 5 5 h -5 -5 z m 90,5 v -5 h 5 5 v 5 5 h -5 -5 z M 590,635 v -5 h 5 5 v 5 5 h -5 -5 z m 980,0 v -5 h 5 5 v 5 5 h -5 -5 z m 60,-5 v -10 h 5 5 v 10 10 h -5 -5 z M 360,625 v -5 h -5 -5 v -5 -5 h 5 5 v 5 5 h 15 15 v 5 5 h -15 -15 z m 250,0 v -5 h 5 5 v 5 5 h -5 -5 z m 830,0 v -5 h 5 5 v 5 5 h -5 -5 z m 90,0 v -5 h 5 5 v 5 5 h -5 -5 z m 150,0 v -5 h -5 -5 v -5 -5 h 5 5 v 5 5 h 5 5 v 5 5 h -5 -5 z m 20,0 v -5 h 5 5 v 5 5 h -5 -5 z M 160,615 v -5 h 5 5 v -5 -5 h 10 10 v -5 -5 h 10 10 v 5 5 h -10 -10 v 10 10 h -5 -5 v -5 -5 h -5 -5 v 5 5 h -5 -5 z m 70,0 v -5 h -5 -5 v -5 -5 h 10 10 v 5 5 h 5 5 v 5 5 h -10 -10 z m 190,0 v -5 h 5 5 v 5 5 h -5 -5 z m 30,0 v -5 h -5 -5 v -5 -5 h -10 -10 v -10 -10 h 5 5 v 5 5 h 5 5 v 5 5 h 5 5 v 5 5 h 5 5 v 5 5 h -5 -5 z m 140,0 v -5 h 5 5 v 5 5 h -5 -5 z m 50,0 v -5 h 5 5 v 5 5 h -5 -5 z m 70,0 v -5 h 5 5 v 5 5 h -5 -5 z m 120,0 v -5 h 5 5 v 5 5 h -5 -5 z m 70,0 v -5 h 5 5 v 5 5 h -5 -5 z m 20,0 v -5 h 10 10 v 5 5 h -10 -10 z m 360,0 v -5 h 5 5 v 5 5 h -5 -5 z m 60,0 v -5 h 5 5 v 5 5 h -5 -5 z m 130,-5 v -10 h -5 -5 v -5 -5 h -5 -5 v -5 -5 h 5 5 v -5 -5 h -5 -5 v -5 -5 h 10 10 v 10 10 h -5 -5 v 5 5 h 5 5 v 5 5 h 5 5 v 10 10 h -5 -5 z m 20,5 v -5 h 5 5 v 5 5 h -5 -5 z m 20,0 v -5 h 5 5 v 5 5 h -5 -5 z m 40,0 v -5 h 5 5 v 5 5 h -5 -5 z M 490,605 v -5 h 5 5 v 5 5 h -5 -5 z m 50,0 v -5 h 5 5 v 5 5 h -5 -5 z m 120,0 v -5 h 5 5 v 5 5 h -5 -5 z m 20,0 v -5 h 5 5 v 5 5 h -5 -5 z m 200,0 v -5 h 5 5 v 5 5 h -5 -5 z m 300,0 v -5 h -5 -5 v -5 -5 h 5 5 v 5 5 h 5 5 v 5 5 h -5 -5 z m 70,0 v -5 h 10 10 v 5 5 h -10 -10 z m 60,0 v -5 h 5 5 v 5 5 h -5 -5 z m 100,0 v -5 h 5 5 v 5 5 h -5 -5 z m 300,0 v -5 h 5 5 v 5 5 h -5 -5 z M 370,595 v -5 h -5 -5 v -5 -5 h 5 5 v -5 -5 h -5 -5 v -5 -5 h 10 10 v -5 -5 h -5 -5 v -5 -5 h 5 5 v 5 5 h 20 20 v 5 5 h -20 -20 v 5 5 h 5 5 v 5 5 h 5 5 v 10 10 h -5 -5 v -5 -5 h -5 -5 v 5 5 h -5 -5 z m 10,-10 v -5 h -5 -5 v 5 5 h 5 5 z m 340,10 v -5 h 5 5 v 5 5 h -5 -5 z m 50,0 v -5 h -5 -5 v -5 -5 h 5 5 v 5 5 h 5 5 v 5 5 h -5 -5 z m 30,0 v -5 h 5 5 v 5 5 h -5 -5 z m 430,0 v -5 h -5 -5 v -10 -10 h -5 -5 v 10 10 h -5 -5 v -10 -10 h 5 5 v -5 -5 h 5 5 v 5 5 h 5 5 v -5 -5 h 5 5 v 5 5 h -5 -5 v 5 5 h 5 5 v 10 10 h -5 -5 z m 200,0 v -5 h 5 5 v 5 5 h -5 -5 z m 60,0 v -5 h 5 5 v 5 5 h -5 -5 z m 90,0 v -5 h 5 5 v -5 -5 h 5 5 v 5 5 h -5 -5 v 5 5 h -5 -5 z m 30,0 v -5 h 5 5 v 5 5 h -5 -5 z m 50,-5 v -10 h -20 -20 v -5 -5 h 10 10 v -5 -5 h -5 -5 v -5 -5 h 5 5 v 5 5 h 5 5 v 5 5 h 5 5 v 5 5 h 5 5 v 10 10 h -5 -5 z M 170,585 v -5 h 5 5 v 5 5 h -5 -5 z m 400,0 v -5 h 5 5 v -10 -10 h -5 -5 v -5 -5 h 10 10 v 15 15 h -5 -5 v 5 5 h -5 -5 z m 30,0 v -5 h 5 5 v 5 5 h -5 -5 z m 60,0 v -5 h -5 -5 v -5 -5 h 5 5 v 5 5 h 5 5 v 5 5 h -5 -5 z m 420,0 v -5 h 5 5 v 5 5 h -5 -5 z m 330,0 v -5 h -5 -5 v -5 -5 h 5 5 v 5 5 h 5 5 v 5 5 h -5 -5 z m 100,0 v -5 h 5 5 v 5 5 h -5 -5 z m 190,0 v -5 h 5 5 v 5 5 h -5 -5 z M 740,575 v -5 h 5 5 v 5 5 h -5 -5 z m 160,0 v -5 h 5 5 v 5 5 h -5 -5 z m 40,0 v -5 h 10 10 v 5 5 h -10 -10 z m 30,0 v -5 h 10 10 v 5 5 h -10 -10 z m 30,0 v -5 h 5 5 v 5 5 h -5 -5 z m 310,0 v -5 h 5 5 v 5 5 h -5 -5 z m 50,0 v -5 h -5 -5 v -10 -10 h 5 5 v 5 5 h 5 5 v -10 -10 h 10 10 v 5 5 h -5 -5 v 5 5 h 5 5 v 10 10 h -5 -5 v -10 -10 h -5 -5 v 10 10 h -5 -5 z m 190,0 v -5 h 5 5 v 5 5 h -5 -5 z m 130,0 v -5 h 5 5 v 5 5 h -5 -5 z M 200,565 v -5 h 5 5 v 5 5 h -5 -5 z m 300,0 v -5 h 10 10 v 5 5 h -10 -10 z m 270,0 v -5 h 5 5 v 5 5 h -5 -5 z m 330,0 v -5 h 5 5 v 5 5 h -5 -5 z m 160,0 v -5 h -5 -5 v -5 -5 h -5 -5 v -5 -5 h 5 5 v -5 -5 h 5 5 v 5 5 h -5 -5 v 5 5 h 5 5 v 5 5 h 5 5 v -5 -5 h 5 5 v 5 5 h -5 -5 v 5 5 h -5 -5 z m 270,0 v -5 h 5 5 v 5 5 h -5 -5 z m 190,0 v -5 h 5 5 v 5 5 h -5 -5 z M 220,555 v -5 h 5 5 v 5 5 h -5 -5 z m 330,0 v -5 h 5 5 v 5 5 h -5 -5 z m 140,0 v -5 h 5 5 v 5 5 h -5 -5 z m 150,0 v -5 h 5 5 v 5 5 h -5 -5 z m 90,0 v -5 h 5 5 v 5 5 h -5 -5 z m 70,0 v -5 h 5 5 v 5 5 h -5 -5 z m 150,0 v -5 h 5 5 v 5 5 h -5 -5 z m 410,-5 v -10 h 5 5 v 10 10 h -5 -5 z m 20,0 v -10 h 5 5 v 10 10 h -5 -5 z m 80,0 v -10 h 5 5 v 10 10 h -5 -5 z M 240,545 v -5 h 5 5 v 5 5 h -5 -5 z m 250,0 v -5 h 10 10 v 5 5 h -10 -10 z m 40,0 v -5 h 5 5 v 5 5 h -5 -5 z m 250,0 v -5 h 5 5 v 5 5 h -5 -5 z m 620,-10 v -15 h 5 5 v -5 -5 h 5 5 v 5 5 h 10 10 v 5 5 h -15 -15 v 10 10 h -5 -5 z m 80,10 v -5 h 5 5 v 5 5 h -5 -5 z m 50,0 v -5 h 5 5 v 5 5 h -5 -5 z m 150,0 v -5 h 5 5 v 5 5 h -5 -5 z m 60,-5 v -10 h -5 -5 v -5 -5 h 5 5 v 5 5 h 5 5 v 10 10 h -5 -5 z M 260,535 v -5 h 5 5 v 5 5 h -5 -5 z m 440,0 v -5 h 5 5 v 5 5 h -5 -5 z m 20,0 v -5 h 5 5 v 5 5 h -5 -5 z m 120,0 v -5 h 5 5 v 5 5 h -5 -5 z m 20,0 v -5 h 5 5 v 5 5 h -5 -5 z m 130,0 v -5 h 5 5 v 5 5 h -5 -5 z m 90,0 v -5 h 5 5 v 5 5 h -5 -5 z m 20,0 v -5 h 10 10 v 5 5 h -10 -10 z m 50,-5 v -10 h -5 -5 v -5 -5 h -10 -10 v -15 -15 h 5 5 v -5 -5 h -5 -5 v -5 -5 h -20 -20 v -5 -5 h 10 10 v -5 -5 h -10 -10 v -5 -5 h -5 -5 v 5 5 h -5 -5 v -5 -5 h -5 -5 v -10 -10 h -5 -5 v -5 -5 h -5 -5 v -20 -20 h -5 -5 v -5 -5 h 15 15 v -5 -5 h 5 5 v 20 20 h 5 5 v -5 -5 h 5 5 v 5 5 h 10 10 v 10 10 h -10 -10 v -5 -5 h -5 -5 v 5 5 h -5 -5 v 5 5 h 5 5 v 5 5 h 5 5 v -5 -5 h 10 10 v 5 5 h 5 5 v 10 10 h 10 10 v 10 10 h 10 10 v 5 5 h 5 5 v 5 5 h 5 5 v 5 5 h 5 5 v 5 5 h -5 -5 v -5 -5 h -5 -5 v 5 5 h -5 -5 v -5 -5 h 5 5 v -5 -5 h -15 -15 v 10 10 h 5 5 v 5 5 h 5 5 v 5 5 h 5 5 v 10 10 h -5 -5 z m -80,-105 v -5 h -5 -5 v 5 5 h 5 5 z m 20,0 v -5 h -5 -5 v 5 5 h 5 5 z m -30,-30 v -5 h -5 -5 v -10 -10 h -5 -5 v 10 10 h 5 5 v 5 5 h 5 5 z m 120,140 v -5 h 5 5 v 5 5 h -5 -5 z m 90,0 v -5 h 5 5 v 5 5 h -5 -5 z m 20,0 v -5 h 10 10 v 5 5 h -10 -10 z M 400,525 v -5 h 5 5 v 5 5 h -5 -5 z m 90,0 v -5 h 5 5 v 5 5 h -5 -5 z m 50,0 v -5 h 5 5 v 5 5 h -5 -5 z m 80,0 v -5 h 5 5 v 5 5 h -5 -5 z m 260,0 v -5 h -5 -5 v -5 -5 h 5 5 v 5 5 h 5 5 v 5 5 h -5 -5 z m 40,0 v -5 h 5 5 v 5 5 h -5 -5 z m 290,0 v -5 h 5 5 v -5 -5 h 5 5 v -5 -5 h 5 5 v 5 5 h 5 5 v -10 -10 h 5 5 v 15 15 h -10 -10 v -5 -5 h -5 -5 v 10 10 h -10 -10 z m 170,0 v -5 h -5 -5 v -5 -5 h 5 5 v 5 5 h 5 5 v 5 5 h -5 -5 z m 80,0 v -5 h 5 5 v 5 5 h -5 -5 z m 20,0 v -5 h 5 5 v 5 5 h -5 -5 z m 130,0 v -5 h 5 5 v 5 5 h -5 -5 z m 20,0 v -5 h 5 5 v 5 5 h -5 -5 z m 30,0 v -5 h -5 -5 v -5 -5 h 10 10 v 10 10 h -5 -5 z m 30,0 v -5 h -5 -5 v -5 -5 h 5 5 v 5 5 h 5 5 v -15 -15 h 5 5 v 15 15 h 5 5 v 5 5 h -5 -5 v -5 -5 h -5 -5 v 5 5 h -5 -5 z m 70,0 v -5 h 5 5 v 5 5 h -5 -5 z M 370,515 v -5 h 5 5 v 5 5 h -5 -5 z m 270,0 v -5 h 5 5 v 5 5 h -5 -5 z m 30,0 v -5 h 5 5 v 5 5 h -5 -5 z m 30,0 v -5 h 15 15 v 5 5 h -15 -15 z m 80,0 v -5 h 5 5 v 5 5 h -5 -5 z m 60,0 v -5 h 5 5 v -5 -5 h 5 5 v 5 5 h -5 -5 v 5 5 h -5 -5 z m 250,0 v -5 h 5 5 v 5 5 h -5 -5 z m 210,0 v -5 h -10 -10 v -5 -5 h 10 10 v 5 5 h 5 5 v 5 5 h -5 -5 z m 200,0 v -5 h 5 5 v 5 5 h -5 -5 z M 340,505 v -5 h 10 10 v 5 5 h -10 -10 z m 110,0 v -5 h 5 5 v -5 -5 h 10 10 v -10 -10 h 10 10 v 5 5 h -5 -5 v 10 10 h -15 -15 v 5 5 h -5 -5 z m 60,-5 v -10 h 5 5 v 10 10 h -5 -5 z m 310,5 v -5 h 5 5 v 5 5 h -5 -5 z m 150,-5 v -10 h 5 5 v -5 -5 h 5 5 v 5 5 h -5 -5 v 10 10 h -5 -5 z m 30,5 v -5 h 5 5 v 5 5 h -5 -5 z m 190,-5 v -10 h 5 5 v 10 10 h -5 -5 z m 150,5 v -5 h 5 5 v 5 5 h -5 -5 z m 100,-10 v -15 h 5 5 v 5 5 h 5 5 v -5 -5 h 10 10 v -5 -5 h 10 10 v 5 5 h -10 -10 v 5 5 h -5 -5 v 5 5 h -5 -5 v 5 5 h -10 -10 z m -1070,0 v -5 h 5 5 v 5 5 h -5 -5 z m 20,0 v -5 h 5 5 v 5 5 h -5 -5 z m 40,-5 v -10 h 10 10 v 5 5 h -5 -5 v 5 5 h -5 -5 z m 250,5 v -5 h 10 10 v 5 5 h -10 -10 z m 40,0 v -5 h 5 5 v 5 5 h -5 -5 z m 50,0 v -5 h 5 5 v 5 5 h -5 -5 z m 290,0 v -5 h 5 5 v -10 -10 h 5 5 v 15 15 h -10 -10 z m 30,-5 v -10 h 5 5 v -5 -5 h 5 5 v 5 5 h -5 -5 v 10 10 h -5 -5 z m 650,5 v -5 h -5 -5 v -5 -5 h 5 5 v 5 5 h 5 5 v 5 5 h -5 -5 z M 410,485 v -5 h 5 5 v 5 5 h -5 -5 z m 140,0 v -5 h -10 -10 v -5 -5 h 5 5 v -5 -5 h 10 10 v 10 10 h 5 5 v -5 -5 h 5 5 v -5 -5 h 5 5 v 5 5 h -5 -5 v 10 10 h -15 -15 z m 60,0 v -5 h -5 -5 v -5 -5 h 5 5 v -5 -5 h 5 5 v -5 -5 h 5 5 v 15 15 h -5 -5 v 5 5 h -5 -5 z m 50,0 v -5 h 5 5 v 5 5 h -5 -5 z m 80,0 v -5 h -5 -5 v -10 -10 h 5 5 v -10 -10 h 15 15 v 5 5 h -10 -10 v 5 5 h -5 -5 v 10 10 h 10 10 v -5 -5 h 10 10 v -10 -10 h 5 5 v -5 -5 h 15 15 v 5 5 h -15 -15 v 10 10 h 5 5 v 5 5 h -20 -20 v 5 5 h -10 -10 z m 150,0 v -5 h -5 -5 v -5 -5 h 5 5 v 5 5 h 10 10 v 5 5 h -10 -10 z m 110,0 v -5 h 5 5 v 5 5 h -5 -5 z m 20,-5 v -10 h -5 -5 v -5 -5 h -5 -5 v -10 -10 h 5 5 v 10 10 h 5 5 v -15 -15 h -5 -5 v -20 -20 h -5 -5 v -5 -5 h -5 -5 v 10 10 h 5 5 v 5 5 h -15 -15 v 5 5 h -5 -5 v 5 5 h 5 5 v 10 10 h -5 -5 v 5 5 h -20 -20 v -5 -5 h 15 15 v -15 -15 h 5 5 v -5 -5 h -5 -5 v -5 -5 h -5 -5 v -5 -5 h 5 5 v 5 5 h 15 15 v -5 -5 h -5 -5 v -10 -10 h 5 5 v 5 5 h 5 5 v -5 -5 h 5 5 v 5 5 h 5 5 v -5 -5 h 5 5 v 20 20 h 5 5 v 5 5 h -5 -5 v 5 5 h 10 10 v 5 5 h 5 5 v 5 5 h -5 -5 v 5 5 h -10 -10 v 5 5 h 5 5 v 10 10 h -5 -5 z m 20,-35 v -5 h -5 -5 v 5 5 h 5 5 z m -400,25 v -10 h 5 5 v -5 -5 h 5 5 v 5 5 h -5 -5 v 10 10 h -5 -5 z m 50,5 v -5 h 5 5 v 5 5 h -5 -5 z m 20,-5 v -10 h -5 -5 v -5 -5 h -10 -10 v 5 5 h -5 -5 v -10 -10 h 15 15 v 5 5 h 5 5 v 5 5 h 5 5 v 10 10 h -5 -5 z m 120,5 v -5 h 10 10 v 5 5 h -10 -10 z m 30,-10 v -5 h 5 5 v 5 5 h -5 -5 z m 190,0 v -5 h 5 5 v 5 5 h -5 -5 z M 840,455 v -5 h -5 -5 v -10 -10 h 5 5 v 10 10 h 5 5 v -5 -5 h 5 5 v 5 5 h -5 -5 v 5 5 h -5 -5 z m 60,0 v -5 h 5 5 v 5 5 h -5 -5 z m 80,-10 v -5 h 5 5 v 5 5 h -5 -5 z m -70,-10 v -5 h 5 5 v 5 5 h -5 -5 z m -20,-10 v -5 h 5 5 v 5 5 h -5 -5 z m 90,0 v -5 h 5 5 v 5 5 h -5 -5 z m 140,0 v -5 h 5 5 v 5 5 h -5 -5 z M 920,415 v -5 h 5 5 v 5 5 h -5 -5 z m 990,0 v -5 h 5 5 v -5 -5 h 5 5 v 5 5 h 10 10 v 5 5 h -10 -10 v -5 -5 h -5 -5 v 5 5 h -5 -5 z m -800,-10 v -5 h 5 5 v 5 5 h -5 -5 z"
         id="path1408" />
      <path
         style="fill:#1e210e"
         d="m 1070,905 v -5 h -5 -5 v -5 -5 h 5 5 v 5 5 h 10 10 v 5 5 h -10 -10 z m -30,-30 v -5 h 5 5 v 5 5 h -5 -5 z m 20,-15 v -10 h -5 -5 v 5 5 h -5 -5 v -5 -5 h -10 -10 v 5 5 h -15 -15 v -5 -5 h 15 15 v -5 -5 h -10 -10 v -10 -10 h 10 10 v -5 -5 h 5 5 v 5 5 h 10 10 v 10 10 h 5 5 v 5 5 h 5 5 v 10 10 h -5 -5 z m -10,-15 v -5 h -5 -5 v 5 5 h 5 5 z m -20,-10 v -5 h -5 -5 v 5 5 h 5 5 z m 50,15 v -10 h -5 -5 v -5 -5 h 15 15 v 5 5 h -5 -5 v 10 10 h -5 -5 z m 20,5 v -5 h 5 5 v 5 5 h -5 -5 z m 280,-30 v -5 h -10 -10 v -5 -5 h -10 -10 v -5 -5 h -10 -10 v -10 -10 h 5 5 v 5 5 h 5 5 v -5 -5 h 10 10 v -5 -5 h 5 5 v -10 -10 h 10 10 v -5 -5 h 10 10 v 5 5 h 5 5 v -5 -5 h 5 5 v -5 -5 h 5 5 v -5 -5 h 10 10 v -5 -5 h 10 10 v 5 5 h 5 5 v 5 5 h 5 5 v 5 5 h -5 -5 v -5 -5 h -10 -10 v 5 5 h -5 -5 v 5 5 h 5 5 v 5 5 h 5 5 v 5 5 h -10 -10 v -10 -10 h -10 -10 v 5 5 h -5 -5 v -5 -5 h -5 -5 v 10 10 h -5 -5 v 5 5 h 10 10 v -5 -5 h 10 10 v 10 10 h 5 5 v 5 5 h -10 -10 v 5 5 h -10 -10 v 10 10 h -10 -10 v -5 -5 h -5 -5 v 5 5 h -5 -5 z m 30,-10 v -5 h 5 5 v -5 -5 h -5 -5 v 5 5 h -5 -5 v 5 5 h 5 5 z m -30,-10 v -5 h 5 5 v -5 -5 h 10 10 v -5 -5 h -10 -10 v -5 -5 h 5 5 v -5 -5 h 5 5 v -5 -5 h -10 -10 v 10 10 h -10 -10 v 5 5 h -5 -5 v 5 5 h -5 -5 v 5 5 h 5 5 v -5 -5 h 5 5 v -5 -5 h 10 10 v 5 5 h -5 -5 v 5 5 h -5 -5 v 5 5 h 5 5 z m 60,-15 v -10 h -5 -5 v 10 10 h 5 5 z m 20,-55 v -5 h -10 -10 v 5 5 h 10 10 z m -30,90 v -5 h 5 5 v 5 5 h -5 -5 z m 20,-10 v -5 h 5 5 v 5 5 h -5 -5 z m 430,0 v -5 h 5 5 v 5 5 h -5 -5 z m 60,0 v -5 h 5 5 v 5 5 h -5 -5 z M 540,805 v -5 h -10 -10 v -10 -10 h -15 -15 v -10 -10 h 5 5 v 5 5 h 5 5 v -5 -5 h 15 15 v -10 -10 h 5 5 v 10 10 h 5 5 v -5 -5 h 5 5 v 5 5 h 10 10 v -5 -5 h 15 15 v 15 15 h -5 -5 v -5 -5 h -5 -5 v 10 10 h -10 -10 v 5 5 h -5 -5 v 5 5 h -15 -15 z m 20,-10 v -5 h 5 5 v -5 -5 h 5 5 v -5 -5 h -5 -5 v 5 5 h -5 -5 v 5 5 h -5 -5 v 5 5 h 5 5 z m 1300,5 v -10 h -5 -5 v 5 5 h -5 -5 v -10 -10 h 10 10 v -5 -5 h 5 5 v -10 -10 h 5 5 v 10 10 h 5 5 v -15 -15 h -5 -5 v -10 -10 h -5 -5 v -10 -10 h 5 5 v 5 5 h 5 5 v 10 10 h 5 5 v 20 20 h -5 -5 v 10 10 h -5 -5 v 5 5 h -5 -5 v 5 5 h -5 -5 z m 20,-20 v -10 h -5 -5 v 5 5 h -5 -5 v 5 5 h 10 10 z m 40,25 v -5 h 5 5 v 5 5 h -5 -5 z M 330,785 v -5 h 5 5 v 5 5 h -5 -5 z m 970,0 v -5 h 5 5 v 5 5 h -5 -5 z m 170,0 v -5 h 5 5 v 5 5 h -5 -5 z m 350,-15 v -20 h 5 5 v 20 20 h -5 -5 z m 80,15 v -5 h 5 5 v 5 5 h -5 -5 z M 350,775 v -5 h 5 5 v 5 5 h -5 -5 z m 1450,-5 v -10 h -5 -5 v 5 5 h -5 -5 v -5 -5 h 5 5 v -5 -5 h 5 5 v -5 -5 h -10 -10 v 5 5 h -5 -5 v 5 5 h -5 -5 v -5 -5 h 5 5 v -5 -5 h 5 5 v -5 -5 h -5 -5 v -5 -5 h -5 -5 v 5 5 h -5 -5 v 10 10 h -5 -5 v -15 -15 h -5 -5 v -5 -5 h 5 5 v -5 -5 h -5 -5 v -5 -5 h -5 -5 v -5 -5 h 5 5 v -5 -5 h 5 5 v -5 -5 h 10 10 v 10 10 h 10 10 v -5 -5 h 10 10 v -5 -5 h 5 5 v -15 -15 h 10 10 v 5 5 h -5 -5 v 10 10 h -5 -5 v 5 5 h -5 -5 v 5 5 h 10 10 v -5 -5 h 10 10 v -5 -5 h -5 -5 v -5 -5 h 5 5 v 5 5 h 15 15 v -5 -5 h 5 5 v -5 -5 h 5 5 v 5 5 h -5 -5 v 5 5 h -5 -5 v 15 15 h -10 -10 v -5 -5 h 5 5 v -5 -5 h -10 -10 v 5 5 h -10 -10 v 5 5 h -10 -10 v 5 5 h 10 10 v 5 5 h -10 -10 v 5 5 h -5 -5 v -5 -5 h 5 5 v -5 -5 h -10 -10 v 5 5 h -5 -5 v 5 5 h 5 5 v 5 5 h 10 10 v 5 5 h 5 5 v 5 5 h -5 -5 v 5 5 h 5 5 v 10 10 h -5 -5 z m -40,-55 v -5 h 5 5 v -5 -5 h 5 5 v -5 -5 h 10 10 v -5 -5 h -10 -10 v 5 5 h -5 -5 v 5 5 h -5 -5 v -10 -10 h -5 -5 v -5 -5 h -5 -5 v 5 5 h -5 -5 v 5 5 h 5 5 v 5 5 h 5 5 v 10 10 h 5 5 z M 640,765 v -5 h 15 15 v 5 5 h -15 -15 z m 1200,-10 v -15 h 10 10 v 5 5 h -5 -5 v 10 10 h -5 -5 z m -1400,0 v -5 h 5 5 v -5 -5 h 5 5 v -5 -5 h 5 5 v 5 5 h -5 -5 v 5 5 h -5 -5 v 5 5 h -5 -5 z M 240,745 v -5 h 5 5 v 5 5 h -5 -5 z m 400,0 v -5 h 5 5 v 5 5 h -5 -5 z m 80,0 v -5 h 5 5 v 5 5 h -5 -5 z m 70,0 v -5 h 5 5 v 5 5 h -5 -5 z m 1120,0 v -5 h 5 5 v 5 5 h -5 -5 z m -190,-10 v -5 h -5 -5 v -10 -10 h 5 5 v 10 10 h 5 5 v 5 5 h -5 -5 z m 100,0 v -5 h 5 5 v 5 5 h -5 -5 z m -130,-10 v -5 h 5 5 v 5 5 h -5 -5 z m 150,0 v -5 h -5 -5 v -5 -5 h 5 5 v 5 5 h 5 5 v 5 5 h -5 -5 z M 160,715 v -5 h -5 -5 v -5 -5 h 10 10 v 10 10 h -5 -5 z m 310,0 v -5 h 5 5 v 5 5 h -5 -5 z M 120,705 v -5 h -5 -5 v -5 -5 h 15 15 v 5 5 h -5 -5 v 5 5 h -5 -5 z m 120,0 v -5 h 5 5 v 5 5 h -5 -5 z m 60,0 v -5 h 5 5 v 5 5 h -5 -5 z m 280,0 v -5 h 5 5 v 5 5 h -5 -5 z M 210,690 v -10 h 5 5 v 5 5 h 5 5 v 5 5 h -10 -10 z m 60,5 v -5 h 5 5 v 5 5 h -5 -5 z m 1560,0 v -5 h 5 5 v 5 5 h -5 -5 z m 60,0 v -5 h -5 -5 v -5 -5 h 5 5 v -5 -5 h 5 5 v 5 5 h 5 5 v 5 5 h -5 -5 v 5 5 h -5 -5 z M 240,685 v -5 h 5 5 v 5 5 h -5 -5 z m 370,-5 v -10 h 5 5 v 10 10 h -5 -5 z m 70,5 v -5 h 5 5 v 5 5 h -5 -5 z m 1020,0 v -5 h 5 5 v 5 5 h -5 -5 z M 160,665 v -15 h -5 -5 v 5 5 h -10 -10 v -5 -5 h -5 -5 v -10 -10 h 5 5 v -5 -5 h 5 5 v -5 -5 h 5 5 v -5 -5 h 5 5 v -5 -5 h 10 10 v -5 -5 h 5 5 v -5 -5 h 10 10 v -5 -5 h 10 10 v -5 -5 h 10 10 v -5 -5 h 10 10 v -5 -5 h 10 10 v -5 -5 h 15 15 v -5 -5 h 25 25 v 5 5 h 5 5 v -5 -5 h 5 5 v -5 -5 h -5 -5 v -5 -5 h 5 5 v 5 5 h 5 5 v 5 5 h -5 -5 v 10 10 h 5 5 v 5 5 h 5 5 v 5 5 h -15 -15 v 5 5 h -15 -15 v -5 -5 h 5 5 v -5 -5 h -10 -10 v -5 -5 h -5 -5 v 10 10 h 5 5 v 5 5 h -5 -5 v 5 5 h 5 5 v 5 5 h -15 -15 v -5 -5 h 5 5 v -5 -5 h 5 5 v -5 -5 h -15 -15 v 5 5 h -10 -10 v 5 5 h 10 10 v 5 5 h -10 -10 v -5 -5 h -15 -15 v 5 5 h 5 5 v 5 5 h -5 -5 v 5 5 h 5 5 v 5 5 h -5 -5 v -5 -5 h -20 -20 v 5 5 h 5 5 v 5 5 h 20 20 v 10 10 h 5 5 v 15 15 h -5 -5 v -5 -5 h -5 -5 v -10 -10 h -15 -15 v -10 -10 h -5 -5 v 10 10 h -5 -5 v -5 -5 h -5 -5 v -15 -15 h -10 -10 v 5 5 h 5 5 v 20 20 h 10 10 v 5 5 h -10 -10 v 5 5 h -5 -5 v 5 5 h -5 -5 z m 20,-10 v -5 h -5 -5 v -5 -5 h -5 -5 v 5 5 h 5 5 v 5 5 h 5 5 z m -10,-35 v -10 h -5 -5 v 10 10 h 5 5 z m 40,-5 v -5 h -5 -5 v 5 5 h 5 5 z m 0,-20 v -5 h -10 -10 v 5 5 h 10 10 z m 20,-10 v -5 h -5 -5 v 5 5 h 5 5 z m 20,0 v -5 h -5 -5 v 5 5 h 5 5 z m 130,-40 v -5 h -5 -5 v 5 5 h 5 5 z M 190,675 v -5 h 5 5 v 5 5 h -5 -5 z m 300,0 v -5 h -10 -10 v -5 -5 h 10 10 v 5 5 h 5 5 v 5 5 h -5 -5 z m 210,0 v -5 h 5 5 v 5 5 h -5 -5 z m 30,0 v -5 h 5 5 v 5 5 h -5 -5 z m 60,0 v -5 h 5 5 v 5 5 h -5 -5 z m 280,0 v -5 h 5 5 v 5 5 h -5 -5 z m 60,-5 v -10 h 5 5 v 10 10 h -5 -5 z m 40,5 v -5 h 5 5 v 5 5 h -5 -5 z m 500,0 v -5 h 5 5 v 5 5 h -5 -5 z M 210,665 v -5 h 5 5 v 5 5 h -5 -5 z m 20,0 v -5 h 5 5 v 5 5 h -5 -5 z m 50,0 v -5 h 5 5 v 5 5 h -5 -5 z m 480,0 v -5 h 5 5 v 5 5 h -5 -5 z m 500,0 v -5 h 5 5 v 5 5 h -5 -5 z m 40,0 v -5 h 5 5 v 5 5 h -5 -5 z m 60,0 v -5 h 5 5 v 5 5 h -5 -5 z m 30,0 v -5 h 5 5 v 5 5 h -5 -5 z M 420,655 v -5 h 5 5 v 5 5 h -5 -5 z m 90,-5 v -10 h 5 5 v 10 10 h -5 -5 z m 600,5 v -5 h 5 5 v 5 5 h -5 -5 z m 660,-5 v -10 h 15 15 v 5 5 h -10 -10 v 5 5 h -5 -5 z M 280,645 v -5 h 5 5 v 5 5 h -5 -5 z m 50,0 v -5 h 5 5 v 5 5 h -5 -5 z m 140,0 v -5 h -5 -5 v -5 -5 h 5 5 v 5 5 h 5 5 v 5 5 h -5 -5 z m 150,0 v -5 h 5 5 v 5 5 h -5 -5 z m 60,0 v -5 h 5 5 v 5 5 h -5 -5 z m 40,0 v -5 h 5 5 v 5 5 h -5 -5 z m 690,0 v -5 h 10 10 v 5 5 h -10 -10 z m 130,0 v -5 h 5 5 v 5 5 h -5 -5 z m 210,0 v -5 h 5 5 v 5 5 h -5 -5 z M 860,635 v -5 h 5 5 v 5 5 h -5 -5 z m 180,0 v -5 h 5 5 v 5 5 h -5 -5 z m 50,0 v -5 h 5 5 v 5 5 h -5 -5 z m 570,0 v -5 h 5 5 v 5 5 h -5 -5 z m 180,0 v -5 h 5 5 v -5 -5 h -15 -15 v -5 -5 h 15 15 v 5 5 h 5 5 v 5 5 h 5 5 v 5 5 h -5 -5 v -5 -5 h -5 -5 v 5 5 h -5 -5 z M 480,625 v -5 h 5 5 v 5 5 h -5 -5 z m 1010,0 v -5 h -5 -5 v -5 -5 h 5 5 v 5 5 h 5 5 v 5 5 h -5 -5 z m 50,0 v -5 h 5 5 v 5 5 h -5 -5 z m 220,0 v -5 h 5 5 v 5 5 h -5 -5 z m 20,0 v -5 h 10 10 v -5 -5 h 5 5 v 5 5 h -5 -5 v 5 5 h -10 -10 z m -560,-10 v -5 h 5 5 v 5 5 h -5 -5 z M 350,590 v -20 h 10 10 v 5 5 h 5 5 v 5 5 h -5 -5 v 5 5 h -5 -5 v 5 5 h -5 -5 z m 20,-5 v -5 h -5 -5 v 5 5 h 5 5 z m 240,20 v -5 h 5 5 v 5 5 h -5 -5 z m 40,0 v -5 h 5 5 v 5 5 h -5 -5 z m 200,0 v -5 h 5 5 v 5 5 h -5 -5 z m 180,0 v -5 h 5 5 v 5 5 h -5 -5 z m 30,0 v -5 h 5 5 v 5 5 h -5 -5 z m 550,0 v -5 h 5 5 v 5 5 h -5 -5 z m 150,0 v -5 h 10 10 v 5 5 h -10 -10 z M 290,595 v -5 h 10 10 v 5 5 h -10 -10 z m 200,-5 v -10 h -5 -5 v -5 -5 h 5 5 v 5 5 h 5 5 v -5 -5 h 5 5 v 5 5 h -5 -5 v 10 10 h -5 -5 z m 20,5 v -5 h 5 5 v 5 5 h -5 -5 z m 60,0 v -5 h 5 5 v 5 5 h -5 -5 z m 190,0 v -5 h 5 5 v 5 5 h -5 -5 z m 130,-5 v -10 h 5 5 v 10 10 h -5 -5 z m 370,5 v -5 h 5 5 v 5 5 h -5 -5 z m 130,0 v -5 h 5 5 v 5 5 h -5 -5 z m 60,0 v -5 h 5 5 v -5 -5 h 5 5 v 5 5 h -5 -5 v 5 5 h -5 -5 z m 120,0 v -5 h 5 5 v 5 5 h -5 -5 z m 80,0 v -5 h 5 5 v 5 5 h -5 -5 z m 140,0 v -5 h 10 10 v 5 5 h -10 -10 z m 30,0 v -5 h 15 15 v 5 5 h -15 -15 z M 800,585 v -5 h 5 5 v 5 5 h -5 -5 z m 20,0 v -5 h 5 5 v 5 5 h -5 -5 z m 40,0 v -5 h 5 5 v 5 5 h -5 -5 z m 140,0 v -5 h 5 5 v 5 5 h -5 -5 z m 280,0 v -5 h 5 5 v 5 5 h -5 -5 z m 30,0 v -5 h 5 5 v 5 5 h -5 -5 z m 120,0 v -5 h 5 5 v 5 5 h -5 -5 z m 240,-5 v -10 h 5 5 v 10 10 h -5 -5 z m 60,5 v -5 h 5 5 v 5 5 h -5 -5 z M 390,575 v -5 h 5 5 v 5 5 h -5 -5 z m 160,-5 v -10 h 5 5 v 10 10 h -5 -5 z m 50,5 v -5 h 5 5 v 5 5 h -5 -5 z m 30,0 v -5 h 5 5 v 5 5 h -5 -5 z m 50,-5 v -10 h 10 10 v 5 5 h -5 -5 v 5 5 h -5 -5 z m 380,5 v -5 h 5 5 v 5 5 h -5 -5 z m 20,0 v -5 h 5 5 v 5 5 h -5 -5 z m 20,0 v -5 h 5 5 v 5 5 h -5 -5 z m 20,0 v -5 h 5 5 v 5 5 h -5 -5 z m 220,0 v -5 h 5 5 v 5 5 h -5 -5 z m 70,0 v -5 h 5 5 v 5 5 h -5 -5 z m 180,-5 v -10 h 5 5 v 10 10 h -5 -5 z m 20,5 v -5 h 5 5 v -5 -5 h 5 5 v 5 5 h -5 -5 v 5 5 h -5 -5 z m 190,0 v -5 h -10 -10 v -5 -5 h -10 -10 v -5 -5 h -5 -5 v -10 -10 h -5 -5 v 5 5 h -5 -5 v 5 5 h -5 -5 v -5 -5 h 5 5 v -5 -5 h -5 -5 v -10 -10 h -5 -5 v -10 -10 h 5 5 v -5 -5 h 5 5 v 5 5 h 5 5 v -5 -5 h 5 5 v -5 -5 h 10 10 v 5 5 h -10 -10 v 5 5 h 5 5 v 10 10 h 10 10 v 5 5 h 5 5 v 5 5 h 5 5 v 5 5 h 10 10 v -10 -10 h 5 5 v -5 -5 h 5 5 v 5 5 h -5 -5 v 15 15 h -15 -15 v -5 -5 h -5 -5 v -5 -5 h -10 -10 v 10 10 h 5 5 v 5 5 h 10 10 v 5 5 h 5 5 v 5 5 h -5 -5 z m -60,-55 v -10 h 5 5 v 5 5 h 5 5 v 5 5 h 5 5 v -5 -5 h -5 -5 v -5 -5 h -5 -5 v -10 -10 h -5 -5 v 10 10 h -5 -5 v 10 10 h 5 5 z M 720,560 v -10 h 5 5 v 10 10 h -5 -5 z m 260,5 v -5 h 5 5 v -5 -5 h 5 5 v 5 5 h -5 -5 v 5 5 h -5 -5 z m 50,0 v -5 h 5 5 v 5 5 h -5 -5 z m 140,-5 v -10 h 5 5 v -5 -5 h 10 10 v 5 5 h -10 -10 v 5 5 h 5 5 v 5 5 h -10 -10 z m 80,5 v -5 h 5 5 v 5 5 h -5 -5 z m 50,0 v -5 h 5 5 v 5 5 h -5 -5 z m 170,0 v -5 h 5 5 v 5 5 h -5 -5 z m 20,-5 v -10 h 5 5 v 10 10 h -5 -5 z m 20,5 v -5 h 5 5 v 5 5 h -5 -5 z m 50,0 v -5 h -10 -10 v -5 -5 h 10 10 v 5 5 h 5 5 v 5 5 h -5 -5 z m 130,0 v -5 h 10 10 v 5 5 h -10 -10 z m 170,0 v -5 h 5 5 v -5 -5 h 5 5 v 5 5 h -5 -5 v 5 5 h -5 -5 z M 460,555 v -5 h 5 5 v 5 5 h -5 -5 z m 500,-5 v -10 h 10 10 v 5 5 h -5 -5 v 5 5 h -5 -5 z m 50,5 v -5 h 5 5 v 5 5 h -5 -5 z m 100,0 v -5 h 5 5 v 5 5 h -5 -5 z m 220,0 v -5 h 5 5 v 5 5 h -5 -5 z m 110,-5 v -10 h 5 5 v 10 10 h -5 -5 z m 230,5 v -5 h 5 5 v 5 5 h -5 -5 z M 510,540 v -10 h 5 5 v 10 10 h -5 -5 z m 40,5 v -5 h 5 5 v 5 5 h -5 -5 z m 20,0 v -5 h 5 5 v -5 -5 h 5 5 v 5 5 h -5 -5 v 5 5 h -5 -5 z m 40,0 v -5 h 10 10 v 5 5 h -10 -10 z m 70,-5 v -10 h -5 -5 v -5 -5 h 5 5 v 5 5 h 5 5 v 10 10 h -5 -5 z m 140,5 v -5 h 5 5 v 5 5 h -5 -5 z m 20,0 v -5 h 5 5 v 5 5 h -5 -5 z m 60,0 v -5 h 5 5 v -10 -10 h 5 5 v 10 10 h -5 -5 v 5 5 h -5 -5 z m 180,0 v -5 h 5 5 v 5 5 h -5 -5 z m 70,0 v -5 h 5 5 v 5 5 h -5 -5 z m 240,-10 v -15 h 5 5 v 15 15 h -5 -5 z m 70,5 v -10 h 5 5 v -5 -5 h -20 -20 v -5 -5 h -30 -30 v 5 5 h -5 -5 v -5 -5 h -5 -5 v -5 -5 h 35 35 v -5 -5 h 10 10 v 10 10 h 15 15 v -5 -5 h 10 10 v 5 5 h 5 5 v 5 5 h -10 -10 v 5 5 h -5 -5 v 10 10 h -5 -5 z m 50,5 v -5 h 5 5 v 5 5 h -5 -5 z m 80,0 v -5 h -25 -25 v -5 -5 h 30 30 v 10 10 h -5 -5 z m 20,0 v -5 h 5 5 v 5 5 h -5 -5 z m 40,0 v -5 h -5 -5 v -5 -5 h 5 5 v -5 -5 h -5 -5 v -5 -5 h 5 5 v 5 5 h 5 5 v 5 5 h -5 -5 v 5 5 h 5 5 v 5 5 h -5 -5 z m 40,0 v -5 h 5 5 v 5 5 h -5 -5 z M 460,535 v -5 h 5 5 v 5 5 h -5 -5 z m 20,0 v -5 h 5 5 v 5 5 h -5 -5 z m 570,0 v -5 h 5 5 v 5 5 h -5 -5 z m 80,0 v -5 h -5 -5 v -10 -10 h 5 5 v 10 10 h 5 5 v 5 5 h -5 -5 z m 90,0 v -5 h 5 5 v 5 5 h -5 -5 z m 130,0 v -5 h 5 5 v 5 5 h -5 -5 z m 70,0 v -5 h 5 5 v 5 5 h -5 -5 z m 250,0 v -5 h 5 5 v 5 5 h -5 -5 z M 440,525 v -5 h 5 5 v -5 -5 h 5 5 v 5 5 h -5 -5 v 5 5 h -5 -5 z m 280,0 v -5 h 5 5 v 5 5 h -5 -5 z m 70,0 v -5 h 5 5 v 5 5 h -5 -5 z m 30,-5 v -10 h 5 5 v 10 10 h -5 -5 z m 120,5 v -5 h -5 -5 v -10 -10 h 5 5 v 10 10 h 5 5 v 5 5 h -5 -5 z m 60,0 v -5 h -5 -5 v -5 -5 h 5 5 v 5 5 h 5 5 v 5 5 h -5 -5 z m 90,0 v -5 h 5 5 v 5 5 h -5 -5 z m 160,0 v -5 h 5 5 v 5 5 h -5 -5 z m 370,0 v -5 h 5 5 v 5 5 h -5 -5 z m 260,0 v -5 h 5 5 v 5 5 h -5 -5 z M 420,515 v -5 h 5 5 v 5 5 h -5 -5 z m 60,-5 v -10 h 5 5 v 10 10 h -5 -5 z m 80,5 v -5 h -5 -5 v -5 -5 h 10 10 v 10 10 h -5 -5 z m 510,0 v -5 h 5 5 v 5 5 h -5 -5 z m 100,-5 v -10 h 10 10 v 5 5 h -5 -5 v 5 5 h -5 -5 z m 30,5 v -5 h 10 10 v -5 -5 h -5 -5 v -5 -5 h 20 20 v 10 10 h -5 -5 v -5 -5 h -5 -5 v 5 5 h -5 -5 v 5 5 h -10 -10 z m 90,0 v -5 h 5 5 v -5 -5 h 20 20 v 10 10 h -5 -5 v -5 -5 h -5 -5 v 5 5 h -5 -5 v -5 -5 h -5 -5 v 5 5 h -5 -5 z m 380,-5 v -10 h 5 5 v 10 10 h -5 -5 z m 130,5 v -5 h 5 5 v 5 5 h -5 -5 z M 500,505 v -5 h 5 5 v 5 5 h -5 -5 z m 20,0 v -5 h 5 5 v 5 5 h -5 -5 z m 80,0 v -5 h 5 5 v -5 -5 h 5 5 v 5 5 h -5 -5 v 5 5 h -5 -5 z m 410,0 v -5 h -5 -5 v -5 -5 h 5 5 v 5 5 h 5 5 v 5 5 h -5 -5 z m 20,0 v -5 h 5 5 v 5 5 h -5 -5 z m 70,-10 v -15 h -5 -5 v 10 10 h -5 -5 v -15 -15 h -5 -5 v 10 10 h -5 -5 v -5 -5 h -10 -10 v 5 5 h -5 -5 v -10 -10 h -5 -5 v 5 5 h -5 -5 v -5 -5 h 5 5 v -5 -5 h -5 -5 v -10 -10 h -5 -5 v -10 -10 h -5 -5 v -5 -5 h 10 10 v 10 10 h 5 5 v 15 15 h 15 15 v -10 -10 h -5 -5 v -5 -5 h -5 -5 v -10 -10 h -5 -5 v -5 -5 h 10 10 v 5 5 h 5 5 v 10 10 h 5 5 v 5 5 h 20 20 v 5 5 h -10 -10 v 5 5 h 20 20 v 5 5 h -10 -10 v 5 5 h 10 10 v 5 5 h -5 -5 v 10 10 h -5 -5 z m -40,-30 v -5 h -5 -5 v 5 5 h 5 5 z m 210,40 v -5 h 5 5 v 5 5 h -5 -5 z m 630,0 v -5 h -10 -10 v -5 -5 h 10 10 v 5 5 h 5 5 v 5 5 h -5 -5 z M 410,495 v -5 h 5 5 v -5 -5 h 5 5 v 5 5 h -5 -5 v 5 5 h -5 -5 z m 340,0 v -5 h 5 5 v 5 5 h -5 -5 z m 760,0 v -5 h -5 -5 v -5 -5 h 5 5 v 5 5 h 5 5 v 5 5 h -5 -5 z m 260,0 v -5 h 5 5 v 5 5 h -5 -5 z m 30,0 v -5 h 5 5 v 5 5 h -5 -5 z M 460,480 v -10 h 10 10 v 5 5 h -5 -5 v 5 5 h -5 -5 z m 70,5 v -5 h 5 5 v 5 5 h -5 -5 z m 160,0 v -5 h 5 5 v 5 5 h -5 -5 z m 40,0 v -5 h 5 5 v 5 5 h -5 -5 z m 50,0 v -5 h 5 5 v 5 5 h -5 -5 z m 350,0 v -5 h 15 15 v 5 5 h -15 -15 z m 320,0 v -5 h 5 5 v 5 5 h -5 -5 z m 370,0 v -5 h 5 5 v 5 5 h -5 -5 z m 30,0 v -5 h 10 10 v 5 5 h -10 -10 z m 70,-5 v -10 h 5 5 v 10 10 h -5 -5 z M 580,475 v -5 h -10 -10 v -5 -5 h 10 10 v 5 5 h 5 5 v -10 -10 h 15 15 v 5 5 h -10 -10 v 10 10 h -10 -10 z m 350,-5 v -10 h 5 5 v 10 10 h -5 -5 z m 540,5 v -5 h 5 5 v 5 5 h -5 -5 z m 310,0 v -5 h 5 5 v 5 5 h -5 -5 z m 110,0 v -5 h 5 5 v 5 5 h -5 -5 z M 520,465 v -5 h 10 10 v 5 5 h -10 -10 z m 110,0 v -5 h 5 5 v -5 -5 h 5 5 v 5 5 h 5 5 v 5 5 h -5 -5 v -5 -5 h -5 -5 v 5 5 h -5 -5 z m 40,0 v -5 h 10 10 v 5 5 h -10 -10 z m 70,0 v -5 h -5 -5 v -5 -5 h -15 -15 v -5 -5 h 20 20 v 10 10 h 5 5 v 5 5 h -5 -5 z m 50,0 v -5 h 5 5 v 5 5 h -5 -5 z m 200,0 v -5 h -15 -15 v -5 -5 h 20 20 v 10 10 h -5 -5 z m 840,0 v -5 h 5 5 v 5 5 h -5 -5 z M 770,450 v -10 h 10 10 v 5 5 h -5 -5 v 5 5 h -5 -5 z m 120,5 v -5 h 5 5 v -5 -5 h -25 -25 v 5 5 h -5 -5 v -10 -10 h 20 20 v -5 -5 h 5 5 v 5 5 h 5 5 v -10 -10 h 10 10 v -5 -5 h 5 5 v -5 -5 h 5 5 v 10 10 h 5 5 v 10 10 h -5 -5 v 5 5 h 5 5 v 5 5 h -25 -25 v 5 5 h -5 -5 z m 40,-20 v -5 h 5 5 v -10 -10 h -10 -10 v 5 5 h -5 -5 v 5 5 h -5 -5 v 5 5 h 15 15 z m -10,-10 v -5 h 5 5 v 5 5 h -5 -5 z m 210,30 v -5 h 5 5 v 5 5 h -5 -5 z m 660,0 v -5 h 5 5 v 5 5 h -5 -5 z m 60,0 v -5 h 5 5 v 5 5 h -5 -5 z m 20,0 v -5 h 5 5 v 5 5 h -5 -5 z m -60,-10 v -5 h 5 5 v 5 5 h -5 -5 z m 20,0 v -5 h 5 5 v 5 5 h -5 -5 z m 80,0 v -5 h 15 15 v 5 5 h -15 -15 z M 980,435 v -5 h -5 -5 v -5 -5 h 5 5 v 5 5 h 5 5 v 5 5 h -5 -5 z m 870,0 v -5 h 5 5 v 5 5 h -5 -5 z m 30,0 v -5 h 5 5 v 5 5 h -5 -5 z m -770,-10 v -5 h 5 5 v 5 5 h -5 -5 z m 800,0 v -5 h 5 5 v 5 5 h -5 -5 z m -840,-10 v -5 h -5 -5 v -5 -5 h -5 -5 v -5 -5 h 5 5 v 5 5 h 5 5 v -5 -5 h 5 5 v 5 5 h 5 5 v 5 5 h -5 -5 v 5 5 h -5 -5 z M 950,390 v -10 h 10 10 v 5 5 h 5 5 v 5 5 h -5 -5 v -5 -5 h -5 -5 v 5 5 h -5 -5 z m 50,5 v -5 h -5 -5 v -5 -5 h -5 -5 v -5 -5 h 5 5 v 5 5 h 5 5 v 5 5 h 5 5 v 5 5 h -5 -5 z m 20,-10 v -5 h 5 5 v 5 5 h -5 -5 z m -20,-20 v -5 h 5 5 v 5 5 h -5 -5 z m 20,0 v -5 h 5 5 v 5 5 h -5 -5 z"
         id="path1406" />
    </g>
  </g>
</svg>
