<svg width="631" height="631" xmlns="http://www.w3.org/2000/svg"><path style="fill:#ded9a7;stroke-width:.780391" d="M293 519h-5 5v5zm-10-5v-4 4h5zm-46-4zm28 0zm153 0v-5l4 5zm-200 0c5 0 0 0 0 0s-4 0 0 0zm-14 0h5zm28 0zm-37 0h5zm23 0h5-5s-4 0 0 0zm65 0h10zm33 0zm-125 0c4 0 0 0 0 0zm13 0h5zm98 0h4zm23 0zm-139-5v5zm14 0v5zm116 0v5zm14 0h4v5zm-139 0h4zm129 0h5zm19 0zm-167 0c5 0 0 0 0 0zm14 0h5zm144 0h4zm14 0h4zm-177 0h5zm14 0c-4 0-4 0 0 0zm139 0s-4 0 0 0zm5 0zm14 0zm14 0c-5 0-5 0 0 0zm-190 0h4zm9 0h5zm172 0h4zm13 0zm-199 0h5zm9 0h5zm10 0v-5l4 5zm153 0c-5 0-5 0 0 0zm18 0h5zm14 0zm-204-5v5zm5 0h4v5zm23 0v5zm5 0s4 0 0 0v5zm166 0v5zm10 0v5zm-209 0h5zm14 0h5zm190 0zm-209 0h5zm214 0zm-218 0h4zm18 0h5zm204 0zm5 0zm-232 0v-4l5 4zm23 0v-9l-4-4c4 0 4 0 0 0h4c5 0 5 0 0 0l-14-5 5-9 9-5h325v14h-9l4-5c0 5 0 5 0 0v5l5-5v-4l-9 4a264 264 0 0 0-37 0 663 663 0 0 1-38 5 825 825 0 0 1-204 9v5-5l-4 5-5 4 5-4 4-5-4-4h-33zm214 0zm9 0zm-14-4v4zm5 0h4v4zm-242 0h-4 4c5 0 0 0 0 0zm14 0h5zm218 0c5 0 5 0 0 0-4 0-4 0 0 0zm19 0s-5 0 0 0zm0 0h5zm18 0h5zm47 0h4zm-320 0zm260 0h4zm-265 0-4-5h4v5c5 0 5 0 0 0zm33 0zm51 0zm185 0c5 0 0 0 0 0zm5 0v-5h4-4 4c-4 0 0 0 0 0 5 0 5 0 0 0 0 0 0 5 0 0zm9-5c5 0 0 0 0 0zm-269 0v-4zm274 0h4zm-306-4h4v4zm347 0 5 4zm-310 0h-5c-5 0 0 0 0 0v-5c0 5 0 0 0 0h5v5-5h-5v-5c5 0 5 0 0 0h-9l-5 5h-4l4-5h-4a297 297 0 0 1-33-9h5l37 5h-5v4h5v-9h9l9 5v4l-4 5v5h4c0-5 0-5 0 0zm0 0h-5zm278 0h19v-5a195 195 0 0 1-19 5zm-292 0h-5 9zm-28 0-5-5zm5 0zm27 0c-4-5-4-5 0 0zm293 0zm-302 0h5zm9 0 5-5v5zm-37-5c0 5 0 5 0 0zm357 0zm-324 0zm315 0h5zm37 0h5zm-389 0h-5zm32 0zm325 0h4zm9 0zm19 0h4zm-24 0zm10 0zm9 0c5 0 0 0 0 0zm-390-5c5 5 5 5 0 0zm376 5Zm-371-5v5zm362 0h4zm9 0h9l-4 5zm14 0h5zm5 0zm-399 0v-4zm-5-4 5-5h9-14zm5 0h4zm-9 0v-5 5l4-5c-4 0-4 0 0 0v5zm4-5h5zm9 0v-5h-4a329 329 0 0 0 4 5zm450-9v-5zm-69-10c0 5 0 5 0 0zm69-4v4zm-88 4zm-65 0v-4zm98-13h4zm4 0zm-176-5v5zm130 0c-5 0-5 0 0 0zm5 0h4zm-102-5h4zm-121 0v-4h5zm283 0v-4zm-209-9v-5zm-83-5c0 5 0 5 0 0zm0 0zm320-4h4zm-302-5h5zm14 0h5zm9-9c5 0 5 0 0 0 0 0 0 4 0 0zm14-14 5-5-5 5-4 5z"/><path style="fill:#c1b676;stroke-width:.780391" d="M311 533h5zm0-14h5zm-14-5h-4l4 5zm19 0c0 5 0 0 0 0zm-28 0h-5v-4h-28a427 427 0 0 1-148-23l-32-14 4-5v5l14 4c37 23 84 33 153 33a705 705 0 0 0 200-23c23-10 27-10 37-5a158 158 0 0 0 9 0c5 0 0 0 0 0h-33v5l-4-5v5l-5 4v-4h-4c0 4 0 4 0 0h-5v4h-14 5-14v5h-23a705 705 0 0 1-89 18c5 0 5 0 0 0 0-4 0-4 0 0-4 0-4 0 0 0h-9l5-4h-14l-5 4h10c-5 0-5 0 0 0zm14 0h-5zm4-4h-4v4zm144-23zm-18 27zm9-4 5-5-5 5h-5zm5-5v-5h4zm-260-5h5l-5 5zm-9 0zm-5 0zm23 0c0-4 0-4 0 0zm353 0h4zm-381 0h5zm246 0 5-4c4 0 4 0 0 0 0 4 0 4 0 0v4zm-236-4h-5s-5 0 0 0h5v4zm236 0c0 4 0 4 0 0zm9 0c5 0 5 0 0 0zm-250 0h-5 5l5-5v5zm-5-5v-4h5c5 0 0 0 0 0l-5 4h10zm269 0zm-232 0v-4h-4 4zm-37 0h5zm-23-4h5zm-9 0h4zm4 0zm5 0v-5zm37 0h5zm19 0c-5 0-5 0 0 0zm301 0v-5zm-352-5c4 0 4 0 0 0v5zm348 0c4 0 0 0 0 0s-5 0 0 0h4l-4 5zm4 0h-9v-5h5zm-371 0h5zm9 0zm0 0v-5l5 5zm5-5c0 5 0 5 0 0zm357 0v5zm-4 0h-5v-9H316a1108 1108 0 0 0-158 5v-19h5l23-5h5l9-4h9l9-5h65v5l5-5a640 640 0 0 0 51 5 1799 1799 0 0 0 162 14h-9 14l-5 4h-9v5l9-5v5h5-14 9l5 5h-5 5l-14-5 5 5h-5 9v4h-9 9zm-121-14v-4zm37 0-5-4v4zm14 0v-4l-5 4zm19 0h-5zm13 0v-4zm-115-4v4zm-149 0h-4v4zm33 0h-5zm102 0h-5l5 4zm-121 0c-5 0-5 0 0 0 0 4 0 0 0 0zm84 0s0-5 0 0c-5 0 0 0 0 0zm-14 0v-5l-5 5zm-61-10s0-4 0 0c-4 0-4 0 0 0zm19 0-5-4v4zm65-4-5 4zm-33 0-4-5v5zm-139 32h5zm14 0h5zm9-4h-18v-5l4-9h5l14-5zm-37-5h-9l23-5h5v10zm-28 0h5v-5h-5 5v5zm-9 0zm5 0zm422-5h-9zm-422-4Zm-5 0-4-5h4zm422-5h5l-5 5zm-14 0v-14 5h5l9-5h-4l-5 5v9-9l5 4 4-4v4h-4l-5 5zm10 0h9-9c-5 0-5 0 0 0zm-33 0 5-5v5zm5-5c0 5 0 5 0 0zm28 0h9zm-47 0c0-4 0 0 0 0s0 5 0 0zm-65 0v-4l5 4zm0 0v-4zm47 0v-4h4zm-79-4v-5zm139 0h5c4 0 4 0 0 0zm9 0c5 0 5 0 0 0zm-4 0h4zm-10-5h5zm51 0zm-55 0v-4h4l5-5v5h5-5v4-4h-5v4zm9 0 5-4v4zm-186-4v-5h5v5zm5-5v5zm70 5-5-5h5zm-190-5h4zm250 0h5zm97 0zm-269 0v-5h5zm75-5h4zm4 0c-4 0-4 0 0 0zm-185 0v-4zm375 0c0-4 0-4 0 0zm-315 0v-4zm5-4v4zm-51 0 4-5v5zm78 0h5zm56-5h5v5zm-14 0v-5c0 5 0 5 0 0l5 5zm-83 0v-5s4 0 0 0c0 0 0 5 0 0zm0-5zm315 0v-4h5zm-213-4h4zm0 0zm-10 0h5zm-4 0s-5 0 0 0zm4-5zm-23 0c5 0 5 0 0 0 0 0-4 0 0 0zm14 0h5zm-37 0zm65-5h5v5zm-46 0h4zm4 0h5zm-9-23h5z"/><path style="fill:#548a78;stroke-width:.780391" d="M139 482zm5-5zm-14-4h5v4zm5 0zm18-5h5zm-55 0h-5 5l18-9a93 93 0 0 1 19-14l28-14a362 362 0 0 1 199 0 839 839 0 0 1 93 23h32c0-5 0-5 0 0v5h-9a482 482 0 0 1-107-10 42860 42860 0 0 1-157-9l-10 5h-18v4h-19l-4 5h-5v5-5l-5-9a232 232 0 0 0 5 9l-14 5-5 4-4-4v-10 14h-9l-10 5zm287-19h5l-5-4zm19 0h-5zm-255 0zm-14 0zm236-4h-4v4zm-18 0v-5zm-195-5 5-4zm65-4h-5v4zm14 0v-5zm-60 0v-5l-5 5zm78 0-4-5zm42-5-4 5zm14 0h-5l5 5zm19 0h-5v5zm-135 0h-4zm79-5h-5v5zm-65 0h-5zm74 0zm-55-4h-5v4zm14 0zm18 0h-5zM93 463h-5 5c0 5 0 0 0 0zm65 0zm218 0v-4zm51 0zm14 0c0-4 0 0 0 0zm-357-4 4 4zm-5-5c-4 0-4 0 0 0zm385-5h5zm-246 0v-4 4c-4 0-4 0 0 0zm246-4s-5 0 0 0zm-88-14c5 5 0 5 0 0zm-199-9v-5zm4 0zm42-19zm14 0h5zm37 0zm-19 0c5 0 5 0 0 0 0 0-4 0 0 0z"/><path style="fill:#de4c17;stroke-width:.780391" d="m311 533-9-5-14-14v-4h14l-5 4h9c-4 0-4 0 0 0 0-4 0-4 0 0 5 0 5 0 0 0v-4h5v4-4l5 4v14l4 5zm-14-14-4-5h4zm-4-5c-5 0-5 0 0 0h-5zm4 0h5zm125-4-9-14h5v-5h14-5 14v-4h5c0 4 0 4 0 0h4v4l5-4 4-5 5 9-9 5-9 9-14 9zm-4-10v-4c0 4 0 4 0 0 4 0 4 0 0 0zm4-4c5 0 5 0 0 0zm14-5zm-134 19v4zm-121-10h-9l-5-4h10v-5h-10 10-10l5-4s5 0 0 0h32l-9 13zm-4-4h-5c-5 0 0 0 0 0h5v4zm-5-5h-5zm371 5a468 468 0 0 0-51-14h9-4v-5h4-9 9v-4h-9 5l-5-5 14 5h-5 5l-5-5h-9 14-5v-5l-9 5v-5h9l5-4h-14 14-5l-9-5 5-5h4v-4l-4 4-5-4v9s0-5 0 0l-5-5v-4h5l5-5h4a32 32 0 0 0-14 5v-5h-4l4-4c-4 0-4 0 0 0h5v4-4h5-5l5-5a1660 1660 0 0 1 41-23l5 9c-5 32-5 42 5 74l4 9zm-37-19h-5zm0-14h-9zm0-9h-5v5zm-5 0h5-9zm0-5h5a158 158 0 0 1-9 0zm0-4h-9zm5 0h-5zm-5 0h-4zm-9-5h-5zm5 0v-4l-5 4zm-10 0zm-37 47zM79 468h14Zm329-5v-4l5 4zm51 0v-4zm-115 0v-4zm-153 0v-4h4zm32-4h5v4zm102 0h5zm-116 0c-5 0-5 0 0 0 0 0 0 4 0 0zm84 0c0-5 0 0 0 0 0 4 0 4 0 0zm-191 0v-10l10 5h-5v5zm5-5-5-5v10zm292-5h5zm-232 0h5zm65 0v-4zm65 0 5-4zm-97-4 4-5v5zm65 0v-5l4 5zm148 0 5-5v5zm-130 0v-5zm163-5a348 348 0 0 0-19-4h5l9-5 14 5v4zm-288 0v-4zm167-9v5zm37 0v-5zm-79-5zm-37-14 5-4v4zm74-4h-9c-5 0-5 0 0 0h-9l-5-5h-46l4-9 14-9 5-10h5l41 19c10 4 10 4 10 14zm-14-5zm-4 0h-5zm-19-5h-4zm5 0h-5z"/><path style="fill:#3c5556;stroke-width:.780391" d="m153 477 5-23-5-9 5 18-5 19zm-18-4zm0-5v-19 19c0 5 0 5 0 0zm-47-9-9-5 5-5c51-23 93-37 139-46h65a974 974 0 0 1 144 33l32 9 9-5h10l4 9-14 5h-4v-5h-5v5l-23-5a167 167 0 0 1-23-4v-5l-5 5c5 0 0 0 0 0a696 696 0 0 0-65-19h-9a413 413 0 0 0-176 5 107 107 0 0 0-28 14l-19 14-14 9h-4zm19 0v-10h-5v10zm-5-5v-5l5 5-5 5zm0 0v-5zm348-5zm-14 0-4-4v4zm-55-18h-5l5 5zm-19 0v-5zm-195-5-4-4v4zm14-4v-5l-4 5zm135-5c4 0 0 0 0 0v5zm-14 0-5-5v5zm-88-5v5zm37-4h-5l5 4zm125 55v-4zm46 0 5-4v4zm19 0s0-4 0 0c5 0 5 0 0 0zm-167-4 5-5v5zm-125-10zm69 0c-4 0 0 0 0 0zm-83 0zm51 0v-4h5zm181 0v-4h4zm-33-4v-5l5 5zm-116-9h5zm19 0v-5zm-65 0 5-5v5zm79 0 4-5v5zm42 0 4-5zm-89-10h5zm38-4z"/><text xml:space="preserve" style="font-style:normal;font-variant:normal;font-weight:400;font-stretch:normal;font-size:37.4565px;line-height:1.25;font-family:'Noto Color Emoji';-inkscape-font-specification:'Noto Color Emoji, Normal';font-variant-ligatures:normal;font-variant-caps:normal;font-variant-numeric:normal;font-variant-east-asian:normal;fill:#000;fill-opacity:1;stroke:none;stroke-width:.936411" x="88" y="116.5"><tspan x="88" y="116.5" style="font-style:normal;font-variant:normal;font-weight:400;font-stretch:normal;font-size:37.4565px;font-family:'Noto Color Emoji';-inkscape-font-specification:'Noto Color Emoji, Normal';font-variant-ligatures:normal;font-variant-caps:normal;font-variant-numeric:normal;font-variant-east-asian:normal;stroke-width:.936411">McFarland Springs Trout</tspan></text><text xml:space="preserve" style="font-style:normal;font-weight:400;font-size:17.44px;line-height:1.25;font-family:sans-serif;fill:#000;fill-opacity:1;stroke:none;stroke-width:.435999" x="4.6" y="187.9"><tspan x="4.6" y="187.9" style="stroke-width:.435999">Lot Number: #LOT#</tspan></text><text xml:space="preserve" style="font-style:normal;font-weight:400;font-size:17.44px;line-height:1.25;font-family:sans-serif;fill:#000;fill-opacity:1;stroke:none;stroke-width:.435999" x="4.6" y="227.8"><tspan x="4.6" y="227.8" style="stroke-width:.435999">Harvest Date: #HARVEST DATE#</tspan></text><text xml:space="preserve" style="font-style:normal;font-weight:400;font-size:17.44px;line-height:1.25;font-family:sans-serif;fill:#000;fill-opacity:1;stroke:none;stroke-width:.435999" x="4.6" y="272.8"><tspan x="4.6" y="272.8" style="stroke-width:.435999">Harvest Time: #HARVEST TIME#</tspan></text><text xml:space="preserve" style="font-style:normal;font-weight:400;font-size:17.44px;line-height:1.25;font-family:sans-serif;fill:#000;fill-opacity:1;stroke:none;stroke-width:.435999" x="325.4" y="227.8"><tspan x="325.4" y="227.8" style="stroke-width:.435999">Weather at Harvest: #WEATHER#</tspan></text><text xml:space="preserve" style="font-style:normal;font-weight:400;font-size:17.44px;line-height:1.25;font-family:sans-serif;fill:#000;fill-opacity:1;stroke:none;stroke-width:.435999" x="325.9" y="184.2"><tspan x="325.9" y="184.2" style="stroke-width:.435999">Total Harvest Weight: #WEIGHT#</tspan></text><text xml:space="preserve" style="font-style:normal;font-weight:400;font-size:17.44px;line-height:1.25;font-family:sans-serif;fill:#000;fill-opacity:1;stroke:none;stroke-width:.435999" x="324.5" y="272.8"><tspan x="324.5" y="272.8" style="stroke-width:.435999">Feed Used: #FEED#</tspan></text><text xml:space="preserve" style="font-style:normal;font-weight:400;font-size:17.44px;line-height:1.25;font-family:sans-serif;fill:#000;fill-opacity:1;stroke:none;stroke-width:.435999" x="167.8" y="331.2"><tspan x="167.8" y="331.2" style="stroke-width:.435999">Sold to: TwoBySea, San Francisco</tspan></text></svg>