<svg width="145" height="108.8" xmlns="http://www.w3.org/2000/svg"><path style="fill:#ded9a7;stroke-width:.168297" d="M68 99h-1 1v1-1zm-2-1v-1 1h1-1zm-10-1zm6 0zm33 0v-1l1 1h-1zm-43 0c1 0 0 0 0 0s-1 0 0 0zm-3 0h1-1zm6 0zm-8 0h1-1zm5 0h1-1s-1 0 0 0zm14 0h2-2zm7 0zm-27 0c1 0 0 0 0 0zm3 0h1-1zm21 0h1-1zm5 0zm-30-1v1-1zm3 0v1-1zm25 0v1-1zm3 0h1v1l-1-1zm-30 0h1-1zm28 0h1-1zm4 0zm-36 0c1 0 0 0 0 0zm3 0h1-1zm31 0h1-1zm3 0h1-1zm-38 0h1-1zm3 0c-1 0-1 0 0 0zm30 0s-1 0 0 0zm1 0zm3 0zm3 0c-1 0-1 0 0 0zm-41 0h1-1zm2 0h1-1zm37 0h1-1zm3 0zm-43 0h1-1zm2 0h1-1zm2 0v-1l1 1h-1zm33 0c-1 0-1 0 0 0zm4 0h1-1zm3 0zm-44-1v1-1zm1 0h1v1l-1-1zm5 0v1-1zm1 0s1 0 0 0v1-1zm36 0v1-1zm2 0v1-1zm-45 0h1-1zm3 0h1-1zm41 0zm-45 0h1-1zm46 0zm-47 0h1-1zm4 0h1-1zm44 0zm1 0zm-50 0v-1l1 1h-1zm5 0v-2l-1-1c1 0 1 0 0 0h1c1 0 1 0 0 0l-3-1 1-2 2-1h70v3h-2l1-1c0 1 0 1 0 0v1l1-1v-1l-2 1a57 57 0 0 0-8 0 143 143 0 0 1-8 1 178 178 0 0 1-44 2v1-1l-1 1-1 1 1-1 1-1-1-1h-7v3zm46 0zm2 0zm-3-1v1-1zm1 0h1v1l-1-1zm-52 0h-1 1c1 0 0 0 0 0zm3 0h1-1zm47 0c1 0 1 0 0 0s-1 0 0 0zm4 0s-1 0 0 0zm0 0h1-1zm4 0h1-1zm10 0h1-1zm-69 0zm56 0h1-1zm-57 0-1-1h1v1c1 0 1 0 0 0zm7 0zm11 0zm40 0c1 0 0 0 0 0zm1 0v-1h1-1 1c-1 0 0 0 0 0 1 0 1 0 0 0 0 0 0 1 0 0l-1 1zm2-1c1 0 0 0 0 0zm-58 0v-1 1zm59 0h1-1zm-66-1h1v1l-1-1zm75 0 1 1-1-1zm-67 0h-1c-1 0 0 0 0 0v-1c0 1 0 0 0 0h1v1-1h-1v-1c1 0 1 0 0 0h-2l-1 1h-1l1-1h-1a64 64 0 0 1-7-2h1l8 1h-1v1h1v-2h2l2 1v1l-1 1v1h1c0-1 0-1 0 0h-1zm0 0h-1 1zm60 0h4v-1a42 42 0 0 1-4 1zm-63 0h-1 2-1zm-6 0-1-1 1 1zm1 0zm6 0c-1-1-1-1 0 0zm63 0zm-65 0h1-1zm2 0 1-1v1h-1zm-8-1c0 1 0 1 0 0zm77 0zm-70 0zm68 0h1-1zm8 0h1-1zm-84 0h-1 1zm7 0zm70 0h1-1zm2 0zm4 0h1-1zm-5 0zm2 0zm2 0c1 0 0 0 0 0zm-84-1c1 1 1 1 0 0zm81 1zm-80-1v1-1zm78 0h1-1zm2 0h2l-1 1-1-1zm3 0h1-1zm1 0zm-86 0v-1 1zm-1-1 1-1h2-3v1zm1 0h1-1zm-2 0v-1 1l1-1c-1 0-1 0 0 0v1h-1zm1-1h1-1zm2 0v-1h-1a71 71 0 0 0 1 1zm97-2v-1 1zm-15-2c0 1 0 1 0 0zm15-1v1-1zm-19 1zm-14 0v-1 1zm21-3h1-1zm1 0zm-38-1v1-1zm28 0c-1 0-1 0 0 0zm1 0h1-1zm-22-1h1-1zm-26 0v-1h1l-1 1zm61 0v-1 1zm-45-2v-1 1zm-18-1c0 1 0 1 0 0zm0 0zm69-1h1-1zm-65-1h1-1zm3 0h1-1zm2-2c1 0 1 0 0 0 0 0 0 1 0 0zm3-3 1-1-1 1-1 1z"/><path style="fill:#c1b676;stroke-width:.168297" d="M72 102h1-1zm0-3h1-1zm-3-1h-1l1 1v-1zm4 0c0 1 0 0 0 0zm-6 0h-1v-1h-6a92 92 0 0 1-32-5l-7-3 1-1v1l3 1c8 5 18 7 33 7a152 152 0 0 0 43-5c5-2 6-2 8-1a34 34 0 0 0 2 0c1 0 0 0 0 0h-7v1l-1-1v1l-1 1v-1h-1c0 1 0 1 0 0h-1v1h-3 1-3v1h-5a152 152 0 0 1-19 4c1 0 1 0 0 0 0-1 0-1 0 0-1 0-1 0 0 0h-2l1-1h-3l-1 1h2c-1 0-1 0 0 0h-1zm3 0h-1 1zm1-1h-1v1l1-1zm31-5zm-4 6zm2-1 1-1-1 1h-1 1zm1-1v-1h1l-1 1zm-56-1h1l-1 1v-1zm-2 0zm-1 0zm5 0c0-1 0-1 0 0zm76 0h1-1zm-82 0h1-1zm53 0 1-1c1 0 1 0 0 0 0 1 0 1 0 0v1h-1zm-51-1h-1s-1 0 0 0h1v1-1zm51 0c0 1 0 1 0 0zm2 0c1 0 1 0 0 0zm-54 0h-1 1l1-1v1h-1zm-1-1v-1h1c1 0 0 0 0 0l-1 1h2-2zm58 0zm-50 0v-1h-1 1v1zm-8 0h1-1zm-5-1h1-1zm-2 0h1-1zm1 0zm1 0v-1 1zm8 0h1-1zm4 0c-1 0-1 0 0 0zm65 0v-1 1zm-76-1c1 0 1 0 0 0v1-1zm75 0c1 0 0 0 0 0s-1 0 0 0h1l-1 1v-1zm1 0h-2v-1h1l1 1zm-80 0h1-1zm2 0zm0 0v-1l1 1h-1zm1-1c0 1 0 1 0 0zm77 0v1-1zm-1 0h-1v-2H73a239 239 0 0 0-34 1v-4h1l5-1h1l2-1h2l2-1h14v1l1-1a138 138 0 0 0 11 1 388 388 0 0 0 35 3h-2 3l-1 1h-2v1l2-1v1h1-3 2l1 1h-1 1l-3-1 1 1h-1 2v1h-2 2-1zm-26-3v-1 1zm8 0-1-1v1h1zm3 0v-1l-1 1h1zm4 0h-1 1zm3 0v-1 1zm-25-1v1-1zm-32 0h-1v1l1-1zm7 0h-1 1zm22 0h-1l1 1v-1zm-26 0c-1 0-1 0 0 0 0 1 0 0 0 0zm18 0s0-1 0 0c-1 0 0 0 0 0zm-3 0v-1l-1 1h1zm-13-2s0-1 0 0c-1 0-1 0 0 0zm4 0-1-1v1h1zm14-1-1 1 1-1zm-7 0-1-1v1h1zm-30 7h1-1zm3 0h1-1zm2-1h-4v-1l1-2h1l3-1-1 4zm-8-1h-2l5-1h1v2l-4-1zm-6 0h1v-1h-1 1v1h-1zm-2 0zm1 0zm91-1h-2 2zm-91-1zm-1 0-1-1h1v1zm91-1h1l-1 1v-1zm-3 0v-3 1h1l2-1h-1l-1 1v2-2l1 1 1-1v1h-1l-1 1h-1zm2 0h2-2c-1 0-1 0 0 0zm-7 0 1-1v1h-1zm1-1c0 1 0 1 0 0zm6 0h2-2zm-10 0c0-1 0 0 0 0s0 1 0 0zm-14 0v-1l1 1h-1zm0 0v-1 1zm10 0v-1h1l-1 1zm-17-1v-1 1zm30 0h1c1 0 1 0 0 0h-1zm2 0c1 0 1 0 0 0zm-1 0h1-1zm-2-1h1-1zm11 0zm-12 0v-1h1l1-1v1h1-1v1-1h-1v1h-1zm2 0 1-1v1h-1zm-40-1v-1h1v1h-1zm1-1v1-1zm15 1-1-1h1v1zm-41-1h1-1zm54 0h1-1zm21 0zm-58 0v-1h1l-1 1zm16-1h1-1zm1 0c-1 0-1 0 0 0zm-40 0v-1 1zm81 0c0-1 0-1 0 0zm-68 0v-1 1zm1-1v1-1zm-11 0 1-1v1h-1zm17 0h1-1zm12-1h1v1l-1-1zm-3 0v-1c0 1 0 1 0 0l1 1h-1zm-18 0v-1s1 0 0 0c0 0 0 1 0 0v1zm0-1zm68 0v-1h1l-1 1zm-46-1h1-1zm0 0zm-2 0h1-1zm-1 0s-1 0 0 0zm1-1zm-5 0c1 0 1 0 0 0 0 0-1 0 0 0zm3 0h1-1zm-8 0zm14-1h1v1l-1-1zm-10 0h1-1zm1 0h1-1zm-2-5h1-1z"/><path style="fill:#548a78;stroke-width:.168297" d="M35 91zm1-1zm-3-1h1v1l-1-1zm1 0zm4-1h1-1zm-12 0h-1 1l4-2a20 20 0 0 1 4-3l6-3a78 78 0 0 1 43 0 181 181 0 0 1 20 5h7c0-1 0-1 0 0v1h-2a104 104 0 0 1-23-2 9243 9243 0 0 1-34-2l-2 1h-4v1h-4l-1 1h-1v1-1l-1-2a50 50 0 0 0 1 2l-3 1-1 1-1-1v-2 3h-2l-2 1h-4zm62-4h1l-1-1v1zm4 0h-1 1zm-55 0zm-3 0zm51-1h-1v1l1-1zm-4 0v-1 1zm-42-1 1-1-1 1zm14-1h-1v1l1-1zm3 0v-1 1zm-13 0v-1l-1 1h1zm17 0-1-1 1 1zm9-1-1 1 1-1zm3 0h-1l1 1v-1zm4 0h-1v1l1-1zm-29 0h-1 1zm17-1h-1v1l1-1zm-14 0h-1 1zm16 0zm-12-1h-1v1l1-1zm3 0zm4 0h-1 1zm-36 9h-1 1c0 1 0 0 0 0zm14 0zm47 0v-1 1zm11 0zm3 0c0-1 0 0 0 0zm-77-1 1 1-1-1zm-1-1c-1 0-1 0 0 0zm83-1h1-1zm-53 0v-1 1c-1 0-1 0 0 0zm53-1s-1 0 0 0zm-19-3c1 1 0 1 0 0zm-43-2v-1 1zm1 0zm9-4zm3 0h1-1zm8 0zm-4 0c1 0 1 0 0 0 0 0-1 0 0 0z"/><path style="fill:#de4c17;stroke-width:.168297" d="m72 102-2-1-3-3v-1h3l-1 1h2c-1 0-1 0 0 0 0-1 0-1 0 0 1 0 1 0 0 0v-1h1v1-1l1 1v3l1 1h-2zm-3-3-1-1h1v1zm-1-1c-1 0-1 0 0 0h-1 1zm1 0h1-1zm27-1-2-3h1v-1h3-1 3v-1h1c0 1 0 1 0 0h1v1l1-1 1-1 1 2-2 1-2 2-3 2-2-1zm-1-2v-1c0 1 0 1 0 0 1 0 1 0 0 0v1zm1-1c1 0 1 0 0 0zm3-1zm-29 4v1-1zm-26-2h-2l-1-1h2v-1h-2 2-2l1-1s1 0 0 0h7l-2 3h-3zm-1-1h-1c-1 0 0 0 0 0h1v1-1zm-1-1h-1 1zm80 1a101 101 0 0 0-11-3h2-1v-1h1-2 2v-1h-2 1l-1-1 3 1h-1 1l-1-1h-2 3-1v-1l-2 1v-1h2l1-1h-3 3-1l-2-1 1-1h1v-1l-1 1-1-1v2s0-1 0 0l-1-1v-1h1l1-1h1a7 7 0 0 0-3 1v-1h-1l1-1c-1 0-1 0 0 0h1v1-1h1-1l1-1a358 358 0 0 1 9-5l1 2c-1 7-1 9 1 16l1 2-2-1zm-8-4h-1 1zm0-3h-2 2zm0-2h-1v1l1-1zm-1 0h1-2 1zm0-1h1a34 34 0 0 1-2 0h1zm0-1h-2 2zm1 0h-1 1zm-1 0h-1 1zm-2-1h-1 1zm1 0v-1l-1 1h1zm-2 0zm-8 10zm-80-4h3-3zm71-1v-1l1 1h-1zm11 0v-1 1zm-25 0v-1 1zm-33 0v-1h1l-1 1zm7-1h1v1l-1-1Zm22 0h1-1zm-25 0c-1 0-1 0 0 0 0 0 0 1 0 0zm18 0c0-1 0 0 0 0 0 1 0 1 0 0zm-41 0v-2l2 1h-1v1h-1zm1-1-1-1v2l1-1zm63-1h1-1zm-50 0h1-1zm14 0v-1 1zm14 0 1-1-1 1zm-21-1 1-1v1h-1zm14 0v-1l1 1h-1zm32 0 1-1v1h-1zm-28 0v-1 1zm35-1a75 75 0 0 0-4-1h1l2-1 3 1v1h-2zm-62 0v-1 1zm36-2v1-1zm8 0v-1 1zm-17-1zm-8-3 1-1v1h-1zm16-1h-2c-1 0-1 0 0 0h-2l-1-1H59l1-2 3-2 1-2h1l9 4c2 1 2 1 2 3h-2zm-3-1zm-1 0h-1 1zm-4-1h-1 1zm1 0h-1 1z"/><path style="fill:#3c5556;stroke-width:.168297" d="m38 90 1-5-1-2 1 4-1 4v-1zm-4-1zm0-1v-4 4c0 1 0 1 0 0zm-10-2-2-1 1-1c11-5 20-8 30-10h14a210 210 0 0 1 31 7l7 2 2-1h2l1 2-3 1h-1v-1h-1v1l-5-1a36 36 0 0 1-5-1v-1l-1 1c1 0 0 0 0 0a150 150 0 0 0-14-4h-2a89 89 0 0 0-38 1 23 23 0 0 0-6 3l-4 3-3 2h-1zm4 0v-2h-1v2h1zm-1-1v-1l1 1-1 1v-1zm0 0v-1 1zm75-1zm-3 0-1-1v1h1zm-12-4h-1l1 1v-1zm-4 0v-1 1zm-42-1-1-1v1h1zm3-1v-1l-1 1h1zm29-1c1 0 0 0 0 0v1-1zm-3 0-1-1v1h1zm-19-1v1-1zm8-1h-1l1 1v-1zm27 12v-1 1zm10 0 1-1v1h-1zm4 0s0-1 0 0c1 0 1 0 0 0zm-36-1 1-1v1h-1zm-27-2zm15 0c-1 0 0 0 0 0zm-18 0zm11 0v-1h1l-1 1zm39 0v-1h1l-1 1zm-7-1v-1l1 1h-1zm-25-2h1-1zm4 0v-1 1zm-14 0 1-1v1h-1zm17 0 1-1v1h-1zm9 0 1-1-1 1zm-19-2h1-1zm8-1z"/><text xml:space="preserve" style="font-style:normal;font-variant:normal;font-weight:400;font-stretch:normal;font-size:8.07776px;line-height:1.25;font-family:'Noto Color Emoji';-inkscape-font-specification:'Noto Color Emoji, Normal';font-variant-ligatures:normal;font-variant-caps:normal;font-variant-numeric:normal;font-variant-east-asian:normal;fill:#000;fill-opacity:1;stroke:none;stroke-width:.201944" x="23.9" y="12.2"><tspan x="23.9" y="12.2" style="font-style:normal;font-variant:normal;font-weight:400;font-stretch:normal;font-size:8.07776px;font-family:'Noto Color Emoji';-inkscape-font-specification:'Noto Color Emoji, Normal';font-variant-ligatures:normal;font-variant-caps:normal;font-variant-numeric:normal;font-variant-east-asian:normal;stroke-width:.201944">McFarland Springs Trout</tspan></text><text xml:space="preserve" style="font-style:normal;font-weight:400;font-size:3.76106px;line-height:1.25;font-family:sans-serif;fill:#000;fill-opacity:1;stroke:none;stroke-width:.0940265" x="5.9" y="27.6"><tspan x="5.9" y="27.6" style="stroke-width:.0940265">Lot Number: #LOT#</tspan></text><text xml:space="preserve" style="font-style:normal;font-weight:400;font-size:3.76106px;line-height:1.25;font-family:sans-serif;fill:#000;fill-opacity:1;stroke:none;stroke-width:.0940265" x="5.9" y="36.2"><tspan x="5.9" y="36.2" style="stroke-width:.0940265">Harvest Date: #HARVEST DATE#</tspan></text><text xml:space="preserve" style="font-style:normal;font-weight:400;font-size:3.76106px;line-height:1.25;font-family:sans-serif;fill:#000;fill-opacity:1;stroke:none;stroke-width:.0940265" x="5.9" y="45.9"><tspan x="5.9" y="45.9" style="stroke-width:.0940265">Harvest Time: #HARVEST TIME#</tspan></text><text xml:space="preserve" style="font-style:normal;font-weight:400;font-size:3.76106px;line-height:1.25;font-family:sans-serif;fill:#000;fill-opacity:1;stroke:none;stroke-width:.0940265" x="75.1" y="36.2"><tspan x="75.1" y="36.2" style="stroke-width:.0940265">Weather at Harvest: #WEATHER#</tspan></text><text xml:space="preserve" style="font-style:normal;font-weight:400;font-size:3.76106px;line-height:1.25;font-family:sans-serif;fill:#000;fill-opacity:1;stroke:none;stroke-width:.0940265" x="75.2" y="26.8"><tspan x="75.2" y="26.8" style="stroke-width:.0940265">Total Harvest Weight: #WEIGHT#</tspan></text><text xml:space="preserve" style="font-style:normal;font-weight:400;font-size:3.76106px;line-height:1.25;font-family:sans-serif;fill:#000;fill-opacity:1;stroke:none;stroke-width:.0940265" x="74.9" y="45.9"><tspan x="74.9" y="45.9" style="stroke-width:.0940265">Feed Used: #FEED#</tspan></text><text xml:space="preserve" style="font-style:normal;font-weight:400;font-size:3.76106px;line-height:1.25;font-family:sans-serif;fill:#000;fill-opacity:1;stroke:none;stroke-width:.0940265" x="41.1" y="58.5"><tspan x="41.1" y="58.5" style="stroke-width:.0940265">Sold to: TwoBySea, San Francisco</tspan></text></svg>