<?xml version="1.0" encoding="UTF-8" standalone="no"?>
<!-- Created with Inkscape (http://www.inkscape.org/) -->

<svg
   version="1.1"
   id="svg1645"
   width="147.2"
   height="120"
   viewBox="0 0 147.2 120"
   sodipodi:docname="trout_cartoon2.svg"
   inkscape:version="1.1.2 (0a00cf5339, 2022-02-04)"
   xmlns:inkscape="http://www.inkscape.org/namespaces/inkscape"
   xmlns:sodipodi="http://sodipodi.sourceforge.net/DTD/sodipodi-0.dtd"
   xmlns="http://www.w3.org/2000/svg"
   xmlns:svg="http://www.w3.org/2000/svg">
  <defs
     id="defs1649" />
  <sodipodi:namedview
     id="namedview1647"
     pagecolor="#ffffff"
     bordercolor="#666666"
     borderopacity="1.0"
     inkscape:pageshadow="2"
     inkscape:pageopacity="0.0"
     inkscape:pagecheckerboard="0"
     showgrid="false"
     inkscape:zoom="6.3833333"
     inkscape:cx="73.629243"
     inkscape:cy="60.078329"
     inkscape:window-width="1920"
     inkscape:window-height="938"
     inkscape:window-x="1536"
     inkscape:window-y="27"
     inkscape:window-maximized="1"
     inkscape:current-layer="g1651" />
  <g
     inkscape:groupmode="layer"
     inkscape:label="Image"
     id="g1651">
    <g
       id="g1691"
       transform="translate(0.38385434,9.5054326)">
      <path
         style="fill:#f7c86e;stroke-width:0.16"
         d="m 71.538388,71.593774 c -0.819316,-0.819316 -0.851144,-1.899147 -0.101347,-3.438492 l 0.391968,-0.804717 1.245495,0.113333 c 0.685022,0.06233 1.857494,0.119249 2.605494,0.12648 0.748,0.0072 1.627691,0.0574 1.95487,0.111486 0.531303,0.08783 0.576911,0.131901 0.426795,0.412394 -0.245758,0.459204 -1.264623,1.556067 -1.624142,1.748475 -0.24959,0.133576 -0.393843,0.08569 -0.739494,-0.245459 l -0.429418,-0.411408 -0.714305,1.075876 C 73.803806,71.412131 72.999484,72.08 72.388644,72.08 c -0.200217,0 -0.582832,-0.218802 -0.850256,-0.486226 z m 2.389383,-2.376606 c 0.174272,-0.564229 0.284549,-1.058179 0.245059,-1.09767 -0.03949,-0.03949 -0.15583,0.240262 -0.258533,0.621672 -0.102702,0.381409 -0.377022,1.054676 -0.609598,1.49615 -0.586067,1.112462 -0.605968,1.208018 -0.117506,0.564198 0.233045,-0.307163 0.566304,-1.020121 0.740578,-1.58435 z m 0.222173,1.122672 c 0.211124,-0.416632 0.42767,-1.041536 0.481212,-1.388677 0.08057,-0.522352 0.04472,-0.473485 -0.207923,0.283455 -0.167901,0.503038 -0.457941,1.173364 -0.644531,1.489612 -0.18659,0.316248 -0.265763,0.529575 -0.175938,0.47406 0.08983,-0.05552 0.336056,-0.441818 0.54718,-0.85845 z m -1.436516,-1.120181 c 0.142573,-0.561185 0.224637,-1.054925 0.182365,-1.097197 -0.106233,-0.106233 -0.530246,1.48156 -0.629569,2.357538 -0.08991,0.792922 -0.03544,0.639408 0.447204,-1.260341 z m -0.729246,-0.870075 c 0.25387,-0.650378 0.204688,-0.74655 -0.09695,-0.189584 -0.157579,0.290962 -0.277164,0.952598 -0.303648,1.68 l -0.04369,1.2 0.134237,-1.12 c 0.07383,-0.616 0.213355,-1.322686 0.310054,-1.570416 z m 5.455816,-0.08587 c 0,-0.125605 -0.165107,0.01568 -0.366904,0.313955 -0.601147,0.888566 -0.645766,1.057029 -0.124054,0.468371 0.270027,-0.304675 0.490958,-0.656723 0.490958,-0.782326 z m -0.960986,-0.0014 c -9.6e-4,-0.237024 -0.0954,-0.09947 -0.561476,0.817264 -0.05606,0.110253 0.04757,0.03048 0.230272,-0.177264 0.182705,-0.207751 0.331747,-0.495751 0.331204,-0.64 z m 12.827197,1.814707 c -0.369746,-0.470056 -0.622599,-1.944595 -0.375783,-2.191411 0.09051,-0.09051 0.127039,-0.262357 0.08117,-0.381879 -0.143622,-0.374278 0.446656,-1.958852 0.821099,-2.204196 0.95644,-0.626685 3.228842,-0.955511 3.590631,-0.51958 0.512382,0.61738 -2.667159,5.700082 -3.565751,5.700082 -0.128894,0 -0.377011,-0.181358 -0.551369,-0.403018 z m 1.944305,-1.722307 C 91.924106,67.558496 92.874023,66.16 92.741228,66.16 c -0.03453,0 -0.373619,0.414 -0.753528,0.92 -0.37991,0.506 -1.090562,1.347398 -1.579224,1.869776 -0.646363,0.690957 -0.748907,0.85301 -0.376301,0.594675 0.281698,-0.195305 0.829951,-0.730705 1.218339,-1.189776 z m -1.366769,-0.08266 c 0.478925,-0.739107 1.76279,-2.04497 2.596252,-2.640735 0.234552,-0.167659 0.114628,-0.13604 -0.289937,0.07645 -0.840747,0.44158 -2.113354,1.75785 -2.575645,2.664015 -0.452029,0.886049 -0.343358,0.845809 0.26933,-0.09973 z m -0.281631,-1.395437 c 0.459199,-0.742997 1.26309,-1.340098 2.285986,-1.697942 0.789693,-0.276263 0.799429,-0.286255 0.191897,-0.196949 -0.931305,0.136899 -1.920086,0.76451 -2.474895,1.570897 -0.266807,0.387792 -0.485104,0.746103 -0.485104,0.796248 0,0.20934 0.154251,0.05824 0.482116,-0.472254 z M 55.45596,69.8 c -0.34999,-0.544459 -0.575961,-2.071997 -0.575961,-3.893427 v -1.634656 l 0.784915,-0.188298 c 0.739561,-0.177419 0.872444,-0.155515 2.299796,0.379091 0.833186,0.312064 2.585975,0.8284 3.895085,1.147412 1.309112,0.319012 2.513952,0.629948 2.677421,0.690971 0.599429,0.22376 -7.49919,3.858907 -8.59713,3.858907 -0.13899,0 -0.356848,-0.162 -0.484126,-0.36 z m 3.697346,-1.156402 c 1.272008,-0.40344 2.835092,-1.238035 3.664492,-1.956622 l 0.4622,-0.400446 -0.459317,0.27308 c -1.77782,1.05698 -2.398606,1.37164 -3.448139,1.747764 -0.6531,0.234055 -1.7691,0.529336 -2.48,0.656183 l -1.292544,0.230627 1.153308,-0.07759 c 0.63432,-0.04267 1.71432,-0.255522 2.4,-0.472999 z m -1.535839,-0.406912 c 1.159975,-0.219984 2.642893,-0.944841 3.422531,-1.67295 0.629666,-0.588048 0.555701,-0.554446 -0.88,0.399773 -0.752155,0.499912 -2.183569,0.983056 -3.68,1.24211 -0.754798,0.130667 -0.797742,0.155331 -0.301838,0.173362 0.317989,0.01155 0.965677,-0.05247 1.439307,-0.142295 z m 0.714504,-0.974907 c 0.834671,-0.312291 2.148027,-1.306243 2.148027,-1.625633 0,-0.0984 -0.234,0.04731 -0.52,0.323804 -0.714156,0.690431 -2.07718,1.2813 -3.381972,1.46608 -0.600624,0.08506 -1.138391,0.203866 -1.195036,0.264013 -0.200276,0.212663 2.147071,-0.12823 2.948981,-0.428264 z M 57.640109,66.76908 c 0.35048,-0.105006 0.970833,-0.506555 1.378563,-0.892331 0.707112,-0.669037 0.711787,-0.679021 0.101326,-0.216303 -0.899884,0.682095 -1.754801,1.011909 -2.96,1.141927 l -1.039999,0.112195 0.941436,0.02272 c 0.517791,0.0125 1.228194,-0.0632 1.578674,-0.168205 z m -0.280111,-0.751486 c 0.352,-0.16246 0.82,-0.497335 1.04,-0.74417 l 0.4,-0.448789 -0.560708,0.416704 c -0.704293,0.523411 -1.30245,0.75961 -2.319292,0.915831 l -0.799999,0.122908 0.799999,0.01645 c 0.472402,0.0097 1.062079,-0.104511 1.44,-0.278931 z M 57.099597,65.45055 c 0.24404,-0.126198 0.54231,-0.348259 0.662825,-0.49347 0.166645,-0.200795 0.05769,-0.179882 -0.454961,0.08733 -0.370744,0.193243 -1.050591,0.406323 -1.510771,0.47351 l -0.836691,0.12216 0.847945,0.01996 c 0.46637,0.01098 1.047614,-0.08329 1.291653,-0.209488 z m -0.303096,-0.765497 c 0.501734,-0.313338 0.381166,-0.483093 -0.148557,-0.209162 -0.25963,0.134259 -0.72763,0.244109 -1.04,0.244109 -0.31727,0 -0.567945,0.08022 -0.567945,0.181747 0,0.230647 1.296263,0.07073 1.756502,-0.216694 z m 22.043497,2.968982 c 0.11,-0.04438 0.29,-0.04438 0.4,0 0.11,0.04439 0.02,0.0807 -0.2,0.0807 -0.22,0 -0.31,-0.03632 -0.2,-0.0807 z M 40.500495,65.380496 c -0.584226,-0.584226 -0.367586,-1.98941 0.630724,-4.091037 l 0.527526,-1.110542 -0.364577,-0.969458 c -0.698291,-1.856848 -0.825565,-3.114517 -0.478809,-4.731384 0.14103,-0.657601 0.25849,-0.849569 0.6,-0.980593 0.934933,-0.3587 3.527634,0.55635 5.902217,2.083088 l 1.317577,0.847134 -0.391207,0.512899 c -0.693001,0.908571 -1.248295,2.323943 -1.256578,3.202853 -0.01117,1.185437 0.316615,1.97647 1.21078,2.921918 l 0.79032,0.835648 -0.934234,0.471122 c -1.708559,0.861605 -2.999602,1.176346 -5.193739,1.266171 -1.904845,0.07798 -2.038835,0.06335 -2.36,-0.257819 z m 4.846508,-0.831661 c 0.447148,-0.168557 1.028996,-0.485885 1.292996,-0.705174 0.464157,-0.385547 0.448314,-0.383338 -0.48,0.06694 -1.102602,0.534813 -2.372233,0.799632 -3.989386,0.832109 -1.007445,0.02023 -1.060893,0.03609 -0.490614,0.145558 0.934264,0.179339 2.73233,0.01291 3.667004,-0.339429 z m 0.286936,-1.159291 c 0.481403,-0.23553 1.0043,-0.570802 1.161992,-0.74505 0.223882,-0.247385 0.09796,-0.214908 -0.57461,0.148202 -1.019141,0.550218 -1.82328,0.761038 -3.661322,0.959885 l -1.36,0.147131 1.77933,-0.04097 c 1.555922,-0.03582 1.889228,-0.09473 2.65461,-0.4692 z m 0.168094,-1.036266 c 0.942429,-0.416881 0.995198,-0.586016 0.07797,-0.249899 -0.393895,0.144341 -1.487828,0.287807 -2.6,0.340981 -1.283192,0.06135 -1.787332,0.133606 -1.52,0.217854 0.761851,0.240096 3.226753,0.0517 4.042034,-0.308936 z m 0.04499,-1.169649 c 1.088643,-0.407314 1.079209,-0.543888 -0.01449,-0.209808 -0.435894,0.133147 -1.548534,0.289977 -2.472534,0.34851 -1.28426,0.08136 -1.548087,0.133314 -1.12,0.220567 0.884201,0.18022 2.629817,0.0064 3.607027,-0.359269 z M 46.134717,60.28 c 0.04048,-0.066 -0.693269,-0.142234 -1.630558,-0.169408 -0.937288,-0.02717 -1.84816,-0.08927 -2.02416,-0.137982 -0.217271,-0.06014 -0.268636,-0.03579 -0.16,0.07586 0.088,0.09044 0.34,0.196726 0.56,0.236193 0.693114,0.124344 3.177774,0.120784 3.254718,-0.0047 z m 0.192843,-0.667766 c -0.198645,-0.321413 -1.803217,-0.714719 -2.895154,-0.709645 -1.811501,0.0084 -1.900563,0.29383 -0.09962,0.319246 0.929766,0.01312 1.802615,0.117418 2.187211,0.261349 0.790308,0.295768 0.92378,0.317096 0.807561,0.12905 z m 0,-0.96 c -0.187744,-0.303775 -1.785256,-0.699085 -2.799688,-0.692794 -1.727809,0.01072 -1.973464,0.277317 -0.278019,0.301723 0.834935,0.01202 1.781238,0.126165 2.190146,0.264181 0.882722,0.297941 1.003991,0.315278 0.887561,0.12689 z m 0.464439,-0.48086 c -0.685358,-0.67014 -3.187745,-1.460099 -4.545616,-1.434971 l -0.886384,0.0164 1.227508,0.206589 c 1.291656,0.217386 2.505007,0.578432 3.572492,1.063037 0.729859,0.331333 0.846691,0.358867 0.632,0.148942 z m 0.248,-0.88907 c 0,-0.147269 -1.841916,-1.006893 -2.70904,-1.264314 -0.477973,-0.141894 -1.341972,-0.24886 -1.92,-0.237702 l -1.05096,0.02029 1.030308,0.133332 c 1.153971,0.149336 2.809279,0.620328 3.867345,1.100394 0.786418,0.356813 0.782347,0.355522 0.782347,0.248 z m 0.0096,-0.952107 c -0.877102,-0.933632 -3.669752,-2.034706 -5.043195,-1.988408 -0.418637,0.01411 -0.505448,0.04548 -0.246384,0.08903 1.685536,0.283339 4.224412,1.274972 5.2,2.031017 0.469928,0.364176 0.505821,0.311431 0.08958,-0.131638 z m 35.27042,7.305533 c -0.352,-0.02435 -1.72,-0.202772 -3.04,-0.396495 C 77.393959,62.96244 76.13804,62.886259 73.415348,62.883506 71.509792,62.881586 69.984041,62.826 70.024792,62.76 c 0.04075,-0.066 -0.07841,-0.12 -0.264794,-0.12 -0.186387,0 -0.296635,0.06836 -0.244997,0.151915 0.05164,0.08355 -0.178112,0.195703 -0.510556,0.249219 -0.332445,0.05352 -0.766447,0.130527 -0.964447,0.171133 -0.198,0.04061 -0.36,4.8e-4 -0.36,-0.08922 0,-0.231365 -0.303953,-0.201952 -0.560104,0.0542 -0.256843,0.256842 -2.892782,0.485264 -4.129269,0.35783 -3.653007,-0.376486 -4.117449,-0.454068 -3.947081,-0.65935 0.11941,-0.14388 0.120701,-0.238939 0.0042,-0.310926 -0.229736,-0.141984 -0.517581,0.05752 -0.38725,0.2684 0.109767,0.177608 -0.97464,0.04081 -1.2993,-0.163911 -0.08867,-0.05591 -0.37722,-0.116616 -0.64122,-0.134899 -0.55491,-0.03843 -5.585347,-1.642378 -5.48033,-1.747395 0.03855,-0.03855 0.777198,0.07541 1.641444,0.253232 5.538123,1.139513 11.503725,1.557289 15.198886,1.06439 3.624363,-0.483454 6.729197,-0.646078 12.48,-0.653675 5.208878,-0.0069 5.974324,0.02659 8,0.349858 1.232,0.196604 2.528,0.366206 2.88,0.376891 0.352,0.01069 0.514,0.05235 0.36,0.0926 -0.383304,0.100168 -0.354143,0.369707 0.04,0.369707 0.175999,0 0.319999,-0.08125 0.319999,-0.180558 0,-0.125335 0.39488,-0.157698 1.291106,-0.105816 1.176398,0.0681 1.334226,0.117859 1.776435,0.560068 l 0.485328,0.485328 -0.936435,0.128948 c -0.868283,0.119563 -11.01662,0.207355 -12.456433,0.10776 z m 2,-0.67573 c 0,-0.088 -0.103751,-0.16 -0.230557,-0.16 -0.126806,0 -0.275056,0.072 -0.329443,0.16 -0.05439,0.088 0.04936,0.16 0.230557,0.16 0.181193,0 0.329443,-0.072 0.329443,-0.16 z m -20.11157,-0.237808 c 0.01735,-0.0868 -0.09445,-0.182075 -0.248451,-0.211733 -0.175136,-0.03373 -0.28,0.04475 -0.28,0.209541 0,0.278366 0.472848,0.280326 0.528451,0.0022 z M 61.439998,62.64 c 0,-0.088 -0.108,-0.16 -0.24,-0.16 -0.132,0 -0.24,0.072 -0.24,0.16 0,0.088 0.108,0.16 0.24,0.16 0.132,0 0.24,-0.072 0.24,-0.16 z m 24.96,0 c 0,-0.088 -0.06775,-0.16 -0.150557,-0.16 -0.08281,0 -0.195056,0.072 -0.249443,0.16 -0.05439,0.088 0.01336,0.16 0.150556,0.16 0.137194,0 0.249444,-0.072 0.249444,-0.16 z m 3.04,0 c 0,-0.088 -0.06775,-0.16 -0.150557,-0.16 -0.08281,0 -0.195056,0.072 -0.249443,0.16 -0.05439,0.088 0.01336,0.16 0.150556,0.16 0.137194,0 0.249444,-0.072 0.249444,-0.16 z m -7.04,-0.230557 c 0,-0.03881 -0.072,-0.115056 -0.16,-0.169443 -0.088,-0.05439 -0.16,-0.02264 -0.16,0.07056 0,0.09319 0.072,0.169443 0.16,0.169443 0.088,0 0.16,-0.03175 0.16,-0.07056 z M 79.199998,62 c 0,-0.088 -0.108,-0.16 -0.24,-0.16 -0.132,0 -0.24,0.072 -0.24,0.16 0,0.088 0.108,0.16 0.24,0.16 0.132,0 0.24,-0.072 0.24,-0.16 z m -25.639999,1.334035 c 0.11,-0.04438 0.29,-0.04438 0.4,0 0.11,0.04439 0.02,0.0807 -0.2,0.0807 -0.22,0 -0.31,-0.03632 -0.2,-0.0807 z m 46.992731,-3.166763 c -0.625085,-0.625078 -0.45875,-1.328557 0.39805,-1.683453 0.89358,-0.370136 1.92922,0.153122 1.92922,0.974746 0,1.041677 -1.52876,1.507219 -2.32727,0.708707 z M 102.14284,59.72 c 0.27454,-0.437962 -0.0701,-0.84 -0.72014,-0.84 -0.48705,0 -0.537,0.04102 -0.48709,0.4 0.0306,0.22 0.13228,0.493475 0.226,0.607722 0.22528,0.274641 0.76137,0.183008 0.98123,-0.167722 z m -50.062841,0.56993 c -1.316438,-0.06797 -3.622333,-0.366632 -3.862102,-0.500228 -0.108286,-0.06034 0.605275,-0.08494 1.585692,-0.05467 2.103854,0.06495 4.881216,-0.158512 8.801893,-0.708199 1.565016,-0.219419 2.921881,-0.351726 3.015256,-0.294017 0.09338,0.05771 0.324908,0.02981 0.514516,-0.062 0.408794,-0.197936 6.135162,-0.71416 7.259863,-0.654465 0.430009,0.02282 0.854556,-0.0035 0.943439,-0.05838 0.823485,-0.508943 23.097792,-0.505623 23.606933,0.0035 0.07029,0.07029 0.08288,0.507142 0.02797,0.970777 -0.09525,0.804218 -0.118999,0.839232 -0.516648,0.761653 -0.609965,-0.119 -4.165483,-0.395585 -7.376811,-0.573848 -3.206861,-0.178013 -9.819984,-0.186686 -12.88,-0.01689 -1.144,0.06348 -2.104,0.05723 -2.133333,-0.01389 -0.02933,-0.07111 -0.159582,-0.129296 -0.289443,-0.129296 -0.129861,0 -0.198291,0.06119 -0.15207,0.135979 0.102284,0.165499 -6.016266,0.747717 -6.382179,0.607302 -0.142778,-0.05479 -0.22188,-0.03859 -0.175786,0.03599 0.08985,0.145387 -1.325083,0.263685 -5.999571,0.5016 -2.849371,0.145023 -3.953648,0.154071 -5.987617,0.04906 z m 7.876667,-0.786597 c -0.05317,-0.05317 -0.191168,-0.05885 -0.306668,-0.01262 -0.127636,0.05107 -0.08972,0.08899 0.09667,0.09666 0.168665,0.0069 0.263166,-0.03087 0.21,-0.08404 z M 65.919998,58.48 c 0,-0.088 -0.072,-0.16 -0.16,-0.16 -0.088,0 -0.16,0.072 -0.16,0.16 0,0.088 0.072,0.16 0.16,0.16 0.088,0 0.16,-0.072 0.16,-0.16 z m 12.96,-0.48 c 0,-0.088 -0.108,-0.16 -0.24,-0.16 -0.132,0 -0.24,0.072 -0.24,0.16 0,0.088 0.108,0.16 0.24,0.16 0.132,0 0.24,-0.072 0.24,-0.16 z m 4,0 c 0,-0.088 -0.108,-0.16 -0.24,-0.16 -0.132,0 -0.24,0.072 -0.24,0.16 0,0.088 0.108,0.16 0.24,0.16 0.132,0 0.24,-0.072 0.24,-0.16 z m -29.08922,-0.914126 c -0.482013,-0.0921 -0.375699,-0.366661 0.293249,-0.757349 0.778488,-0.454661 2.366837,-0.421768 3.496925,0.07242 0.799381,0.349568 0.833872,0.386512 0.482282,0.516574 -0.208271,0.07704 -0.505799,0.106835 -0.661175,0.0662 -0.155376,-0.04063 -0.242153,-0.0086 -0.192838,0.0712 0.08919,0.144318 -2.69327,0.169512 -3.418443,0.03095 z m 2.583,-0.421263 c -0.396175,-0.08579 -0.979864,-0.08563 -1.44,3.2e-4 -0.710091,0.132743 -0.655258,0.144618 0.66622,0.144263 1.241764,-3.2e-4 1.348285,-0.02024 0.77378,-0.144648 z m 0.66622,-0.190389 c -0.267342,-0.122414 -0.940756,-0.212288 -1.52,-0.202859 l -1.039999,0.01693 1.234257,0.103445 c 0.67884,0.05689 1.28484,0.154027 1.346666,0.215852 0.06182,0.06183 0.190409,0.106562 0.285744,0.09942 0.09533,-0.0072 -0.04267,-0.111899 -0.306668,-0.232783 z m 11.96,-2.312468 c -0.286,-0.174378 -0.52,-0.347351 -0.52,-0.384383 0,-0.03703 0.507984,-0.55775 1.128853,-1.157149 0.620869,-0.599398 1.718869,-1.84068 2.44,-2.758403 0.721131,-0.917725 1.460747,-1.848897 1.643592,-2.069273 l 0.332443,-0.400685 1.027557,0.541161 c 0.727504,0.383141 1.565729,1.079301 2.870588,2.384071 1.013669,1.013598 2.071336,2.135797 2.350372,2.493774 l 0.507337,0.650867 -2.910371,0.195044 c -1.600704,0.107275 -3.990371,0.33503 -5.310371,0.506126 -2.968224,0.384733 -2.927083,0.384747 -3.56,-0.0011 z m 2.425304,-0.64756 c -0.327218,-0.327218 -1.345304,-0.701946 -1.345304,-0.495167 0,0.06418 0.24493,0.205256 0.54429,0.313506 0.299358,0.108249 0.633619,0.304454 0.7428,0.436009 0.10918,0.131556 0.238251,0.199452 0.286822,0.15088 0.04857,-0.04857 -0.0543,-0.230924 -0.228608,-0.405228 z m 1.603032,-0.495568 c -0.539973,-0.574218 -1.30337,-0.940911 -1.943197,-0.933402 -0.344669,0.004 -0.251337,0.07215 0.413511,0.301726 0.472257,0.163077 1.080566,0.51842 1.351795,0.789648 0.636785,0.636788 0.793982,0.497191 0.177891,-0.157972 z M 74.979308,53.08 c -0.491171,-0.944122 -1.917697,-1.799256 -2.97931,-1.785957 -0.503379,0.0063 -0.471024,0.03085 0.32,0.242699 1.035325,0.277284 1.927466,0.829903 2.423997,1.501496 0.443737,0.600188 0.534181,0.616239 0.235313,0.04176 z m 1.191727,-0.583958 c -0.79772,-1.159447 -1.997791,-1.937399 -3.234242,-2.096615 -0.69352,-0.0893 -0.69259,-0.08832 0.197775,0.210242 1.159526,0.388809 2.257096,1.152054 2.906934,2.021462 0.676509,0.905095 0.774725,0.802664 0.129533,-0.135089 z m 1.562603,0.217116 c -0.22717,-0.65166 -1.616158,-2.15082 -2.440181,-2.633729 -0.621617,-0.364293 -2.013459,-0.927189 -2.013459,-0.814296 0,0.02802 0.46188,0.278321 1.0264,0.556233 1.235346,0.608159 2.512437,1.720775 3.072913,2.677157 0.482768,0.823781 0.589138,0.888215 0.354327,0.214635 z m 0.796597,-0.667368 c -0.776442,-1.413916 -3.577373,-3.806472 -4.450237,-3.80139 -0.132,8e-4 0.139426,0.210581 0.603166,0.466251 1.223962,0.674792 2.294864,1.624608 3.262933,2.893987 0.467835,0.613448 0.873957,1.115362 0.902493,1.115362 0.02854,0 -0.114723,-0.303395 -0.318355,-0.67421 z"
         id="path1699" />
      <path
         style="fill:#f14e4f;stroke-width:0.16"
         d="m 72.822654,71.2 c 0.03255,-0.088 0.249467,-0.521206 0.482045,-0.96268 0.232576,-0.441474 0.506896,-1.114741 0.609598,-1.49615 0.102703,-0.38141 0.219043,-0.661162 0.258533,-0.621672 0.151965,0.151966 -0.582603,2.150803 -0.985637,2.68202 C 72.95415,71.108683 72.790107,71.288 72.822654,71.2 Z m 0.956048,-0.47577 c 0.18659,-0.316248 0.47663,-0.986574 0.644531,-1.489612 0.252645,-0.75694 0.288491,-0.805807 0.207923,-0.283455 -0.102054,0.661655 -0.748467,2.074123 -1.028392,2.247127 -0.08982,0.05551 -0.01066,-0.157812 0.175938,-0.47406 z M 72.266224,70.48 c 0.09932,-0.875978 0.523336,-2.463771 0.629569,-2.357538 0.068,0.068 -0.180536,1.188055 -0.576397,2.597538 -0.106908,0.380651 -0.117913,0.330978 -0.05317,-0.24 z M 71.58358,69.84 c 0.02648,-0.727402 0.146069,-1.389038 0.303648,-1.68 0.301642,-0.556966 0.350824,-0.460794 0.09695,0.189584 -0.0967,0.24773 -0.236224,0.954416 -0.310054,1.570416 l -0.134237,1.12 z M 90.408476,68.949776 C 90.897138,68.427398 91.60779,67.586 91.9877,67.08 c 0.816241,-1.087149 0.984549,-1.190026 0.392643,-0.24 -0.605022,0.97108 -1.749888,2.289653 -2.348168,2.704451 -0.372606,0.258335 -0.270062,0.09628 0.376301,-0.594675 z M 76.799998,69.61959 c 0,-0.03322 0.126,-0.159224 0.28,-0.28 0.253769,-0.199019 0.259429,-0.19336 0.06041,0.06041 -0.20902,0.26652 -0.34041,0.351277 -0.34041,0.21959 z M 76.582136,69.36 c 0.313225,-0.605979 0.857862,-1.301984 0.857862,-1.096283 0,0.125603 -0.220931,0.477651 -0.490958,0.782326 C 76.679012,69.35072 76.513905,69.492 76.582136,69.36 Z M 56.892542,68.963557 c 0.7109,-0.126847 1.8269,-0.422128 2.48,-0.656183 1.049533,-0.376124 1.670319,-0.690784 3.448139,-1.747764 l 0.459317,-0.27308 -0.4622,0.400446 c -1.448027,1.254563 -4.041318,2.293515 -6.064492,2.429621 l -1.153308,0.07759 z m 19.024994,0.115982 c 0.46608,-0.916729 0.560585,-1.054288 0.561476,-0.817264 4.8e-4,0.14425 -0.148499,0.43225 -0.331204,0.64 -0.182704,0.207749 -0.286327,0.287517 -0.230272,0.177264 z m 13.696879,-0.7078 c 0.462291,-0.906165 1.734898,-2.222435 2.575645,-2.664014 0.404565,-0.212488 0.524489,-0.244107 0.289937,-0.07645 -0.833462,0.595765 -2.117327,1.901627 -2.596252,2.640734 -0.612688,0.945538 -0.721359,0.985778 -0.26933,0.09973 z m -33.134417,-0.16612 c 1.496431,-0.259054 2.927845,-0.742198 3.68,-1.24211 1.435701,-0.954219 1.509666,-0.987821 0.88,-0.399773 -1.138992,1.06371 -3.303588,1.871896 -4.861838,1.815245 -0.495904,-0.01803 -0.45296,-0.04269 0.301838,-0.173362 z m 32.32,-0.535062 c 0,-0.137194 0.07317,-0.204218 0.162609,-0.148944 0.08943,0.05527 0.121187,0.167523 0.07056,0.249443 -0.137157,0.221926 -0.233166,0.180546 -0.233166,-0.100499 z m -33.417008,0.01949 c 0.05665,-0.06015 0.594412,-0.178953 1.195036,-0.264013 1.304792,-0.18478 2.667816,-0.775649 3.381972,-1.46608 0.286,-0.276497 0.52,-0.422209 0.52,-0.323804 0,0.31939 -1.313356,1.313342 -2.148027,1.625633 -0.80191,0.300034 -3.149257,0.640927 -2.948981,0.428264 z m 22.260053,-0.04092 c 0.155675,-0.04057 0.371675,-0.0379 0.48,0.0059 0.108324,0.04383 -0.01904,0.07702 -0.283045,0.07376 -0.264,-0.0033 -0.352631,-0.03912 -0.196955,-0.07969 z m -3.52,-0.16 c 0.155675,-0.04057 0.371675,-0.0379 0.48,0.0059 0.108325,0.04383 -0.01905,0.07702 -0.283045,0.07376 -0.264,-0.0033 -0.35263,-0.03912 -0.196955,-0.07969 z m -1.993045,-0.15842 c 0.115499,-0.04622 0.253499,-0.04054 0.306667,0.01262 0.05317,0.05317 -0.04133,0.09098 -0.21,0.08404 -0.186392,-0.0077 -0.224304,-0.04559 -0.09667,-0.09667 z m 16.99,0.01813 c 0,-0.05015 0.218297,-0.408456 0.485104,-0.796248 0.554809,-0.806387 1.54359,-1.433999 2.474895,-1.570898 0.607532,-0.08931 0.597796,-0.07931 -0.191897,0.196949 -1.022896,0.357845 -1.826787,0.954946 -2.285986,1.697942 -0.327865,0.530498 -0.482116,0.681594 -0.482116,0.472255 z m -32.96,-0.546456 c 1.205199,-0.130018 2.060116,-0.459832 2.96,-1.141927 0.610461,-0.462718 0.605786,-0.452734 -0.101326,0.216303 -0.858968,0.812717 -1.638709,1.09235 -2.957237,1.060536 l -0.941436,-0.02272 z M 54.772501,65.28 c 6.4e-4,-0.616 0.02963,-0.848394 0.06427,-0.516432 0.03464,0.331963 0.03405,0.835963 -0.0013,1.12 -0.03535,0.284038 -0.06368,0.01243 -0.06298,-0.603568 z m 1.147497,0.87717 c 1.016842,-0.156221 1.614999,-0.39242 2.319292,-0.915831 l 0.560708,-0.416704 -0.4,0.448789 c -0.573969,0.643981 -1.539814,1.04243 -2.48,1.023101 l -0.799999,-0.01645 z M 55.79669,65.517918 c 0.46018,-0.06719 1.140027,-0.280267 1.510771,-0.47351 0.512653,-0.26721 0.621606,-0.288123 0.454961,-0.08733 -0.392144,0.472504 -1.089504,0.723322 -1.954478,0.702958 l -0.847945,-0.01996 z M 41.679999,64.888264 c -0.570279,-0.10947 -0.516831,-0.125328 0.490614,-0.145558 1.617153,-0.03248 2.886784,-0.297296 3.989386,-0.832109 0.928314,-0.450274 0.944157,-0.452483 0.48,-0.06694 -1.018453,0.845969 -3.39136,1.345717 -4.96,1.044603 z m 13.36,0.01349 c 0,-0.103246 0.259153,-0.182005 0.599999,-0.182346 0.33,-3.2e-4 0.830524,-0.141155 1.112272,-0.312948 0.291029,-0.17745 0.479725,-0.227532 0.436911,-0.11596 -0.124503,0.324452 -0.673626,0.590755 -1.43268,0.694795 -0.485797,0.06658 -0.716502,0.03968 -0.716502,-0.08355 z m -12.48,-1.149166 c 1.838042,-0.198847 2.642181,-0.409668 3.661322,-0.959885 0.672571,-0.363111 0.798492,-0.395587 0.57461,-0.148202 -0.157692,0.174248 -0.680589,0.50952 -1.161992,0.74505 -0.765382,0.374465 -1.098688,0.433377 -2.65461,0.4692 l -1.77933,0.04096 1.36,-0.147131 z m 39.723044,-0.10346 c 0.155675,-0.04057 0.371675,-0.0379 0.48,0.0059 0.108324,0.04383 -0.01904,0.07702 -0.283045,0.07376 -0.264,-0.0033 -0.352631,-0.03912 -0.196955,-0.07969 z m 1.516955,-0.002 c 0.198,-0.03814 0.522,-0.03814 0.72,0 0.198,0.03814 0.036,0.06934 -0.36,0.06934 -0.396,0 -0.558,-0.0312 -0.36,-0.06934 z m 2.402865,-0.003 c 0.287576,-0.03561 0.719576,-0.03487 0.96,0.0016 0.240424,0.03651 0.0051,0.06564 -0.522865,0.06475 -0.528,-9.6e-4 -0.724711,-0.03077 -0.437135,-0.06638 z m 1.757135,0.01 c 0.11,-0.04438 0.29,-0.04438 0.4,0 0.11,0.04439 0.02,0.0807 -0.2,0.0807 -0.22,0 -0.31,-0.03632 -0.2,-0.0807 z m 4.321865,-0.0072 c 0.199026,-0.03827 0.487026,-0.03682 0.64,0.0032 0.152974,0.04005 -0.0099,0.07136 -0.361866,0.06958 -0.352,-0.0018 -0.47716,-0.03454 -0.278134,-0.07281 z m -29.83882,-0.157716 c 0.155675,-0.04057 0.371675,-0.0379 0.48,0.0059 0.108325,0.04383 -0.01904,0.07702 -0.283045,0.07376 -0.264,-0.0033 -0.35263,-0.03912 -0.196955,-0.07969 z m 2.88,0 c 0.155675,-0.04057 0.371675,-0.0379 0.48,0.0059 0.108325,0.04383 -0.01905,0.07702 -0.283045,0.07376 -0.264,-0.0033 -0.35263,-0.03912 -0.196955,-0.07969 z m 15.446955,0.0016 c 0.115499,-0.04622 0.253501,-0.04054 0.306667,0.01262 0.05317,0.05317 -0.04133,0.09098 -0.21,0.08404 -0.186392,-0.0077 -0.224304,-0.04559 -0.09667,-0.09667 z m 14.079999,0 c 0.1155,-0.04622 0.253501,-0.04054 0.306668,0.01262 0.05317,0.05317 -0.04134,0.09098 -0.21,0.08404 -0.186392,-0.0077 -0.224304,-0.04559 -0.09667,-0.09667 z m -34.079999,-0.16 c 0.1155,-0.04622 0.2535,-0.04054 0.306668,0.01262 0.05317,0.05317 -0.04134,0.09098 -0.21,0.08404 -0.186392,-0.0077 -0.224304,-0.04559 -0.09667,-0.09667 z m 3.283333,-0.603664 c 0,-0.12813 0.06117,-0.195154 0.135944,-0.148944 0.07477,0.04621 0.09452,0.151041 0.04389,0.232961 -0.12938,0.209341 -0.179834,0.18577 -0.179834,-0.08402 z m 6.636667,0.123664 c 0.115499,-0.04622 0.253499,-0.04054 0.306667,0.01262 0.05317,0.05317 -0.04133,0.09098 -0.21,0.08404 -0.186392,-0.0077 -0.224304,-0.04559 -0.09667,-0.09667 z m 5.12,0 c 0.115499,-0.04622 0.253499,-0.04054 0.306667,0.01262 0.05317,0.05317 -0.04133,0.09098 -0.21,0.08404 -0.186392,-0.0077 -0.224304,-0.04559 -0.09667,-0.09667 z M 41.759999,62.662214 c -0.267332,-0.08425 0.236808,-0.156505 1.52,-0.217854 1.112172,-0.05317 2.206105,-0.19664 2.6,-0.340981 0.917232,-0.336117 0.864463,-0.166982 -0.07797,0.249899 -0.815281,0.360637 -3.280183,0.549032 -4.042034,0.308936 z M 58.879998,62.64 c -0.144206,-0.09319 -0.16394,-0.156078 -0.04944,-0.15755 0.104807,-0.0013 0.235056,0.06955 0.289443,0.15755 0.122768,0.198645 0.06738,0.198645 -0.24,0 z m 23.2,-0.329443 c 0,-0.09319 0.072,-0.124944 0.16,-0.07056 0.088,0.05439 0.16,0.130637 0.16,0.169443 0,0.03881 -0.072,0.07056 -0.16,0.07056 -0.088,0 -0.16,-0.07625 -0.16,-0.169443 z m 12.289999,0.06014 c 0.1155,-0.04622 0.253501,-0.04054 0.306668,0.01262 0.05317,0.05317 -0.04134,0.09098 -0.21,0.08404 -0.186392,-0.0077 -0.224304,-0.04559 -0.09667,-0.09667 z m -33.119999,-0.16 c 0.1155,-0.04622 0.2535,-0.04054 0.306668,0.01262 0.05317,0.05317 -0.04133,0.09098 -0.21,0.08404 -0.186392,-0.0077 -0.224304,-0.04559 -0.09667,-0.09667 z m 30.879999,0 c 0.1155,-0.04622 0.253501,-0.04054 0.306668,0.01262 0.05317,0.05317 -0.04134,0.09098 -0.21,0.08404 -0.186392,-0.0077 -0.224304,-0.04559 -0.09667,-0.09667 z M 60.719998,61.982838 c -1.62484,-0.151104 -7.232596,-1.00998 -8.536514,-1.307443 -0.755929,-0.172449 -0.389532,-0.196822 3.120001,-0.207555 3.38376,-0.01035 5.614573,-0.133123 11.416513,-0.628328 0.308,-0.02629 1.388,-0.136902 2.4,-0.24581 1.012,-0.108907 3.117843,-0.206043 4.679653,-0.215857 1.587517,-0.01 2.839806,-0.0821 2.84,-0.163562 8e-4,-0.313523 12.38738,0.174703 16.401383,0.646471 0.813357,0.09559 0.879226,0.134502 0.882477,0.521275 0.0019,0.229885 0.142413,0.723971 0.312178,1.097971 l 0.308664,0.68 -0.512178,-0.0017 C 92.391564,62.1528 85.806217,61.277542 85.50125,61.024443 85.372086,60.917246 85.274276,60.919816 85.204799,61.032235 85.143724,61.131051 84.447441,61.2 83.510555,61.2 c -1.307162,0 -1.590557,-0.04276 -1.590557,-0.24 0,-0.300397 -0.416295,-0.316794 -0.529851,-0.02087 -0.06604,0.172088 -0.662213,0.224459 -2.777119,0.243956 -3.123945,0.0288 -6.755988,0.248271 -9.782652,0.591128 -1.171293,0.132684 -2.269293,0.196912 -2.44,0.142732 -0.174843,-0.05549 -0.310378,-0.02393 -0.310378,0.07227 0,0.201892 -3.160877,0.198129 -5.36,-0.0064 z m 8.56,-0.782838 c 0,-0.088 -0.072,-0.16 -0.16,-0.16 -0.088,0 -0.16,0.072 -0.16,0.16 0,0.088 0.072,0.16 0.16,0.16 0.088,0 0.16,-0.072 0.16,-0.16 z m -5.68,-0.16 c 0.05439,-0.088 -0.05361,-0.16 -0.24,-0.16 -0.186387,0 -0.294387,0.072 -0.24,0.16 0.05439,0.088 0.162387,0.16 0.24,0.16 0.07761,0 0.185613,-0.072 0.24,-0.16 z m 8.64,0 c -0.05439,-0.088 -0.166637,-0.16 -0.249443,-0.16 -0.08281,0 -0.150557,0.072 -0.150557,0.16 0,0.088 0.11225,0.16 0.249443,0.16 0.137194,0 0.204944,-0.072 0.150557,-0.16 z m -13.2,-0.230557 c 0,-0.03881 -0.072,-0.115056 -0.16,-0.169443 -0.088,-0.05439 -0.16,-0.02264 -0.16,0.07056 0,0.09319 0.072,0.169443 0.16,0.169443 0.088,0 0.16,-0.03175 0.16,-0.07056 z m 29.44,-0.569443 c 0,-0.088 -0.11225,-0.16 -0.249444,-0.16 -0.137193,0 -0.204944,0.072 -0.150556,0.16 0.05439,0.088 0.166636,0.16 0.249443,0.16 0.08281,0 0.150557,-0.072 0.150557,-0.16 z m 3.12,-0.16 c 0.05439,-0.088 -0.01761,-0.16 -0.16,-0.16 -0.142388,0 -0.214388,0.072 -0.16,0.16 0.05439,0.088 0.126387,0.16 0.16,0.16 0.03361,0 0.105612,-0.072 0.16,-0.16 z m -49.359999,1.462898 c -0.428087,-0.08725 -0.16426,-0.13921 1.12,-0.220567 0.924,-0.05853 2.03664,-0.215363 2.472534,-0.34851 1.093702,-0.33408 1.103136,-0.197506 0.01449,0.209808 -0.97721,0.365621 -2.722826,0.539489 -3.607027,0.359269 z m 30.849999,0.0278 c 0.115499,-0.04622 0.253499,-0.04054 0.306667,0.01262 0.05317,0.05317 -0.04133,0.09098 -0.21,0.08404 -0.186392,-0.0077 -0.224304,-0.04559 -0.09667,-0.09667 z m 2.95,-0.160995 c 0.154,-0.04024 0.406,-0.04024 0.56,0 0.154,0.04025 0.028,0.07317 -0.28,0.07317 -0.308,0 -0.434,-0.03293 -0.28,-0.07317 z m 9.2,0.0043 c 0.11,-0.04438 0.29,-0.04438 0.4,0 0.11,0.04439 0.02,0.0807 -0.2,0.0807 -0.22,0 -0.31,-0.03632 -0.2,-0.0807 z M 46.905262,60.24 c 0,-0.22 0.03632,-0.31 0.0807,-0.2 0.04439,0.11 0.04439,0.29 0,0.4 -0.04439,0.11 -0.0807,0.02 -0.0807,-0.2 z m -5.44,-0.16 c 0,-0.22 0.03632,-0.31 0.0807,-0.2 0.04439,0.11 0.04439,0.29 0,0.4 -0.04439,0.11 -0.0807,0.02 -0.0807,-0.2 z m 1.414737,0.204662 c -0.22,-0.03947 -0.472,-0.145755 -0.56,-0.236193 -0.108636,-0.111647 -0.05727,-0.136 0.16,-0.07586 0.176,0.04872 1.086872,0.110809 2.02416,0.137982 0.937289,0.02717 1.67104,0.103408 1.630558,0.169408 -0.07694,0.125446 -2.561604,0.129006 -3.254718,0.0047 z m 9.73,0.006 c 0.1155,-0.04622 0.253499,-0.04054 0.306667,0.01262 0.05317,0.05317 -0.04133,0.09098 -0.210001,0.08404 -0.186391,-0.0077 -0.224304,-0.04559 -0.09667,-0.09667 z m 3.679999,0 c 0.1155,-0.04622 0.2535,-0.04054 0.306668,0.01262 0.05317,0.05317 -0.04133,0.09098 -0.21,0.08404 -0.186392,-0.0077 -0.224304,-0.04559 -0.09667,-0.09667 z m -10.769999,-0.80751 c -0.384596,-0.143931 -1.257445,-0.248229 -2.187211,-0.261349 -1.800945,-0.02542 -1.711883,-0.31083 0.09962,-0.319246 1.091937,-0.0051 2.696509,0.388232 2.895154,0.709645 0.116219,0.188046 -0.01725,0.166718 -0.807561,-0.12905 z M 74.849998,59.01067 c 0.115499,-0.04622 0.253499,-0.04054 0.306667,0.01262 0.05317,0.05317 -0.04133,0.09098 -0.21,0.08404 -0.186392,-0.0077 -0.224304,-0.04559 -0.09667,-0.09667 z m 9.12,0 c 0.115499,-0.04622 0.253501,-0.04054 0.306667,0.01262 0.05317,0.05317 -0.04133,0.09098 -0.21,0.08404 -0.186392,-0.0077 -0.224304,-0.04559 -0.09667,-0.09667 z M 45.439999,58.525344 c -0.408908,-0.138016 -1.355211,-0.252162 -2.190146,-0.264181 -1.695445,-0.02441 -1.44979,-0.291006 0.278019,-0.301723 1.014432,-0.0063 2.611944,0.389019 2.799688,0.692794 0.11643,0.188388 -0.0048,0.171051 -0.887561,-0.12689 z m 0.72,-0.502912 c -1.067485,-0.484605 -2.280836,-0.845651 -3.572492,-1.063037 l -1.227508,-0.206589 0.886384,-0.0164 c 1.064959,-0.01971 2.471675,0.326003 3.580028,0.879818 1.241233,0.620213 1.50054,0.935971 0.333588,0.406211 z m 29.649999,-0.45173 c 0.115499,-0.04622 0.253499,-0.04054 0.306667,0.01262 0.05317,0.05317 -0.04133,0.09098 -0.21,0.08404 -0.186392,-0.0077 -0.224304,-0.04559 -0.09667,-0.09667 z m 12.95,0.0033 c 0.11,-0.04438 0.29,-0.04438 0.4,0 0.11,0.04439 0.02,0.0807 -0.2,0.0807 -0.22,0 -0.31,-0.03632 -0.2,-0.0807 z M 46.257652,57.034304 C 45.199586,56.554238 43.544278,56.083246 42.390307,55.93391 l -1.030308,-0.133332 1.05096,-0.02029 c 0.578028,-0.01115 1.442027,0.09581 1.92,0.237702 0.867124,0.257421 2.70904,1.117045 2.70904,1.264314 0,0.107522 0.0041,0.108813 -0.782347,-0.248 z m 8.676126,-0.369307 c 0.460136,-0.08602 1.043825,-0.08617 1.44,-3.2e-4 0.574505,0.124403 0.467984,0.144317 -0.77378,0.144648 -1.321478,3.2e-4 -1.376311,-0.01152 -0.66622,-0.144263 z m -7.973779,-0.203162 c -0.975588,-0.756045 -3.514464,-1.747678 -5.2,-2.031017 -0.259064,-0.04355 -0.172253,-0.07492 0.246384,-0.08903 1.373443,-0.0463 4.166093,1.054776 5.043195,1.988408 0.416242,0.443069 0.380349,0.495814 -0.08958,0.131638 z m 10.100923,0.145755 c -0.06183,-0.06182 -0.667826,-0.15896 -1.346666,-0.215852 l -1.234257,-0.103445 1.039999,-0.01693 c 0.579244,-0.0094 1.252658,0.08044 1.52,0.202859 0.264,0.120884 0.402,0.225636 0.306668,0.232783 -0.09533,0.0072 -0.223919,-0.03759 -0.285744,-0.09942 z m 16.189076,-2.556888 c 0.115499,-0.04622 0.253499,-0.04054 0.306667,0.01262 0.05317,0.05317 -0.04133,0.09098 -0.21,0.08404 -0.186392,-0.0077 -0.224304,-0.04559 -0.09667,-0.09667 z m -1.88291,-0.28216 c -0.109181,-0.131555 -0.443442,-0.32776 -0.7428,-0.436009 -0.690916,-0.249837 -0.715336,-0.47925 -0.0301,-0.282727 0.53119,0.152344 1.215465,0.713868 1.059718,0.869616 -0.04857,0.04857 -0.177642,-0.01932 -0.286822,-0.15088 z m 3.32291,0.12216 c 0.115499,-0.04622 0.253499,-0.04054 0.306667,0.01262 0.05317,0.05317 -0.04133,0.09098 -0.21,0.08404 -0.186392,-0.0077 -0.224304,-0.04559 -0.09667,-0.09667 z m 1.76,-0.16 c 0.115499,-0.04622 0.253499,-0.04054 0.306667,0.01262 0.05317,0.05317 -0.04133,0.09098 -0.21,0.08404 -0.186392,-0.0077 -0.224304,-0.04559 -0.09667,-0.09667 z M 72.850443,53.176598 C 72.579214,52.90537 71.970905,52.550027 71.498648,52.38695 70.8338,52.15737 70.740468,52.089267 71.085137,52.085224 c 0.639827,-0.0075 1.403224,0.359184 1.943197,0.933402 0.616091,0.655163 0.458894,0.79476 -0.177891,0.157972 z m 5.829555,0.397437 c 0.11,-0.04439 0.29,-0.04439 0.4,0 0.11,0.04439 0.02,0.0807 -0.2,0.0807 -0.22,0 -0.31,-0.03632 -0.2,-0.0807 z m -3.936003,-0.535797 c -0.496531,-0.671593 -1.388672,-1.224212 -2.423997,-1.501496 -0.791024,-0.211852 -0.823379,-0.236392 -0.32,-0.242699 1.061613,-0.0133 2.488139,0.841835 2.97931,1.785957 0.298868,0.574477 0.208424,0.558426 -0.235313,-0.04176 z m 1.297507,-0.407107 c -0.649838,-0.869408 -1.747408,-1.632653 -2.906934,-2.021462 -0.890365,-0.298557 -0.891295,-0.299544 -0.197775,-0.210242 1.236451,0.159216 2.436522,0.937168 3.234242,2.096615 0.645192,0.937753 0.546976,1.040184 -0.129533,0.135089 z m 1.337809,-0.132608 c -0.560476,-0.956382 -1.837567,-2.068998 -3.072913,-2.677157 -0.56452,-0.277912 -1.0264,-0.528217 -1.0264,-0.556233 0,-0.112893 1.391842,0.450003 2.013459,0.814296 0.824023,0.482909 2.213011,1.982069 2.440181,2.633729 0.234811,0.67358 0.128441,0.609146 -0.354327,-0.214635 z m 0.566786,-0.893885 c -0.968069,-1.269379 -2.038971,-2.219195 -3.262933,-2.893987 -0.46374,-0.25567 -0.735166,-0.465483 -0.603166,-0.466251 0.872864,-0.0051 3.673795,2.387474 4.450237,3.80139 0.203632,0.370815 0.346891,0.67421 0.318355,0.67421 -0.02854,0 -0.434658,-0.501914 -0.902493,-1.115362 z M 79.339588,51.8 c -0.199019,-0.25377 -0.19336,-0.259429 0.06041,-0.06041 0.26652,0.20902 0.351277,0.34041 0.21959,0.34041 -0.03322,0 -0.159224,-0.126 -0.28,-0.28 z"
         id="path1697" />
      <path
         style="fill:#25a28d;stroke-width:0.16"
         d="m 73.679998,67.273973 c -6.772328,-0.549864 -12.952235,-1.862656 -17.04,-3.619792 -0.96207,-0.413549 -1.189864,-0.446071 -3.039999,-0.434013 -1.261878,0.0082 -2.442874,0.113597 -3.2,0.285514 l -1.2,0.272478 -0.805949,-0.859957 c -0.830478,-0.886129 -1.194051,-1.711032 -1.194051,-2.709149 v -0.553817 l 1,0.315526 c 0.55,0.173541 1.792,0.6216 2.76,0.995688 4.597897,1.776879 8.202655,2.589069 12.159999,2.739776 2.01476,0.07673 2.798082,0.03204 4.88,-0.278387 3.539107,-0.527709 7.350406,-0.503717 11.278832,0.071 2.677998,0.391782 3.264,0.420965 8.4,0.41832 3.036641,-0.0016 6.150201,-0.06903 6.919022,-0.149936 1.336653,-0.140653 1.42963,-0.129333 2.123648,0.258561 0.399187,0.223109 0.835893,0.363405 0.970456,0.311768 0.156648,-0.06011 0.204309,-0.02859 0.132486,0.08762 -0.07879,0.127491 0.02586,0.150365 0.351691,0.07687 l 0.463864,-0.104636 -0.4,0.23196 c -0.22,0.127578 -0.741835,0.315306 -1.159633,0.417172 -0.4178,0.101867 -0.720059,0.249244 -0.671691,0.327508 0.04837,0.07826 -0.01014,0.104655 -0.130036,0.05865 -0.119888,-0.04601 -0.79734,0.05126 -1.505448,0.216141 l -1.287468,0.299785 0.162025,-0.527926 c 0.311103,-1.013667 -0.468766,-1.343496 -2.22966,-0.942989 -1.514719,0.344515 -2.050415,0.69928 -2.332143,1.544463 -0.264312,0.792939 -0.278777,0.798198 -3.005945,1.092782 -2.208023,0.238509 -10.164354,0.340546 -12.4,0.159029 z M 54.572631,66.866667 c 0.0077,-0.186392 0.04559,-0.224304 0.09667,-0.09667 0.04622,0.115499 0.04054,0.253499 -0.01262,0.306667 -0.05317,0.05317 -0.09098,-0.04133 -0.08404,-0.21 z M 41.719999,65.894035 c 0.11,-0.04439 0.29,-0.04439 0.4,0 0.11,0.04439 0.02,0.0807 -0.2,0.0807 -0.22,0 -0.31,-0.03632 -0.2,-0.0807 z m 1.29,-0.0033 c 0.1155,-0.04622 0.2535,-0.04054 0.306667,0.01262 0.05317,0.05317 -0.04133,0.09098 -0.21,0.08404 -0.186391,-0.0077 -0.224304,-0.04559 -0.09667,-0.09666 z M 98.238962,63.77051 c -0.606878,-0.184603 -1.357437,-0.599481 -1.588747,-0.878193 -0.113562,-0.136834 -0.288318,-0.202039 -0.388347,-0.144898 -0.100029,0.05714 -0.133861,0.05034 -0.07518,-0.01512 0.05868,-0.06545 -0.06779,-0.466393 -0.28105,-0.890977 -0.213256,-0.424584 -0.424547,-1.120573 -0.469534,-1.546645 l -0.0818,-0.774674 0.318341,0.88 c 0.175086,0.484 0.320368,0.90225 0.322845,0.929443 0.0025,0.02719 0.07568,0.0055 0.162673,-0.04831 0.08813,-0.05447 0.118936,0.0045 0.06958,0.133115 -0.217963,0.568003 1.57112,1.893123 3.132257,2.31997 l 0.56,0.153113 -0.64,0.0026 c -0.352,0.0014 -0.820465,-0.05231 -1.041035,-0.119408 z M 53.089999,63.330702 c 0.115499,-0.04622 0.253499,-0.04054 0.306667,0.01262 0.05317,0.05317 -0.04134,0.09098 -0.21,0.08404 -0.186392,-0.0077 -0.224304,-0.04559 -0.09667,-0.09667 z m 1.12,0 c 0.115499,-0.04622 0.253499,-0.04054 0.306667,0.01262 0.05317,0.05317 -0.04134,0.09098 -0.21,0.08404 -0.186392,-0.0077 -0.224304,-0.04559 -0.09667,-0.09667 z m 44.749998,-0.11748 c -0.596273,-0.266152 -1.284969,-0.988518 -1.50982,-1.583638 -0.0936,-0.247728 -0.161197,-0.859728 -0.150218,-1.36 l 0.01996,-0.909584 0.118102,0.803374 c 0.223692,1.521628 0.914423,2.44424 2.271101,3.033514 0.485918,0.211059 0.496998,0.230587 0.130875,0.230587 -0.22,0 -0.616,-0.09641 -0.88,-0.214253 z M 67.199998,63.12 c 0,-0.088 0.108,-0.16 0.24,-0.16 0.132,0 0.24,0.072 0.24,0.16 0,0.088 -0.108,0.16 -0.24,0.16 -0.132,0 -0.24,-0.072 -0.24,-0.16 z m 16.64,-0.16 c 0,-0.088 0.108,-0.16 0.24,-0.16 0.132,0 0.24,0.072 0.24,0.16 0,0.088 -0.108,0.16 -0.24,0.16 -0.132,0 -0.24,-0.072 -0.24,-0.16 z M 99.84265,62.82377 c -0.889793,-0.477202 -1.19732,-1.018272 -1.19732,-2.106597 0,-0.520579 0.07105,-1.017559 0.157895,-1.1044 0.10386,-0.103861 0.138747,0.08287 0.101942,0.545625 -0.09893,1.243834 0.313222,1.993348 1.513393,2.752192 0.48428,0.3062 0.0289,0.237551 -0.57591,-0.08682 z M 58.639998,62.8 c -0.05439,-0.088 0.01336,-0.16 0.150557,-0.16 0.137194,0 0.249443,0.072 0.249443,0.16 0,0.088 -0.06775,0.16 -0.150556,0.16 -0.08281,0 -0.195056,-0.072 -0.249444,-0.16 z m 5.128447,0.01366 c -0.05152,-0.08336 -0.02547,-0.193704 0.05789,-0.245219 0.08336,-0.05152 0.193704,-0.02547 0.245219,0.05789 0.05152,0.08335 0.02547,0.193704 -0.05789,0.245219 -0.08336,0.05152 -0.193704,0.02547 -0.245219,-0.05789 z M 69.519998,62.8 c -0.05439,-0.088 0.05361,-0.16 0.24,-0.16 0.186387,0 0.294387,0.072 0.24,0.16 -0.05439,0.088 -0.162387,0.16 -0.24,0.16 -0.07761,0 -0.185613,-0.072 -0.24,-0.16 z m -12.4,-0.16 c -0.144206,-0.09319 -0.16394,-0.156078 -0.04944,-0.15755 0.104807,-0.0013 0.235056,0.06955 0.289443,0.15755 0.122768,0.198645 0.06738,0.198645 -0.24,0 z m 3.84,0 c 0,-0.088 0.072,-0.16 0.16,-0.16 0.088,0 0.16,0.072 0.16,0.16 0,0.088 -0.072,0.16 -0.16,0.16 -0.088,0 -0.16,-0.072 -0.16,-0.16 z m 25.12,0 c 0,-0.088 0.072,-0.16 0.16,-0.16 0.088,0 0.16,0.072 0.16,0.16 0,0.088 -0.072,0.16 -0.16,0.16 -0.088,0 -0.16,-0.072 -0.16,-0.16 z m 3.04,0 c 0,-0.088 0.072,-0.16 0.16,-0.16 0.088,0 0.16,0.072 0.16,0.16 0,0.088 -0.072,0.16 -0.16,0.16 -0.088,0 -0.16,-0.072 -0.16,-0.16 z m 2.48,-0.16 c 0.05439,-0.088 0.202636,-0.16 0.329443,-0.16 0.126806,0 0.230556,0.072 0.230556,0.16 0,0.088 -0.148249,0.16 -0.329443,0.16 -0.181193,0 -0.284944,-0.072 -0.230556,-0.16 z M 102.4,62.47056 c 0,-0.09319 0.072,-0.124944 0.16,-0.07056 0.088,0.05439 0.16,0.130637 0.16,0.169443 0,0.03881 -0.072,0.07056 -0.16,0.07056 -0.088,0 -0.16,-0.07625 -0.16,-0.169443 z M 78.799998,62 c 0.05439,-0.088 0.166637,-0.16 0.249443,-0.16 0.08281,0 0.150557,0.072 0.150557,0.16 0,0.088 -0.11225,0.16 -0.249443,0.16 -0.137194,0 -0.204944,-0.072 -0.150557,-0.16 z m -6.8,-0.969443 c 0,-0.09319 0.072,-0.124944 0.16,-0.07056 0.088,0.05439 0.16,0.130637 0.16,0.169443 0,0.03881 -0.072,0.07056 -0.16,0.07056 -0.088,0 -0.16,-0.07625 -0.16,-0.169443 z m 13.25,0.06014 c 0.115499,-0.04622 0.2535,-0.04054 0.306667,0.01262 0.05317,0.05317 -0.04133,0.09098 -0.21,0.08404 -0.186392,-0.0077 -0.224304,-0.04559 -0.09667,-0.09667 z m -22.09,-0.156667 c 0.11,-0.04438 0.29,-0.04438 0.4,0 0.11,0.04439 0.02,0.0807 -0.2,0.0807 -0.22,0 -0.31,-0.03632 -0.2,-0.0807 z m 18.28,-0.05403 c 0,-0.088 0.06775,-0.16 0.150557,-0.16 0.08281,0 0.195056,0.072 0.249443,0.16 0.05439,0.088 -0.01336,0.16 -0.150557,0.16 -0.137194,0 -0.249443,-0.072 -0.249443,-0.16 z m 19.477332,-0.01985 c 0.10853,-0.109348 0.23764,-0.158508 0.2869,-0.109245 0.0493,0.04926 -0.0395,0.138728 -0.19733,0.198813 -0.22803,0.08683 -0.24641,0.06845 -0.0896,-0.08957 z M 102.56,60.49959 c 0,-0.03322 0.126,-0.159224 0.28,-0.28 0.25377,-0.199019 0.25943,-0.19336 0.0604,0.06041 -0.20902,0.26652 -0.34041,0.351277 -0.34041,0.21959 z M 66.849998,59.810702 c 0.115499,-0.04622 0.253499,-0.04054 0.306667,0.01262 0.05317,0.05317 -0.04133,0.09098 -0.21,0.08404 -0.186392,-0.0077 -0.224304,-0.04559 -0.09667,-0.09667 z M 103.06526,59.44 c 0,-0.22 0.0363,-0.31 0.0807,-0.2 0.0444,0.11 0.0444,0.29 0,0.4 -0.0444,0.11 -0.0807,0.02 -0.0807,-0.2 z m 3.11122,0.186667 c -0.0453,-0.07333 0.0193,-0.133334 0.14352,-0.133334 0.12425,0 0.18884,0.06 0.14352,0.133334 C 106.41819,59.7 106.35361,59.76 106.32,59.76 c -0.0336,0 -0.0982,-0.06 -0.14352,-0.133333 z M 49.479999,59.481762 c 0.506,-0.03175 1.334,-0.03175 1.84,0 0.506,0.03175 0.092,0.05773 -0.92,0.05773 -1.012,0 -1.426,-0.02598 -0.92,-0.05773 z m 10.169999,0.0089 c 0.1155,-0.04622 0.2535,-0.04054 0.306668,0.01262 0.05317,0.05317 -0.04133,0.09098 -0.21,0.08404 -0.186392,-0.0077 -0.224304,-0.04559 -0.09667,-0.09667 z m -6.006955,-0.161581 c 0.155676,-0.04057 0.371676,-0.0379 0.48,0.0059 0.108325,0.04383 -0.01904,0.07702 -0.283044,0.07376 -0.264,-0.0033 -0.352631,-0.03912 -0.196956,-0.07969 z m 22.476955,0.0049 c 0.11,-0.04439 0.29,-0.04439 0.4,0 0.11,0.04438 0.02,0.0807 -0.2,0.0807 -0.22,0 -0.31,-0.03632 -0.2,-0.0807 z M 48.566831,59.131056 c -0.05063,-0.08192 -0.01888,-0.19417 0.07056,-0.249443 0.19094,-0.118008 0.48261,0.03177 0.48261,0.24783 0,0.194688 -0.43306,0.195951 -0.553168,0.0016 z m 6.923167,0.03965 c 0.1155,-0.04622 0.2535,-0.04054 0.306668,0.01262 0.05317,0.05317 -0.04134,0.09098 -0.21,0.08404 -0.186392,-0.0077 -0.224304,-0.04559 -0.09667,-0.09667 z m 15.15,-0.0507 c -0.05439,-0.088 0.01336,-0.16 0.150557,-0.16 0.137193,0 0.249443,0.072 0.249443,0.16 0,0.088 -0.06775,0.16 -0.150557,0.16 -0.08281,0 -0.195056,-0.072 -0.249443,-0.16 z m 23.452631,-0.09333 c 0.0077,-0.186392 0.04559,-0.224304 0.09667,-0.09667 0.04622,0.115499 0.04054,0.253499 -0.01262,0.306667 -0.05317,0.05317 -0.09098,-0.04133 -0.08404,-0.21 z m 11.443851,0.12 c -0.0453,-0.07333 0.0193,-0.133334 0.14352,-0.133334 0.12425,0 0.18884,0.06 0.14352,0.133334 C 105.77819,59.22 105.71361,59.28 105.68,59.28 c -0.0336,0 -0.0982,-0.06 -0.14352,-0.133333 z m -53.289649,-0.17562 c -0.05063,-0.08192 -0.01888,-0.19417 0.07056,-0.249443 0.19094,-0.118008 0.48261,0.03177 0.48261,0.24783 0,0.194688 -0.43306,0.195951 -0.553168,0.0016 z m 1.584552,-0.025 c -0.164884,-0.266787 0.205953,-0.572721 0.426675,-0.352 0.184627,0.184627 0.06908,0.525941 -0.178059,0.525941 -0.07761,0 -0.18949,-0.07827 -0.248616,-0.173941 z m 2.938615,0.06464 c 0.1155,-0.04622 0.2535,-0.04054 0.306668,0.01262 0.05317,0.05317 -0.04134,0.09098 -0.21,0.08404 -0.186392,-0.0077 -0.224304,-0.04559 -0.09667,-0.09667 z M 50.719999,58.72 c 0,-0.133333 0.142222,-0.24 0.32,-0.24 0.177777,0 0.32,0.106667 0.32,0.24 0,0.133333 -0.142223,0.24 -0.32,0.24 -0.177778,0 -0.32,-0.106667 -0.32,-0.24 z m 7.169999,0.130702 c 0.1155,-0.04622 0.2535,-0.04054 0.306668,0.01262 0.05317,0.05317 -0.04134,0.09098 -0.21,0.08404 -0.186392,-0.0077 -0.224304,-0.04559 -0.09667,-0.09667 z M 94.759922,58.76 c 0.100805,-0.30275 0.600075,-0.345792 0.600075,-0.05173 0,0.148421 -0.1368,0.251731 -0.333332,0.251731 -0.195517,0 -0.305802,-0.08269 -0.266743,-0.200001 z M 104,58.818653 c 0,-0.07774 0.17342,-0.174501 0.38539,-0.215021 0.27604,-0.05277 0.36198,-0.01266 0.30288,0.141347 C 104.59757,58.981357 104,59.04532 104,58.818653 Z M 59.009998,58.690702 c 0.1155,-0.04622 0.2535,-0.04054 0.306668,0.01262 0.05317,0.05317 -0.04133,0.09098 -0.21,0.08404 -0.186392,-0.0077 -0.224304,-0.04559 -0.09667,-0.09667 z m 2.72,0 c 0.1155,-0.04622 0.2535,-0.04054 0.306668,0.01262 0.05317,0.05317 -0.04133,0.09098 -0.21,0.08404 -0.186392,-0.0077 -0.224304,-0.04559 -0.09667,-0.09667 z M 100.16,58.73959 c 0,-0.03322 0.126,-0.159224 0.28,-0.28 0.25377,-0.199019 0.25943,-0.19336 0.0604,0.06041 -0.20902,0.26652 -0.34041,0.351277 -0.34041,0.21959 z M 52.799999,58.48 c 0,-0.088 0.144,-0.16 0.32,-0.16 0.176,0 0.32,0.072 0.32,0.16 0,0.088 -0.144,0.16 -0.32,0.16 -0.176,0 -0.32,-0.072 -0.32,-0.16 z m 7.159999,0.05404 c 0.11,-0.04439 0.29,-0.04439 0.4,0 0.11,0.04439 0.02,0.0807 -0.2,0.0807 -0.22,0 -0.31,-0.03632 -0.2,-0.0807 z m 5.64,-0.05404 c 0,-0.088 0.072,-0.16 0.16,-0.16 0.088,0 0.16,0.072 0.16,0.16 0,0.088 -0.072,0.16 -0.16,0.16 -0.088,0 -0.16,-0.072 -0.16,-0.16 z m 33.439999,0 c 0,-0.088 0.144,-0.16 0.32,-0.16 0.176,0 0.32,0.072 0.32,0.16 0,0.088 -0.144,0.16 -0.32,0.16 -0.176,0 -0.32,-0.072 -0.32,-0.16 z m 4.105263,-0.08815 c 0.0489,-0.127518 0.15327,-0.231851 0.23186,-0.231851 0.23001,0 0.1641,0.277619 -0.089,0.374733 -0.15497,0.05946 -0.20235,0.01208 -0.14289,-0.142882 z M 57.071014,58.377691 C 56.9042,58.210869 57.115485,58 57.449442,58 c 0.170806,0 0.310556,0.108 0.310556,0.24 0,0.23732 -0.49119,0.335477 -0.688984,0.137683 z m 4.412029,-0.0086 c 0.155675,-0.04057 0.371675,-0.0379 0.48,0.0059 0.108325,0.04383 -0.01904,0.07702 -0.283045,0.07376 -0.264,-0.0033 -0.35263,-0.03912 -0.196955,-0.07969 z M 51.874905,58.13528 c 0.08305,-0.249136 0.441001,-0.292766 0.453545,-0.05528 0.0046,0.088 -0.111644,0.184877 -0.258427,0.21528 -0.166835,0.03456 -0.239978,-0.02542 -0.195118,-0.16 z m 3.485093,-0.04355 c 0,-0.148421 0.1368,-0.251731 0.333333,-0.251731 0.389928,0 0.334811,0.373883 -0.06659,0.451731 -0.157881,0.03062 -0.266741,-0.051 -0.266741,-0.2 z m 7.64,0.122304 c 0.11,-0.04439 0.29,-0.04439 0.4,0 0.11,0.04439 0.02,0.0807 -0.2,0.0807 -0.22,0 -0.31,-0.03632 -0.2,-0.0807 z M 49.919999,57.92 c 0,-0.133333 0.142222,-0.24 0.32,-0.24 0.177777,0 0.32,0.106667 0.32,0.24 0,0.133333 -0.142223,0.24 -0.32,0.24 -0.177778,0 -0.32,-0.106667 -0.32,-0.24 z m 4.16,0.08877 c 0,-0.08318 -0.342,-0.1782 -0.76,-0.21116 -0.516584,-0.04073 -0.375661,-0.06512 0.44,-0.07613 0.66,-0.0089 1.109552,0.02026 0.999003,0.06483 -0.110549,0.04457 -0.160299,0.146884 -0.110557,0.227368 0.04974,0.08048 -0.05781,0.146334 -0.239003,0.146334 -0.181194,0 -0.329443,-0.06805 -0.329443,-0.151234 z m 10.119999,0.03832 c -0.421704,-0.08122 -0.472878,-0.333811 -0.09686,-0.478101 0.152035,-0.05834 0.339496,0.0035 0.443989,0.146354 0.09947,0.136032 0.323057,0.283378 0.496862,0.327437 0.246555,0.0625 0.228096,0.0794 -0.08399,0.07688 -0.22,-0.0018 -0.562,-0.03443 -0.760001,-0.07257 z M 69.919998,58 c -0.193083,-0.124781 -0.167779,-0.155579 0.129443,-0.15755 0.206011,-0.0014 0.325698,0.06833 0.270557,0.15755 -0.11891,0.1924 -0.102282,0.1924 -0.4,0 z m 8.48,0 c 0,-0.088 0.108,-0.16 0.24,-0.16 0.132,0 0.24,0.072 0.24,0.16 0,0.088 -0.108,0.16 -0.24,0.16 -0.132,0 -0.24,-0.072 -0.24,-0.16 z m 4,0 c 0,-0.088 0.108,-0.16 0.24,-0.16 0.132,0 0.24,0.072 0.24,0.16 0,0.088 -0.108,0.16 -0.24,0.16 -0.132,0 -0.24,-0.072 -0.24,-0.16 z m 11.599999,0 c -0.05439,-0.088 -0.02264,-0.16 0.07056,-0.16 0.09319,0 0.169443,0.072 0.169443,0.16 0,0.088 -0.03175,0.16 -0.07056,0.16 -0.03881,0 -0.115056,-0.072 -0.169443,-0.16 z m 2.16,-0.08 c 0,-0.132 0.108,-0.24 0.24,-0.24 0.132,0 0.24,0.108 0.24,0.24 0,0.132 -0.108,0.24 -0.24,0.24 -0.132,0 -0.24,-0.108 -0.24,-0.24 z M 58.666666,57.893333 C 58.482563,57.709232 58.550147,57.52 58.799998,57.52 c 0.132,0 0.24,0.108 0.24,0.24 0,0.249851 -0.189232,0.317435 -0.373332,0.133333 z m 1.493332,-0.121602 c 0,-0.148421 0.1368,-0.251731 0.333333,-0.251731 0.389928,0 0.334811,0.373883 -0.06659,0.451731 -0.157881,0.03062 -0.266741,-0.051 -0.266741,-0.2 z m 6.283045,0.117391 c 0.155675,-0.04057 0.371675,-0.0379 0.48,0.0059 0.108325,0.04383 -0.01905,0.07702 -0.283045,0.07376 -0.264,-0.0033 -0.35263,-0.03912 -0.196955,-0.07969 z m 31.312926,-0.05161 c -0.344135,-0.212688 0.04089,-0.562323 0.398718,-0.362072 0.219563,0.122874 0.228229,0.179557 0.05005,0.327428 -0.134656,0.111753 -0.30298,0.124748 -0.448772,0.03464 z M 56.079998,57.68 c -0.260865,-0.112098 -0.270001,-0.139587 -0.04944,-0.148754 0.148807,-0.0062 0.315056,0.06075 0.369443,0.148754 0.113706,0.183981 0.108146,0.183981 -0.32,0 z m 12.44,0.04971 c 0.154,-0.04024 0.406,-0.04024 0.56,0 0.154,0.04025 0.028,0.07317 -0.28,0.07317 -0.308,0 -0.434,-0.03293 -0.28,-0.07317 z m 21.84,0.0043 c 0.11,-0.04438 0.29,-0.04438 0.4,0 0.11,0.04439 0.02,0.0807 -0.2,0.0807 -0.22,0 -0.31,-0.03632 -0.2,-0.0807 z M 100.89564,57.72228 C 100.70304,57.529707 100.80813,57.36 101.12,57.36 c 0.176,0 0.32,0.0643 0.32,0.142882 0,0.179846 -0.41618,0.347606 -0.54436,0.219427 z M 51.359999,57.618661 c 0,-0.03374 0.144099,-0.09902 0.32022,-0.145079 0.176122,-0.04606 0.279873,-0.01845 0.230558,0.06134 -0.08612,0.139345 -0.550778,0.20999 -0.550778,0.08374 z m 6.349089,-0.160552 c -0.05973,-0.155659 0.0068,-0.197847 0.222882,-0.141338 0.354265,0.09264 0.417696,0.363229 0.08515,0.363229 -0.122586,0 -0.261199,-0.09985 -0.308029,-0.221891 z m 9.561491,-0.0073 c -0.236659,-0.174671 -0.266298,-0.274171 -0.124522,-0.418059 0.246562,-0.250236 0.519575,-0.06602 0.489711,0.330438 -0.01312,0.174267 -0.03078,0.31685 -0.03924,0.31685 -0.0084,0 -0.155133,-0.103154 -0.325952,-0.229229 z m 3.649419,0.118936 c 0.154,-0.04024 0.406,-0.04024 0.56,0 0.154,0.04024 0.028,0.07317 -0.28,0.07317 -0.308,0 -0.434,-0.03293 -0.28,-0.07317 z m 22.079999,0 c 0.154,-0.04024 0.406,-0.04024 0.56,0 0.154,0.04024 0.028,0.07317 -0.28,0.07317 -0.308,0 -0.434,-0.03293 -0.28,-0.07317 z m 1.496482,-0.02304 c -0.04532,-0.07334 0.01926,-0.133335 0.143518,-0.133335 0.124258,0 0.188842,0.06 0.143519,0.133335 C 94.738194,57.62 94.67361,57.68 94.639997,57.68 c -0.03361,0 -0.0982,-0.06 -0.143518,-0.133333 z M 48.500155,57.304286 c -0.137325,-0.165465 -0.09594,-0.286592 0.177651,-0.52 0.291315,-0.248524 0.316942,-0.252974 0.139844,-0.02429 -0.191982,0.247909 -0.175666,0.28 0.142349,0.28 0.301132,0 0.326991,0.03879 0.16,0.24 -0.246041,0.296461 -0.389301,0.302075 -0.619844,0.02429 z m 12.659843,0.100789 C 60.844259,57.291816 60.92703,57.04 61.279998,57.04 c 0.176,0 0.32,0.06775 0.32,0.150557 0,0.204806 -0.197984,0.301333 -0.44,0.214518 z m 12.8022,1.12e-4 c 0.24321,-0.03678 0.60321,-0.03579 0.8,0.0022 0.19679,0.03798 -0.0022,0.06807 -0.4422,0.06687 -0.44,-0.0013 -0.60101,-0.03227 -0.3578,-0.06905 z m 16.16,0 c 0.243209,-0.03678 0.603209,-0.03579 0.8,0.0022 0.19679,0.03798 -0.0022,0.06807 -0.4422,0.06687 -0.44,-0.0013 -0.60101,-0.03227 -0.3578,-0.06905 z m 5.02723,-0.221286 c -0.05823,-0.222679 -0.159018,-0.294962 -0.298661,-0.2142 -0.115923,0.06705 -0.03077,-0.07632 0.18923,-0.318592 0.22,-0.242271 0.521631,-0.506075 0.67029,-0.586234 0.371885,-0.20052 0.513339,0.0844 0.177235,0.356995 -0.227661,0.184642 -0.248536,0.184239 -0.135966,-0.0026 0.09196,-0.15266 0.06442,-0.197902 -0.08929,-0.146667 -0.122249,0.04075 -0.223374,0.140091 -0.224721,0.220757 -0.0013,0.08067 -0.05454,0.228482 -0.118202,0.328477 -0.0688,0.108073 0.0133,0.215557 0.202451,0.265021 0.404007,0.105649 0.416756,0.433169 0.01686,0.433169 -0.171589,0 -0.339182,-0.144717 -0.38923,-0.336099 z M 99.239922,57.32 c 0.100805,-0.30275 0.600075,-0.345792 0.600075,-0.05173 0,0.148421 -0.1368,0.251731 -0.333333,0.251731 -0.195516,0 -0.305801,-0.08269 -0.266742,-0.200001 z M 50.079999,57.29712 c 0,-0.03458 0.111739,-0.10576 0.24831,-0.158168 0.142388,-0.05464 0.206611,-0.02782 0.150557,0.06288 -0.09396,0.152034 -0.398867,0.224872 -0.398867,0.09529 z m 12.3993,-0.09825 c -0.05477,-0.08862 0.01609,-0.205516 0.157459,-0.259766 0.306343,-0.117555 0.477074,0.01198 0.329819,0.250251 -0.13286,0.214973 -0.357585,0.219362 -0.487278,0.0095 z m 15.798185,0.07031 c 0.04442,-0.04442 1.343639,-0.08123 2.887143,-0.0818 2.309792,-8e-4 2.822203,-0.04229 2.895849,-0.234204 C 84.109689,56.82493 84.264463,56.72 84.404419,56.72 c 0.151603,0 0.208316,-0.07467 0.1403,-0.184722 -0.06733,-0.108936 -0.04423,-0.141497 0.05631,-0.07936 0.09376,0.05795 0.151651,0.23107 0.128648,0.384721 -0.03509,0.234383 0.128222,0.294087 1.014251,0.370795 0.58084,0.05029 -0.879666,0.102028 -3.245568,0.114976 -2.365902,0.01294 -4.265294,-0.0128 -4.220872,-0.05723 z m 9.189181,-0.01584 C 87.26579,57.052459 87.359975,56.88 87.670554,56.88 c 0.402416,0 0.561085,0.258272 0.235439,0.383235 -0.312359,0.119863 -0.309501,0.119927 -0.439328,-0.0099 z M 59.390666,57.028006 c 0.03153,-0.0946 0.125732,-0.172 0.209332,-0.172 0.0836,0 0.1778,0.0774 0.209333,0.172 0.03153,0.0946 -0.06267,0.172 -0.209333,0.172 -0.146667,0 -0.240867,-0.0774 -0.209332,-0.172 z m 15.209257,-0.028 c 0.100805,-0.302756 0.600075,-0.345798 0.600075,-0.05174 0,0.148421 -0.1368,0.251731 -0.333333,0.251731 -0.195517,0 -0.305801,-0.08269 -0.266742,-0.2 z M 76.479998,57.04 c 0,-0.088 0.11225,-0.16 0.249443,-0.16 0.137194,0 0.204944,0.072 0.150557,0.16 -0.05439,0.088 -0.166637,0.16 -0.249443,0.16 -0.08281,0 -0.150557,-0.072 -0.150557,-0.16 z M 71.476545,56.94321 C 71.302278,56.768947 71.512868,56.56 71.862774,56.56 c 0.187962,0 0.295944,0.08393 0.257299,0.2 -0.07608,0.22848 -0.482541,0.344202 -0.643528,0.183214 z M 86.399998,56.88 c 0,-0.088 0.072,-0.16 0.16,-0.16 0.088,0 0.16,0.072 0.16,0.16 0,0.088 -0.072,0.16 -0.16,0.16 -0.088,0 -0.16,-0.072 -0.16,-0.16 z m 5.801943,-0.132806 c 0.01769,-0.234844 0.09799,-0.285116 0.322671,-0.202002 0.419467,0.155171 0.421934,0.405338 0.0046,0.464731 -0.264275,0.03761 -0.344995,-0.02719 -0.327253,-0.262729 z m -30.857317,-0.05207 c -0.05809,-0.09399 -0.0064,-0.233747 0.114875,-0.310561 0.313133,-0.198335 0.407167,-0.177885 0.407167,0.08855 0,0.291011 -0.37962,0.452451 -0.522042,0.222008 z m 3.854675,0.02375 c -0.120754,-0.195385 0.318203,-0.38874 0.553037,-0.243606 0.09221,0.05699 0.167662,0.171373 0.167662,0.254179 0,0.201783 -0.594848,0.193056 -0.720699,-0.01058 z m 28.418769,-0.0571 c -0.14392,-0.173413 -0.109592,-0.214485 0.167155,-0.2 0.191549,0.01003 0.378234,0.108227 0.414856,0.218227 0.08964,0.269237 -0.354994,0.255312 -0.582011,-0.01823 z m 3.034515,-0.12529 c 0.184955,-0.345593 0.627414,-0.398579 0.627414,-0.07514 0,0.121743 -0.176868,0.255159 -0.393043,0.296483 -0.341417,0.06527 -0.372201,0.03619 -0.234371,-0.221347 z M 40.360348,56.16 c 0.0018,-0.352 0.03454,-0.47716 0.07281,-0.278134 0.03827,0.199025 0.03682,0.487025 -0.0032,0.64 -0.04005,0.152974 -0.07136,-0.0099 -0.06958,-0.361866 z m 19.720783,0.401832 c -0.05605,-0.0907 0.0082,-0.11752 0.150557,-0.06288 0.277187,0.106367 0.327902,0.22105 0.09775,0.22105 -0.08281,0 -0.194548,-0.07118 -0.248311,-0.158168 z m 3.158867,0.04525 C 62.803429,56.522995 62.759395,56.24 63.18288,56.24 c 0.166585,0 0.344325,0.108 0.394979,0.24 0.05065,0.132 0.07636,0.230195 0.05712,0.218211 C 63.615739,56.686231 63.438,56.645221 63.24,56.607081 Z m 5.639301,-0.04821 c -0.121483,-0.196566 0.318853,-0.388339 0.555646,-0.241992 0.09365,0.05788 0.12885,0.172258 0.07822,0.254178 -0.122119,0.197592 -0.50881,0.190157 -0.633866,-0.01219 z m 3.494032,-0.07183 c 0,-0.128129 0.06117,-0.195153 0.135944,-0.148944 0.07477,0.04621 0.09452,0.151042 0.04389,0.232962 -0.129379,0.209341 -0.179833,0.18577 -0.179833,-0.08402 z m 17.066667,0.172552 c 0,-0.03322 0.126,-0.159224 0.28,-0.28 0.253769,-0.199019 0.259428,-0.19336 0.06041,0.06041 -0.209019,0.26652 -0.340409,0.351277 -0.340409,0.21959 z m 1.6,-0.09959 c 0,-0.088 0.108,-0.16 0.24,-0.16 0.132,0 0.24,0.072 0.24,0.16 0,0.088 -0.108,0.16 -0.24,0.16 -0.132,0 -0.24,-0.072 -0.24,-0.16 z M 60.721131,56.401832 c -0.05605,-0.0907 0.0082,-0.11752 0.150557,-0.06288 0.277187,0.106367 0.327902,0.22105 0.09775,0.22105 -0.08281,0 -0.194548,-0.07118 -0.248311,-0.158168 z m 5.714672,-0.02924 c 0.03436,-0.103077 0.219112,-0.198952 0.410563,-0.213056 0.272855,-0.0201 0.309874,0.02041 0.171272,0.187411 -0.218113,0.26281 -0.667493,0.282616 -0.581835,0.02565 z m 15.715579,0.01347 c -0.05913,-0.09567 -0.04477,-0.23667 0.03189,-0.313337 0.189229,-0.189229 0.605699,0.08622 0.467778,0.30939 -0.139768,0.226147 -0.361263,0.227898 -0.499672,0.004 z m 16.408615,0.01957 c 0,-0.0849 0.129088,-0.223456 0.286863,-0.307895 0.227824,-0.121928 0.291637,-0.09016 0.310057,0.154372 0.01551,0.205915 -0.0795,0.307894 -0.286864,0.307894 -0.170531,0 -0.310056,-0.06947 -0.310056,-0.154371 z M 63.873934,56.260974 c -0.267318,-0.165212 0.03218,-0.526956 0.338856,-0.409275 0.146965,0.05639 0.267208,0.159131 0.267208,0.228301 0,0.186581 -0.402515,0.306774 -0.606064,0.180974 z m 0.879853,-0.131329 c 0.04756,-0.123946 0.189219,-0.203819 0.314795,-0.177499 0.336466,0.07052 0.265485,0.365019 -0.09288,0.385353 -0.203238,0.01154 -0.278905,-0.05934 -0.221915,-0.207854 z m 13.397595,0.09641 c -0.164883,-0.266787 0.205953,-0.572721 0.426675,-0.352 0.184627,0.184627 0.06907,0.525941 -0.178059,0.525941 -0.07761,0 -0.18949,-0.07827 -0.248616,-0.173941 z M 79.039998,56.24 c -0.132,-0.08531 -0.168,-0.155099 -0.08,-0.155099 0.088,0 0.268,0.06979 0.4,0.155099 0.132,0.08531 0.168,0.155099 0.08,0.155099 -0.088,0 -0.268,-0.06979 -0.4,-0.155099 z m 8.548944,-0.01789 c -0.137922,-0.223165 0.278548,-0.498619 0.467777,-0.30939 0.153907,0.153907 0.0056,0.487278 -0.216721,0.487278 -0.07761,0 -0.190589,-0.08005 -0.251056,-0.177888 z M 89.119998,56.24 c 0,-0.088 0.072,-0.16 0.16,-0.16 0.088,0 0.16,0.072 0.16,0.16 0,0.088 -0.072,0.16 -0.16,0.16 -0.088,0 -0.16,-0.072 -0.16,-0.16 z M 62.161131,56.081832 c -0.05605,-0.0907 0.0082,-0.11752 0.150557,-0.06288 0.277187,0.106367 0.327902,0.22105 0.09775,0.22105 -0.08281,0 -0.194548,-0.07118 -0.248311,-0.158168 z m 6.119523,-0.188658 c 0.04405,-0.168443 0.156421,-0.280816 0.249715,-0.249716 0.304394,0.101464 0.289924,0.393913 -0.02354,0.475886 -0.239235,0.06256 -0.288731,0.01307 -0.22617,-0.22617 z m 1.878645,0.185696 c -0.05477,-0.08862 0.01609,-0.205516 0.157459,-0.259766 0.306342,-0.117555 0.477074,0.01198 0.329819,0.250251 -0.132861,0.214973 -0.357585,0.219362 -0.487278,0.0095 z M 73.479998,56.04 c 0.03667,-0.11 0.162667,-0.2 0.28,-0.2 0.117333,0 0.243333,0.09 0.28,0.2 0.03966,0.118974 -0.07378,0.2 -0.28,0.2 -0.206222,0 -0.319658,-0.08103 -0.28,-0.2 z m 6.792198,0.09886 c -0.204909,-0.204907 -0.116488,-0.340739 0.269885,-0.414598 0.282446,-0.05399 0.372382,-0.0067 0.344885,0.181347 -0.03973,0.271688 -0.428739,0.419283 -0.61477,0.233251 z M 62.961131,55.921832 c -0.05605,-0.0907 0.0082,-0.11752 0.150557,-0.06288 0.277187,0.106367 0.327902,0.22105 0.09775,0.22105 -0.08281,0 -0.194547,-0.07118 -0.24831,-0.158168 z m 2.744208,-0.04283 c 0.05261,-0.08513 -0.0036,-0.225516 -0.124842,-0.31198 -0.167812,-0.119642 -0.150468,-0.134482 0.07259,-0.06211 0.161196,0.0523 0.395196,0.09509 0.52,0.09509 0.382265,0 0.251726,0.277952 -0.168245,0.358235 -0.230893,0.04414 -0.355394,0.0112 -0.299501,-0.07924 z M 90.079998,55.84 c 0,-0.133333 0.142222,-0.24 0.32,-0.24 0.177777,0 0.32,0.106667 0.32,0.24 0,0.133333 -0.142223,0.24 -0.32,0.24 -0.177778,0 -0.32,-0.106667 -0.32,-0.24 z m 3.431383,0.06606 c -0.164883,-0.266787 0.205954,-0.572721 0.426676,-0.352 0.184627,0.184627 0.06907,0.525941 -0.17806,0.525941 -0.07761,0 -0.189489,-0.07827 -0.248616,-0.173941 z M 71.913419,55.749355 c -0.147255,-0.238264 0.02348,-0.367806 0.329819,-0.250251 0.141373,0.05425 0.212229,0.171144 0.157459,0.259766 -0.129693,0.209847 -0.354417,0.205458 -0.487278,-0.0095 z m 7.227107,-0.02257 c 0.109645,-0.17741 0.539472,-0.158869 0.539472,0.02327 0,0.08253 -0.139011,0.139586 -0.308915,0.126787 -0.169904,-0.0128 -0.273655,-0.08033 -0.230557,-0.150057 z m 5.019472,0.02377 c 0,-0.09319 0.072,-0.124944 0.16,-0.07056 0.088,0.05439 0.16,0.130637 0.16,0.169443 0,0.03881 -0.072,0.07056 -0.16,0.07056 -0.088,0 -0.16,-0.07625 -0.16,-0.169443 z M 85.959922,55.72 c 0.100805,-0.30275 0.600076,-0.345792 0.600076,-0.05173 0,0.148421 -0.1368,0.251731 -0.333333,0.251731 -0.195517,0 -0.305802,-0.08269 -0.266743,-0.200001 z M 67.265477,55.539854 c -0.135554,-0.353249 0.04478,-0.53359 0.289188,-0.289187 0.144304,0.144304 0.144919,0.233747 0.0026,0.376088 -0.142339,0.142339 -0.211728,0.121672 -0.291766,-0.0869 z m 9.005537,0.117829 C 76.121696,55.508365 76.302137,55.28 76.569441,55.28 c 0.126807,0 0.230557,0.108 0.230557,0.24 0,0.240997 -0.337758,0.328909 -0.528984,0.137683 z m 15.328284,-0.05881 c -0.05477,-0.08862 0.01609,-0.205516 0.15746,-0.259766 0.306342,-0.117555 0.477073,0.01198 0.329819,0.250251 -0.132861,0.214973 -0.357586,0.219362 -0.487279,0.0095 z M 74.831014,55.497683 C 74.681696,55.348365 74.862137,55.12 75.129441,55.12 c 0.126807,0 0.230557,0.108 0.230557,0.24 0,0.240997 -0.337758,0.328909 -0.528984,0.137683 z m 22.608983,0.03943 c 0,-0.03458 0.11174,-0.10576 0.248311,-0.158168 0.142387,-0.05464 0.206611,-0.02782 0.150557,0.06288 -0.09396,0.152034 -0.398868,0.224872 -0.398868,0.09529 z M 66.161131,55.281832 c -0.05605,-0.0907 0.0082,-0.11752 0.150557,-0.06288 0.277187,0.106367 0.327902,0.22105 0.09775,0.22105 -0.08281,0 -0.194547,-0.07118 -0.24831,-0.158168 z M 69.267757,55.4 c -0.09641,-0.31501 -0.09317,-0.6 0.0068,-0.6 0.199035,0 0.494064,0.418037 0.377379,0.534722 -0.102248,0.102248 -0.359496,0.145956 -0.384187,0.06528 z m 12.052241,-0.16 c 0.03667,-0.11 0.162667,-0.2 0.28,-0.2 0.117333,0 0.243333,0.09 0.28,0.2 0.03966,0.118974 -0.07378,0.2 -0.28,0.2 -0.206223,0 -0.319658,-0.08103 -0.28,-0.2 z m 11.188571,-0.0089 c 0.293982,-0.296701 0.771428,-0.36543 0.771428,-0.111056 0,0.088 -0.102112,0.16 -0.226913,0.16 -0.124803,0 -0.358803,0.04997 -0.52,0.111048 -0.274522,0.104013 -0.276074,0.09388 -0.02452,-0.16 z m 2.415107,-0.106875 c 0.01309,-0.173704 0.112942,-0.350039 0.221907,-0.391851 0.126059,-0.04837 0.163181,0.01502 0.102062,0.174291 -0.07711,0.200933 -0.02026,0.227625 0.288149,0.135302 0.374781,-0.11219 0.376355,-0.108845 0.0642,0.136448 -0.438643,0.344691 -0.704763,0.323368 -0.676321,-0.05419 z M 70.879998,55.04 c 0,-0.132 0.108,-0.24 0.24,-0.24 0.132,0 0.24,0.108 0.24,0.24 0,0.132 -0.108,0.24 -0.24,0.24 -0.132,0 -0.24,-0.108 -0.24,-0.24 z m 2.56,0.01333 c 0,-0.139328 0.114,-0.253328 0.253333,-0.253328 0.282549,0 0.233342,0.344442 -0.06333,0.443333 -0.104501,0.03483 -0.19,-0.05067 -0.19,-0.19 z m 4.64,-0.01333 c 0,-0.132 0.108,-0.24 0.24,-0.24 0.132,0 0.24,0.108 0.24,0.24 0,0.132 -0.108,0.24 -0.24,0.24 -0.132,0 -0.24,-0.108 -0.24,-0.24 z m 10.4793,0.07887 c -0.120753,-0.195385 0.318204,-0.38874 0.553037,-0.243606 0.09221,0.05699 0.167663,0.171373 0.167663,0.254179 0,0.201783 -0.594848,0.193056 -0.7207,-0.01058 z M 86.806831,54.971056 C 86.688503,54.7796 86.98949,54.589899 87.202607,54.721613 87.381545,54.832202 87.264074,55.12 87.039998,55.12 c -0.07761,0 -0.182538,-0.06703 -0.233167,-0.148944 z m 2.975527,-0.117998 c 0.218113,-0.26281 0.667492,-0.282616 0.581835,-0.02564 -0.03436,0.103077 -0.219112,0.198952 -0.410563,0.213056 -0.272855,0.0201 -0.309874,-0.02041 -0.171272,-0.187411 z M 72.216652,54.723142 c 0.05684,-0.148123 0.103346,-0.299425 0.103346,-0.336228 0,-0.0368 0.162,-0.06581 0.36,-0.06446 0.258534,0.0018 0.299778,0.04062 0.146334,0.137889 -0.117516,0.07449 -0.203713,0.199389 -0.191548,0.277549 0.01216,0.07816 -0.100192,0.167414 -0.24968,0.198339 -0.19825,0.04101 -0.243832,-0.01665 -0.168452,-0.213085 z m 3.725663,0.125842 C 75.762126,54.668794 75.832572,54.48 76.079998,54.48 c 0.132,0 0.24,0.06775 0.24,0.150557 0,0.201757 -0.249854,0.346256 -0.377683,0.218427 z m 3.586027,-0.04044 c -0.181256,-0.114674 -0.136123,-0.170534 0.207453,-0.256766 0.479435,-0.120332 0.675593,-0.02909 0.510782,0.237577 -0.128523,0.207954 -0.408056,0.215423 -0.718235,0.01919 z m -9.318344,-0.117842 c 0.115499,-0.04622 0.253499,-0.04054 0.306667,0.01262 0.05317,0.05317 -0.04133,0.09098 -0.21,0.08404 -0.186392,-0.0077 -0.224304,-0.04559 -0.09667,-0.09667 z m 6.75,-0.130702 c 0,-0.164794 0.104864,-0.243269 0.28,-0.209541 0.337254,0.06495 0.315989,0.348909 -0.03155,0.421272 -0.144957,0.03018 -0.248451,-0.05801 -0.24845,-0.211731 z m 5.795512,0.05346 c 0.08265,-0.247944 0.58544,-0.289653 0.644488,-0.05346 0.022,0.088 -0.130019,0.184059 -0.337821,0.213464 -0.259027,0.03665 -0.35545,-0.01365 -0.306667,-0.16 z M 91.039998,54.64 c 0,-0.088 0.108,-0.16 0.24,-0.16 0.132,0 0.24,0.072 0.24,0.16 0,0.088 -0.108,0.16 -0.24,0.16 -0.132,0 -0.24,-0.072 -0.24,-0.16 z m -19.71,-0.109298 c 0.115499,-0.04622 0.253499,-0.04054 0.306667,0.01262 0.05317,0.05317 -0.04133,0.09098 -0.21,0.08404 -0.186392,-0.0077 -0.224304,-0.04559 -0.09667,-0.09667 z m 3.23,-0.0507 c 0,-0.088 0.144,-0.16 0.32,-0.16 0.176,0 0.32,0.072 0.32,0.16 0,0.088 -0.144,0.16 -0.32,0.16 -0.176,0 -0.32,-0.072 -0.32,-0.16 z m 7.462317,0.04898 C 81.842126,54.348794 81.912572,54.16 82.159998,54.16 c 0.132,0 0.24,0.06775 0.24,0.150557 0,0.201757 -0.249855,0.346256 -0.377683,0.218427 z m 3.097683,-0.140715 c 0,-0.148999 0.108859,-0.230621 0.26674,-0.2 0.401404,0.07785 0.45652,0.451731 0.06659,0.451731 -0.196532,0 -0.333332,-0.10331 -0.333332,-0.251731 z m 8.159999,0.188849 c 0,-0.03458 0.11174,-0.10576 0.248311,-0.158168 0.142387,-0.05464 0.206611,-0.02782 0.150557,0.06288 -0.09396,0.152034 -0.398868,0.224872 -0.398868,0.09529 z m -5.846579,-0.267763 c -0.146428,-0.236926 -0.07135,-0.281521 0.652586,-0.387609 0.642616,-0.09417 1.218717,0.113982 0.967454,0.349555 -0.0755,0.07078 -0.169412,0.0387 -0.208699,-0.0713 -0.100238,-0.28067 -0.791321,-0.250045 -0.902622,0.04 -0.107347,0.279744 -0.357605,0.313862 -0.508719,0.06935 z m -13.54342,-0.09865 c 0.115499,-0.04622 0.253499,-0.04054 0.306667,0.01262 0.05317,0.05317 -0.04133,0.09098 -0.21,0.08404 -0.186392,-0.0077 -0.224304,-0.04559 -0.09667,-0.09667 z m 4.67,-0.0507 c 0,-0.088 0.108,-0.16 0.24,-0.16 0.132,0 0.24,0.072 0.24,0.16 0,0.088 -0.108,0.16 -0.24,0.16 -0.132,0 -0.24,-0.072 -0.24,-0.16 z m 12.64,0.09866 c 0,-0.03374 0.144099,-0.09902 0.32022,-0.145079 0.176122,-0.04606 0.279872,-0.01845 0.230557,0.06134 -0.08612,0.139345 -0.550777,0.20999 -0.550777,0.08374 z M 75.403043,54.049122 c 0.155675,-0.04057 0.371675,-0.0379 0.48,0.0059 0.108325,0.04383 -0.01905,0.07702 -0.283045,0.07376 -0.264,-0.0033 -0.35263,-0.03912 -0.196955,-0.07969 z m 5.236955,-0.03849 c 0,-0.08216 -0.198,-0.179366 -0.44,-0.216027 -0.242,-0.03666 0.028,-0.06764 0.6,-0.06884 0.572,-0.0011 0.878,0.02902 0.68,0.06715 -0.198,0.03814 -0.36,0.136331 -0.36,0.218211 0,0.08188 -0.108,0.148872 -0.24,0.148872 -0.132,0 -0.24,-0.06722 -0.24,-0.149373 z m 3.394907,-0.03535 c 0.08304,-0.249136 0.441,-0.292766 0.453544,-0.05528 0.0046,0.088 -0.111643,0.184877 -0.258427,0.21528 -0.166834,0.03456 -0.239978,-0.02542 -0.195117,-0.16 z m 5.845093,0.07876 c 0.11,-0.04438 0.29,-0.04438 0.4,0 0.11,0.04439 0.02,0.0807 -0.2,0.0807 -0.22,0 -0.31,-0.03632 -0.2,-0.0807 z m -12.56,-0.164328 c 0.154,-0.04024 0.406,-0.04024 0.56,0 0.154,0.04024 0.028,0.07317 -0.28,0.07317 -0.308,0 -0.434,-0.03293 -0.28,-0.07317 z m 7.84,-0.164307 c 0.242,-0.03666 0.638,-0.03666 0.88,0 0.242,0.03666 0.044,0.06665 -0.44,0.06665 -0.484,0 -0.682,-0.02999 -0.44,-0.06665 z m 1.53,-0.154698 c 0.115499,-0.04622 0.2535,-0.04054 0.306667,0.01262 0.05317,0.05317 -0.04133,0.09098 -0.21,0.08404 -0.186392,-0.0077 -0.224304,-0.04559 -0.09667,-0.09667 z M 69.519998,52.4 c 0.159279,-0.176 0.325597,-0.32 0.369597,-0.32 0.044,0 -0.05032,0.144 -0.209597,0.32 -0.159278,0.176 -0.325597,0.32 -0.369597,0.32 -0.044,0 0.05032,-0.144 0.209597,-0.32 z"
         id="path1695" />
      <path
         style="fill:#212927;stroke-width:0.16"
         d="m 71.378884,71.677066 c -0.271844,-0.309615 -0.540184,-0.7459 -0.59631,-0.969522 -0.163843,-0.652805 0.028,-1.769627 0.450693,-2.623736 l 0.392147,-0.792386 -0.732707,-0.09461 c -2.025517,-0.261554 -5.21639,-0.749642 -5.320195,-0.813795 -0.06473,-0.04 -1.075021,0.407451 -2.245099,0.994344 C 59.736738,69.178382 56.884578,70.32 55.975662,70.32 c -0.85082,0 -1.186884,-1.07204 -1.363094,-4.348256 l -0.100483,-1.868254 0.623957,-0.112261 c 1.687099,-0.303539 0.796388,-0.641642 -1.622136,-0.615744 -2.079835,0.02227 -3.46368,0.319904 -5.198881,1.118152 -1.787334,0.822233 -3.502438,1.291813 -4.955026,1.35664 -3.096418,0.138192 -3.446,-0.04927 -3.322065,-1.781416 0.05812,-0.812373 0.226703,-1.40401 0.660063,-2.316544 0.666859,-1.404215 0.710327,-1.942923 0.238222,-2.952317 -0.620358,-1.326368 -0.597101,-4.659118 0.03694,-5.293157 0.879772,-0.879773 3.76845,0.111752 7.543752,2.589357 1.715205,1.125632 2.87462,1.433782 5.274676,1.401909 1.550506,-0.02059 1.588518,-0.0287 0.639987,-0.136427 -1.302121,-0.147893 -1.542803,-0.372928 -0.94902,-0.887332 0.97758,-0.846896 2.732478,-0.906617 4.417691,-0.150339 l 0.955222,0.428679 2.932267,-0.645109 c 1.612747,-0.35481 3.796267,-0.795847 4.852267,-0.980082 2.957091,-0.51591 2.761931,-0.437221 2.133944,-0.860421 -0.293669,-0.197904 -0.533944,-0.44052 -0.533944,-0.539147 0,-0.09863 0.288,-0.406384 0.64,-0.683904 0.772307,-0.608894 2.092674,-2.100843 3.720536,-4.204027 0.664091,-0.858 1.307512,-1.56 1.429826,-1.56 1.067465,0 4.47782,2.905397 6.495604,5.533826 l 0.505952,0.659067 3.68404,0.09732 c 2.026224,0.05353 4.332042,0.17341 5.124042,0.266406 5.389193,0.632802 9.786289,1.827336 13.310019,3.615856 1.57758,0.800727 3.72998,2.23966 3.72998,2.493591 0,0.06839 -0.21424,0.282745 -0.47609,0.476337 l -0.47609,0.351988 0.35609,0.177528 c 0.19585,0.09764 0.35609,0.319403 0.35609,0.492803 0,0.251225 -0.40631,0.489197 -2,1.171385 -2.51182,1.075194 -6.486001,2.397349 -9.219353,3.067148 -2.078714,0.50938 -2.102059,0.520153 -2.374362,1.09559 -0.497784,1.051936 -2.008272,3.200776 -2.492091,3.545286 C 89.856486,70.820944 89.425986,70.68784 88.98835,69.84 88.677266,69.237331 88.628138,68.944254 88.686876,68.041542 l 0.07017,-1.078456 -0.578526,0.08042 c -2.17233,0.301986 -3.682249,0.420746 -6.447446,0.507111 l -3.14892,0.09835 -0.492695,0.760357 C 77.501471,69.316755 76.581369,70.16 76.179228,70.16 c -0.159299,0 -0.417651,-0.141458 -0.574116,-0.31435 -0.278858,-0.308135 -0.296407,-0.295901 -0.887536,0.618691 -1.190613,1.84211 -2.40029,2.281505 -3.338692,1.212725 z M 73.542774,71.56 c 0.326651,-0.286 0.861816,-0.942984 1.189253,-1.459966 0.550973,-0.869914 0.608469,-0.915437 0.771486,-0.610836 0.243485,0.454957 0.731455,0.573893 1.171527,0.285546 0.410448,-0.268936 1.564958,-1.720163 1.564958,-1.967163 0,-0.093 -1.109083,-0.201155 -2.707042,-0.263976 -1.488872,-0.05853 -2.927777,-0.150568 -3.197564,-0.204527 -0.47298,-0.09459 -0.507778,-0.06164 -0.972834,0.921408 -0.732181,1.547701 -0.598392,2.904032 0.352126,3.569802 0.564581,0.395446 1.169959,0.305941 1.82809,-0.270288 z M 90.57549,70.042411 c 0.632036,-0.531822 1.788898,-2.288867 2.536519,-3.852465 0.519328,-1.086143 0.535923,-1.170583 0.280275,-1.426231 -0.334459,-0.334459 -1.227533,-0.32083 -2.460307,0.03755 -1.390581,0.404253 -1.829053,1.033932 -2.077954,2.9841 -0.122781,0.962 0.03128,1.756526 0.441792,2.278406 0.414096,0.526438 0.633,0.522784 1.279675,-0.02136 z m -32.015492,-0.66756 c 1.724959,-0.691627 6.431698,-2.916488 6.347664,-3.000521 -0.03042,-0.03042 -1.201086,-0.339439 -2.601484,-0.686714 -2.292407,-0.568478 -3.825151,-1.039109 -5.290184,-1.624358 -0.406064,-0.162213 -0.682154,-0.161471 -1.420757,0.0038 l -0.916752,0.20516 0.111976,1.86388 c 0.126426,2.104414 0.314254,3.13066 0.673869,3.681856 0.216548,0.331912 0.32759,0.365078 0.911136,0.27215 0.365492,-0.05821 1.348532,-0.38008 2.184532,-0.715277 z m 27.52,-2.259907 c 2.727168,-0.294584 2.741633,-0.299843 3.005945,-1.092782 0.281728,-0.845183 0.817424,-1.199948 2.332143,-1.544463 1.760894,-0.400507 2.540763,-0.07068 2.22966,0.942989 l -0.162025,0.527926 1.297137,-0.300761 c 0.713427,-0.165419 1.794453,-0.448277 2.402279,-0.62857 l 1.10514,-0.327808 -0.909224,-0.369536 c -0.500073,-0.203245 -1.001192,-0.445862 -1.113596,-0.53915 -0.140624,-0.116707 -0.650898,-0.122648 -1.635916,-0.01904 -0.787348,0.08281 -3.91607,0.151848 -6.952711,0.153411 -5.136,0.0026 -5.722002,-0.02654 -8.4,-0.41832 -3.928426,-0.574714 -7.739725,-0.598706 -11.278832,-0.071 -5.354168,0.798349 -10.545369,0.04849 -17.039999,-2.461389 -0.968,-0.374088 -2.21,-0.822147 -2.76,-0.995688 l -1,-0.315526 v 0.553817 c 0,0.998117 0.363573,1.82302 1.194051,2.709149 l 0.805949,0.859957 1.2,-0.272478 c 0.757126,-0.171917 1.938122,-0.27729 3.2,-0.285514 1.850135,-0.01206 2.077929,0.02046 3.039999,0.434013 4.087765,1.757136 10.267672,3.069928 17.04,3.619792 2.235646,0.181517 10.191977,0.07948 12.4,-0.159029 z m -40.623087,-1.73881 c 1.219377,-0.311864 3.503088,-1.254641 3.503088,-1.446169 0,-0.05896 -0.260817,-0.355315 -0.579594,-0.658578 -1.612256,-1.533793 -1.757454,-4.073053 -0.340849,-5.96084 0.210714,-0.280801 0.43384,-0.596625 0.495835,-0.70183 0.150917,-0.256106 -1.418947,-1.31084 -3.316461,-2.22821 -1.630695,-0.788374 -3.435642,-1.212944 -3.907264,-0.919089 -0.437271,0.272452 -0.653237,1.157041 -0.658839,2.698582 -0.0043,1.173981 0.06782,1.617346 0.390229,2.4 0.48195,1.169955 0.506407,2.073261 0.07364,2.72 -0.437498,0.653816 -0.956701,2.371061 -0.956701,3.164254 0,1.103788 0.247655,1.235746 2.319204,1.235746 1.234203,0 2.158335,-0.0943 2.977708,-0.303866 z M 100.72,63.944643 c 2.79572,-0.975229 5.84,-2.281016 5.84,-2.504958 0,-0.228991 -0.34725,-0.399685 -0.81309,-0.399685 -0.1688,0 -0.30691,-0.072 -0.30691,-0.16 0,-0.088 0.058,-0.16 0.12891,-0.16 0.0709,0 0.36601,-0.17492 0.65579,-0.388712 l 0.52687,-0.38871 -1.00092,-0.736836 c -3.01956,-2.222873 -8.488624,-4.147115 -14.070652,-4.950638 -8.968239,-1.29096 -20.798994,-0.307603 -32.88,2.732941 -3.699743,0.93115 -7.08399,0.924653 -9.142038,-0.01755 l -0.855899,-0.391843 -0.382756,0.510675 c -0.479855,0.640227 -1.059306,1.783447 -1.059306,2.089939 0,0.619274 5.316526,0.474381 10.877628,-0.296451 4.547032,-0.630269 9.208674,-1.052557 15.042371,-1.362654 4.03595,-0.214536 14.486921,-0.210055 18.14342,0.0078 l 2.850679,0.169827 0.541937,-0.633133 C 95.359829,56.429328 96.705658,55.44 97.026093,55.44 c 0.09418,0 -0.260164,0.281907 -0.78743,0.626461 -1.472402,0.962171 -2.158666,2.124166 -2.158666,3.655093 0,1.1414 0.324151,1.937198 1.162874,2.854896 0.795902,0.870844 2.693114,1.984276 3.378624,1.982841 0.186176,-3.2e-4 1.130502,-0.276982 2.098505,-0.614648 z m 0.1326,-3.295968 c -0.97094,-0.426019 -1.142891,-1.415968 -0.36033,-2.074453 0.55761,-0.469195 1.21631,-0.531769 1.89628,-0.18014 0.50077,0.258955 0.65145,0.534464 0.65145,1.191113 0,0.890816 -1.22431,1.486058 -2.1874,1.06348 z M 102.56,60.24 c 0.4604,-0.460403 0.41421,-1.182666 -0.10158,-1.588387 -0.49619,-0.390301 -1.02075,-0.421365 -1.64698,-0.09753 -0.7375,0.381377 -0.860291,1.042985 -0.30355,1.635606 0.4607,0.490397 1.58447,0.517949 2.05211,0.05031 z m -1.32,-0.332816 C 100.85965,59.685653 100.88552,59.28 101.28,59.28 c 0.17777,0 0.32,-0.106667 0.32,-0.24 0,-0.28931 0.18668,-0.309314 0.448,-0.048 0.28829,0.288298 0.23131,0.735702 -0.11748,0.922371 -0.36833,0.197122 -0.33923,0.197424 -0.69052,-0.0072 z m -5.916207,3.59384 0.363793,-0.150894 -0.523793,-0.495317 c -0.50116,-0.473912 -0.59985,-0.49984 -2.283796,-0.600015 -0.967999,-0.05758 -2.767999,-0.264438 -3.999999,-0.459676 -2.027485,-0.3213 -2.816828,-0.354876 -8.32,-0.353903 -5.993461,0.0011 -9.162622,0.163115 -12.707851,0.649815 -3.751365,0.514996 -9.317824,0.08753 -15.531457,-1.192716 -0.83562,-0.172168 -1.540947,-0.291395 -1.567394,-0.264948 -0.09047,0.09047 3.724607,1.387529 5.239262,1.78126 4.445797,1.155677 7.902605,1.415263 11.60744,0.871648 4.539294,-0.666054 7.176725,-0.620907 13.04,0.223216 1.768481,0.254605 14.066649,0.247511 14.683795,-0.0085 z M 68.193763,61.84647 c 4.366536,-0.494908 7.521344,-0.660056 12.685467,-0.664054 3.559379,-0.0028 5.235184,0.06125 6.480768,0.247542 1.951339,0.291842 5.92715,0.725837 6.672177,0.728328 l 0.512178,0.0017 -0.308664,-0.68 c -0.169765,-0.374 -0.310245,-0.868086 -0.312178,-1.097971 -0.0042,-0.495902 -0.0062,-0.496257 -4.925176,-0.856549 C 82.00698,59.013395 74.420852,59.070154 68.120856,59.681682 61.995187,60.27629 59.315,60.44109 55.465334,60.45985 c -4.734271,0.02307 -4.711494,0.05258 0.694664,0.900006 5.570802,0.873235 7.820136,0.964192 12.033765,0.486614 z m 19.966235,-1.615913 c 0,-0.09319 0.072,-0.124944 0.16,-0.07056 0.088,0.05439 0.16,0.130637 0.16,0.169443 0,0.03881 -0.072,0.07056 -0.16,0.07056 -0.088,0 -0.16,-0.07625 -0.16,-0.169443 z m -29.6,0.0056 c 1.716,-0.08842 5.064,-0.338651 7.44,-0.556075 7.919275,-0.724684 13.429737,-0.880378 19.76,-0.558309 3.183993,0.161993 6.500673,0.413227 7.538025,0.570993 l 0.578024,0.08791 0.0843,-0.690352 c 0.04636,-0.379693 0.132631,-0.807683 0.191703,-0.951091 0.154224,-0.374402 -0.838951,-0.435791 -9.032051,-0.558282 -10.209323,-0.152635 -18.033785,0.27604 -26.72,1.463893 -3.870084,0.52924 -6.981756,0.76663 -8.919999,0.680509 -0.902,-0.04008 -1.64,-0.05379 -1.64,-0.03047 0,0.107965 1.967938,0.432912 3.272003,0.540275 2.169792,0.178637 3.995579,0.178882 7.447996,9.6e-4 z m -0.562865,-3.252802 0.637134,-0.192025 -0.797134,-0.341285 c -1.560514,-0.668119 -3.270938,-0.624543 -4.236688,0.107934 l -0.399555,0.303043 0.399555,0.159335 c 0.555723,0.221611 3.624304,0.195787 4.396688,-0.037 z m 14.162865,-2.73067 c 2.355131,-0.288931 4.72636,-0.512709 6.998673,-0.66048 l 1.638672,-0.106565 -0.349236,-0.502837 c -0.19208,-0.276558 -1.253484,-1.410392 -2.358674,-2.51963 -1.8704,-1.87725 -3.402702,-3.029234 -4.009435,-3.014291 -0.132,0.0032 -0.78,0.735494 -1.44,1.627209 -0.66,0.891714 -1.863365,2.303519 -2.674142,3.137344 -0.810778,0.833826 -1.432922,1.582741 -1.382543,1.664258 0.17462,0.282541 1.096773,0.758454 1.336149,0.689573 0.132294,-0.03807 1.140536,-0.179631 2.240536,-0.314581 z"
         id="path1693" />
    </g>
  </g>
</svg>
