<?xml version="1.0" encoding="UTF-8" standalone="no"?><!--Created with Inkscape (http://www.inkscape.org/)--><svg version="1.1" width="195.8" height="65" sodipodi:docname="trout_cartoon3.svg" inkscape:version="1.1.2 (0a00cf5339, 2022-02-04)" xmlns:inkscape="http://www.inkscape.org/namespaces/inkscape" xmlns:sodipodi="http://sodipodi.sourceforge.net/DTD/sodipodi-0.dtd" xmlns="http://www.w3.org/2000/svg" xmlns:svg="http://www.w3.org/2000/svg"><sodipodi:namedview pagecolor="#ffffff" bordercolor="#666666" borderopacity="1" inkscape:pageshadow="2" inkscape:pageopacity="0" inkscape:pagecheckerboard="0" showgrid="false" inkscape:zoom="3.3" inkscape:cx="27.2" inkscape:cy="34.4" inkscape:window-width="1920" inkscape:window-height="938" inkscape:window-x="1536" inkscape:window-y="27" inkscape:window-maximized="1" inkscape:current-layer="g2256"/><g inkscape:groupmode="layer" inkscape:label="Image"><g transform="translate(0 1)"><path style="fill:#ded9a7;stroke-width:0.32" d="m88 59-1-2 2 2 1 2-2-2zm-2-3-1-1 1 1 1 1-1-1zm-20-1zm13 0zm62-1-1-2 2 2 1 1-2-1zm-83 1h2-2zm-4-1 1 1-1-1zm10 1zm-14-1h1c1 0 0 0 0 0h-1zm9 0h2-2zm27 0h3-3zm13 0h1-1zm-52 0h1c1 0 0 0 0 0h-1zm7 0h1c1 0 1 0 0 0h-1zm40 0h1c1 0 0 0 0 0h-1zm8 0h1-1zm-57 0h1-1s-1 0 0 0zm6-1h1l-1 1v-1zm47 1h1c1 0 0 0 0 0h-1zm7 0h1c1 0 0 0 0 0h-1zm-57-1h1-1s-1 0 0 0zm53 0h2-2zm7 0h1-1zm-68 0h1-1Zm5 0h2-2zm60 0h1-1c-1 0-1 0 0 0zm6 0h1-1zm-72 0c0-1 0 0 0 0-1 0-1 0 0 0Zm4 0c0-1 0 0 0 0 1 0 0 0 0 0Zm57 0h1-1Zm3 0c0-1 0 0 0 0-1 0-1 0 0 0zm5 0h1-1zm5 0h1-1zm-76-1s-1 0 0 0Zm3 0h1c1 0 1 0 0 0h-1zm70 0h1c1 0 0 0 0 0h-1zm5 0h1-1zm-80 0h1-1Zm4 0c1 0 0 0 0 0s-1 0 0 0zm3 0h1-1zm62 0h1-1s-1 0 0 0zm9 0h1-1zm5 0h1-1zm-84 0c-1 0-1 0 0 0Zm3 0h1-1s-1 0 0 0zm8 0s-1 0 0 0Zm3 0c0-1 1-1 0 0h-1 1zm67 0h1-1zm5 0c-1 0-1 0 0 0zm-85-1h1-1Zm5 0h1v1l-1-1zm77 0h1-1zm-84 0h2-2zm86 0h1-1zm-88 0v-1l1 1c1 0 1 0 0 0h-1zm8 0v-1 1s-1 0 0 0zm82 0h1c1 0 0 0 0 0h-1zm2-1h1v1l-1-1zm-94 0-1-1 2 1h-1zm9 0v-2l-1-1v-2c-1 0-1 0 0 0h2v-1l-7-1 2-5h66c33 1 54 1 70-1h1v6h-2l-1-1s1 0 0 0h1v-1 1h1v1l1-2v-1h-3a108 108 0 0 0-16 2 272 272 0 0 1-16 2 339 339 0 0 1-83 3l1 1h-1c0 1 0 1 0 0h-1v1l-2 1 2-2 2-2-3-1c-3-1-12 0-14 1l1 1v3zm87 0h1-1zm4 0h1-1zm-6 0h1-1zm3 0v-1l1 1c1 0 1 0 0 0h-1zM26 49h1-1zm6 0h1s1 0 0 0h-1Zm89 0h1c1 0 1 0 0 0l-1 1v-1zm8 0v1-1zm1 0h1-1zm8 0c-1-1-1-1 0 0zm18 0h1-1zM25 49c-1 0-1 0 0 0zm107 0h1-1zM23 48c-1 0-3 0-2-1l1 1h1l1 1-1-1zm13 0h1l-1 1v-1Zm21 0h1l-1 1v-1zm76 0h1v1l-1-1zm2 0 1-1v-1l1 1h-1l1 1h1-3zm4-1h1-1zM29 46c-1 0-1 0 0 0v1-1zm112 1c-1 0 0 0 0 0h1-1zM16 46v-1l1 1h-1zm143-1c-1 0-1-1 0 0l1 1-1-1zM30 46l-1-1h-1 1v-2l1 1h1l-2-1v-1h-4l-3 1c-1 0-1 0 0 0v-1l-1-1h-1a122 122 0 0 1-12-4h1c1 1 13 2 15 1v2l-1 2h1l1-2v-2h4l4 1-1 3-1 2c1-1 1-1 0 0 0 1 0 2 1 1v-1 2h-2zm0-1-1-1v1h1zm115 1 2-1 2-1c-1 0-1 0 0 0h4a79 79 0 0 1-8 2zM25 45h-1 3-2zm-12 0-1-1 1 1c1 0 1 0 0 0zm2 0h1-1zm11-1c-1 0-1 0 0 0l1 1-1-1zm120 0h1v1l-1-1zM23 44h1-1Zm5 0zm-17 0h1-1zm147-1v1-1zM24 43l1-1v1h-1zm131 0c1 0 0 1 0 0zm15 0h1-1zM9 43l-1-1 1 1h1-1zm14 0zm133 0h1-1zm3 0h1-1zm9 0h1-1zm-10 0s-1 0 0 0zm4 0c1 0 0 0 0 0-1 0-1 0 0 0zm3 0h1c1 0 0 0 0 0h-1zM6 42v-1c0 1 0 1 0 0l-1-1 1 1v1h1-1Zm153 0h1l-1 1v-1zM7 42l1-1v1c-1 0-1 0 0 0H7zm150 0h1-1s-1 0 0 0zm3 0h3-3zm6 0h1-1s-1 0 0 0zm1-1h1l-1 1v-1zM4 41v-1H3h1l1 1H4zm-2-1v-1l3-1h2-4v1l-1 1c1 0 1 0 0 0zm2 0v-1l1 1H4zm-3-1-1-1h1v1-1 1zm2-2c1 0 0 0 0 0Zm3 0v-1l-2-1a136 136 0 0 0 2 2c-1 0-1 0 0 0Zm184-4h1-1zm-29-2 1-1v1h-1zm29-2v-1 2-1zm-36 1v-1l1 1h-1zm-27-1zm40-4 1-1h1l-1 1h-1zm2-1h1-1zm-73-1h1-1zm53 0h1-1zm4 0h1-1zm-42-2h1-1zm-50-1 1-1-1 1zm116-1v1-1zm-86-3 1-1-1 1Zm-34-1h1-1c0 1 0 1 0 0zm-1 0 1-1v1h-1Zm133-3h1-1c-1 1-1 1 0 0zM66 11c1 0 0 0 0 0-1 0-1 0 0 0zm5-1h1-1c-1 0-1 0 0 0zm3-2 1-1-1 1Zm5-6 2-2-2 2-1 1z"/><path style="fill:#c1b676;stroke-width:0.32" d="M98 64v1-1Zm0-6v1-1zm-8-1v-1 1h-1l1-1 2 1h-2zm8 0s0-1 0 0zm-10 0-1-1h-1v-1H74a176 176 0 0 1-62-10L1 39c-1-1-1-2 1-1v1l5 3c16 8 35 12 62 13a288 288 0 0 0 83-11l15-2a64 64 0 0 0 5 1h-12c-2 0-3 0-2 1 0 1 0 1 0 0h-2v1l-3 1 1-1h-2v1c1 1 0 1 0 0h-2v1l-1-1-2 1h-3l1 1h1-6l-1 1h-7a289 289 0 0 1-36 7c1 0 0 0 0 0h-1c0-1 0-1 0 0l-1 1c1 0 1 0 0 0h-2l-1-1h1v-1h-5l-1 1h3v1h-1zm5-1c1 0 0 0 0 0h-1 1zm1-1h-1l1 1v-1zm61-10h-1c0-1 0 0 0 0h1zm-9 11v1-1zm4-2 1-1-1 1-1 1 1-1zm2-2 1-1 1-1-1 1-1 1ZM46 52h1-1zm-5-1v-1l1 1h-1zm-1-1h1l-1 1v-1Zm9 0h1c0-1 0-1 0 0h-1Zm146 0c0 1 0 1 0 0zM39 50c-1 0-1 0 0 0Zm101 0v-1h1v1h-1zm-99 0-1-1c-1 1-1 1 0 0h2l-1 1zm97 0 1-1v1h-1zm4-1v-1l1 1c1 0 1 0 0 0h-1zM40 48h-2 4-2Zm-3-1v-1h4-3l2 1h1c1 0 0 0 0 0h-4zm111 0h1-1zm-95-1-1-1h1v2-1zm-14 0c-1 0-1 0 0 0Zm-10 0h1-1zm-4-1h1-1zm2 0v-1l1 1h-1zm1 0 1-1-1 1Zm16 0h2-2zm6 0h1c-1 0-1 0 0 0Zm125-1zM31 44v-1 1zm143 0h-1v-1s2 0 1 1c-1 0-1 0 0 0zm0-1-1-1h-2 2l2 1h1-2zM23 43h2-2Zm3 0v-1l1 1h-1zm1-1h1v1l-1-1zm1 0h1-1zm147 0v-1l1 1h-1zm-1 0-2-1-1-2v-2h-1c-16 2-37 2-70 1a454 454 0 0 0-67 1l1-6v-1l3-1 8-2h2l5-1h1l1-1h5l14-1h12v1h3a261 261 0 0 0 20 2 738 738 0 0 0 66 4h-2 2l3 1-3 1h-2l-1 1 1 1 3-1v1h2-5l2 1 3 1-1 1v-1h1l-5-1 1 1h1-2l2 1h1c1 1 0 1-1 1h-2 3l-1 1zm-50-7c1-1 0-1-1-1l1 2v-1zm14 0v1-1zm7 0-1-1-1 1h2zm6 0h-1l1 1v-1zm8 0h-2 2zm-48-1h-1v1l1-1zm-62 0v-1l-1 1v1l1-1Zm14 0h-2 2zm41 0h-1l1 1v-1zm-49 0h-1 1zm35 0-1-1c-1 1 0 2 1 2v-1zm-6-1h-2l1 1 1-1zm-25-4-1 1 1-1zm7 0h-1 1zm27 0v-1l-1 1h1zm-14-1v-1l-1 1h1zM23 41l1-1v1l-1 1v-1zm6 0h2-2zm4-2-4-1-4 1 1-2c0-2 1-3 2-3l5-1v6Zm-15-1h-4l8-2 3-1c1 1 0 3-1 3h-6ZM7 37h1l-1-1-2-1 2 1c2 1 2 2 0 2H5Zm-5 0c1 0 0 0 0 0Zm2 0Zm173-1-3-1h3v1zM3 34h1-1zm-1-1-1-1h1l1 1H2zm173 0 2-1v1h-2zm-5-1-1-4-1-1h1l1 1 4-2-1 1-1 1h-1c-2 0-2 0-1 3l1 1v-3h-1 4l1-1v1l-2 1-2 1c0 2-1 2-1 1zm4 0 3-1-4 1h1zm-14-1 1-1 1 1h-2zm2-1-1 1h1v-1zm10 1 2-1h3-1l-1 1h-3zm-19-1 1-1 1 1h-2zm-26 0v-1h2l-2 1zm0-1zm19 0 1-1 1 1-1 1-1-1zm-33-1 1-1 1 1h-2zm59 0h1v1l-1-1zm4 1-1-1c-1 0-1 0 0 0h1v1c-1 0-1 0 0 0zm-2-1v-1 1s-1 0 0 0zm-4-1v-1l1 1h-1zm20-1v1-1zm-23 0v-1h2v-1l2-1h1v1h1l-1 1h-2l1-1h1-2l-1 1c1 0 1 0 0 0v1l-1-1v1h-1zm4 0 2-1c1 0 1 0 0 0v1h-2zm-75-3-1-1h1l1 1-1 1v-1zm1 0h-1 1zm28 0h-1l1-1 1 1h-1zm-78-1h2l-1 1-1-1zm104 0h1l-1 1v-1zm39 0h1v1l-1-1zM79 22l1-1h1l-2 1zm32-1v-1c1 0 2 0 1 1h-1zm1 0h-1 1zm-76-1 1-1v1h-1zm155 0v-1 1zM61 20v-1h1v1h-1Zm1-1v1-1zm-19-1v-1 2-1zm32 0h1l-1 1v-1zm23-1 1-1v2l-1-1zm-7-1h1-1 2-2Zm-34 0v-2 2h1-1zm1-1h-1 1zm129-1v-1h1l-1 1zm-87-1Zm-2 0 1-1v1h-1zm-3-1h1c1 0 0 0 0 0h-1zm-3 0h1-1zm3-1v1-1Zm-10 0h1c1 0 1 0 0 0h-1zm7 0h-1 2c1 0 1 0 0 0h-1zm-16-1h1l-1 1v-1zm28-1c-1 0-1 0 0 0v1-1zM84 9l1-1v1h-1zm2 0h1-1Zm-4-9h1-1z"/><path style="fill:#548a78;stroke-width:0.32" d="M27 42v1-1Zm1 0h1v-1 1h-1zm-4-2v1-1zm0-1h1-1zm9-1c0-1 0 0 0 0 1 0 0 1 0 0zM9 37H8h2l7-3a37 37 0 0 1 7-6l12-6a149 149 0 0 1 81 0 344 344 0 0 1 39 9h13l1 1c1 2 1 3-1 3l-2-1h-2a198 198 0 0 1-43-3 17582 17582 0 0 1-48-5 220 220 0 0 0-29 3c1 0 1 0 0 0l-3 1h-2l-1-1v1l-2 1-3 1v2-2l-1-4v1a96 96 0 0 0 0 4l-5 1s0 1 0 0l-2 1v-2l-1-2v4l-3 1-5 1H9Zm119-7 1-1h-2c-1 1 0 2 1 1zm7 0h-1 1zM31 29l-1 1h1v-1Zm-6 1v-1h-1l1 1zm97-2h-2v1c1 1 2 0 2-1zm-7 0-1-1-1 1h2zm-80-2v-1h-1l1 1zm25-1-1-1v1h1zm7 0-1-2v2h1zm-25-1v-1l-1 1h1Zm32-1h-1v1l1-1zm17 0-1-1v1h1zm6 0-1-1h-1l1 2 1-1Zm7 0h-2l1 1 1-1Zm-55-1h-2l1 1 1-1zm32-1h-1v1l1-1zm-26 0-1-1v1h1zm31-1h-1 1zm-24-1h-1l1 1v-1Zm7 0-1-1v1h1zm7-1h-1v1l1-1zM7 36l-1-1 1 1h1-1Zm26 0v-1 1zm91-1v-1 2-1zm20 1v-1l1 1h-1zm6-1 1 1-1-1zM5 34l-1-1 2 2-1-1Zm-4-2c0-1 0-1 0 0h1-1zm160-2v-1l1 1h-1s-1 0 0 0zM58 29h1-1zm101-1h1-1zm-35-5h1-1zm-82-4v-2l1 1v1h-1zm2-1v1-1zm17-7s0 1 0 0c0 0-1 0 0 0Zm6 0h1-1zm14 0h1-1Zm-8-1h2-2z"/><path style="fill:#de4c17;stroke-width:0.32" d="m97 64-4-1-6-6v-2h5v1h-1l1 1h2c1 0 1 0 0 0l1-1c0-1 0-1 0 0h1s1 0 0 0l-1-1h2v1-1h1v2c0 1 0 3 2 5l1 2h-4zm-5-7-2-1-1 1h1v-1 1h2zm-3 0v-1h-2l1 1h1zm3-1h1s1 0 0 0h-1zm51-1-4-6h-1l3-1c0 1 0 1 0 0h5-1l-1-1h3l2-1 1 1v-1h2c0 1 1 1 0 0v-1h2l-1 1 3-1v-1h1l3 3-3 2c-3 1-4 2-5 4-3 3-4 3-6 3l-3-1zm-3-5h1v-1h-1v1zm3-1c1 0 1 0 0 0l-1-1v1h1zm6-2h-1 1zm-56 8h1v1l-1-1Zm-50-4h-1l-1-1h-2v-1l1-1h2-4l3-1s1 0 0 0h-1l-2-1h3c-1-1 1-1 6-1l6 1-3 4c-2 1-3 2-4 1h-3Zm-1-2h-2c-1 1-1 1 0 0l1 1 1-1zm-3-3c-1 0-1 0 0 0zm153 4a192 192 0 0 0-20-7v-1l1 1h3l-2-1c-3 0-4-1-2-1l2 1 1-1h-3 2c1 0 2 0 1-1h-1l-2-1h2-1l-1-1 5 1h-1v1l1-1-3-1-2-1h5-2v-1l-3 1-1-1 1-1h2l3-1-3-1h-2 2l3 1h-3c-3 0-4 0-3-3l2-1 2-1v-1l-1 1h-4 1v2h-1c0-1 0-1 0 0v-2l1-1h1l1-1 1-1a12 12 0 0 0-4 2l-1-1h-1v-1h-1l1-1c1 0 1 0 0 0h1s1 0 0 0l1-1h2-1l-1 1h2l1-1h-1v-2a681 681 0 0 1 18-10c2 0 2 1 1 5-2 12-1 17 3 30l1 3h-3zm-16-8-1-1v1h1zm1-6v-1h-3l3 1zm0-3v-1l-2 1h2zm-2-1 2-1-3 1h1zm0-1 1-1h1-1a64 64 0 0 1-4 1h3zm-1-3h-2 2zm2 1-1-1c-1 0-1 0 0 0l1 1c-1 0-1 0 0 0zm-2-1v-1 1c-1 0 0 0 0 0zm-3-1-1-1v1h1zm2-1v-1c1 0 1 0 0 0l-2 1h2zm-4 0v-1 1s1 0 0 0zm-15 19s0-1 0 0h1-1zM2 37h6l-6 1v-1Zm136-1v-1 1zm20 0v-1h1l-1 1zm-48-1v-1h1l-1 1zm-62 0v-1l1-1v1l-1 1zm13-1h1v1l-1-1Zm42 0h1-1zm-49 0h1-1Zm35 0v-1l1 1h-1zm-77 0v-1h-1v-3c1-1 3 0 3 2 0 0 0 1 0 0v1h-1v1h-1zm1-1v-1c1-2-1-3-2-2v3h2zm121-3 1-1v1h-1zm-95 0 1-1v1h-1zm26-1v1-1Zm27 0 1-1v1h-1zm-40-1v-1l1 1h-1zm26 0 1-1v1h-1zm62 0v-1h1l-1 1zm-55-1 1-1v2l-1-1zm67-1a143 143 0 0 0-7-2l1-1h5l5 1c1 1 1 2-1 2h-3zM34 26l1-1-1 1zm68-3 1-1v2l-1-1zm16-1v-1h1l-1 1zm-33-2h1-1zm-14-6 1-1v1h-1zm30 0-2-1h-2l-1-1h-6l-2-1h-1l-12-1h-2l2-3 4-5 2-2h2c4 1 12 4 18 8 3 2 4 2 3 4s-1 2-3 2zm-6-3v1-1zm-2 0h-2 2c1 0 1 0 0 0zm-8-2V8l-1 1h1zm2 0h-1 1z"/><path style="fill:#3c5556;stroke-width:0.32" d="M32 41c1-3 2-6 1-10v-3l1 7-2 7v-1zm-8-1v-1 1Zm1-2v-8l1 2-1 6c0 1 0 1 0 0zM5 34l-4-2 4-3c19-9 37-15 55-18h28a400 400 0 0 1 59 14l13 3 4-1 3-2 1 2 2 4-6 1-2-1v-1h-2l1 1h-10a68 68 0 0 1-9-2l-1-1c1-1 0-2-1-1v1h-1a285 285 0 0 0-27-8h-4a168 168 0 0 0-72 2 44 44 0 0 0-12 6l-7 6-6 3H9Zm8 0c2-1 2-3 0-4h-1c-2 0-2 3-1 4h2zm-2-1c-1-1 0-3 1-3s2 2 1 3h-2zm1-2v-1l-1 1h1zm143-1h-2l1 1 1-1Zm-7-1-1-1-1 1 1 1 1-1zm-22-6-1-1v2l1-1zm-7-2h-1v1l1-1zm-82-1-1-1c-1 1 0 2 1 1Zm7-1c1-1 0-2-1-2l-1 1 2 1zm56-2-1-1-1 1 1 1 1-1zm-7-1-1-1-1 1 1 1 1-1zm-35-1h-2l1 1 1-1Zm14-2h-1l1 1v-1Zm51 23v-2l1 1-1 1zm20-1 1-1v1h-1zm7 0h1v1l-1-1zm-68-1v-1h2l-2 1zm-52-4 1-1v1h-1zm28 0v-1l1 1h-1zm-34-1h1v1l-1-1zm21 0v-1h2c0 1-1 2-2 1zm75 0v-1h2c0 1-1 2-2 1zm-13-1v-1c1-1 2 0 1 1h-1zm-48-3v-1l1 1h-1zm7 0v-2l1 2h-1zm-25-1 1-1-1 1zm32-1h1l-1 1v-1Zm17 0v-1l1 1h-1zm-36-2v-1l1 1h-1zm14-2 1-1-1 1z"/></g></g></svg>