<?xml version="1.0" encoding="UTF-8" standalone="no"?>
<!-- Created with Inkscape (http://www.inkscape.org/) -->

<svg
   version="1.1"
   id="svg481"
   width="1588"
   height="1588"
   viewBox="0 0 1588 1588"
   sodipodi:docname="trout_cartoon.svg"
   inkscape:version="1.1.2 (0a00cf5339, 2022-02-04)"
   xmlns:inkscape="http://www.inkscape.org/namespaces/inkscape"
   xmlns:sodipodi="http://sodipodi.sourceforge.net/DTD/sodipodi-0.dtd"
   xmlns="http://www.w3.org/2000/svg"
   xmlns:svg="http://www.w3.org/2000/svg">
  <defs
     id="defs485" />
  <sodipodi:namedview
     id="namedview483"
     pagecolor="#ffffff"
     bordercolor="#666666"
     borderopacity="1.0"
     inkscape:pageshadow="2"
     inkscape:pageopacity="0.0"
     inkscape:pagecheckerboard="0"
     showgrid="false"
     inkscape:zoom="15.435768"
     inkscape:cx="842.26453"
     inkscape:cy="801.22348"
     inkscape:window-width="1920"
     inkscape:window-height="938"
     inkscape:window-x="1536"
     inkscape:window-y="27"
     inkscape:window-maximized="1"
     inkscape:current-layer="g487" />
  <g
     inkscape:groupmode="layer"
     inkscape:label="Image"
     id="g487">
    <g
       id="g635"
       transform="matrix(0.025,0,0,0.025,818.38201,783.97426)">
      <path
         style="fill:#e7a756"
         d="m 891,1147.5 v -4.5 h -4.5 -4.5 v -4.5 -4.5 h -4.5 -4.5 v -4.5 -4.5 h -4.5 -4.5 v -9 -9 h -4.5 -4.5 v -4.5 -4.5 h -4.5 -4.5 v -4.5 -4.5 h -4.5 -4.5 v -4.5 -4.5 h -4.5 -4.5 v -4.5 -4.5 h -4.5 -4.5 v -4.5 -4.5 h -4.5 -4.5 v -4.5 -4.5 h -9 -9 v -4.5 -4.5 h -9 -9 v -4.5 -4.5 h 4.5 4.5 v -4.5 -4.5 h 9 9 v 4.5 4.5 h 4.5 4.5 v 4.5 4.5 h 4.5 4.5 v -4.5 -4.5 h 4.5 4.5 v -4.5 -4.5 h -4.5 -4.5 v -4.5 -4.5 h 4.5 4.5 v -4.5 -4.5 h 9 9 v -4.5 -4.5 H 810 774 V 994.5 990 H 751.5 729 v -9 -9 h -4.5 -4.5 v 4.5 4.5 h -9 -9 v -4.5 -4.5 h -9 -9 v -4.5 -4.5 h -9 -9 v -4.5 -4.5 h -4.5 -4.5 v -4.5 -4.5 h -4.5 -4.5 v -27 -27 h 4.5 4.5 v 18 18 h 9 9 v 4.5 4.5 h 4.5 4.5 v -4.5 -4.5 h 4.5 4.5 v -4.5 -4.5 h -9 -9 v -9 -9 h 13.5 13.5 v -9 -9 H 697.5 693 V 877.5 873 H 688.5 684 V 859.5 846 h 4.5 4.5 v 9 9 h 4.5 4.5 v -18 -18 h 9 9 v 4.5 4.5 h 4.5 4.5 v 4.5 4.5 h 4.5 4.5 v 4.5 4.5 h 4.5 4.5 v 18 18 h 4.5 4.5 v -9 -9 h 4.5 4.5 v 9 9 h -4.5 -4.5 v 9 9 h 4.5 4.5 v -4.5 -4.5 h 9 9 v 9 9 h 4.5 4.5 v 9 9 h 4.5 4.5 v -4.5 -4.5 h 4.5 4.5 v 4.5 4.5 h 9 9 v -4.5 -4.5 h 4.5 4.5 v 4.5 4.5 h 9 9 V 931.5 927 H 850.5 846 V 913.5 900 h 22.5 22.5 v -9 -9 h -4.5 -4.5 v 4.5 4.5 h -18 -18 v -4.5 -4.5 h 9 9 v -4.5 -4.5 h -4.5 -4.5 v -4.5 -4.5 h -4.5 -4.5 v 4.5 4.5 H 832.5 819 v -4.5 -4.5 h -9 -9 v 4.5 4.5 h 4.5 4.5 v 4.5 4.5 h -4.5 -4.5 v -4.5 -4.5 h -4.5 -4.5 v -4.5 -4.5 h 4.5 4.5 v -9 -9 h 4.5 4.5 v -4.5 -4.5 h 4.5 4.5 v -4.5 -4.5 h 4.5 4.5 v -4.5 -4.5 h 4.5 4.5 v -4.5 -4.5 h 9 9 v -4.5 -4.5 h 9 9 v -4.5 -4.5 h 4.5 4.5 v -4.5 -4.5 h 9 9 v -4.5 -4.5 h 22.5 22.5 v 4.5 4.5 h -4.5 -4.5 v 4.5 4.5 h 9 9 v 27 27 h -4.5 -4.5 v 18 18 h -4.5 -4.5 v 18 18 H 904.5 873 v 4.5 4.5 h 27 27 v 9 9 h -4.5 -4.5 v 13.5 13.5 h -4.5 -4.5 v 22.5 22.5 h -4.5 -4.5 v 9 9 h -4.5 -4.5 v 4.5 4.5 h 4.5 4.5 v 13.5 13.5 h -4.5 -4.5 v 4.5 4.5 h 4.5 4.5 v 18 18 h 4.5 4.5 v 4.5 4.5 h -9 -9 v -9 -9 h -4.5 -4.5 v -4.5 -4.5 h -4.5 -4.5 v 9 9 h 4.5 4.5 v 9 9 h 4.5 4.5 v 4.5 4.5 h 4.5 4.5 v 4.5 4.5 h -4.5 -4.5 z m -27,-63 v -4.5 h -4.5 -4.5 v -9 -9 h -4.5 -4.5 v -4.5 -4.5 h -4.5 -4.5 v -4.5 -4.5 h -9 -9 v 4.5 4.5 h 4.5 4.5 v 9 9 h 4.5 4.5 v 4.5 4.5 h 9 9 v 4.5 4.5 h 4.5 4.5 z m -27,-18 v -4.5 h 4.5 4.5 v 4.5 4.5 h -4.5 -4.5 z m 54,0 v -4.5 h -4.5 -4.5 v -4.5 -4.5 h -4.5 -4.5 v 4.5 4.5 h 4.5 4.5 v 4.5 4.5 h 4.5 4.5 z m -90,-27 v -4.5 h -4.5 -4.5 v 4.5 4.5 h 4.5 4.5 z m 72,-9 v -4.5 h 4.5 4.5 v 4.5 4.5 h 4.5 4.5 v -4.5 -4.5 h -4.5 -4.5 v -4.5 -4.5 h -4.5 -4.5 v -4.5 -4.5 h -4.5 -4.5 v 4.5 4.5 h -4.5 -4.5 v -4.5 -4.5 h -4.5 -4.5 v 4.5 4.5 h 4.5 4.5 v 4.5 4.5 h 4.5 4.5 v 4.5 4.5 h 4.5 4.5 z m -9,-9 v -4.5 h 4.5 4.5 v 4.5 4.5 h -4.5 -4.5 z m 36,-9 v -4.5 h -4.5 -4.5 v -4.5 -4.5 h -4.5 -4.5 v -4.5 -4.5 h -9 -9 v -4.5 -4.5 h -4.5 -4.5 v -4.5 -4.5 h 4.5 4.5 v -4.5 -4.5 h -4.5 -4.5 v 4.5 4.5 h -4.5 -4.5 v 4.5 4.5 h -4.5 -4.5 v 4.5 4.5 h 4.5 4.5 v -4.5 -4.5 h 4.5 4.5 v 4.5 4.5 h 4.5 4.5 v 4.5 4.5 h 9 9 v 4.5 4.5 h 4.5 4.5 v 4.5 4.5 h 4.5 4.5 z M 774,972 v -9 h -4.5 -4.5 v 4.5 4.5 h -4.5 -4.5 v 4.5 4.5 h 9 9 z m 27,4.5 V 972 h -4.5 -4.5 v 4.5 4.5 h 4.5 4.5 z m 27,-4.5 v -9 h 4.5 4.5 v -4.5 -4.5 h 13.5 13.5 v -4.5 -4.5 h -18 -18 v 9 9 h -4.5 -4.5 v 4.5 4.5 h -4.5 -4.5 v 4.5 4.5 h 9 9 z m 63,4.5 V 972 h -4.5 -4.5 v 4.5 4.5 h 4.5 4.5 z M 738,963 v -9 h -4.5 -4.5 v 9 9 h 4.5 4.5 z m -18,-9 v -9 h -4.5 -4.5 v 4.5 4.5 h -4.5 -4.5 v -9 -9 h 13.5 13.5 v -9 -9 h 4.5 4.5 v -4.5 -4.5 h -4.5 -4.5 v 4.5 4.5 h -4.5 -4.5 v 4.5 4.5 h -9 -9 v 4.5 4.5 h -4.5 -4.5 v 9 9 h 4.5 4.5 v 4.5 4.5 h 9 9 z m 81,4.5 V 954 h 4.5 4.5 v -9 -9 h -4.5 -4.5 v 4.5 4.5 h -4.5 -4.5 v -4.5 -4.5 h -4.5 -4.5 v -9 -9 H 769.5 756 v 9 9 h 4.5 4.5 v 9 9 h 4.5 4.5 v -9 -9 h 4.5 4.5 v 13.5 13.5 h 9 9 z m 108,0 V 954 H 895.5 882 v 4.5 4.5 h 13.5 13.5 z m -234,-9 V 945 h -4.5 -4.5 v 4.5 4.5 h 4.5 4.5 z m 81,0 V 945 h -4.5 -4.5 v 4.5 4.5 h 4.5 4.5 z m -9,-18 V 927 h -4.5 -4.5 v 4.5 4.5 h 4.5 4.5 z M 720,900 v -9 h -4.5 -4.5 v 9 9 h 4.5 4.5 z M 927,886.5 V 882 h -9 -9 v 4.5 4.5 h 9 9 z m -45,-18 V 864 h -4.5 -4.5 v -4.5 -4.5 h -4.5 -4.5 v 9 9 h 9 9 z m -162,-9 V 855 h 4.5 4.5 v -4.5 -4.5 h -4.5 -4.5 v -4.5 -4.5 h -4.5 -4.5 v 13.5 13.5 h 4.5 4.5 z m 180,0 V 855 h -4.5 -4.5 v -4.5 -4.5 h -4.5 -4.5 v 4.5 4.5 h 4.5 4.5 v 4.5 4.5 h 4.5 4.5 z m -72,-9 V 846 h 4.5 4.5 v 4.5 4.5 h 4.5 4.5 v -4.5 -4.5 h -4.5 -4.5 v -4.5 -4.5 h 4.5 4.5 v -4.5 -4.5 h -4.5 -4.5 v 4.5 4.5 h -4.5 -4.5 v 4.5 4.5 h -4.5 -4.5 v 4.5 4.5 h 4.5 4.5 z m 108,0 V 846 H 922.5 909 v 4.5 4.5 h 13.5 13.5 z m -63,-18 V 828 h 4.5 4.5 v -4.5 -4.5 h 4.5 4.5 v -4.5 -4.5 h -4.5 -4.5 v -4.5 -4.5 h -4.5 -4.5 v 4.5 4.5 h -4.5 -4.5 v 4.5 4.5 h -4.5 -4.5 v 4.5 4.5 h 4.5 4.5 v 4.5 4.5 h 4.5 4.5 z m -9,-9 V 819 h 4.5 4.5 v -4.5 -4.5 h 4.5 4.5 v 4.5 4.5 h -4.5 -4.5 v 4.5 4.5 h -4.5 -4.5 z m 45,-18 V 801 h -4.5 -4.5 v -4.5 -4.5 h -4.5 -4.5 v 4.5 4.5 h 4.5 4.5 v 4.5 4.5 h 4.5 4.5 z m 18,-9 V 792 h -4.5 -4.5 v -4.5 -4.5 h -4.5 -4.5 v 4.5 4.5 h 4.5 4.5 v 4.5 4.5 h 4.5 4.5 z m -279,342 v -4.5 h -4.5 -4.5 v -9 -9 h -4.5 -4.5 v -9 -9 h -4.5 -4.5 v 4.5 4.5 h -4.5 -4.5 v -4.5 -4.5 h 4.5 4.5 v -22.5 -22.5 h 4.5 4.5 v -9 -9 H 625.5 621 V 1003.5 972 h 4.5 4.5 v 9 9 h 4.5 4.5 v 9 9 h 4.5 4.5 v -4.5 -4.5 h 4.5 4.5 v 4.5 4.5 h 4.5 4.5 v 4.5 4.5 h 4.5 4.5 v 4.5 4.5 h 4.5 4.5 v -4.5 -4.5 h 4.5 4.5 v 4.5 4.5 h -4.5 -4.5 v 9 9 h 4.5 4.5 v -4.5 -4.5 h 4.5 4.5 v 4.5 4.5 h 4.5 4.5 v -9 -9 h 13.5 13.5 v 4.5 4.5 h 4.5 4.5 v 9 9 h 4.5 4.5 v 9 9 h 4.5 4.5 v 13.5 13.5 h -9 -9 v 4.5 4.5 h -9 -9 v 4.5 4.5 h -4.5 -4.5 v -4.5 -4.5 h -4.5 -4.5 v 9 9 h -9 -9 v 4.5 4.5 H 679.5 666 v 4.5 4.5 h -9 -9 z m 36,-18 v -4.5 h -4.5 -4.5 v -9 -9 h -4.5 -4.5 v 9 9 h 4.5 4.5 v 4.5 4.5 h 4.5 4.5 z m 27,-18 v -4.5 h -4.5 -4.5 v -9 -9 h -4.5 -4.5 v -9 -9 h -4.5 -4.5 v -9 -9 h -4.5 -4.5 v 9 9 h 4.5 4.5 v 9 9 h 4.5 4.5 v 9 9 h 4.5 4.5 v 4.5 4.5 h 4.5 4.5 z m 36,-9 v -4.5 h -4.5 -4.5 v -4.5 -4.5 h -4.5 -4.5 v 4.5 4.5 h 4.5 4.5 v 4.5 4.5 h 4.5 4.5 z M 666,1080 v -9 h -4.5 -4.5 v 9 9 h 4.5 4.5 z m 63,-13.5 v -4.5 h -4.5 -4.5 v 4.5 4.5 h 4.5 4.5 z m -72,-18 V 1035 h -4.5 -4.5 v 13.5 13.5 h 4.5 4.5 z m 99,-18 v -4.5 h 4.5 4.5 v 4.5 4.5 h -4.5 -4.5 z m -171,-54 V 972 h -9 -9 v -4.5 -4.5 h -4.5 -4.5 v -4.5 -4.5 h -4.5 -4.5 v -4.5 -4.5 h -4.5 -4.5 v -4.5 -4.5 h -4.5 -4.5 v -9 -9 H 526.5 522 V 904.5 891 h 4.5 4.5 v -4.5 -4.5 h 4.5 4.5 v -4.5 -4.5 h 4.5 4.5 v -4.5 -4.5 h 4.5 4.5 v -4.5 -4.5 h 4.5 4.5 v 4.5 4.5 h -4.5 -4.5 v 36 36 h 4.5 4.5 v 9 9 h 4.5 4.5 v 4.5 4.5 h 4.5 4.5 v 4.5 4.5 h 4.5 4.5 v 4.5 4.5 H 589.5 585 Z M 414,945 v -9 h 4.5 4.5 V 922.5 909 h 4.5 4.5 v -9 -9 h 4.5 4.5 v -9 -9 h 4.5 4.5 v -4.5 -4.5 h 4.5 4.5 v -4.5 -4.5 h 9 9 v -4.5 -4.5 h 9 9 v 4.5 4.5 h 9 9 v 4.5 4.5 h 4.5 4.5 v 4.5 4.5 h -4.5 -4.5 v 4.5 4.5 h -4.5 -4.5 v 4.5 4.5 h -4.5 -4.5 v 4.5 4.5 h -4.5 -4.5 v 9 9 h -4.5 -4.5 v 4.5 4.5 h -9 -9 v 4.5 4.5 h -4.5 -4.5 v 4.5 4.5 h -9 -9 v 4.5 4.5 h -9 -9 z m 36,-13.5 V 927 h -9 -9 v 4.5 4.5 h 9 9 z m 9,-18 V 909 h -9 -9 v 4.5 4.5 h 9 9 z m 18,-9 V 900 h 4.5 4.5 v -4.5 -4.5 h -4.5 -4.5 v 4.5 4.5 h -4.5 -4.5 v 4.5 4.5 h 4.5 4.5 z m -9,-18 V 882 h -4.5 -4.5 v 4.5 4.5 h 4.5 4.5 z m 18,-9 V 873 h -4.5 -4.5 v 4.5 4.5 h 4.5 4.5 z m -18,-9 V 864 h -4.5 -4.5 v 4.5 4.5 h 4.5 4.5 z m 36,0 V 864 h -4.5 -4.5 v -4.5 -4.5 h -9 -9 v 4.5 4.5 h 9 9 v 4.5 4.5 h 4.5 4.5 z m 306,27 V 891 h 4.5 4.5 v 4.5 4.5 h -4.5 -4.5 z m -36,-9 V 882 h 4.5 4.5 v 4.5 4.5 h -4.5 -4.5 z m 54,0 V 882 h 4.5 4.5 v 4.5 4.5 h -4.5 -4.5 z m -171,-18 V 864 h 4.5 4.5 v 4.5 4.5 h -4.5 -4.5 z m -126,-9 V 855 h 4.5 4.5 v -4.5 -4.5 h 4.5 4.5 v 4.5 4.5 h -4.5 -4.5 v 4.5 4.5 H 535.5 531 Z M 504,837 v -9 h 4.5 4.5 V 796.5 765 h 4.5 4.5 v -4.5 -4.5 h 4.5 4.5 v -9 -9 h 9 9 v -9 -9 h -9 -9 v -4.5 -4.5 h 4.5 4.5 v -4.5 -4.5 h 4.5 4.5 V 688.5 675 h 4.5 4.5 v -4.5 -4.5 h 4.5 4.5 v -9 -9 h 4.5 4.5 v 4.5 4.5 h 9 9 v -9 -9 h -4.5 -4.5 v -4.5 -4.5 h 4.5 4.5 v -4.5 -4.5 h 4.5 4.5 v -4.5 -4.5 h 4.5 4.5 v -4.5 -4.5 h 4.5 4.5 v -4.5 -4.5 h 4.5 4.5 v -4.5 -4.5 h 4.5 4.5 v -4.5 -4.5 h 4.5 4.5 v -4.5 -4.5 h 4.5 4.5 v 4.5 4.5 h 9 9 v -9 -9 h 4.5 4.5 v -4.5 -4.5 h 13.5 13.5 v -4.5 -4.5 h 4.5 4.5 v -4.5 -4.5 h 9 9 v -4.5 -4.5 h 9 9 v 4.5 4.5 h 9 9 v -9 -9 h 4.5 4.5 v -4.5 -4.5 h 4.5 4.5 v 4.5 4.5 h 4.5 4.5 v 4.5 4.5 h -4.5 -4.5 v 4.5 4.5 h 9 9 v 4.5 4.5 h 4.5 4.5 v 9 9 h 4.5 4.5 v 4.5 4.5 h 4.5 4.5 v 4.5 4.5 h 4.5 4.5 v 4.5 4.5 h 9 9 v 4.5 4.5 h 4.5 4.5 v 4.5 4.5 H 841.5 810 v -9 -9 h -4.5 -4.5 v 9 9 h -36 -36 v -4.5 -4.5 h -4.5 -4.5 v 4.5 4.5 h -18 -18 v 4.5 4.5 h 9 9 v 4.5 4.5 h 49.5 49.5 v 4.5 4.5 h -45 -45 v 4.5 4.5 h 31.5 31.5 v 4.5 4.5 h -18 -18 v 4.5 4.5 h 13.5 13.5 v 4.5 4.5 h -9 -9 v 4.5 4.5 h 13.5 13.5 v -4.5 -4.5 h 4.5 4.5 v 9 9 h -4.5 -4.5 v 4.5 4.5 H 760.5 747 V 688.5 684 H 733.5 720 v 9 9 h -9 -9 v 4.5 4.5 h -4.5 -4.5 v 4.5 4.5 h -9 -9 v 4.5 4.5 h -4.5 -4.5 v 4.5 4.5 h -9 -9 v 4.5 4.5 h -4.5 -4.5 v 4.5 4.5 h -4.5 -4.5 v 4.5 4.5 h -4.5 -4.5 v 4.5 4.5 h -4.5 -4.5 v 4.5 4.5 h -4.5 -4.5 v 4.5 4.5 h -4.5 -4.5 v 9 9 h -4.5 -4.5 v 4.5 4.5 h -4.5 -4.5 v 9 9 h -27 -27 v 4.5 4.5 h -9 -9 z m 36,-36 v -9 h -4.5 -4.5 v 9 9 h 4.5 4.5 z m 18,4.5 V 801 h -4.5 -4.5 v 4.5 4.5 h 4.5 4.5 z m -27,-27 V 774 h -4.5 -4.5 v 4.5 4.5 h 4.5 4.5 z m 36,-9 V 765 h -4.5 -4.5 v 4.5 4.5 h 4.5 4.5 z m 9,-36 V 720 h -4.5 -4.5 v 13.5 13.5 h 4.5 4.5 z m 18,-4.5 v -9 h -4.5 -4.5 v 9 9 h 4.5 4.5 z m 18,-9 v -9 h -4.5 -4.5 v 9 9 h 4.5 4.5 z m -45,-18 v -9 h -4.5 -4.5 v 9 9 h 4.5 4.5 z m 18,-13.5 V 675 h -4.5 -4.5 v 13.5 13.5 h 4.5 4.5 z m 27,4.5 v -9 h -4.5 -4.5 v 9 9 h 4.5 4.5 z m 27,-4.5 V 684 h -4.5 -4.5 v 4.5 4.5 h 4.5 4.5 z m 63,-9 V 675 h -4.5 -4.5 v 4.5 4.5 h 4.5 4.5 z m -36,-9 V 666 h 4.5 4.5 v 4.5 4.5 h 4.5 4.5 v -4.5 -4.5 h -4.5 -4.5 v -4.5 -4.5 h -9 -9 V 652.5 648 H 643.5 630 v 4.5 4.5 h 4.5 4.5 v 4.5 4.5 h 4.5 4.5 v -4.5 -4.5 h 4.5 4.5 v 9 9 h 4.5 4.5 z m -54,-9 V 657 h 4.5 4.5 v -4.5 -4.5 h -4.5 -4.5 v -4.5 -4.5 h -4.5 -4.5 v 13.5 13.5 h 4.5 4.5 z m 117,0 V 657 h -4.5 -4.5 v 4.5 4.5 h 4.5 4.5 z m -27,-18 V 639 h -9 -9 v 4.5 4.5 h 9 9 z M 648,630 v -9 h -4.5 -4.5 v 9 9 h 4.5 4.5 z m -18,-9 v -9 h 13.5 13.5 v 4.5 4.5 h 9 9 v 4.5 4.5 h 4.5 4.5 v -4.5 -4.5 h -4.5 -4.5 v -4.5 -4.5 h -9 -9 v -18 -18 h -4.5 -4.5 v 13.5 13.5 h -4.5 -4.5 v -4.5 -4.5 h -4.5 -4.5 v 9 9 h -4.5 -4.5 v 9 9 h 4.5 4.5 z m 72,-31.5 V 585 h -4.5 -4.5 v -4.5 -4.5 h -4.5 -4.5 v 9 9 h 9 9 z m 45,-4.5 v -9 h -4.5 -4.5 v -4.5 -4.5 h -4.5 -4.5 v -9 -9 h -9 -9 v 9 9 h 9 9 v 13.5 13.5 h 9 9 z m 27,4.5 V 585 h -9 -9 v 4.5 4.5 h 9 9 z m 63,-9 V 576 h -4.5 -4.5 v 4.5 4.5 h 4.5 4.5 z m -72,-18 V 549 h 4.5 4.5 v -4.5 -4.5 h -4.5 -4.5 v 4.5 4.5 h -4.5 -4.5 v -4.5 -4.5 h -4.5 -4.5 v -4.5 -4.5 h -4.5 -4.5 v 9 9 h 9 9 v 13.5 13.5 h 4.5 4.5 z m 27,9 V 567 h -4.5 -4.5 v 4.5 4.5 h 4.5 4.5 z m 18,-4.5 v -9 h -4.5 -4.5 v 9 9 h 4.5 4.5 z m -18,-18 v -9 h -4.5 -4.5 v 9 9 h 4.5 4.5 z m 0,-31.5 V 513 h -4.5 -4.5 v 4.5 4.5 h 4.5 4.5 z m 153,216 V 729 h -9 -9 v -4.5 -4.5 h -4.5 -4.5 v -4.5 -4.5 h -4.5 -4.5 v 4.5 4.5 h -4.5 -4.5 v -4.5 -4.5 h -4.5 -4.5 v -4.5 -4.5 h 4.5 4.5 v -4.5 -4.5 h 4.5 4.5 v -4.5 -4.5 h 9 9 v 4.5 4.5 h 4.5 4.5 v -9 -9 h 4.5 4.5 v -4.5 -4.5 h 4.5 4.5 v 4.5 4.5 h -4.5 -4.5 v 9 9 h 4.5 4.5 v 4.5 4.5 h 4.5 4.5 v -18 -18 h 4.5 4.5 v 22.5 22.5 h 4.5 4.5 v 9 9 h -9 -9 v -4.5 -4.5 h -9 -9 v 4.5 4.5 h 4.5 4.5 v 4.5 4.5 h -4.5 -4.5 z m -36,-27 V 702 h -4.5 -4.5 v 4.5 4.5 h 4.5 4.5 z m -117,-27 V 675 h 4.5 4.5 v 4.5 4.5 h -4.5 -4.5 z m 18,-9 V 666 h -4.5 -4.5 v -4.5 -4.5 h 9 9 v -4.5 -4.5 h 9 9 v -4.5 -4.5 h -9 -9 v -4.5 -4.5 h 13.5 13.5 v -4.5 -4.5 h 4.5 4.5 v -4.5 -4.5 h 4.5 4.5 v 4.5 4.5 h -4.5 -4.5 v 9 9 h -4.5 -4.5 v 9 9 h -9 -9 v 9 9 h -9 -9 z m -360,-18 V 648 h 4.5 4.5 v 4.5 4.5 h -4.5 -4.5 z m 333,0 V 648 h 4.5 4.5 v 4.5 4.5 h -4.5 -4.5 z m -333,-18 V 630 h 4.5 4.5 v 4.5 4.5 h -4.5 -4.5 z m 0,-18 V 612 h 9 9 v 4.5 4.5 h -9 -9 z m 450,-18 V 594 h -9 -9 v -4.5 -4.5 h 13.5 13.5 v -4.5 -4.5 h 13.5 13.5 v 4.5 4.5 h 13.5 13.5 v -4.5 -4.5 h 4.5 4.5 v 4.5 4.5 h -4.5 -4.5 v 4.5 4.5 h -4.5 -4.5 v 4.5 4.5 h -18 -18 v -4.5 -4.5 h -4.5 -4.5 v 4.5 4.5 h -4.5 -4.5 z m 36,-9 V 585 h -9 -9 v 4.5 4.5 h 9 9 z m 90,0 V 585 h 9 9 v -4.5 -4.5 h 4.5 4.5 v -4.5 -4.5 h 9 9 v -4.5 -4.5 h 4.5 4.5 v 9 9 h -9 -9 v 4.5 4.5 h -9 -9 v 4.5 4.5 h -9 -9 z m -576,-9 V 576 h 22.5 22.5 v -9 -9 h -9 -9 v 4.5 4.5 H 463.5 450 v -4.5 -4.5 h 9 9 v -4.5 -4.5 h -4.5 -4.5 v -4.5 -4.5 h 4.5 4.5 v -9 -9 h 4.5 4.5 v 9 9 h -4.5 -4.5 v 4.5 4.5 h 9 9 v -4.5 -4.5 h 4.5 4.5 v 9 9 h 4.5 4.5 v 9 9 h -4.5 -4.5 v 4.5 4.5 H 472.5 450 Z m 540,0 V 576 h 4.5 4.5 v 4.5 4.5 h -4.5 -4.5 z m -144,-18 V 558 h 13.5 13.5 v -4.5 -4.5 h -4.5 -4.5 v -4.5 -4.5 h -9 -9 v -4.5 -4.5 h -9 -9 v -36 -36 h 9 9 v 4.5 4.5 h 9 9 v 9 9 h -4.5 -4.5 v 4.5 4.5 h 4.5 4.5 v 4.5 4.5 h 4.5 4.5 v 9 9 h 4.5 4.5 v -18 -18 h -4.5 -4.5 v -9 -9 h 4.5 4.5 V 454.5 441 h 4.5 4.5 v 4.5 4.5 h 4.5 4.5 V 436.5 423 h 4.5 4.5 v 4.5 4.5 h 4.5 4.5 v -9 -9 h 9 9 v 4.5 4.5 h 4.5 4.5 v 18 18 h 9 9 v 4.5 4.5 h -4.5 -4.5 v 9 9 h -4.5 -4.5 v 4.5 4.5 h -4.5 -4.5 v 9 9 h -4.5 -4.5 v 9 9 h 9 9 v 4.5 4.5 h -4.5 -4.5 v 9 9 h 40.5 40.5 v 4.5 4.5 h -54 -54 v -4.5 -4.5 h -9 -9 v 4.5 4.5 H 868.5 846 Z m 45,-9 V 549 h -4.5 -4.5 v 4.5 4.5 h 4.5 4.5 z m -18,-18 V 531 h -4.5 -4.5 v 4.5 4.5 h 4.5 4.5 z m 36,0 V 531 h -9 -9 v -4.5 -4.5 h -4.5 -4.5 v 4.5 4.5 h 4.5 4.5 v 4.5 4.5 h 9 9 z m -54,-18 V 513 h -4.5 -4.5 v 4.5 4.5 h 4.5 4.5 z m 45,-9 V 504 h -4.5 -4.5 v 4.5 4.5 h 4.5 4.5 z m 27,-18 V 486 h -4.5 -4.5 v -9 -9 h -4.5 -4.5 v 9 9 h 4.5 4.5 v 4.5 4.5 h 4.5 4.5 z M 846,477 v -9 h -4.5 -4.5 v 9 9 h 4.5 4.5 z m 54,-4.5 V 468 h -9 -9 v 4.5 4.5 h 9 9 z m 45,0 V 468 h -9 -9 v 4.5 4.5 h 9 9 z M 927,450 v -9 h -4.5 -4.5 v 9 9 h 4.5 4.5 z m 162,108 v -9 h -9 -9 v -4.5 -4.5 h -4.5 -4.5 v -4.5 -4.5 h -13.5 -13.5 v -9 -9 h 13.5 13.5 v -4.5 -4.5 h 22.5 22.5 v -4.5 -4.5 h 4.5 4.5 v 4.5 4.5 h 4.5 4.5 v 4.5 4.5 h -4.5 -4.5 v 4.5 4.5 h -9 -9 v 4.5 4.5 h 4.5 4.5 v 4.5 4.5 h 4.5 4.5 v 9 9 h -9 -9 v 4.5 4.5 h -4.5 -4.5 z m 18,-13.5 V 540 h -4.5 -4.5 v -4.5 -4.5 h -4.5 -4.5 v -4.5 -4.5 h -4.5 -4.5 v 9 9 h 4.5 4.5 v 4.5 4.5 h 9 9 z m -72,9 V 549 h 9 9 v 4.5 4.5 h -9 -9 z M 972,522 v -18 h 4.5 4.5 v -4.5 -4.5 h 4.5 4.5 v -9 -9 h 4.5 4.5 v -4.5 -4.5 h 4.5 4.5 v -9 -9 h 9 9 v -4.5 -4.5 h 4.5 4.5 v -4.5 -4.5 h 9 9 v -4.5 -4.5 h 9 9 v -4.5 -4.5 h 13.5 13.5 v -4.5 -4.5 h 4.5 4.5 v 4.5 4.5 h 13.5 13.5 v 4.5 4.5 h -31.5 -31.5 v 4.5 4.5 h -9 -9 v 4.5 4.5 h -4.5 -4.5 v 4.5 4.5 h -4.5 -4.5 v 9 9 h -4.5 -4.5 v 4.5 4.5 h -4.5 -4.5 v 9 9 h -4.5 -4.5 v 4.5 4.5 h -4.5 -4.5 v 9 9 h -4.5 -4.5 v 4.5 4.5 h -4.5 -4.5 v 4.5 4.5 H 976.5 972 Z M 432,517.5 V 513 h 9 9 v 4.5 4.5 h -9 -9 z M 855,450 v -9 h 4.5 4.5 v 9 9 H 859.5 855 Z M 963,427.5 V 414 h 9 9 v 4.5 4.5 h -4.5 -4.5 v 9 9 h -4.5 -4.5 z m 27,0 V 414 h 4.5 4.5 v 13.5 13.5 h -4.5 -4.5 z"
         id="path641" />
      <path
         style="fill:#ad5e4d"
         d="M 900,1138.5 V 1125 h 4.5 4.5 v 13.5 13.5 h -4.5 -4.5 z m -18,-9 v -4.5 h 4.5 4.5 v 4.5 4.5 h -4.5 -4.5 z m -216,-18 v -4.5 h 4.5 4.5 v 4.5 4.5 h -4.5 -4.5 z m 189,0 v -4.5 h 4.5 4.5 v 4.5 4.5 h -4.5 -4.5 z m 18,0 v -4.5 h 9 9 v 4.5 4.5 h -9 -9 z m -279,-36 v -4.5 h 4.5 4.5 v 4.5 4.5 h -4.5 -4.5 z m 63,0 v -4.5 h 4.5 4.5 v 4.5 4.5 h -4.5 -4.5 z m 189,-4.5 v -9 h 4.5 4.5 v 9 9 h -4.5 -4.5 z m -198,-13.5 v -4.5 h 4.5 4.5 v 4.5 4.5 h -4.5 -4.5 z m 153,0 v -4.5 h 4.5 4.5 v 4.5 4.5 h -4.5 -4.5 z m 27,0 v -4.5 h 4.5 4.5 v 4.5 4.5 h -4.5 -4.5 z m 45,0 v -4.5 h 4.5 4.5 v 4.5 4.5 H 877.5 873 Z M 612,1035 v -18 h 4.5 4.5 v 9 9 h 4.5 4.5 v 4.5 4.5 h -4.5 -4.5 v 4.5 4.5 h -4.5 -4.5 z m 63,13.5 v -4.5 h 4.5 4.5 v 4.5 4.5 h -4.5 -4.5 z m -81,-9 v -4.5 h 4.5 4.5 v 4.5 4.5 h -4.5 -4.5 z m 54,0 v -4.5 h 4.5 4.5 v 4.5 4.5 h -4.5 -4.5 z m 126,-9 v -4.5 h 4.5 4.5 v 4.5 4.5 h -4.5 -4.5 z m 27,0 v -4.5 h 9 9 v 4.5 4.5 h -9 -9 z m 99,-4.5 v -9 h 4.5 4.5 v 9 9 H 904.5 900 Z M 738,1012.5 V 1008 H 724.5 711 v -4.5 -4.5 h -9 -9 v -4.5 -4.5 h -9 -9 v -4.5 -4.5 h -4.5 -4.5 v -4.5 -4.5 h -9 -9 v -4.5 -4.5 h -4.5 -4.5 v -4.5 -4.5 h -4.5 -4.5 v -4.5 -4.5 h -9 -9 v -9 -9 h -4.5 -4.5 v -27 -27 h 4.5 4.5 V 859.5 846 h 4.5 4.5 v -9 -9 h 4.5 4.5 v -4.5 -4.5 h 9 9 v -4.5 -4.5 h -4.5 -4.5 v -4.5 -4.5 h 4.5 4.5 v -4.5 -4.5 h 4.5 4.5 v -4.5 -4.5 h 4.5 4.5 v -4.5 -4.5 h 4.5 4.5 v -4.5 -4.5 h 4.5 4.5 v -4.5 -4.5 h 4.5 4.5 v -4.5 -4.5 h 4.5 4.5 v -4.5 -4.5 h 9 9 v -4.5 -4.5 h 4.5 4.5 v -4.5 -4.5 h 9 9 v -4.5 -4.5 h 9 9 v -4.5 -4.5 h 9 9 v -4.5 -4.5 h 4.5 4.5 v 4.5 4.5 h -4.5 -4.5 v 13.5 13.5 h -4.5 -4.5 v 4.5 4.5 h -9 -9 v -9 -9 h -4.5 -4.5 v 18 18 h -4.5 -4.5 v 4.5 4.5 h -9 -9 v 4.5 4.5 h -4.5 -4.5 v 13.5 13.5 h -4.5 -4.5 v 4.5 4.5 h -4.5 -4.5 v 9 9 h -9 -9 v 4.5 4.5 h -4.5 -4.5 v 4.5 4.5 h -4.5 -4.5 v 4.5 4.5 h -4.5 -4.5 v 4.5 4.5 h -4.5 -4.5 v 9 9 h -4.5 -4.5 v 4.5 4.5 h 4.5 4.5 v 18 18 h 4.5 4.5 v 9 9 h 4.5 4.5 v 4.5 4.5 h 4.5 4.5 v -4.5 -4.5 h 4.5 4.5 v 4.5 4.5 h -4.5 -4.5 v 4.5 4.5 h 9 9 v 4.5 4.5 h 9 9 v 4.5 4.5 h 9 9 v -4.5 -4.5 h 4.5 4.5 v -9 -9 h 4.5 4.5 v 9 9 h -4.5 -4.5 v 9 9 h 22.5 22.5 v 4.5 4.5 h 27 27 v 4.5 4.5 h -4.5 -4.5 v 4.5 4.5 H 778.5 738 Z m -81,-207 V 801 h -4.5 -4.5 v 4.5 4.5 h 4.5 4.5 z m 45,-9 V 792 h -4.5 -4.5 v 4.5 4.5 h 4.5 4.5 z m 9,-45 V 747 h -4.5 -4.5 v 4.5 4.5 h 4.5 4.5 z m 18,-4.5 v -9 h -4.5 -4.5 v 9 9 h 4.5 4.5 z m 45,-31.5 V 711 h -4.5 -4.5 v 4.5 4.5 h 4.5 4.5 z m 63,288 V 999 h 4.5 4.5 v 4.5 4.5 h -4.5 -4.5 z m -243,-18 V 981 h 4.5 4.5 v 4.5 4.5 h -4.5 -4.5 z m -18,-9 V 972 h 4.5 4.5 v 4.5 4.5 h -4.5 -4.5 z m 180,0 V 972 h 4.5 4.5 v -4.5 -4.5 h 4.5 4.5 v 9 9 h -9 -9 z m 54,0 V 972 h 4.5 4.5 v -4.5 -4.5 h 4.5 4.5 v -9 -9 h 13.5 13.5 v 4.5 4.5 h -9 -9 v 4.5 4.5 h -4.5 -4.5 v 9 9 h -9 -9 z m 99,0 V 972 h 4.5 4.5 v 4.5 4.5 h -4.5 -4.5 z m -207,-18 V 954 h -4.5 -4.5 v -9 -9 h 4.5 4.5 v 9 9 h 4.5 4.5 v -4.5 -4.5 h 4.5 4.5 v 9 9 h -9 -9 z m 81,-9 V 936 h -4.5 -4.5 v 4.5 4.5 h -4.5 -4.5 v -4.5 -4.5 h -4.5 -4.5 v -9 -9 h 4.5 4.5 v 4.5 4.5 h 9 9 v 4.5 4.5 h 4.5 4.5 v 4.5 4.5 h 9 9 v 4.5 4.5 h -4.5 -4.5 v 4.5 4.5 h -9 -9 z m 99,9 V 954 h 4.5 4.5 v 4.5 4.5 h -4.5 -4.5 z m -450,-9 V 945 h 4.5 4.5 v 4.5 4.5 h -4.5 -4.5 z m 315,0 V 945 h 4.5 4.5 v 4.5 4.5 h -4.5 -4.5 z m 171,0 V 945 h 4.5 4.5 v 4.5 4.5 h -4.5 -4.5 z m -486,-18 V 927 h 9 9 v 4.5 4.5 h -9 -9 z m 243,0 V 927 h 4.5 4.5 v 4.5 4.5 h -4.5 -4.5 z m 63,0 V 927 h 4.5 4.5 v 4.5 4.5 h -4.5 -4.5 z m 99,0 V 927 h -4.5 -4.5 v -4.5 -4.5 h -4.5 -4.5 v 4.5 4.5 h -9 -9 V 922.5 918 H 796.5 792 V 904.5 891 h -4.5 -4.5 v -4.5 -4.5 h -4.5 -4.5 v -4.5 -4.5 h 4.5 4.5 v 4.5 4.5 h 9 9 v 9 9 h 9 9 v 4.5 4.5 h 4.5 4.5 v -4.5 -4.5 h 4.5 4.5 v 13.5 13.5 h 9 9 v 4.5 4.5 h -9 -9 z M 657,918 v -9 h 4.5 4.5 v 9 9 h -4.5 -4.5 z m 63,4.5 V 918 h 4.5 4.5 v -4.5 -4.5 h 4.5 4.5 v 4.5 4.5 h -4.5 -4.5 v 4.5 4.5 h -4.5 -4.5 z m 198,0 V 918 h 4.5 4.5 v 4.5 4.5 h -4.5 -4.5 z m -477,-9 V 909 h 4.5 4.5 v 4.5 4.5 h -4.5 -4.5 z m 45,-9 V 900 h 4.5 4.5 v 4.5 4.5 h -4.5 -4.5 z m 450,0 V 900 h 4.5 4.5 v 4.5 4.5 h -4.5 -4.5 z m -279,-9 V 891 h -4.5 -4.5 v -4.5 -4.5 h 4.5 4.5 v 4.5 4.5 h 4.5 4.5 v 4.5 4.5 h -4.5 -4.5 z m 18,-4.5 v -9 h 4.5 4.5 v -4.5 -4.5 h 4.5 4.5 v 4.5 4.5 h -4.5 -4.5 v 9 9 h -4.5 -4.5 z m 180,4.5 V 891 h 9 9 v 4.5 4.5 h -9 -9 z m -396,-9 V 882 h 4.5 4.5 v 4.5 4.5 h -4.5 -4.5 z m 288,0 V 882 h 4.5 4.5 v 4.5 4.5 h -4.5 -4.5 z m 63,0 V 882 h 9 9 v 4.5 4.5 h -9 -9 z m 126,0 V 882 h 4.5 4.5 v 4.5 4.5 h -4.5 -4.5 z m -504,-9 V 873 h 4.5 4.5 v 4.5 4.5 h -4.5 -4.5 z m 414,0 V 873 h 9 9 v 4.5 4.5 h -9 -9 z m -387,-9 V 864 h 4.5 4.5 v 4.5 4.5 h -4.5 -4.5 z m 63,-9 V 846 h 9 9 v 4.5 4.5 h -4.5 -4.5 v 9 9 h -4.5 -4.5 z m 279,9 V 864 h 4.5 4.5 v 4.5 4.5 h -4.5 -4.5 z m -324,-9 V 855 h 9 9 v -18 -18 h -4.5 -4.5 v 4.5 4.5 h -4.5 -4.5 v -4.5 -4.5 h 4.5 4.5 v -9 -9 h -4.5 -4.5 v -4.5 -4.5 h 9 9 v -9 -9 h -4.5 -4.5 v -18 -18 h 4.5 4.5 V 724.5 711 h 4.5 4.5 v -9 -9 h 4.5 4.5 V 679.5 666 h 18 18 v 9 9 h -4.5 -4.5 v 13.5 13.5 h -4.5 -4.5 v 13.5 13.5 h -4.5 -4.5 v 4.5 4.5 h 4.5 4.5 v 4.5 4.5 h -4.5 -4.5 v 4.5 4.5 h -4.5 -4.5 v 4.5 4.5 h -4.5 -4.5 v 9 9 h 4.5 4.5 v 9 9 h -4.5 -4.5 v 22.5 22.5 h -4.5 -4.5 v 4.5 4.5 h -9 -9 z M 504,747 v -9 h 4.5 4.5 V 724.5 711 h 4.5 4.5 v -9 -9 h -4.5 -4.5 v 9 9 h -4.5 -4.5 v 13.5 13.5 h -4.5 -4.5 v 9 9 h 4.5 4.5 z m 207,108 v -9 h 4.5 4.5 v 9 9 h -4.5 -4.5 z m 36,4.5 V 855 h -4.5 -4.5 v -4.5 -4.5 h 4.5 4.5 v 4.5 4.5 h 4.5 4.5 v 4.5 4.5 h -4.5 -4.5 z m 90,-9 V 846 h 4.5 4.5 v 4.5 4.5 h -4.5 -4.5 z m 72,0 V 846 h 4.5 4.5 v 4.5 4.5 h -4.5 -4.5 z m 18,0 V 846 h 4.5 4.5 v 4.5 4.5 h -4.5 -4.5 z m -63,-18 V 828 h -4.5 -4.5 v -4.5 -4.5 h 4.5 4.5 v 4.5 4.5 h 4.5 4.5 v 4.5 4.5 h -4.5 -4.5 z m -162,-9 V 819 h 4.5 4.5 v 4.5 4.5 h -4.5 -4.5 z m 180,-9 V 810 h -4.5 -4.5 v -4.5 -4.5 h -4.5 -4.5 v -4.5 -4.5 h 4.5 4.5 v 4.5 4.5 h 4.5 4.5 v 4.5 4.5 h 4.5 4.5 v 4.5 4.5 h -4.5 -4.5 z m -333,-9 V 801 h 4.5 4.5 v 4.5 4.5 h -4.5 -4.5 z m 387,-18 V 783 h 4.5 4.5 v 4.5 4.5 h -4.5 -4.5 z m -378,-18 V 765 h 4.5 4.5 v 4.5 4.5 h -4.5 -4.5 z m 9,-36 V 720 h 4.5 4.5 V 733.5 747 H 571.5 567 Z M 540,729 v -9 h 4.5 4.5 v 9 9 h -4.5 -4.5 z m 45,0 v -9 h 4.5 4.5 v 9 9 h -4.5 -4.5 z m 378,4.5 V 729 h 4.5 4.5 v 4.5 4.5 H 967.5 963 Z M 603,720 v -9 h 4.5 4.5 v 9 9 h -4.5 -4.5 z m 342,4.5 V 720 h 4.5 4.5 v 4.5 4.5 h -4.5 -4.5 z m -153,-9 V 711 h 4.5 4.5 V 697.5 684 h 4.5 4.5 v 4.5 4.5 h 9 9 v 4.5 4.5 h -9 -9 v 4.5 4.5 h -4.5 -4.5 v 4.5 4.5 H 796.5 792 Z M 558,702 v -9 h 4.5 4.5 v 9 9 h -4.5 -4.5 z m 45,-9 v -9 h 4.5 4.5 v 9 9 h -4.5 -4.5 z m 288,4.5 V 693 h 4.5 4.5 v 4.5 4.5 h -4.5 -4.5 z m 63,0 V 693 h -4.5 -4.5 v -9 -9 h 4.5 4.5 v -4.5 -4.5 h 4.5 4.5 v 9 9 h -4.5 -4.5 v 4.5 4.5 h 4.5 4.5 v 4.5 4.5 h -4.5 -4.5 z m -324,-9 V 684 h 4.5 4.5 v 4.5 4.5 H 634.5 630 Z M 927,684 v -9 h 4.5 4.5 v 9 9 h -4.5 -4.5 z m 45,4.5 V 684 h 4.5 4.5 v 4.5 4.5 h -4.5 -4.5 z m -396,-9 V 675 h 4.5 4.5 v 4.5 4.5 h -4.5 -4.5 z m 81,-9 V 666 h 4.5 4.5 v -4.5 -4.5 h 4.5 4.5 v 4.5 4.5 h -4.5 -4.5 v 4.5 4.5 h -4.5 -4.5 z m 180,0 V 666 h 4.5 4.5 v 4.5 4.5 h -4.5 -4.5 z m 18,0 V 666 h 4.5 4.5 v -4.5 -4.5 h 4.5 4.5 v -4.5 -4.5 h 13.5 13.5 v -4.5 -4.5 h 9 9 v -4.5 -4.5 h 9 9 v 4.5 4.5 h -9 -9 v 4.5 4.5 h -9 -9 v 4.5 4.5 h -4.5 -4.5 v 4.5 4.5 h -9 -9 v 4.5 4.5 h -9 -9 z m -297,-9 V 657 h -9 -9 v -4.5 -4.5 h -4.5 -4.5 v -4.5 -4.5 h 4.5 4.5 v -4.5 -4.5 h 4.5 4.5 v 4.5 4.5 h 4.5 4.5 v 4.5 4.5 h 4.5 4.5 v 9 9 h -4.5 -4.5 z m 81,0 V 657 h -4.5 -4.5 v -4.5 -4.5 h 9 9 v 9 9 h -4.5 -4.5 z m 135,-9 V 648 h 4.5 4.5 v 4.5 4.5 h -4.5 -4.5 z m -189,-9 V 639 h -4.5 -4.5 v -4.5 -4.5 h -9 -9 v -4.5 -4.5 h -4.5 -4.5 v -4.5 -4.5 h 9 9 v -4.5 -4.5 h -4.5 -4.5 v -4.5 -4.5 h 13.5 13.5 v 4.5 4.5 h 9 9 v -4.5 -4.5 h -4.5 -4.5 v -4.5 -4.5 h -4.5 -4.5 v -9 -9 h 4.5 4.5 v -4.5 -4.5 h 4.5 4.5 v -4.5 -4.5 h 13.5 13.5 v -9 -9 h 4.5 4.5 v 4.5 4.5 h 4.5 4.5 v -9 -9 h 4.5 4.5 v -4.5 -4.5 h 9 9 v -4.5 -4.5 h 4.5 4.5 v 9 9 h 4.5 4.5 V 508.5 495 h 4.5 4.5 v 4.5 4.5 h 4.5 4.5 v -9 -9 h 9 9 v 4.5 4.5 h 4.5 4.5 v -9 -9 h 4.5 4.5 v 13.5 13.5 h 4.5 4.5 V 490.5 477 h 9 9 v -4.5 -4.5 h 9 9 v 18 18 h 4.5 4.5 v 4.5 4.5 h -4.5 -4.5 v -4.5 -4.5 h -4.5 -4.5 v 4.5 4.5 h -4.5 -4.5 v 9 9 h -9 -9 v -4.5 -4.5 h -9 -9 v -9 -9 h -4.5 -4.5 v 13.5 13.5 h -4.5 -4.5 v 4.5 4.5 h -4.5 -4.5 v -4.5 -4.5 h -9 -9 v 9 9 h -4.5 -4.5 v 4.5 4.5 h -4.5 -4.5 v 4.5 4.5 h -4.5 -4.5 v -4.5 -4.5 h -4.5 -4.5 v 4.5 4.5 h -4.5 -4.5 v 4.5 4.5 h -4.5 -4.5 v 4.5 4.5 h -4.5 -4.5 v 4.5 4.5 h 4.5 4.5 v 4.5 4.5 h 4.5 4.5 v -9 -9 h 4.5 4.5 v 9 9 h -4.5 -4.5 v 4.5 4.5 h -9 -9 v 9 9 h -4.5 -4.5 v -9 -9 h 4.5 4.5 v -9 -9 h -4.5 -4.5 v 4.5 4.5 h -4.5 -4.5 v 4.5 4.5 h -4.5 -4.5 v 4.5 4.5 h -4.5 -4.5 v 4.5 4.5 h -4.5 -4.5 v 4.5 4.5 h 4.5 4.5 v 4.5 4.5 h -4.5 -4.5 z m 9,-27 V 612 h -4.5 -4.5 v 4.5 4.5 h 4.5 4.5 z m 18,-36 V 576 h 4.5 4.5 v -4.5 -4.5 h -4.5 -4.5 v -4.5 -4.5 h -4.5 -4.5 v 13.5 13.5 h 4.5 4.5 z M 639,567 v -9 h -4.5 -4.5 v 9 9 h 4.5 4.5 z m 45,-22.5 V 540 h -4.5 -4.5 v -9 -9 h -9 -9 v 9 9 h 9 9 v 4.5 4.5 h 4.5 4.5 z M 720,513 v -9 h -4.5 -4.5 v 9 9 h 4.5 4.5 z m 63,-18 v -9 h -4.5 -4.5 v 9 9 h 4.5 4.5 z m 63,148.5 V 639 h 4.5 4.5 v 4.5 4.5 h -4.5 -4.5 z m -99,-9 V 630 h 4.5 4.5 v 4.5 4.5 h -4.5 -4.5 z m 63,0 V 630 h -4.5 -4.5 v -4.5 -4.5 h 4.5 4.5 v 4.5 4.5 h 4.5 4.5 v 4.5 4.5 h -4.5 -4.5 z m -171,-9 V 621 h 4.5 4.5 v 4.5 4.5 h -4.5 -4.5 z m 306,0 V 621 h 4.5 4.5 v 4.5 4.5 h -4.5 -4.5 z m -279,-9 V 612 h 4.5 4.5 v 4.5 4.5 h -4.5 -4.5 z m 90,0 V 612 h 4.5 4.5 v 4.5 4.5 h -4.5 -4.5 z m 18,0 V 612 h 4.5 4.5 v 4.5 4.5 h -4.5 -4.5 z m 72,0 V 612 h 4.5 4.5 v 4.5 4.5 h -4.5 -4.5 z m 144,0 V 612 h 4.5 4.5 v 4.5 4.5 h -4.5 -4.5 z m -513,-18 V 594 h 4.5 4.5 v 4.5 4.5 h -4.5 -4.5 z m 243,0 V 594 h 4.5 4.5 v -4.5 -4.5 h 4.5 4.5 v 4.5 4.5 h -4.5 -4.5 v 4.5 4.5 h -4.5 -4.5 z m 81,-4.5 v -9 h 4.5 4.5 v 9 9 H 805.5 801 Z M 693,589.5 V 585 h -4.5 -4.5 v -4.5 -4.5 h 4.5 4.5 v 4.5 4.5 h 4.5 4.5 v 4.5 4.5 h -4.5 -4.5 z m 63,0 V 585 h 9 9 v 4.5 4.5 h -9 -9 z m 72,-9 V 576 h 4.5 4.5 v 4.5 4.5 h -4.5 -4.5 z m -369,-9 V 567 h 4.5 4.5 v 4.5 4.5 h -4.5 -4.5 z m 27,-4.5 v -9 h 4.5 4.5 v 9 9 h -4.5 -4.5 z m 243,4.5 V 567 h 4.5 4.5 v 4.5 4.5 h -4.5 -4.5 z m 27,0 V 567 h 4.5 4.5 v 4.5 4.5 h -4.5 -4.5 z m 27,0 V 567 h 4.5 4.5 v 4.5 4.5 h -4.5 -4.5 z m 18,-4.5 v -9 h 4.5 4.5 v 9 9 h -4.5 -4.5 z m 108,4.5 V 567 h 4.5 4.5 v 4.5 4.5 h -4.5 -4.5 z m 81,0 V 567 h 4.5 4.5 v 4.5 4.5 h -4.5 -4.5 z m -549,-9 V 558 h 4.5 4.5 v 4.5 4.5 h -4.5 -4.5 z m 576,0 V 558 h 9 9 v 4.5 4.5 h -9 -9 z M 504,549 v -9 h -9 -9 v -4.5 -4.5 h 9 9 v 4.5 4.5 h 4.5 4.5 v 9 9 h -4.5 -4.5 z m 378,4.5 V 549 h 4.5 4.5 v 4.5 4.5 h -4.5 -4.5 z m 171,0 V 549 h 9 9 v 4.5 4.5 h -9 -9 z m -612,-9 V 540 h 9 9 v -4.5 -4.5 h 4.5 4.5 v 4.5 4.5 h -4.5 -4.5 v 4.5 4.5 h -9 -9 z m 306,0 V 540 h 4.5 4.5 v 4.5 4.5 h -4.5 -4.5 z m 18,0 V 540 h 4.5 4.5 v 4.5 4.5 h -4.5 -4.5 z m 18,0 V 540 h 4.5 4.5 v 4.5 4.5 h -4.5 -4.5 z m 36,0 V 540 h 4.5 4.5 v 4.5 4.5 h -4.5 -4.5 z m 36,0 V 540 h 4.5 4.5 v -4.5 -4.5 h 4.5 4.5 v 4.5 4.5 h -4.5 -4.5 v 4.5 4.5 h -4.5 -4.5 z m 171,0 V 540 h 4.5 4.5 v 4.5 4.5 h -4.5 -4.5 z m -234,-18 V 522 h 4.5 4.5 v 4.5 4.5 h -4.5 -4.5 z m 27,0 V 522 h 4.5 4.5 v 4.5 4.5 h -4.5 -4.5 z m 117,0 V 522 h 4.5 4.5 v 4.5 4.5 h -4.5 -4.5 z m 162,0 V 522 h 9 9 v 4.5 4.5 h -9 -9 z m -252,-9 V 513 h 4.5 4.5 v 4.5 4.5 h -4.5 -4.5 z m -288,-9 V 504 h 4.5 4.5 v 4.5 4.5 h -4.5 -4.5 z m 252,-9 V 486 h 4.5 4.5 v -4.5 -4.5 h 4.5 4.5 v 4.5 4.5 h -4.5 -4.5 v 13.5 13.5 h -4.5 -4.5 z m 81,9 V 504 h 4.5 4.5 v 4.5 4.5 H 895.5 891 Z M 873,495 v -9 h 4.5 4.5 v 9 9 h -4.5 -4.5 z m -18,-4.5 V 486 h 4.5 4.5 v 4.5 4.5 h -4.5 -4.5 z m 126,0 V 486 h 4.5 4.5 v 4.5 4.5 H 985.5 981 Z M 837,477 v -9 h 4.5 4.5 v 9 9 h -4.5 -4.5 z m 45,-4.5 V 468 h 9 9 v 4.5 4.5 h -9 -9 z m 45,0 V 468 h 9 9 v 4.5 4.5 h -9 -9 z m 27,0 V 468 h 4.5 4.5 v 4.5 4.5 h -4.5 -4.5 z m -99,-9 V 459 h 4.5 4.5 v 4.5 4.5 h -4.5 -4.5 z m 144,0 V 459 h 4.5 4.5 v 4.5 4.5 h -4.5 -4.5 z m 54,0 V 459 h 4.5 4.5 v 4.5 4.5 h -4.5 -4.5 z M 918,450 v -9 h 4.5 4.5 v 9 9 h -4.5 -4.5 z m -27,-9 v -9 h 4.5 4.5 v 9 9 h -4.5 -4.5 z m 117,-22.5 V 414 h 4.5 4.5 v 4.5 4.5 h -4.5 -4.5 z m -27,-9 V 405 h 4.5 4.5 v 4.5 4.5 h -4.5 -4.5 z m 126,0 V 405 h 4.5 4.5 v 4.5 4.5 h -4.5 -4.5 z"
         id="path639" />
      <path
         style="fill:#373340"
         d="m 891,1156.5 v -4.5 h -4.5 -4.5 v -4.5 -4.5 h -4.5 -4.5 v -4.5 -4.5 h -4.5 -4.5 v -4.5 -4.5 h -4.5 -4.5 v -4.5 -4.5 h 4.5 4.5 v 4.5 4.5 h 4.5 4.5 v 4.5 4.5 h 4.5 4.5 v 4.5 4.5 h 4.5 4.5 v -9 -9 h -4.5 -4.5 v -4.5 -4.5 h 4.5 4.5 v 4.5 4.5 h 4.5 4.5 v 9 9 h -4.5 -4.5 v 4.5 4.5 h 9 9 v 4.5 4.5 h -9 -9 z m -252,-18 v -4.5 h -4.5 -4.5 v -9 -9 h -9 -9 v -4.5 -4.5 h 4.5 4.5 v -4.5 -4.5 h -9 -9 v -4.5 -4.5 h 4.5 4.5 v -18 -18 h -4.5 -4.5 v 9 9 h -4.5 -4.5 v -13.5 -13.5 h 4.5 4.5 V 1021.5 999 h 4.5 4.5 v -27 -27 h 9 9 v 4.5 4.5 h 4.5 4.5 v 4.5 4.5 h 4.5 4.5 v 4.5 4.5 h 9 9 v 4.5 4.5 h 4.5 4.5 v 4.5 4.5 h 9 9 v 4.5 4.5 h 9 9 v 4.5 4.5 h 13.5 13.5 v 4.5 4.5 h 40.5 40.5 v -4.5 -4.5 h 4.5 4.5 v -4.5 -4.5 h 4.5 4.5 v 4.5 4.5 h -4.5 -4.5 v 4.5 4.5 h -4.5 -4.5 v 4.5 4.5 h 4.5 4.5 v 4.5 4.5 h -4.5 -4.5 v 4.5 4.5 h 9 9 v 4.5 4.5 h 4.5 4.5 v 4.5 4.5 h -4.5 -4.5 v 4.5 4.5 h 4.5 4.5 v 4.5 4.5 h -4.5 -4.5 v 4.5 4.5 h 4.5 4.5 v 4.5 4.5 h 4.5 4.5 v 4.5 4.5 h -4.5 -4.5 v -4.5 -4.5 h -4.5 -4.5 v -4.5 -4.5 h -4.5 -4.5 v -4.5 -4.5 h -4.5 -4.5 v -4.5 -4.5 h -4.5 -4.5 v -4.5 -4.5 h 4.5 4.5 v 4.5 4.5 h 4.5 4.5 v -4.5 -4.5 h 4.5 4.5 v -4.5 -4.5 h -9 -9 v -4.5 -4.5 h -4.5 -4.5 v -4.5 -4.5 h 4.5 4.5 v -4.5 -4.5 H 796.5 774 v 9 9 h 9 9 v -4.5 -4.5 h 4.5 4.5 v 4.5 4.5 h -4.5 -4.5 v 4.5 4.5 h 4.5 4.5 v 4.5 4.5 h -4.5 -4.5 v -4.5 -4.5 h -9 -9 v -4.5 -4.5 h -9 -9 v 4.5 4.5 h 4.5 4.5 v 9 9 h 4.5 4.5 v 9 9 h -4.5 -4.5 v -9 -9 h -4.5 -4.5 v -9 -9 h -4.5 -4.5 v -9 -9 h -4.5 -4.5 v -4.5 -4.5 h -9 -9 v -4.5 -4.5 H 706.5 693 v -4.5 -4.5 H 679.5 666 v -4.5 -4.5 h -4.5 -4.5 v -4.5 -4.5 h -9 -9 v -4.5 -4.5 h -4.5 -4.5 v -9 -9 h -4.5 -4.5 v 27 27 h -4.5 -4.5 v 18 18 h 4.5 4.5 v -4.5 -4.5 h 4.5 4.5 v 4.5 4.5 h -4.5 -4.5 v 22.5 22.5 h 4.5 4.5 v 9 9 h 4.5 4.5 v 9 9 h 4.5 4.5 v 4.5 4.5 h -4.5 -4.5 z m 198,-63 v -4.5 h -4.5 -4.5 v 4.5 4.5 h 4.5 4.5 z m -72,-45 v -4.5 h -4.5 -4.5 v 4.5 4.5 h 4.5 4.5 z m -99,108 v -4.5 h 4.5 4.5 v 4.5 4.5 h -4.5 -4.5 z m 27,-9 v -4.5 h 4.5 4.5 v 4.5 4.5 h -4.5 -4.5 z m -18,-9 v -4.5 h 4.5 4.5 v 4.5 4.5 h -4.5 -4.5 z m 36,-4.5 v -9 h -4.5 -4.5 v -4.5 -4.5 h -4.5 -4.5 v -9 -9 h -4.5 -4.5 v -9 -9 h -4.5 -4.5 v -4.5 -4.5 h 4.5 4.5 v 4.5 4.5 h 4.5 4.5 v 9 9 h 4.5 4.5 v 9 9 h 4.5 4.5 v 4.5 4.5 h 4.5 4.5 v 9 9 h -4.5 -4.5 z m 18,-4.5 v -4.5 h 4.5 4.5 v 4.5 4.5 H 733.5 729 Z M 900,1098 v -18 h -4.5 -4.5 v -4.5 -4.5 h -4.5 -4.5 v -4.5 -4.5 h 4.5 4.5 v 4.5 4.5 h 4.5 4.5 v -13.5 -13.5 h -4.5 -4.5 v -4.5 -4.5 h -4.5 -4.5 v -4.5 -4.5 h -4.5 -4.5 v 4.5 4.5 h -4.5 -4.5 v -4.5 -4.5 h -4.5 -4.5 v -4.5 -4.5 h -4.5 -4.5 v -4.5 -4.5 h 4.5 4.5 v 4.5 4.5 h 4.5 4.5 v 4.5 4.5 h 4.5 4.5 v -4.5 -4.5 h 4.5 4.5 v 4.5 4.5 h 4.5 4.5 v 4.5 4.5 h 9 9 v 40.5 40.5 h -4.5 -4.5 z m -234,4.5 v -4.5 h 4.5 4.5 v 4.5 4.5 h -4.5 -4.5 z m 81,0 v -4.5 h -4.5 -4.5 v -4.5 -4.5 h -4.5 -4.5 v -4.5 -4.5 h 4.5 4.5 v 4.5 4.5 h 4.5 4.5 v 4.5 4.5 h 4.5 4.5 v 4.5 4.5 h -4.5 -4.5 z m 126,0 v -4.5 h 4.5 4.5 v 4.5 4.5 h -4.5 -4.5 z m -216,-18 v -4.5 h 4.5 4.5 v 4.5 4.5 h -4.5 -4.5 z m 198,0 v -4.5 h 4.5 4.5 v 4.5 4.5 h -4.5 -4.5 z m -135,-18 v -4.5 h 4.5 4.5 v 4.5 4.5 h -4.5 -4.5 z m -72,-18 v -4.5 h 4.5 4.5 v 4.5 4.5 h -4.5 -4.5 z m 243,-36 v -4.5 h -4.5 -4.5 v -4.5 -4.5 h -9 -9 v -4.5 -4.5 h -4.5 -4.5 v -4.5 -4.5 h -4.5 -4.5 v 4.5 4.5 h -4.5 -4.5 v -4.5 -4.5 h 4.5 4.5 v -4.5 -4.5 h 4.5 4.5 v -4.5 -4.5 h 4.5 4.5 v 4.5 4.5 h -4.5 -4.5 v 4.5 4.5 h 4.5 4.5 v 4.5 4.5 h 9 9 v 4.5 4.5 h 4.5 4.5 v 4.5 4.5 h 4.5 4.5 v 4.5 4.5 h -4.5 -4.5 z m -306,-18 V 990 h -9 -9 v -4.5 -4.5 h -4.5 -4.5 v -4.5 -4.5 h -4.5 -4.5 v -4.5 -4.5 h -4.5 -4.5 v -4.5 -4.5 h -4.5 -4.5 v -4.5 -4.5 h -4.5 -4.5 v -4.5 -4.5 h -4.5 -4.5 v -4.5 -4.5 h -4.5 -4.5 v -4.5 -4.5 h -4.5 -4.5 v 4.5 4.5 h -9 -9 v 4.5 4.5 h -4.5 -4.5 v 4.5 4.5 h -9 -9 v 4.5 4.5 h -4.5 -4.5 v -4.5 -4.5 h 4.5 4.5 v -4.5 -4.5 h 4.5 4.5 v -4.5 -4.5 h 9 9 v -4.5 -4.5 h 4.5 4.5 v -4.5 -4.5 h 4.5 4.5 v -9 -9 h 4.5 4.5 v -4.5 -4.5 h 4.5 4.5 v -4.5 -4.5 h 9 9 v -4.5 -4.5 h 4.5 4.5 v -4.5 -4.5 h 4.5 4.5 V 850.5 846 H 535.5 522 v 9 9 h -4.5 -4.5 v -4.5 -4.5 h -4.5 -4.5 v -4.5 -4.5 h 9 9 v -4.5 -4.5 h 22.5 22.5 v 9 9 h -4.5 -4.5 v 4.5 4.5 h -4.5 -4.5 v 4.5 4.5 h -4.5 -4.5 v 4.5 4.5 h -4.5 -4.5 v 4.5 4.5 h -4.5 -4.5 v 13.5 13.5 h 4.5 4.5 v 9 9 h 4.5 4.5 v 4.5 4.5 h 4.5 4.5 v 4.5 4.5 h 4.5 4.5 v 4.5 4.5 h 4.5 4.5 v 4.5 4.5 h 4.5 4.5 v 4.5 4.5 h 9 9 V 967.5 954 h 4.5 4.5 v 13.5 13.5 h -4.5 -4.5 v 9 9 H 589.5 585 Z M 909,990 v -9 h 4.5 4.5 v 9 9 H 913.5 909 Z M 792,976.5 V 972 h 4.5 4.5 v 4.5 4.5 h -4.5 -4.5 z m 90,0 V 972 h 4.5 4.5 v 4.5 4.5 h -4.5 -4.5 z m -459,-18 V 954 h 4.5 4.5 v 4.5 4.5 h -4.5 -4.5 z m 468,0 V 954 h 9 9 v 4.5 4.5 h -9 -9 z m 27,0 V 954 h 4.5 4.5 v 4.5 4.5 h -4.5 -4.5 z m -153,-9 V 945 h 4.5 4.5 v 4.5 4.5 h -4.5 -4.5 z m 90,0 V 945 h 4.5 4.5 v 4.5 4.5 h -4.5 -4.5 z m -54,-9 V 936 h -4.5 -4.5 v -9 -9 h -4.5 -4.5 v 4.5 4.5 h -9 -9 v -4.5 -4.5 h 9 9 v -9 -9 h -9 -9 v 4.5 4.5 h -4.5 -4.5 v -9 -9 h 4.5 4.5 v -9 -9 h -4.5 -4.5 v 4.5 4.5 h -4.5 -4.5 v -9 -9 h 9 9 v 4.5 4.5 h 4.5 4.5 v -4.5 -4.5 h 9 9 v -9 -9 h 4.5 4.5 v -4.5 -4.5 h 4.5 4.5 v -4.5 -4.5 h 4.5 4.5 v -4.5 -4.5 h 4.5 4.5 v -4.5 -4.5 h 4.5 4.5 v -4.5 -4.5 h 9 9 v -4.5 -4.5 h 4.5 4.5 v 4.5 4.5 h -4.5 -4.5 v 4.5 4.5 h -9 -9 v 4.5 4.5 h -4.5 -4.5 v 4.5 4.5 h -4.5 -4.5 v 4.5 4.5 h -4.5 -4.5 v 4.5 4.5 h -4.5 -4.5 v 9 9 h -4.5 -4.5 v 4.5 4.5 h 4.5 4.5 v 4.5 4.5 h 4.5 4.5 v -9 -9 h 4.5 4.5 v 4.5 4.5 h 13.5 13.5 v -4.5 -4.5 h 4.5 4.5 v 4.5 4.5 h -4.5 -4.5 v 9 9 h 4.5 4.5 v 4.5 4.5 H 850.5 846 V 913.5 927 H 841.5 837 V 913.5 900 h -4.5 -4.5 v 4.5 4.5 h -4.5 -4.5 v -9 -9 h 9 9 V 886.5 882 H 823.5 810 v 9 9 h -4.5 -4.5 v -9 -9 h -9 -9 v -4.5 -4.5 h -4.5 -4.5 v 9 9 h 9 9 v 13.5 13.5 h 4.5 4.5 v 9 9 h 4.5 4.5 v -4.5 -4.5 h 4.5 4.5 v -4.5 -4.5 h 4.5 4.5 v 9 9 h -9 -9 v 4.5 4.5 H 805.5 801 Z M 414,927 v -9 h 4.5 4.5 v 9 9 h -4.5 -4.5 z m 288,4.5 V 927 h 13.5 13.5 v 4.5 4.5 H 715.5 702 Z M 927,927 v -9 h 4.5 4.5 v 9 9 H 931.5 927 Z M 639,895.5 V 864 h 4.5 4.5 v -4.5 -4.5 h 4.5 4.5 v -4.5 -4.5 h 4.5 4.5 v -4.5 -4.5 h 9 9 v -4.5 -4.5 h 4.5 4.5 v -4.5 -4.5 h 4.5 4.5 v -9 -9 h 4.5 4.5 v -9 -9 h 4.5 4.5 v -4.5 -4.5 h 4.5 4.5 v -4.5 -4.5 h 4.5 4.5 v -4.5 -4.5 h 4.5 4.5 v -4.5 -4.5 h 9 9 v -4.5 -4.5 h 4.5 4.5 v -4.5 -4.5 h 4.5 4.5 v -4.5 -4.5 h 9 9 v -4.5 -4.5 h 4.5 4.5 v -4.5 -4.5 h 9 9 v -4.5 -4.5 h 4.5 4.5 v -4.5 -4.5 h 9 9 v -4.5 -4.5 h 9 9 v -4.5 -4.5 h 9 9 v -4.5 -4.5 h 4.5 4.5 v -4.5 -4.5 h 9 9 v -4.5 -4.5 h 9 9 v -4.5 -4.5 h 9 9 V 625.5 621 H 940.5 927 v -9 -9 h 9 9 v 4.5 4.5 h 13.5 13.5 v -4.5 -4.5 h 4.5 4.5 v 4.5 4.5 h 4.5 4.5 v -9 -9 h 4.5 4.5 v -4.5 -4.5 h 4.5 4.5 v -4.5 -4.5 h 4.5 4.5 v -4.5 -4.5 h 4.5 4.5 v 4.5 4.5 h -4.5 -4.5 v 4.5 4.5 h -4.5 -4.5 v 4.5 4.5 h -4.5 -4.5 v 4.5 4.5 h 9 9 v 9 9 h -4.5 -4.5 v -4.5 -4.5 h -9 -9 v 4.5 4.5 h 4.5 4.5 v 4.5 4.5 h -4.5 -4.5 v -4.5 -4.5 h -4.5 -4.5 v 9 9 h -9 -9 v 4.5 4.5 h 4.5 4.5 v 9 9 H 958.5 945 v 4.5 4.5 h -9 -9 v 4.5 4.5 h -9 -9 v 4.5 4.5 h -9 -9 v 9 9 h -4.5 -4.5 v -4.5 -4.5 h -4.5 -4.5 v -4.5 -4.5 h -4.5 -4.5 v 4.5 4.5 h -9 -9 v 4.5 4.5 h -4.5 -4.5 v 4.5 4.5 h -9 -9 v 4.5 4.5 h -4.5 -4.5 v 4.5 4.5 h -9 -9 v 4.5 4.5 h -4.5 -4.5 v 4.5 4.5 h -9 -9 v 4.5 4.5 h -4.5 -4.5 v 4.5 4.5 h -9 -9 v 4.5 4.5 h -4.5 -4.5 v 4.5 4.5 h -4.5 -4.5 v 4.5 4.5 h -4.5 -4.5 v 9 9 h 9 9 v 4.5 4.5 h 4.5 4.5 v 4.5 4.5 h 4.5 4.5 v 4.5 4.5 h -9 -9 v 4.5 4.5 h -4.5 -4.5 v -4.5 -4.5 h -4.5 -4.5 v -4.5 -4.5 h 4.5 4.5 v -4.5 -4.5 h -4.5 -4.5 v -4.5 -4.5 h -4.5 -4.5 v 22.5 22.5 h -4.5 -4.5 v -9 -9 h -4.5 -4.5 v 18 18 h 9 9 v 9 9 h -9 -9 v -9 -9 h -4.5 -4.5 v 18 18 h 9 9 v 4.5 4.5 H 679.5 666 v -9 -9 h -4.5 -4.5 v -4.5 -4.5 h 4.5 4.5 v -4.5 -4.5 h -4.5 -4.5 v -4.5 -4.5 h -4.5 -4.5 v 22.5 22.5 h -4.5 -4.5 z m 27,-27 V 864 h -4.5 -4.5 v 4.5 4.5 h 4.5 4.5 z m 63,-27 V 837 h -4.5 -4.5 v 4.5 4.5 h 4.5 4.5 z m 144,81 V 918 h 22.5 22.5 v 4.5 4.5 H 895.5 873 Z m -423,-9 V 909 h 4.5 4.5 v 4.5 4.5 h -4.5 -4.5 z m -27,-9 V 900 h 4.5 4.5 v 4.5 4.5 h -4.5 -4.5 z m 45,0 V 900 h 4.5 4.5 v -4.5 -4.5 h 4.5 4.5 v 4.5 4.5 h -4.5 -4.5 v 4.5 4.5 H 472.5 468 Z M 711,900 v -9 h 4.5 4.5 v 9 9 h -4.5 -4.5 z m 162,-4.5 V 891 h 4.5 4.5 v -4.5 -4.5 h 4.5 4.5 v 9 9 h -9 -9 z m 63,0 V 891 h 4.5 4.5 v 4.5 4.5 h -4.5 -4.5 z m -504,-9 V 882 h 4.5 4.5 v 4.5 4.5 h -4.5 -4.5 z m 477,0 V 882 h 9 9 v 4.5 4.5 h -9 -9 z m -432,-9 V 873 h 4.5 4.5 v 4.5 4.5 h -4.5 -4.5 z m -36,-9 V 864 h 4.5 4.5 v -4.5 -4.5 h 4.5 4.5 V 841.5 828 h -4.5 -4.5 v -9 -9 h -4.5 -4.5 v -63 -63 h 4.5 4.5 V 670.5 657 h -4.5 -4.5 v -36 -36 h -4.5 -4.5 v -4.5 -4.5 h 4.5 4.5 v -4.5 -4.5 h 9 9 v 4.5 4.5 h -4.5 -4.5 v 4.5 4.5 h 22.5 22.5 v -4.5 -4.5 h 4.5 4.5 v -9 -9 h -4.5 -4.5 v -9 -9 h 4.5 4.5 v -4.5 -4.5 h 4.5 4.5 v 4.5 4.5 h 9 9 v -4.5 -4.5 h 4.5 4.5 v -4.5 -4.5 h 4.5 4.5 v -4.5 -4.5 h 9 9 v -4.5 -4.5 h 4.5 4.5 v -4.5 -4.5 h 4.5 4.5 v -4.5 -4.5 h 9 9 v -4.5 -4.5 h 4.5 4.5 v -4.5 -4.5 h 9 9 v -4.5 -4.5 h 9 9 v -4.5 -4.5 h 9 9 v -4.5 -4.5 h 9 9 v -4.5 -4.5 h 13.5 13.5 v -4.5 -4.5 h 13.5 13.5 v -4.5 -4.5 h 18 18 v -4.5 -4.5 h 36 36 v -4.5 -4.5 h 45 45 v -4.5 -4.5 h 94.5 94.5 v 4.5 4.5 h 4.5 4.5 v 9 9 h -9 -9 v -4.5 -4.5 h -9 -9 v 4.5 4.5 h -13.5 -13.5 v 4.5 4.5 h 31.5 31.5 v 4.5 4.5 h -4.5 -4.5 v 4.5 4.5 h -4.5 -4.5 v 4.5 4.5 h -4.5 -4.5 v 4.5 4.5 h -4.5 -4.5 v 4.5 4.5 h -4.5 -4.5 v 9 9 h 9 9 v 9 9 h -9 -9 v -4.5 -4.5 h -36 -36 v 4.5 4.5 h -4.5 -4.5 v 4.5 4.5 h -4.5 -4.5 v -4.5 -4.5 h 4.5 4.5 v -4.5 -4.5 h 4.5 4.5 v -9 -9 h 4.5 4.5 v -4.5 -4.5 h 4.5 4.5 v -9 -9 h 4.5 4.5 v -4.5 -4.5 h 4.5 4.5 v -4.5 -4.5 h -4.5 -4.5 v -4.5 -4.5 h 4.5 4.5 v 4.5 4.5 h 9 9 v -4.5 -4.5 h -4.5 -4.5 v -4.5 -4.5 h -18 -18 v 4.5 4.5 h -4.5 -4.5 v -4.5 -4.5 h -4.5 -4.5 v 9 9 h -4.5 -4.5 v -9 -9 h -4.5 -4.5 v 13.5 13.5 h -9 -9 v -9 -9 h 4.5 4.5 v -4.5 -4.5 h -4.5 -4.5 v -4.5 -4.5 h -4.5 -4.5 v 4.5 4.5 h -9 -9 v 4.5 4.5 h -4.5 -4.5 v -9 -9 H 922.5 909 v 4.5 4.5 h 4.5 4.5 v 9 9 h -4.5 -4.5 v -9 -9 h -4.5 -4.5 v -4.5 -4.5 h -9 -9 v 4.5 4.5 h -4.5 -4.5 v 4.5 4.5 h -4.5 -4.5 v -4.5 -4.5 h -9 -9 v 4.5 4.5 h -4.5 -4.5 v 4.5 4.5 h 4.5 4.5 v 4.5 4.5 h 4.5 4.5 v 9 9 h -4.5 -4.5 v -9 -9 h -4.5 -4.5 v -4.5 -4.5 h -9 -9 v 4.5 4.5 h -4.5 -4.5 v 4.5 4.5 h -4.5 -4.5 v 9 9 h 9 9 v -9 -9 h 9 9 v 4.5 4.5 h -4.5 -4.5 v 4.5 4.5 h -4.5 -4.5 v 4.5 4.5 h -4.5 -4.5 v 9 9 H 805.5 801 V 481.5 468 H 787.5 774 v 4.5 4.5 h -9 -9 V 490.5 504 H 751.5 747 V 490.5 477 h -4.5 -4.5 v 9 9 h -4.5 -4.5 v -4.5 -4.5 h -9 -9 v 9 9 h 4.5 4.5 v 9 9 h -4.5 -4.5 v -9 -9 h -4.5 -4.5 v -4.5 -4.5 h -4.5 -4.5 v 13.5 13.5 h -4.5 -4.5 v -9 -9 h -4.5 -4.5 v 4.5 4.5 h -9 -9 v 4.5 4.5 h 9 9 v 9 9 h 4.5 4.5 v 4.5 4.5 h -4.5 -4.5 v -4.5 -4.5 h -9 -9 v -9 -9 h -4.5 -4.5 v 9 9 h -4.5 -4.5 v -4.5 -4.5 h -4.5 -4.5 v 9 9 H 616.5 603 v 4.5 4.5 h 4.5 4.5 v 4.5 4.5 h 4.5 4.5 v 4.5 4.5 h -4.5 -4.5 v 4.5 4.5 H 607.5 603 V 571.5 558 h -4.5 -4.5 v 4.5 4.5 h -4.5 -4.5 v 9 9 h 4.5 4.5 v 4.5 4.5 h 4.5 4.5 v 4.5 4.5 h -9 -9 V 598.5 594 H 571.5 558 v 4.5 4.5 h 4.5 4.5 v 4.5 4.5 h -9 -9 v 4.5 4.5 h 4.5 4.5 v 4.5 4.5 h 9 9 v 4.5 4.5 h 4.5 4.5 v 4.5 4.5 h 4.5 4.5 v 4.5 4.5 h -9 -9 v -4.5 -4.5 h -9 -9 v -4.5 -4.5 h -4.5 -4.5 v -4.5 -4.5 h -4.5 -4.5 v 4.5 4.5 h -4.5 -4.5 v 4.5 4.5 h 4.5 4.5 v 4.5 4.5 h 9 9 v 9 9 h -4.5 -4.5 v -4.5 -4.5 h -18 -18 v 13.5 13.5 h 4.5 4.5 v 9 9 h -4.5 -4.5 v 13.5 13.5 h -4.5 -4.5 v 9 9 h -4.5 -4.5 v -9 -9 h -4.5 -4.5 v 18 18 h 4.5 4.5 v 9 9 h -9 -9 v 4.5 4.5 h 4.5 4.5 v 9 9 h 4.5 4.5 v 13.5 13.5 h -9 -9 v 4.5 4.5 h -9 -9 v 4.5 4.5 h -4.5 -4.5 v 4.5 4.5 h -4.5 -4.5 z m 45,-45 V 819 h -4.5 -4.5 v 4.5 4.5 h 4.5 4.5 z m 18,-99 V 711 h 4.5 4.5 v -9 -9 h -4.5 -4.5 v 9 9 h -4.5 -4.5 v 13.5 13.5 h 4.5 4.5 z m -45,-72 V 648 h -4.5 -4.5 v 4.5 4.5 h 4.5 4.5 z m 0,-18 V 630 h -4.5 -4.5 v 4.5 4.5 h 4.5 4.5 z m 9,-18 V 612 h -9 -9 v 4.5 4.5 h 9 9 z m 18,-18 V 594 h -4.5 -4.5 v 4.5 4.5 h 4.5 4.5 z M 513,549 v -9 h -4.5 -4.5 v 9 9 h 4.5 4.5 z m 549,-85.5 V 459 h -4.5 -4.5 v 4.5 4.5 h 4.5 4.5 z m -72,-54 V 405 h -4.5 -4.5 v 4.5 4.5 h 4.5 4.5 z m -495,459 V 864 h 4.5 4.5 v 4.5 4.5 H 499.5 495 Z M 864,864 v -9 h 4.5 4.5 v 4.5 4.5 h 4.5 4.5 v 4.5 4.5 h -9 -9 z m 81,-4.5 V 846 h 4.5 4.5 v 13.5 13.5 h -4.5 -4.5 z m -54,0 V 855 h -4.5 -4.5 v -4.5 -4.5 h 4.5 4.5 v 4.5 4.5 h 4.5 4.5 v 4.5 4.5 h -4.5 -4.5 z m -72,-9 V 846 h 4.5 4.5 v -4.5 -4.5 h 4.5 4.5 v -4.5 -4.5 h 4.5 4.5 v 4.5 4.5 h -4.5 -4.5 v 4.5 4.5 h -4.5 -4.5 v 4.5 4.5 h -4.5 -4.5 z m 99,0 V 846 h 4.5 4.5 v 4.5 4.5 H 922.5 918 Z M 504,819 v -9 h 4.5 4.5 v 9 9 h -4.5 -4.5 z m 369,4.5 V 819 h -4.5 -4.5 v -4.5 -4.5 h 4.5 4.5 v 4.5 4.5 h 4.5 4.5 v 4.5 4.5 h -4.5 -4.5 z m 81,-9 V 801 h 4.5 4.5 V 814.5 828 H 958.5 954 Z M 531,801 v -9 h 4.5 4.5 v 9 9 h -4.5 -4.5 z m 369,4.5 V 801 h -4.5 -4.5 v -4.5 -4.5 h 4.5 4.5 v 4.5 4.5 h 4.5 4.5 v 4.5 4.5 h -4.5 -4.5 z m 18,-9 V 792 h -4.5 -4.5 v -4.5 -4.5 h 4.5 4.5 v 4.5 4.5 h 4.5 4.5 v 4.5 4.5 H 922.5 918 Z M 504,783 v -9 h 4.5 4.5 v 9 9 h -4.5 -4.5 z m 369,4.5 V 783 h 4.5 4.5 v -4.5 -4.5 h 9 9 v 4.5 4.5 h -9 -9 v 4.5 4.5 h -4.5 -4.5 z m 72,-4.5 v -9 h 4.5 4.5 v 9 9 H 949.5 945 Z M 522,778.5 V 774 h 4.5 4.5 v 4.5 4.5 h -4.5 -4.5 z m 387,-9 V 765 h 13.5 13.5 v 4.5 4.5 H 922.5 909 Z m -387,-27 V 738 h 4.5 4.5 v -9 -9 h 4.5 4.5 v 9 9 h -4.5 -4.5 v 4.5 4.5 h -4.5 -4.5 z m 414,-9 V 729 h 4.5 4.5 v 4.5 4.5 h -4.5 -4.5 z m 18,-4.5 v -9 h 4.5 4.5 v 9 9 h -4.5 -4.5 z m -45,-9 v -9 h -4.5 -4.5 v -4.5 -4.5 h 4.5 4.5 v 4.5 4.5 h 4.5 4.5 v 4.5 4.5 h 4.5 4.5 v 4.5 4.5 h -9 -9 z m 63,-18 v -9 h 4.5 4.5 v 9 9 h -4.5 -4.5 z m -432,-9 v -9 h 4.5 4.5 v 9 9 h -4.5 -4.5 z m 36,0 v -9 h 4.5 4.5 v 9 9 h -4.5 -4.5 z m 144,-4.5 V 684 h 13.5 13.5 v 4.5 4.5 H 733.5 720 Z m 54,0 V 684 h 4.5 4.5 v -9 -9 h -4.5 -4.5 v 4.5 4.5 H 760.5 747 v -4.5 -4.5 h 9 9 V 661.5 657 H 751.5 738 v -4.5 -4.5 h 18 18 v -4.5 -4.5 h -9 -9 v -4.5 -4.5 h 27 27 V 625.5 621 H 796.5 783 V 616.5 612 H 769.5 756 v 4.5 4.5 h -27 -27 v -4.5 -4.5 h -9 -9 v -4.5 -4.5 h 94.5 94.5 v -4.5 -4.5 h -4.5 -4.5 v -4.5 -4.5 h -9 -9 v -4.5 -4.5 h -4.5 -4.5 v -4.5 -4.5 h -4.5 -4.5 v -4.5 -4.5 h -4.5 -4.5 v -4.5 -4.5 h 4.5 4.5 v -4.5 -4.5 h 4.5 4.5 v -4.5 -4.5 h 4.5 4.5 v 4.5 4.5 h 4.5 4.5 v 4.5 4.5 H 841.5 828 v 4.5 4.5 h 9 9 v 9 9 h 9 9 v 4.5 4.5 h 4.5 4.5 v 4.5 4.5 h 9 9 v 4.5 4.5 h 9 9 v -4.5 -4.5 h 4.5 4.5 v 4.5 4.5 h -4.5 -4.5 v 4.5 4.5 h -9 -9 v -4.5 -4.5 h -9 -9 v 4.5 4.5 H 859.5 846 v 9 9 h -18 -18 v 4.5 4.5 h 13.5 13.5 v 4.5 4.5 h -9 -9 v 4.5 4.5 h -9 -9 v 4.5 4.5 h 4.5 4.5 v 9 9 h -4.5 -4.5 v -4.5 -4.5 h -4.5 -4.5 v 9 9 h -9 -9 z m 18,-36 V 648 h -9 -9 v 4.5 4.5 h 9 9 z m 162,36 V 684 h 4.5 4.5 v 4.5 4.5 h -4.5 -4.5 z m -261,-9 V 675 h 4.5 4.5 v 4.5 4.5 h -4.5 -4.5 z m 279,0 V 675 h 4.5 4.5 v 4.5 4.5 h -4.5 -4.5 z m -297,-9 V 666 h 4.5 4.5 v 4.5 4.5 h -4.5 -4.5 z m -72,-18 V 639 h 4.5 4.5 v 4.5 4.5 h 4.5 4.5 v 4.5 4.5 h -4.5 -4.5 v 4.5 4.5 h -4.5 -4.5 z m 54,9 V 657 h -4.5 -4.5 v -4.5 -4.5 h 4.5 4.5 v 4.5 4.5 h 4.5 4.5 v 4.5 4.5 h -4.5 -4.5 z m 63,0 V 657 h 4.5 4.5 v 4.5 4.5 h -4.5 -4.5 z m 108,0 V 657 h 4.5 4.5 v 4.5 4.5 h -4.5 -4.5 z m -144,-18 V 639 h 9 9 v 4.5 4.5 h -9 -9 z m -45,-9 V 630 h 4.5 4.5 v 4.5 4.5 h -4.5 -4.5 z m 72,0 V 630 h 18 18 v 4.5 4.5 h -18 -18 z m -36,-9 V 621 h 4.5 4.5 v 4.5 4.5 h -4.5 -4.5 z m -90,-9 V 612 h 4.5 4.5 v 4.5 4.5 h -4.5 -4.5 z m 72,0 V 612 h -4.5 -4.5 v -4.5 -4.5 h 4.5 4.5 v 4.5 4.5 h 4.5 4.5 v 4.5 4.5 H 661.5 657 Z M 1026,603 v -9 h 13.5 13.5 v 4.5 4.5 h -9 -9 v 4.5 4.5 h -4.5 -4.5 z m -72,-4.5 V 594 h 4.5 4.5 v 4.5 4.5 h -4.5 -4.5 z m -270,-9 V 585 h 4.5 4.5 v 4.5 4.5 h -4.5 -4.5 z m 54,0 V 585 h -4.5 -4.5 v -4.5 -4.5 h 9 9 v 9 9 h -4.5 -4.5 z m 189,0 V 585 h 4.5 4.5 v 4.5 4.5 h -4.5 -4.5 z m 135,0 V 585 h 4.5 4.5 v 4.5 4.5 h -4.5 -4.5 z m -414,-9 V 576 h 4.5 4.5 v -9 -9 h 4.5 4.5 v 4.5 4.5 h 4.5 4.5 v 4.5 4.5 h -9 -9 v 4.5 4.5 h -4.5 -4.5 z m 243,0 V 576 h 4.5 4.5 v 4.5 4.5 h -4.5 -4.5 z m 54,0 V 576 h -4.5 -4.5 v -4.5 -4.5 h 27 27 v 4.5 4.5 h -18 -18 v 4.5 4.5 h -4.5 -4.5 z m -477,-9 V 567 h 4.5 4.5 v -4.5 -4.5 h 4.5 4.5 v 9 9 h -9 -9 z M 630,567 v -9 h 4.5 4.5 v 9 9 h -4.5 -4.5 z m 288,4.5 V 567 h 4.5 4.5 v 4.5 4.5 h -4.5 -4.5 z m 126,0 V 567 h -4.5 -4.5 v -4.5 -4.5 h 4.5 4.5 v 4.5 4.5 h 4.5 4.5 v -4.5 -4.5 h 4.5 4.5 v 4.5 4.5 h -4.5 -4.5 v 4.5 4.5 h -4.5 -4.5 z m 45,0 V 567 h -4.5 -4.5 v -4.5 -4.5 h 4.5 4.5 v 4.5 4.5 h 4.5 4.5 v 4.5 4.5 h -4.5 -4.5 z M 711,558 v -9 h -9 -9 v -9 -9 h 9 9 v 9 9 h 9 9 v 9 9 h -9 -9 z m 45,0 v -9 h 4.5 4.5 v 9 9 h -4.5 -4.5 z m 135,4.5 V 558 h 9 9 v 4.5 4.5 h -9 -9 z m 216,0 V 558 h 4.5 4.5 v -9 -9 h 4.5 4.5 v -4.5 -4.5 h -4.5 -4.5 v -9 -9 h 4.5 4.5 v -4.5 -4.5 h -4.5 -4.5 V 490.5 477 h 9 9 v -4.5 -4.5 h 13.5 13.5 v 4.5 4.5 h 4.5 4.5 v 18 18 h -4.5 -4.5 v 9 9 h -4.5 -4.5 v 4.5 4.5 h -13.5 -13.5 v 9 9 h -4.5 -4.5 v 4.5 4.5 h -4.5 -4.5 z m 27,-36 V 522 h -4.5 -4.5 v 4.5 4.5 h 4.5 4.5 z m 18,-9 V 513 h -4.5 -4.5 v 4.5 4.5 h 4.5 4.5 z m -9,-36 V 477 h -4.5 -4.5 v 4.5 4.5 h 4.5 4.5 z m -702,72 V 549 h 13.5 13.5 v -4.5 -4.5 h 4.5 4.5 v -9 -9 h -4.5 -4.5 v 4.5 4.5 h -4.5 -4.5 v 4.5 4.5 H 445.5 432 v -9 -9 h 9 9 v -4.5 -4.5 h -9 -9 v -4.5 -4.5 h 13.5 13.5 v 4.5 4.5 h 9 9 v 4.5 4.5 h 9 9 v 4.5 4.5 h -4.5 -4.5 v 9 9 h -9 -9 v 4.5 4.5 H 454.5 441 Z m 342,0 V 549 h 4.5 4.5 v 4.5 4.5 H 787.5 783 Z M 738,540 v -9 H 733.5 729 V 517.5 504 h 4.5 4.5 v 13.5 13.5 h 4.5 4.5 v 9 9 h -4.5 -4.5 z m 198,4.5 V 540 h 4.5 4.5 v -4.5 -4.5 h 4.5 4.5 v 4.5 4.5 h -4.5 -4.5 v 4.5 4.5 h -4.5 -4.5 z m 153,0 V 540 h 4.5 4.5 v 4.5 4.5 h -4.5 -4.5 z m -279,-9 V 531 h -4.5 -4.5 v -4.5 -4.5 h 4.5 4.5 v 4.5 4.5 h 4.5 4.5 v 4.5 4.5 h -4.5 -4.5 z m 81,0 V 531 h 9 9 v 4.5 4.5 h -9 -9 z m 72,-4.5 v -9 h -4.5 -4.5 v -4.5 -4.5 h 9 9 v 13.5 13.5 h -4.5 -4.5 z m 18,4.5 V 531 h 4.5 4.5 v -4.5 -4.5 h 4.5 4.5 v 4.5 4.5 h -4.5 -4.5 v 4.5 4.5 h -4.5 -4.5 z m 72,0 V 531 h 4.5 4.5 v 4.5 4.5 h -4.5 -4.5 z m -126,-9 V 522 h 4.5 4.5 v 4.5 4.5 h -4.5 -4.5 z m 153,0 V 522 h 4.5 4.5 v 4.5 4.5 h -4.5 -4.5 z m -297,-9 V 513 h 4.5 4.5 v 4.5 4.5 H 787.5 783 Z M 774,495 v -9 h 4.5 4.5 v 9 9 h -4.5 -4.5 z m 189,4.5 V 495 h 9 9 v 4.5 4.5 h -9 -9 z m -45,-9 V 486 h -4.5 -4.5 v -9 -9 h 4.5 4.5 v 9 9 h 4.5 4.5 v 4.5 4.5 h -4.5 -4.5 z m 27,0 V 486 h 4.5 4.5 v 4.5 4.5 h -4.5 -4.5 z m 27,-9 V 477 h 9 9 v -4.5 -4.5 h 4.5 4.5 v 4.5 4.5 h -4.5 -4.5 v 4.5 4.5 h -9 -9 z m -9,-18 V 459 h -9 -9 v -9 -9 h 4.5 4.5 v -9 -9 h 4.5 4.5 v 9 9 h -4.5 -4.5 v 4.5 4.5 h 13.5 13.5 v 4.5 4.5 h -4.5 -4.5 v 4.5 4.5 h -4.5 -4.5 z m 54,-18 V 441 h 4.5 4.5 v -4.5 -4.5 h 4.5 4.5 v 4.5 4.5 h -4.5 -4.5 v 4.5 4.5 h -4.5 -4.5 z m -153,-9 V 432 h 9 9 v 4.5 4.5 h -9 -9 z"
         id="path637" />
    </g>
  </g>
</svg>
